<?xml version="1.0" encoding="utf-8"?>
<!-- Generator: Adobe Illustrator 18.0.0, SVG Export Plug-In . SVG Version: 6.00 Build 0)  -->
<!DOCTYPE svg PUBLIC "-//W3C//DTD SVG 1.1//EN" "http://www.w3.org/Graphics/SVG/1.1/DTD/svg11.dtd">
<svg version="1.1" id="Layer_1" xmlns="http://www.w3.org/2000/svg" xmlns:xlink="http://www.w3.org/1999/xlink" x="0px" y="0px"
	 viewBox="0 0 40 40" enable-background="new 0 0 40 40" xml:space="preserve">
<path d="M19.2,27h1.5c0,0,0.5,0,0.6-0.3c0.3-0.3,0.3-0.6,0.3-0.6s0-2,0.9-2.3s2,1.9,3.3,2.8c0.9,0.6,1.6,0.5,1.6,0.5
	h3.3c0,0,1.8-0.1,0.9-1.5c-0.1-0.1-0.5-1-2.4-2.9c-2-1.9-1.8-1.6,0.8-4.9c1.5-2,2.1-3.3,1.9-3.8c-0.1-0.5-1.3-0.4-1.3-0.4h-3.8
	c0,0-0.3,0-0.5,0.1c-0.3,0.1-0.4,0.4-0.4,0.4s-0.6,1.5-1.4,2.9c-1.6,2.8-2.2,3-2.6,2.8c-0.6-0.4-0.5-1.6-0.5-2.5
	c0-2.8,0.4-3.9-0.8-4.1c-0.4-0.1-0.8-0.1-1.8-0.1c-1.4,0-2.4,0-3,0.4c-0.4,0.3-0.8,0.6-0.5,0.8c0.3,0,0.8,0.1,1.1,0.5
	c0.4,0.5,0.4,1.6,0.4,1.6s0.3,3.1-0.5,3.6c-0.5,0.3-1.1-0.3-2.6-2.9c-0.8-1.3-1.4-2.7-1.4-2.7s-0.1-0.3-0.2-0.4
	c-0.3-0.1-0.6-0.2-0.6-0.2H7.9c0,0-0.5,0-0.8,0.2c-0.1,0.3,0,0.6,0,0.6s2.8,6.5,5.9,9.7C15.9,27.1,19.2,27,19.2,27L19.2,27z"/>
<g>
	<path d="M38,2v36H2V2H38 M40,0H0v40h40V0L40,0z"/>
</g>
</svg>
