<?xml version="1.0" encoding="utf-8"?>
<!-- Generator: Adobe Illustrator 18.1.1, SVG Export Plug-In . SVG Version: 6.00 Build 0)  -->
<svg version="1.1" id="Layer_1" xmlns="http://www.w3.org/2000/svg" xmlns:xlink="http://www.w3.org/1999/xlink" x="0px" y="0px"
	 width="250px" height="250px" viewBox="35 0 250 250" enable-background="new 35 0 250 250" xml:space="preserve">
<g>
	<path d="M272.5,12.5v225h-225v-225H272.5 M285,0H35v250h250V0L285,0z"/>
</g>
<g id="XMLID_822_">
	<path id="XMLID_823_" d="M232.5,79.2c-5.7-6.7-16.1-9.5-36.2-9.5h-72.6c-20.5,0-31.1,2.9-36.8,10.1c-5.5,7-5.5,17.3-5.5,31.6v27.2
		c0,27.7,6.5,41.7,42.3,41.7h72.6c17.3,0,27-2.4,33.2-8.4c6.4-6.1,9.1-16.1,9.1-33.3v-27.2C238.6,96.3,238.2,86,232.5,79.2z
		 M182.3,128.8l-33,17.2c-0.7,0.4-1.5,0.6-2.3,0.6c-0.9,0-1.8-0.2-2.6-0.7c-1.5-0.9-2.4-2.6-2.4-4.3v-34.4c0-1.8,0.9-3.4,2.4-4.3
		c1.5-0.9,3.4-1,5-0.2l33,17.1c1.7,0.9,2.7,2.6,2.7,4.5C185,126.1,184,127.9,182.3,128.8z"/>
</g>
</svg>
