<!-- Generator: Adobe Illustrator 18.1.1, SVG Export Plug-In  -->
<svg version="1.1"
   xmlns="http://www.w3.org/2000/svg" xmlns:xlink="http://www.w3.org/1999/xlink" xmlns:a="http://ns.adobe.com/AdobeSVGViewerExtensions/3.0/"
   x="0px" y="0px" width="208px" height="46.1px" viewBox="0 0 208 46.1" enable-background="new 0 0 208 46.1" xml:space="preserve"
  >
<defs>
</defs>
<g>
  <g>
    <g>
      <polygon fill="#FFFFFF" points="88.9,7.5 90.1,7.5 93.6,0 96.1,0 92,8.6 96.7,18.6 94.2,18.6 90.1,9.7 88.9,9.7 88.9,18.6 
        86.6,18.6 86.6,3 87.6,2.4 87.6,2.3 85.3,2.3 85.3,0 88.9,0       "/>
      <path fill="#FFFFFF" d="M104.3,2.3h-0.5l-1.4,9.3h3.2L104.3,2.3z M100.4,0h5.8l2.8,18.6h-2.3l-0.7-4.8h-3.9l-0.7,4.8h-2.3
        L101.4,3l0.9-0.6V2.3h-1.9V0z"/>
      <path fill="#FFFFFF" d="M118.2,10.2l1.5-1.6V3.8l-1.5-1.5h-2.7v8H118.2z M122,2.8v6.7l-2.9,3h-3.6v6.1h-2.3V2.9l0.9-0.6V2.2h-2.3
        V0h7.2L122,2.8z"/>
      <polygon fill="#FFFFFF" points="125.2,2.1 125.2,0 135.2,0 135.2,18.6 132.9,18.6 132.9,2.2 128.7,2.2 128.7,18.6 126.5,18.6 
        126.5,2.8 127.4,2.3 127.4,2.1       "/>
      <path fill="#FFFFFF" d="M144.4,2.3h-0.5l-1.4,9.3h3.2L144.4,2.3z M140.5,0h5.8l2.8,18.6h-2.3l-0.7-4.8h-3.9l-0.7,4.8h-2.3
        L141.5,3l0.9-0.6V2.3h-1.9V0z"/>
      <polygon fill="#FFFFFF" points="154.8,2 152.7,2 152.6,4 150.8,4 150.8,0 161,0 161,4 159.2,4 159.1,2 157,2 157,18.7 
        154.8,18.7      "/>
      <polygon fill="#FFFFFF" points="170.7,3.7 169.2,2.3 167.6,2.3 166.2,3.7 166.2,15.1 167.6,16.7 169.2,16.7 170.7,15.1 170.7,13 
        172.9,13 172.9,15.9 170.2,18.9 166.7,18.9 164,15.9 164,2.8 166.7,0 170.2,0 172.9,2.8 172.9,5.6 170.7,5.6      "/>
      <path fill="#FFFFFF" d="M178.5,8.4v8h2.7l1.5-1.5V10l-1.5-1.6H178.5z M182,18.6h-5.8V0h2.3v6.1h3.6l2.9,3v6.7L182,18.6z"/>
      <polygon fill="#FFFFFF" points="191.6,7.5 192.8,7.5 196.4,0 198.9,0 194.8,8.6 199.5,18.6 197,18.6 192.8,9.7 191.6,9.7 
        191.6,18.6 189.4,18.6 189.4,3 190.3,2.4 190.3,2.3 188,2.3 188,0 191.6,0       "/>
      <polygon fill="#FFFFFF" points="201.9,0 201.9,2.1 204.7,2.1 204.7,2.2 203.7,2.8 203.7,16.6 201.7,16.6 201.7,18.7 208,18.7 
        208,16.6 206,16.6 206,2.1 207.7,2.1 207.7,0       "/>
    </g>
    <g>
      <path fill="#FFFFFF" d="M88.9,37.8h2.6l1.6,1.6v3l-1.4,1.4h-2.7V37.8z M88.9,29.8h2.2l1.4,1.4v2.7l-1.3,1.6h-2.4V29.8z
         M85.3,27.4v2.3h2.3v0.2l-0.9,0.6v15.5h6l2.8-2.8v-5l-1.9-1.8l1.4-1.6v-4.6l-2.8-2.8H85.3z"/>
      <polygon fill="#FFFFFF" points="98.6,27.4 98.6,29.5 101.4,29.5 101.4,29.6 100.4,30.2 100.4,44 98.4,44 98.4,46.1 104.7,46.1 
        104.7,44 102.7,44 102.7,29.5 104.4,29.5 104.4,27.4      "/>
      <polygon fill="#FFFFFF" points="116.3,27.5 112.7,35 111.6,35 111.6,27.5 107.9,27.5 107.9,29.7 110.2,29.7 110.2,29.9 
        109.3,30.5 109.3,46.1 111.6,46.1 111.6,37.2 112.7,37.2 116.9,46.1 119.4,46.1 114.7,36.1 118.8,27.5      "/>
      <polygon fill="#FFFFFF" points="129.7,27.5 129.7,35.7 125.5,35.7 125.5,27.5 121.9,27.5 121.9,29.7 124.2,29.7 124.2,29.9 
        123.3,30.5 123.3,46.1 125.5,46.1 125.5,37.8 129.7,37.8 129.7,46.1 132,46.1 132,27.5       "/>
      <path fill="#FFFFFF" d="M140.2,29.7h0.5l1.4,9.3h-3.2L140.2,29.7z M136.8,27.4v2.3h1.9v0.2l-0.9,0.6l-2.3,15.6h2.3l0.7-4.8h3.9
        l0.7,4.8h2.3l-2.8-18.6H136.8z"/>
    </g>
  </g>
  <g>
    <polygon fill="#FFFFFF" points="37.5,2.2 2.2,46 9.2,46 37.5,11 65.8,46 72.8,46    "/>
    <polygon fill="#FFFFFF" points="37.5,17.1 14.2,46 24,46 37.5,29.2 51,46 60.8,46     "/>
    <polygon fill="#FFFFFF" points="37.5,34.6 28.3,46 46.7,46     "/>
    <polygon fill="#FFFFFF" points="0,0 0,0.1 0,2.3 0,46 2.3,46 2.3,2.3 72.8,2.3 72.8,46 75,46 75,2.3 75,0.1 75,0     "/>
  </g>
</g>
</svg>
