<?xml version="1.0" encoding="utf-8"?>
<!-- Generator: Adobe Illustrator 18.0.0, SVG Export Plug-In . SVG Version: 6.00 Build 0)  -->
<!DOCTYPE svg PUBLIC "-//W3C//DTD SVG 1.1//EN" "http://www.w3.org/Graphics/SVG/1.1/DTD/svg11.dtd">
<svg version="1.1" id="Layer_1" xmlns="http://www.w3.org/2000/svg" xmlns:xlink="http://www.w3.org/1999/xlink" x="0px" y="0px"
	 viewBox="0 0 120 120" enable-background="new 0 0 120 120" xml:space="preserve">
<g>
	<g>
		<g>
			<polygon points="72.8,0 72.8,14 75.4,14 80.2,0 			"/>
		</g>
		<g>
			<polygon points="72.8,21.6 75,15.2 72.8,15.2 			"/>
		</g>
		<g>
			<polygon points="49.7,89.5 54.5,75.5 39.4,75.5 39.4,89.5 			"/>
		</g>
		<g>
			<polygon points="44.6,104.8 49.4,90.7 39.4,90.7 39.4,104.8 			"/>
		</g>
		<g>
			<polygon points="39.4,105.9 39.4,119.9 44.2,105.9 			"/>
		</g>
		<g>
			<g>
				<rect x="39.4" y="0" width="15.8" height="14"/>
			</g>
			<g>
				<rect x="56.5" y="0" width="14.9" height="14"/>
			</g>
		</g>
		<g>
			<polygon points="38.6,13.9 38.6,0.2 23.1,10.7 23,21 			"/>
		</g>
		<g>
			<polygon points="38.6,29.5 38.6,15.2 23,22.3 23,34.6 			"/>
		</g>
		<g>
			<polygon points="38.5,44.7 38.6,30.7 23,35.8 23,46.7 			"/>
		</g>
		<g>
			<polygon points="38.5,59.3 38.5,45.9 23,47.9 23,59.3 			"/>
		</g>
		<g>
			<polygon points="38.5,74.2 38.5,60.5 23,60.5 23,72.5 			"/>
		</g>
		<g>
			<polygon points="38.5,89.7 38.5,75.4 23,73.6 23,86.4 			"/>
		</g>
		<g>
			<g>
				<g>
					<polygon points="38.5,104.6 38.5,90.9 23,87.5 23,99 					"/>
				</g>
			</g>
			<g>
				<g>
					<polygon points="23,100.2 23,111 38.4,120 38.5,105.8 					"/>
				</g>
			</g>
		</g>
		<g>
			<g>
				<polygon points="56.6,69.4 59.6,60.4 56.6,60.4 				"/>
			</g>
			<g>
				<polygon points="55.3,60.4 39.4,60.4 39.4,74.4 54.9,74.4 55.3,73.1 				"/>
			</g>
		</g>
		<g>
			<g>
				<rect x="39.4" y="45.7" width="15.9" height="13.5"/>
			</g>
			<g>
				<polygon points="56.6,45.7 56.6,59.2 60,59.2 64.6,45.7 				"/>
			</g>
		</g>
		<g>
			<g>
				<polygon points="56.6,30.5 56.6,44.6 65,44.6 69.8,30.5 				"/>
			</g>
			<g>
				<rect x="39.4" y="30.5" width="15.9" height="14.1"/>
			</g>
		</g>
		<g>
			<g>
				<rect x="39.4" y="15.2" width="15.8" height="14.2"/>
			</g>
			<g>
				<polygon points="56.5,15.2 56.5,29.3 70.2,29.3 71.5,25.4 71.5,15.2 				"/>
			</g>
		</g>
		<g>
			<polygon points="75,15.3 61.7,53.4 69.8,76.5 56.6,76.5 51.2,92.1 75.2,92.1 78.3,100.8 104.7,100.8 			"/>
		</g>
	</g>
</g>
</svg>
