<!-- Generator: Adobe Illustrator 18.1.1, SVG Export Plug-In  -->
<svg version="1.1"
   xmlns="http://www.w3.org/2000/svg" xmlns:xlink="http://www.w3.org/1999/xlink" xmlns:a="http://ns.adobe.com/AdobeSVGViewerExtensions/3.0/"
   x="0px" y="0px" width="155.8px" height="52.8px" viewBox="0 0 155.8 52.8" enable-background="new 0 0 155.8 52.8"
   xml:space="preserve">
<defs>
</defs>
<g>
  <g>
    <path fill="#F5F5F5" d="M35.4,10.4h6.4v24.4c0,2.9,0.6,3.8,3.2,3.8v5.8c-7.5,0-9.7-2.1-9.7-9.5V10.4z"/>
  </g>
  <g>
    <path fill="#F5F5F5" d="M61.3,15.3c-4.3-0.7-6.7,1.1-6.7,4v1.4h6v5.6h-6v18.2h-6.4V19.3c0-5.9,4.6-10.3,13.2-9.3V15.3z"/>
  </g>
  <g>
    <path fill="#F5F5F5" d="M62.8,27.3c-0.4-6.5,3.3-9.1,9.9-9.1c7.2,0,10.4,3.4,10.4,10.1v16h-5.3l-0.6-3c-1.6,2-4.2,3.3-7.3,3.3
      c-4.6,0-8-2.5-8-7.4c0-6.1,5.5-8.5,15-7.9c0-3.9-0.8-5.8-4.2-5.8c-2.8,0-3.9,0.9-3.8,3.7H62.8z M68.1,36.9c0,1.7,1.6,2.3,3.8,2.3
      c3.8,0,4.8-2.6,5.1-5.2C70.4,33.4,68.1,34.8,68.1,36.9z"/>
  </g>
  <g>
    <g>
      <path fill="#F5F5F5" d="M85.7,34.3V10.4h6.4v10c1.4-1.6,3.9-2.3,6.1-2.3c6,0,8.9,3.6,8.9,9.2v7c0,7.2-3.8,10.2-10.8,10.2
        C89.3,44.5,85.7,41.5,85.7,34.3z M92.1,28v6.2c0,3.1,0.9,4.9,4.2,4.9c2.5,0,4.3-1.2,4.3-5V28c0-3.2-1.5-4.3-4.2-4.4
        C93.7,23.7,92.1,25.1,92.1,28z"/>
    </g>
  </g>
  <g>
    <g>
      <path fill="#F5F5F5" d="M131.2,44.3h-5.7l-0.3-2.6c-1.7,1.9-4.2,2.8-6.5,2.8c-4.6,0-9-2.2-9-10.1v-16h6.4v16
        c0,3.3,1.5,4.7,4.2,4.7c2.5,0,4.5-1.1,4.5-4.5V18.3h6.6V44.3z"/>
    </g>
  </g>
  <g>
    <g>
      <path fill="#F5F5F5" d="M150.5,44.4l-0.5-2.9c-1.1,1.9-3.4,3-6.5,3c-5.5,0-9.1-2.8-9.1-10v-6.7c0-6.1,3.1-9.7,9.3-9.7
        c2.3,0,4.6,0.6,5.7,2.3v-9.9h6.4v33.9H150.5z M140.8,28v6.1c0,3.7,1.6,5,4.2,5c3.2,0,4.4-2.2,4.4-5.2V28c0-3.1-1.6-4.3-4.2-4.3
        C142.4,23.7,140.8,24.9,140.8,28z"/>
    </g>
  </g>
  <g>
    <polygon fill="#F5F5F5" points="21.7,0 21.7,6.1 22.9,6.1 25,0     "/>
  </g>
  <g>
    <polygon fill="#F5F5F5" points="21.8,9.4 22.7,6.6 21.8,6.6    "/>
  </g>
  <g>
    <polygon fill="#F5F5F5" points="11.7,39.1 13.8,33 7.2,33 7.2,39.1     "/>
  </g>
  <g>
    <polygon fill="#F5F5F5" points="9.4,45.8 11.5,39.6 7.2,39.6 7.2,45.8    "/>
  </g>
  <g>
    <polygon fill="#F5F5F5" points="7.2,46.2 7.2,52.4 9.3,46.2    "/>
  </g>
  <g>
    <g>
      <rect x="7.2" y="0" fill="#F5F5F5" width="6.9" height="6.1"/>
    </g>
    <g>
      <rect x="14.6" y="0" fill="#F5F5F5" width="6.5" height="6.1"/>
    </g>
  </g>
  <g>
    <polygon fill="#F5F5F5" points="6.8,6.1 6.8,0.1 0,4.7 0,9.2     "/>
  </g>
  <g>
    <polygon fill="#F5F5F5" points="6.8,12.9 6.8,6.6 0,9.7 0,15.1     "/>
  </g>
  <g>
    <polygon fill="#F5F5F5" points="6.8,19.5 6.8,13.4 0,15.6 0,20.4     "/>
  </g>
  <g>
    <polygon fill="#F5F5F5" points="6.8,25.9 6.8,20 0,20.9 0,25.9     "/>
  </g>
  <g>
    <polygon fill="#F5F5F5" points="6.8,32.4 6.8,26.4 0,26.4 0,31.7     "/>
  </g>
  <g>
    <polygon fill="#F5F5F5" points="6.8,39.2 6.8,32.9 0,32.2 0,37.7     "/>
  </g>
  <g>
    <g>
      <g>
        <polygon fill="#F5F5F5" points="6.7,45.7 6.8,39.7 0,38.2 0,43.2         "/>
      </g>
    </g>
    <g>
      <g>
        <polygon fill="#F5F5F5" points="0,43.8 0,48.5 6.7,52.4 6.7,46.2         "/>
      </g>
    </g>
  </g>
  <g>
    <g>
      <polygon fill="#F5F5F5" points="14.7,30.3 16,26.4 14.7,26.4       "/>
    </g>
    <g>
      <polygon fill="#F5F5F5" points="14.1,26.4 7.2,26.4 7.2,32.5 13.9,32.5 14.1,31.9       "/>
    </g>
  </g>
  <g>
    <g>
      <rect x="7.2" y="20" fill="#F5F5F5" width="6.9" height="5.9"/>
    </g>
    <g>
      <polygon fill="#F5F5F5" points="14.7,20 14.7,25.9 16.2,25.9 18.2,20       "/>
    </g>
  </g>
  <g>
    <g>
      <polygon fill="#F5F5F5" points="14.7,13.3 14.7,19.5 18.3,19.5 20.4,13.3       "/>
    </g>
    <g>
      <rect x="7.2" y="13.3" fill="#F5F5F5" width="6.9" height="6.2"/>
    </g>
  </g>
  <g>
    <g>
      <rect x="7.2" y="6.6" fill="#F5F5F5" width="6.9" height="6.2"/>
    </g>
    <g>
      <polygon fill="#F5F5F5" points="14.6,6.6 14.6,12.8 20.6,12.8 21.2,11.1 21.2,6.6       "/>
    </g>
  </g>
  <g>
    <polygon fill="#F5F5F5" points="22.7,6.7 16.9,23.3 20.4,33.4 14.7,33.4 12.3,40.2 22.8,40.2 24.1,44 35.7,44    "/>
  </g>
  <g>
    <path fill="#F5F5F5" d="M9.5,47.7h3.3v0.8h-2.3v1h1c0.5,0,0.9,0.1,1.2,0.2c0.3,0.1,0.5,0.3,0.7,0.5c0.1,0.2,0.2,0.4,0.2,0.7
      c0,0.2,0,0.4-0.1,0.6c-0.1,0.2-0.2,0.3-0.4,0.5c-0.2,0.1-0.4,0.2-0.6,0.2c-0.2,0-0.5,0.1-0.8,0.1H9.5V47.7z M10.6,50.3v1.2h1
      c0.3,0,0.5,0,0.6-0.1c0.1,0,0.2-0.1,0.3-0.2c0.1-0.1,0.1-0.2,0.1-0.4c0-0.2,0-0.3-0.1-0.4c-0.1-0.1-0.2-0.1-0.3-0.2
      c-0.1,0-0.3-0.1-0.6-0.1H10.6z"/>
    <path fill="#F5F5F5" d="M18.4,47.7l-2.3,4.6H15l0.8-1.5l-1.5-3.1h1.2l0.9,2l0.9-2H18.4z"/>
    <path fill="#F5F5F5" d="M19.5,51.4v-2.6c0-0.4,0.2-0.7,0.5-0.9c0.1-0.1,0.3-0.2,0.5-0.2c0.2,0,0.4-0.1,0.8-0.1h2.1v3.7h0.5v0.8H19
      v-0.8H19.5z M20.5,51.4h1.8v-2.9h-1c-0.2,0-0.3,0-0.5,0c-0.1,0-0.2,0.1-0.3,0.2c-0.1,0.1-0.1,0.2-0.1,0.3V51.4z"/>
    <path fill="#F5F5F5" d="M24.6,46.4h1v0.9h-1V46.4z M24.6,47.7h1v4.6h-1V47.7z"/>
    <path fill="#F5F5F5" d="M26.9,47.7h2.2c0.3,0,0.6,0,0.8,0.1c0.2,0,0.3,0.1,0.5,0.2c0.3,0.2,0.5,0.5,0.5,0.9c0,0.2,0,0.4-0.1,0.6
      c-0.1,0.2-0.2,0.3-0.4,0.4c0.2,0.1,0.3,0.1,0.4,0.2c0.1,0.1,0.2,0.2,0.2,0.3c0.1,0.1,0.1,0.3,0.1,0.5c0,0.2,0,0.4-0.1,0.6
      c-0.1,0.2-0.2,0.3-0.4,0.5c-0.2,0.1-0.4,0.2-0.6,0.2c-0.2,0-0.5,0.1-0.8,0.1h-2.2V47.7z M27.9,48.5v1h1c0.3,0,0.5,0,0.6-0.1
      c0.1-0.1,0.2-0.2,0.2-0.4c0-0.2-0.1-0.3-0.2-0.4c-0.1-0.1-0.3-0.1-0.6-0.1H27.9z M27.9,50.3v1.2h1c0.3,0,0.5,0,0.6-0.1
      c0.1,0,0.2-0.1,0.3-0.2c0.1-0.1,0.1-0.2,0.1-0.4c0-0.2,0-0.3-0.1-0.4c-0.1-0.1-0.2-0.1-0.3-0.2c-0.1,0-0.3-0.1-0.6-0.1H27.9z"/>
    <path fill="#F5F5F5" d="M31.9,47.7h1v1.8h2v-1.8h1v4.6h-1v-2h-2v2h-1V47.7z"/>
    <path fill="#F5F5F5" d="M41.2,52.3h-1v-3.2l-2.1,3.2h-1v-4.6h1v3.2l2.1-3.2h1V52.3z"/>
    <path fill="#F5F5F5" d="M46.9,52.3h-4.7v-4.6h1v3.7h2v-3.7h1v3.7h0.6V52.3z"/>
    <path fill="#F5F5F5" d="M47.5,47.7h4v0.8h-1.5v3.7h-1v-3.7h-1.5V47.7z"/>
    <path fill="#F5F5F5" d="M52.5,47.7h2.2c0.3,0,0.6,0,0.8,0.1c0.2,0,0.3,0.1,0.5,0.2c0.3,0.2,0.5,0.5,0.5,0.9c0,0.2,0,0.4-0.1,0.6
      c-0.1,0.2-0.2,0.3-0.4,0.4c0.2,0.1,0.3,0.1,0.4,0.2c0.1,0.1,0.2,0.2,0.2,0.3c0.1,0.1,0.1,0.3,0.1,0.5c0,0.2,0,0.4-0.1,0.6
      c-0.1,0.2-0.2,0.3-0.4,0.5c-0.2,0.1-0.4,0.2-0.6,0.2c-0.2,0-0.5,0.1-0.8,0.1h-2.2V47.7z M53.6,48.5v1h1c0.3,0,0.5,0,0.6-0.1
      c0.1-0.1,0.2-0.2,0.2-0.4c0-0.2-0.1-0.3-0.2-0.4c-0.1-0.1-0.3-0.1-0.6-0.1H53.6z M53.6,50.3v1.2h1c0.3,0,0.5,0,0.6-0.1
      c0.1,0,0.2-0.1,0.3-0.2c0.1-0.1,0.1-0.2,0.1-0.4c0-0.2,0-0.3-0.1-0.4c-0.1-0.1-0.2-0.1-0.3-0.2c-0.1,0-0.3-0.1-0.6-0.1H53.6z"/>
    <path fill="#F5F5F5" d="M57.4,50c0-0.5,0.1-0.9,0.3-1.3c0.2-0.4,0.5-0.6,0.9-0.8c0.4-0.2,0.8-0.3,1.3-0.3c0.4,0,0.7,0.1,1,0.2
      c0.3,0.1,0.5,0.3,0.7,0.5c0.2,0.2,0.4,0.4,0.5,0.7c0.1,0.3,0.2,0.6,0.2,0.9c0,0.4-0.1,0.7-0.2,1c-0.1,0.3-0.3,0.6-0.5,0.8
      c-0.2,0.2-0.5,0.4-0.8,0.5c-0.3,0.1-0.6,0.2-1,0.2c-0.4,0-0.7-0.1-1-0.2c-0.3-0.1-0.6-0.3-0.8-0.5c-0.2-0.2-0.4-0.5-0.5-0.7
      C57.4,50.7,57.4,50.3,57.4,50z M58.4,49.9c0,0.4,0.1,0.8,0.3,1.1c0.2,0.3,0.5,0.5,1,0.5c0.3,0,0.5-0.1,0.7-0.2
      c0.2-0.1,0.4-0.3,0.5-0.6c0.1-0.2,0.2-0.5,0.2-0.8c0-0.3-0.1-0.6-0.2-0.8c-0.1-0.2-0.3-0.4-0.5-0.5c-0.2-0.1-0.4-0.2-0.7-0.2
      c-0.2,0-0.4,0-0.5,0.1c-0.2,0.1-0.3,0.2-0.4,0.3c-0.1,0.1-0.2,0.3-0.3,0.5C58.5,49.5,58.5,49.7,58.4,49.9z"/>
    <path fill="#F5F5F5" d="M64.8,52.3l1.8-4.6h1.2l1.8,4.6h-1.1l-0.4-1h-1.8l-0.3,1H64.8z M66.5,50.5h1.3l-0.6-1.8L66.5,50.5z"/>
    <path fill="#F5F5F5" d="M70.4,48.9c0-0.2,0.1-0.4,0.2-0.6c0.1-0.2,0.3-0.3,0.6-0.4c0.3-0.1,0.6-0.2,0.9-0.2h2.4v4.6h-1v-3.8h-1.2
      c-0.5,0-0.8,0.2-0.8,0.5v3.2h-1V48.9z"/>
    <path fill="#F5F5F5" d="M77.4,50.3h-0.7v2h-1v-4.6h1v1.8h0.7c0.1-0.3,0.2-0.5,0.3-0.8c0.1-0.2,0.3-0.4,0.5-0.6
      c0.2-0.2,0.4-0.3,0.7-0.4c0.3-0.1,0.6-0.1,0.9-0.1c0.4,0,0.7,0.1,1,0.2c0.3,0.1,0.5,0.3,0.8,0.5c0.2,0.2,0.4,0.4,0.5,0.7
      c0.1,0.3,0.2,0.6,0.2,0.9c0,0.4-0.1,0.7-0.2,1c-0.1,0.3-0.3,0.6-0.5,0.8c-0.2,0.2-0.5,0.4-0.8,0.5c-0.3,0.1-0.6,0.2-1,0.2
      c-0.3,0-0.6,0-0.9-0.1c-0.3-0.1-0.5-0.2-0.7-0.4c-0.2-0.2-0.4-0.4-0.5-0.6C77.5,50.9,77.4,50.6,77.4,50.3z M78.4,49.9
      c0,0.4,0.1,0.8,0.3,1.1c0.2,0.3,0.5,0.5,1,0.5c0.3,0,0.5-0.1,0.7-0.2c0.2-0.1,0.4-0.3,0.5-0.6c0.1-0.2,0.2-0.5,0.2-0.8
      c0-0.3-0.1-0.6-0.2-0.8c-0.1-0.2-0.3-0.4-0.5-0.5c-0.2-0.1-0.4-0.2-0.7-0.2c-0.3,0-0.5,0.1-0.7,0.2c-0.2,0.1-0.4,0.3-0.5,0.5
      C78.5,49.4,78.5,49.6,78.4,49.9z"/>
    <path fill="#F5F5F5" d="M83.2,47.7h1.6l0.6,2.6c0,0.1,0.1,0.2,0.1,0.4c0,0.2,0.1,0.3,0.1,0.5c0-0.1,0-0.2,0.1-0.4
      c0-0.2,0.1-0.3,0.1-0.5l0.7-2.6H88v4.6h-1v-3.8l-0.9,3.8h-1l-0.9-3.8v3.8h-1V47.7z"/>
    <path fill="#F5F5F5" d="M89.2,46.4h1v0.9h-1V46.4z M89.2,47.7h1v4.6h-1V47.7z"/>
    <path fill="#F5F5F5" d="M91.5,47.7h1v1.8h2v-1.8h1v4.6h-1v-2h-2v2h-1V47.7z"/>
    <path fill="#F5F5F5" d="M96.6,46.4h1v0.9h-1V46.4z M96.6,47.7h1v4.6h-1V47.7z"/>
    <path fill="#F5F5F5" d="M101.7,50.3h-1.6c0,0.4,0.2,0.7,0.4,0.9c0.2,0.2,0.5,0.3,0.8,0.3c0.3,0,0.5-0.1,0.7-0.2
      c0.2-0.1,0.3-0.4,0.4-0.6h1c0,0.2-0.1,0.4-0.1,0.5c-0.1,0.1-0.1,0.3-0.3,0.4c-0.1,0.2-0.3,0.3-0.5,0.4c-0.2,0.1-0.4,0.2-0.6,0.3
      c-0.2,0.1-0.4,0.1-0.7,0.1c-0.4,0-0.7-0.1-1-0.2c-0.3-0.1-0.5-0.3-0.7-0.5c-0.2-0.2-0.4-0.5-0.5-0.7c-0.1-0.3-0.2-0.6-0.2-1
      c0-0.5,0.1-0.9,0.3-1.3c0.2-0.4,0.4-0.6,0.8-0.8c0.3-0.2,0.7-0.3,1.2-0.3c0.3,0,0.6,0,0.8,0.1c0.3,0.1,0.5,0.2,0.7,0.3
      c0.2,0.1,0.3,0.3,0.5,0.5c0.1,0.2,0.2,0.4,0.2,0.7h-1c-0.1-0.3-0.2-0.5-0.4-0.6c-0.2-0.1-0.4-0.2-0.7-0.2c-0.3,0-0.6,0.1-0.7,0.3
      c-0.2,0.2-0.3,0.4-0.4,0.8h1.5V50.3z"/>
    <path fill="#F5F5F5" d="M104.4,47.7h2.2c0.3,0,0.6,0,0.8,0.1c0.2,0,0.3,0.1,0.5,0.2c0.3,0.2,0.5,0.5,0.5,0.9c0,0.2,0,0.4-0.1,0.6
      c-0.1,0.2-0.2,0.3-0.4,0.4c0.2,0.1,0.3,0.1,0.4,0.2c0.1,0.1,0.2,0.2,0.2,0.3c0.1,0.1,0.1,0.3,0.1,0.5c0,0.2,0,0.4-0.1,0.6
      c-0.1,0.2-0.2,0.3-0.4,0.5c-0.2,0.1-0.4,0.2-0.6,0.2c-0.2,0-0.5,0.1-0.8,0.1h-2.2V47.7z M105.4,48.5v1h1c0.3,0,0.5,0,0.6-0.1
      c0.1-0.1,0.2-0.2,0.2-0.4c0-0.2-0.1-0.3-0.2-0.4c-0.1-0.1-0.3-0.1-0.6-0.1H105.4z M105.4,50.3v1.2h1c0.3,0,0.5,0,0.6-0.1
      c0.1,0,0.2-0.1,0.3-0.2c0.1-0.1,0.1-0.2,0.1-0.4c0-0.2,0-0.3-0.1-0.4c-0.1-0.1-0.2-0.1-0.3-0.2c-0.1,0-0.3-0.1-0.6-0.1H105.4z"/>
    <path fill="#F5F5F5" d="M113.5,52.3h-1v-3.2l-2.1,3.2h-1v-4.6h1v3.2l2.1-3.2h1V52.3z"/>
    <path fill="#F5F5F5" d="M114.2,52.3l1.6-2.3l-1.5-2.3h1.2l1,1.5l1-1.5h1.2l-1.5,2.2l1.6,2.4h-1.2l-1-1.7l-1,1.7H114.2z"/>
    <path fill="#F5F5F5" d="M124,47.2h1v0.4c0.4,0,0.7,0.1,1,0.2c0.3,0.1,0.6,0.3,0.8,0.5c0.2,0.2,0.4,0.5,0.5,0.8
      c0.1,0.3,0.2,0.6,0.2,1c0,0.3-0.1,0.7-0.2,0.9c-0.1,0.3-0.3,0.5-0.6,0.8c-0.2,0.2-0.5,0.4-0.8,0.5c-0.3,0.1-0.7,0.2-1,0.2v0.4h-1
      v-0.4c-0.5,0-0.9-0.1-1.3-0.3c-0.4-0.2-0.7-0.5-0.9-0.8c-0.2-0.4-0.3-0.8-0.3-1.2c0-0.5,0.1-0.9,0.3-1.3c0.2-0.4,0.5-0.7,0.9-0.9
      c0.4-0.2,0.8-0.3,1.3-0.3V47.2z M124,48.4c-0.2,0-0.4,0-0.6,0.1c-0.2,0.1-0.3,0.2-0.5,0.3c-0.1,0.1-0.3,0.3-0.3,0.5
      c-0.1,0.2-0.1,0.4-0.1,0.6c0,0.3,0.1,0.5,0.2,0.8c0.1,0.2,0.3,0.5,0.5,0.6c0.2,0.2,0.5,0.2,0.8,0.2V48.4z M125,48.4v3.1
      c0.2,0,0.5,0,0.7-0.1c0.2-0.1,0.4-0.2,0.5-0.4c0.1-0.2,0.2-0.3,0.3-0.5c0.1-0.2,0.1-0.4,0.1-0.6c0-0.2-0.1-0.4-0.1-0.6
      c-0.1-0.2-0.2-0.3-0.3-0.5c-0.1-0.1-0.3-0.2-0.5-0.3C125.4,48.5,125.2,48.4,125,48.4z"/>
    <path fill="#F5F5F5" d="M128.1,52.3l1.8-4.6h1.2l1.8,4.6h-1.1l-0.4-1h-1.8l-0.3,1H128.1z M129.9,50.5h1.3l-0.6-1.8L129.9,50.5z"/>
    <path fill="#F5F5F5" d="M137.9,49.2h-1c-0.1-0.3-0.2-0.5-0.4-0.6c-0.2-0.1-0.4-0.2-0.7-0.2c-0.3,0-0.5,0.1-0.7,0.2
      c-0.2,0.1-0.3,0.3-0.4,0.5c-0.1,0.2-0.2,0.5-0.2,0.9c0,0.3,0.1,0.6,0.2,0.8c0.1,0.2,0.2,0.4,0.4,0.5c0.2,0.1,0.4,0.2,0.7,0.2
      c0.3,0,0.5-0.1,0.7-0.2c0.2-0.1,0.3-0.4,0.4-0.6h1c0,0.2-0.1,0.4-0.1,0.5c-0.1,0.1-0.1,0.3-0.2,0.4c-0.1,0.2-0.3,0.3-0.5,0.4
      c-0.2,0.1-0.4,0.2-0.6,0.3c-0.2,0.1-0.4,0.1-0.7,0.1c-0.3,0-0.7-0.1-0.9-0.2c-0.3-0.1-0.5-0.3-0.7-0.5c-0.2-0.2-0.4-0.5-0.5-0.7
      c-0.1-0.3-0.2-0.6-0.2-1c0-0.4,0.1-0.7,0.2-1c0.1-0.3,0.3-0.6,0.5-0.8c0.2-0.2,0.4-0.4,0.7-0.5c0.3-0.1,0.6-0.2,1-0.2
      c0.3,0,0.6,0,0.8,0.1c0.2,0.1,0.5,0.2,0.6,0.3c0.2,0.1,0.3,0.3,0.4,0.5C137.8,48.8,137.9,49,137.9,49.2z"/>
    <path fill="#F5F5F5" d="M138.6,52.3l1.8-4.6h1.2l1.8,4.6h-1.1l-0.4-1H140l-0.3,1H138.6z M140.3,50.5h1.3l-0.6-1.8L140.3,50.5z"/>
    <path fill="#F5F5F5" d="M144.3,51.4v-2.6c0-0.4,0.2-0.7,0.5-0.9c0.1-0.1,0.3-0.2,0.5-0.2c0.2,0,0.4-0.1,0.8-0.1h2.1v3.7h0.5v0.8
      h-4.8v-0.8H144.3z M145.3,51.4h1.8v-2.9h-1c-0.2,0-0.3,0-0.5,0c-0.1,0-0.2,0.1-0.3,0.2c-0.1,0.1-0.1,0.2-0.1,0.3V51.4z"/>
    <path fill="#F5F5F5" d="M149.4,46.4h1v0.9h-1V46.4z M149.4,47.7h1v4.6h-1V47.7z"/>
    <path fill="#F5F5F5" d="M151.7,47.7h2.2c0.3,0,0.6,0,0.8,0.1c0.2,0,0.3,0.1,0.5,0.2c0.3,0.2,0.5,0.5,0.5,0.9c0,0.2,0,0.4-0.1,0.6
      c-0.1,0.2-0.2,0.3-0.4,0.4c0.2,0.1,0.3,0.1,0.4,0.2c0.1,0.1,0.2,0.2,0.2,0.3c0.1,0.1,0.1,0.3,0.1,0.5c0,0.2,0,0.4-0.1,0.6
      c-0.1,0.2-0.2,0.3-0.4,0.5c-0.2,0.1-0.4,0.2-0.6,0.2c-0.2,0-0.5,0.1-0.8,0.1h-2.2V47.7z M152.7,48.5v1h1c0.3,0,0.5,0,0.6-0.1
      c0.1-0.1,0.2-0.2,0.2-0.4c0-0.2-0.1-0.3-0.2-0.4c-0.1-0.1-0.3-0.1-0.6-0.1H152.7z M152.7,50.3v1.2h1c0.3,0,0.5,0,0.6-0.1
      c0.1,0,0.2-0.1,0.3-0.2c0.1-0.1,0.1-0.2,0.1-0.4c0-0.2,0-0.3-0.1-0.4c-0.1-0.1-0.2-0.1-0.3-0.2c-0.1,0-0.3-0.1-0.6-0.1H152.7z"/>
  </g>
</g>
</svg>
