<?xml version="1.0" encoding="utf-8"?>
<!-- Generator: Adobe Illustrator 18.0.0, SVG Export Plug-In . SVG Version: 6.00 Build 0)  -->
<!DOCTYPE svg PUBLIC "-//W3C//DTD SVG 1.1//EN" "http://www.w3.org/Graphics/SVG/1.1/DTD/svg11.dtd">
<svg version="1.1" id="Layer_1" xmlns="http://www.w3.org/2000/svg" xmlns:xlink="http://www.w3.org/1999/xlink" x="0px" y="0px"
	 viewBox="0 0 120 120" enable-background="new 0 0 120 120" xml:space="preserve">
<path d="M86.6,6c-1.9-2.8-8.1-2.3-11-2.4c-1-0.2-1.4-1-2.6-1c-2,0-4.2,0.8-5.8,2.1c-2.4,2-4.4,6.8-7.8,7
	c-3.8,0.3-7.5,1.1-11.1,2.4C49,12,54.6,9.7,56.4,9c0.3-0.1,5.7-2.4,3.6-2.4c-0.9,0-5.8,2.8-5.6,1c0-2.2,3.7-3.7,4.4-5.7
	c0.3-0.9-0.5-1.1-1.1-0.7c-1.2,0.8-2.1,2.4-2.9,3.6C49.8,12.5,54.3,0,53.1,0c-1.9,0-1.5,11.2-4,6.5c-0.1-0.1-2.2-4.7-2.6-2.9
	c-0.5,1.8,3.5,3.7,2.8,5.8c-0.3,1-3.7,2.2-4.6,2.8c-1.7,1.1-3.5,2.5-3.8,4.6c-0.3,3,6.2,2.7,8.3,2.9c-20.4,9.4-11.7,35.1,1,47
	c-5.1,1.7-4,5.7-1.1,9.1c0.2,0.2,2.6,2.3,2.3,2.8c-1.5,1.3-4-1.3-5.1-2.2c-0.6-0.5-3.8-3.8-4.6-2.3c-0.7,1.1,4,3.2,4.6,3.6
	c0.3,0.2,3.5,2.5,1.5,2.5c-2.3,0-4.8-1.4-6.9-2c-0.7-0.2-4.6-1.6-4.8,0c-0.2,1.1,3.1,1.6,3.7,1.7c2.1,0.5,4.3,0.7,6.4,1.1
	c3,0.6,1.6,1.3-0.4,1.8c-0.8,0.2-4.8,0.8-4.5,2.2c0.3,1,4.4-1.2,4.9-1.4c6.6-2.8,0.1,3.3,1.5,3.3c0.5,0,2.7-3,3.3-3.4
	c1.6-1.1,3.7-1.1,5.2-2.1c1.4-1-1-6.6-0.1-6.5c0.9,0.1,3.1,5.4,3.5,6.2c1,2.1,1.9,4.2,2.7,6.3c1.8,5.2,2.6,11,0.7,16.3
	c-1.5,4.1-4.5,7.4-8.1,9.8c-1.2,0.8-9.8,4.8-9.6,5.9c0.4,1.9,11.4-4.3,12.4-4.9c4.7-3.1,9.1-7.3,11.7-12.3c5.2-10,2.1-22.2-2.7-31.7
	c1.1,0.7,3.5,2.5,5,1.7c1.6-0.9,1.9-4.4,2.8-5.9c1.4-2.3,4.9-2.5,6.1-4.8c1.5-2.9-4.9,0.8-4.9,0.8c0-1.1,4-9.8,1.5-9.8
	c-2.6,0-1.7,7.9-3.4,8.9c-1.8-1,2-13.5-0.8-13.5c-3.1,0-0.3,12-1.2,13.6c-0.2-0.2-2.9-10.2-4.1-7.6c-1.1,2.5,4.8,9.2,2.7,11
	c-1.5-2.3-2.5-7.5-6.2-6.7c-2.6,0.6-2.1,1.1-3.8-1.2c-1-1.4-2.1-2.7-2.9-4.2c-3.8-6.7-3.1-14.5,2-20.3c-1.1,2-3,4.2-1.3,6.5
	c1.3,1.5,3.6,1.1,5.4,0.7c4.2-1,6.1-2.9,10.4-1.3c0.4,0.2,3.8,1.5,2.8-0.6c-0.2-0.5-5-2.1-3.1-2.6c1.1-0.3,5.5,0,5.5-1.8
	c-0.2-2.4-5.2,1.2-5.8,0.2c-0.5-0.7,2.9-3.3,3.2-3.6c1.7-1.6,1.5-4.4-0.8-2.1c-0.4,0.4-4.4,4.7-4.4,4.5c-0.1-0.5,2.7-5.4,0.8-5.4
	c-1.5,0-2.2,4.7-2.6,5.8c-0.9,2.1-2.3,1.2-4,2.1c1.5-3.3,3.8-6,4.8-9.5c0.8-2.7,0-2,2.7-2.6c1-0.2,2.1-0.5,3-0.9
	C79.7,20.4,90.2,11.4,86.6,6C86.5,5.8,87.6,7.5,86.6,6z M46.7,17.9c-1.2,1.5-6.2,0-4.5-1.9C44.2,13.8,48.1,16.6,46.7,17.9
	C46.6,18,46.9,17.7,46.7,17.9z M61.8,17c1.6,0,3.3,3.3,4.4,4.3c0.8,0.8-2.9,3.3-3.5,4C58.7,29.3,59.5,16.8,61.8,17
	C62.6,17,60.8,16.9,61.8,17z M47,48.5c-2.6-1.9-3.8-9,1.2-7.1c1.4,0.5,4.7,1.9,4.5,3.9C52.5,47.1,48.7,50,47,48.5
	C46.9,48.4,47.3,48.8,47,48.5z M52.5,38c-1.4,1.5-4.5,1.7-6.4,1.3c-2.8-0.6-1.9-4.3-1.3-6.3C46.9,26.4,54.1,36.2,52.5,38
	C52,38.5,52.6,37.8,52.5,38z M49.6,15.4c0.3-1.1,3.2-2.1,3.9-1.2C54.6,15.6,47.9,20,49.6,15.4C49.6,15.3,49.5,15.7,49.6,15.4z
	 M47.6,21.7c0.3-0.9,7.2-4.3,7.8-3.3c0.4,0.6-4.1,3.3-4.6,3.6C50.2,22.4,47.2,22.7,47.6,21.7C47.6,21.7,47.3,22.4,47.6,21.7z
	 M46.1,23.8c4.5-1.6-0.1,4.7-1.9,4.8C38.4,28.7,43.5,24.7,46.1,23.8C46.8,23.5,44.1,24.5,46.1,23.8z M38.1,34.4
	c0.8-1.8,2.7-3.7,4.6-4.2c1.5-0.4,0.3,3.2,0.1,3.8c-0.2,0.9-0.8,5.1-2,5.3C38.9,39.6,37.5,35.8,38.1,34.4
	C39.3,31.8,37.1,36.5,38.1,34.4z M38.5,46.4c-0.1-1.2,1.2-4.9,2.7-4.8c1.2,0,2.2,4.5,2.5,5.4C45.4,52.8,39.1,49.3,38.5,46.4
	C38.3,44.9,38.8,47.9,38.5,46.4z M46.2,58.9c-2.8,0.1-3.8-5.3-1.5-6.4C45.7,52.1,52.8,58.8,46.2,58.9C45.2,59,47.6,58.9,46.2,58.9z
	 M49.6,61.4c0.2-4.5,4.1,0.4,4.4,2.3c0.2,1-2.8,1.9-3.3,2C49.5,65.6,49.6,62.2,49.6,61.4C49.7,61.1,49.6,62.8,49.6,61.4z M47.2,70.4
	c-0.2-0.7,4.5-4.5,4.9-1.3c0.1,0.6,0.1,3.4-0.8,3.6C50,73.1,47.4,71.8,47.2,70.4C47.1,70.1,47.3,71.1,47.2,70.4z M52.9,77.2
	c-2.1,0-4.1-2.5-1.3-3.4C54.8,72.7,54.1,77.2,52.9,77.2z M56,72.8c-2.2,0.2-3-0.2-2.6-2.4c0.2-0.9,0.6-3.5,1.9-3.6
	c1.3-0.4,2.9,1.8,3.5,2.7C60.5,72,58.4,72.6,56,72.8C55.6,72.8,56.4,72.8,56,72.8z M59.7,78.6c-1.6-2.7,0.5-7.4,3.1-3.2
	c0.3,0.6,1.3,1.8,0.8,2.5C62.9,78.7,60.4,79.6,59.7,78.6C59.2,77.8,60.3,79.5,59.7,78.6z M62.4,82.3c0.5-3.2,2.7-3.3,3.3,0
	C66.4,85.9,62.3,84,62.4,82.3C62.5,82.1,62.3,83.2,62.4,82.3z M67.8,98.8c-0.3,0.9-0.9,1.9-1.6,0.7C65.1,97.4,67.9,98.2,67.8,98.8
	C67.7,99,67.8,98.7,67.8,98.8z M68.9,93c-1,3.5-3.2-0.2-2.2-0.5C67.2,92.3,69.2,92.1,68.9,93C68.8,93.2,68.9,92.9,68.9,93z
	 M69.2,86.9c-0.6,3.5-3,3.3-4.4,0.4C64.1,86,70,83,69.2,86.9C69.2,87.1,69.3,86.7,69.2,86.9z M68.5,79.5c2.7,2.3-1.7,5.8-1.7,2.5
	C65.8,79.8,65.6,77.1,68.5,79.5C69,79.9,68.2,79.2,68.5,79.5z M69.5,68c1.5,0.4,2.2,3.3,0.1,2.7C66.9,70.1,66.2,67.3,69.5,68
	C69.6,68,69,67.9,69.5,68z M64.5,62.6c0.3-4.3,3.9,0.8,3.7,2.7c-0.2,1.1-1.8,1.8-2.8,1.7C64.1,66.9,64.5,63.2,64.5,62.6
	C64.6,61.9,64.5,63.1,64.5,62.6z M64.2,72.1c0.9,0.5,1.8,1.2,2.7,1.8c0.9,0.4-0.5,3.1-1.3,3.1C64.5,77,61.2,70.4,64.2,72.1
	C64.4,72.2,64,72,64.2,72.1z M62.8,61.5c1.1-0.1,1.3,9.8-1.8,7.7C57.5,66.8,58.2,62,62.8,61.5C63.1,61.5,62.4,61.6,62.8,61.5z
	 M59.5,59.1c1.5,1.3-0.1,2.1-1.2,2.6c-1.9,0.8-2.8,0.2-3.9-1.4C50.9,55.3,57.2,57.2,59.5,59.1C59.9,59.4,59,58.7,59.5,59.1z
	 M55.4,52.5c0.7,1.1-1.2,2.4-2,2.9c-1.7,1.1-2.8-0.1-3.8-1.7C46.8,49,54.1,50,55.4,52.5C55.5,52.6,55.3,52.2,55.4,52.5z M55.1,32.4
	c-0.1,0.9-9.3-1.1-6.7-5.7C51.4,21.1,55.7,29,55.1,32.4C55.1,32.7,55.1,32.3,55.1,32.4z M58.7,27.1c-0.5,5.3-7.3-2.6-5.8-4.9
	c0.5-0.6,3.5-3.6,4.6-2.7C59,21.1,58.9,25.2,58.7,27.1C58.7,27.4,58.8,25.5,58.7,27.1z M64.7,38.6c-0.7,0.4-5.5,1.5-5.4-0.5
	C59.4,33.1,66.1,37.9,64.7,38.6C64.6,38.7,65,38.5,64.7,38.6z M66.6,28.2c-0.5,1.4-1.3,2.9-2.6,3.7c-1.9,1.1-2.4-1.9-1.7-3
	c0.9-1.5,2.5-3.2,4.1-4.1C67.7,24.1,66.7,27.9,66.6,28.2C66.1,29.7,66.9,27.2,66.6,28.2z M70.7,11.9c-0.4,1.5-1.4,5.4-3.2,5.9
	c-2,0.5-3.5-2.5-4.3-3.7C60.6,9.6,72.1,5.9,70.7,11.9C70.7,12.1,71,10.7,70.7,11.9z M72,8.6c-1-2,2.6-2.4,3.9-2.1
	C76.4,6.6,73.2,11.6,72,8.6C71.9,8.5,72.2,9.2,72,8.6z M80.4,15.1c-0.7,2.3-4.8,4.5-7.1,3.2c-2.7-1.8,1.8-7.4,4.3-7.1
	c4.6,0.6-2.2,3-2.6,4.5C74.2,18.4,81.7,11.1,80.4,15.1C79.5,17.8,80.5,14.7,80.4,15.1z M81,9.6c-2.1,0-3.9-5-0.6-5
	c0.7,0,4.3,0.2,4.3,1.5C84.6,7.6,82.6,9.6,81,9.6z"/>
</svg>
