<?xml version="1.0" encoding="utf-8"?>
<!-- Generator: Adobe Illustrator 18.0.0, SVG Export Plug-In . SVG Version: 6.00 Build 0)  -->
<!DOCTYPE svg PUBLIC "-//W3C//DTD SVG 1.1//EN" "http://www.w3.org/Graphics/SVG/1.1/DTD/svg11.dtd">
<svg version="1.1" id="Layer_1" xmlns="http://www.w3.org/2000/svg" xmlns:xlink="http://www.w3.org/1999/xlink" x="0px" y="0px"
	 viewBox="-3.5 0 70 591" enable-background="new -3.5 0 70 591" xml:space="preserve">
<g>
	<path fill="#EEEEEE" d="M27.9,532.6c-10,0-17.5,2.4-22.7,7.3c-5.1,4.8-7.7,12-7.7,21.4s2.6,16.5,7.8,21.4s12.7,7.4,22.5,7.4
		c9.9,0,17.5-2.5,22.7-7.4s7.8-12,7.8-21.3c0-9.4-2.6-16.5-7.8-21.4C45.4,535,37.8,532.6,27.9,532.6z M27.9,573.2
		c-11.5,0-17.3-4-17.3-12c0-3.9,1.4-6.9,4.2-8.9s7.2-3,13.1-3c5.9,0,10.2,1,13,2.9c2.8,2,4.2,4.9,4.2,9
		C45,569.2,39.3,573.2,27.9,573.2z"/>
	<path fill="#EEEEEE" d="M34,473.8H-1.5v16h34.6c4.3,0,7.3,0.7,9.2,2.2s2.8,3.8,2.8,7.1c0,3-0.9,5.3-2.8,6.9s-4.9,2.3-9.1,2.3H-1.5
		v16h35.9c7.7,0,13.7-2.2,17.8-6.5c4.1-4.3,6.2-10.5,6.2-18.6c0-8.2-2.1-14.5-6.4-18.9S41.7,473.8,34,473.8z"/>
	<path fill="#EEEEEE" d="M57.5,430.9v-18.1L31.8,430c-3.7-6.7-9-10-15.9-10c-11.6,0-17.4,8-17.4,24.1v19.3h59v-16H36v-4L57.5,430.9z
		 M24,447.5H10.5v-3.2c0-5.5,2-8.2,6.1-8.2c4.9,0,7.4,2.8,7.4,8.4V447.5z"/>
	<path fill="#EEEEEE" d="M57.5,367.1c0-6.9-1.5-12.4-4.6-16.5c-3.1-4-7.3-6-12.7-6c-3.6,0-6.5,0.8-8.8,2.5s-3.9,4.3-4.8,8h-0.4
		c-0.7-2.8-2.2-5-4.5-6.7s-5.2-2.5-8.5-2.5c-5,0-8.7,1.9-11.1,5.8c-2.4,3.9-3.6,9.8-3.6,17.9v20.6h59V367.1z M21.1,374.1H10.5v-4.5
		c0-5,1.7-7.5,5-7.5c1.9,0,3.3,0.6,4.2,1.9s1.4,3,1.4,5.3L21.1,374.1L21.1,374.1z M45.2,374.1H32.8v-5.3c0-2.5,0.5-4.5,1.6-5.8
		s2.6-2,4.5-2c4.2,0,6.3,2.5,6.3,7.5V374.1z"/>
	<path fill="#EEEEEE" d="M57.5,246.3v-17.4l-59.3,19.5v21.3L54.4,288l-22.6,15c-3.7-6.7-9-10-15.9-10c-11.6,0-17.4,8-17.4,24.1v19.3
		h59v-16H36v-4l21.5-12.5v-15v-3.1v-14.5l-11.1-3v-19.2L57.5,246.3z M24,320.5H10.5v-3.2c0-5.5,2-8.2,6.1-8.2c4.9,0,7.4,2.8,7.4,8.4
		V320.5z M33.4,265.1c-9.3-2.4-15.5-4-18.6-4.7c-3.2-0.7-5.4-1.2-6.8-1.4c1.5-0.3,3.9-0.8,7.4-1.7c3.4-0.8,6.2-1.6,8.4-2.2l9.7-2.5
		L33.4,265.1L33.4,265.1z"/>
	<path fill="#EEEEEE" d="M57.5,189.2v-20.9h-59v14.2h26.7c3.6,0,8.4-0.2,14.3-0.6v0.2l-41,21.5v20.8h59v-14.1H30.9
		c-3.4,0-8.4,0.3-15,0.8v-0.4L57.5,189.2z"/>
	<path fill="#EEEEEE" d="M57.5,138.5c0-9.8-2.7-17.5-8-22.9c-5.3-5.4-12.9-8.1-22.8-8.1c-9.2,0-16.2,2.6-21,7.7
		c-4.8,5.2-7.3,12.5-7.3,22v20.4h59v-19.1H57.5z M44.4,141.7H11.3V137c0-4.4,1.3-7.6,3.9-9.8c2.6-2.1,6.6-3.2,12-3.2
		c5.8,0,10.1,1.1,12.9,3.4c2.8,2.3,4.2,5.8,4.2,10.7v3.6H44.4z"/>
	<path fill="#EEEEEE" d="M14.9,101.3c2.9,0,5.4-0.5,7.6-1.4c2.1-0.9,4-2.4,5.7-4.3c1.6-1.9,3.3-4.8,5.1-8.7c1.9-4.3,3.2-6.9,3.8-7.9
		s1.2-1.7,1.8-2.1s1.3-0.7,2.1-0.7c1.3,0,2.3,0.6,3.2,1.7c0.8,1.1,1.2,2.8,1.2,5.2c0,2.7-0.4,5.8-1.3,9s-2.1,6.4-3.7,9.5h14.2
		c1.4-2.9,2.3-5.7,2.9-8.3c0.6-2.7,0.8-6,0.8-9.9c0-4.7-0.8-8.8-2.4-12.3s-3.8-6.2-6.6-8s-6.1-2.8-9.8-2.8c-4,0-7.3,1-9.9,3
		c-2.6,2-5.1,5.5-7.4,10.6c-2.4,5.3-4.1,8.6-5,9.8c-0.9,1.2-2,1.8-3.1,1.8s-2-0.5-2.7-1.4s-1.1-2.5-1.1-4.5c0-4,1.3-8.8,3.8-14.3
		L1.8,60.4C-1,66.8-2.4,73-2.4,79.1c0,6.9,1.5,12.4,4.6,16.3C5.2,99.3,9.5,101.3,14.9,101.3z"/>
</g>
</svg>
