<?xml version="1.0" encoding="utf-8"?>
<!-- Generator: Adobe Illustrator 18.0.0, SVG Export Plug-In . SVG Version: 6.00 Build 0)  -->
<!DOCTYPE svg PUBLIC "-//W3C//DTD SVG 1.1//EN" "http://www.w3.org/Graphics/SVG/1.1/DTD/svg11.dtd">
<svg version="1.1" id="Layer_1" xmlns="http://www.w3.org/2000/svg" xmlns:xlink="http://www.w3.org/1999/xlink" x="0px" y="0px"
	 viewBox="204 0 69 591" enable-background="new 204 0 69 591" xml:space="preserve">
<g>
	<path fill="#EEEEEE" d="M239.6,532.6c-10,0-17.5,2.4-22.7,7.3c-5.1,4.8-7.7,12-7.7,21.4c0,9.4,2.6,16.5,7.8,21.4
		c5.2,4.9,12.7,7.4,22.5,7.4c9.9,0,17.5-2.5,22.7-7.4c5.2-4.9,7.8-12,7.8-21.3c0-9.4-2.6-16.5-7.8-21.4
		C257.1,535,249.5,532.6,239.6,532.6z M239.6,573.2c-11.5,0-17.3-4-17.3-12c0-3.9,1.4-6.9,4.2-8.9c2.8-2,7.2-3,13.1-3
		c5.9,0,10.2,1,13,2.9c2.8,2,4.2,4.9,4.2,9C256.7,569.2,251,573.2,239.6,573.2z"/>
	<path fill="#EEEEEE" d="M245.7,473.8h-35.5v16h34.6c4.3,0,7.3,0.7,9.2,2.2s2.8,3.8,2.8,7.1c0,3-0.9,5.3-2.8,6.9s-4.9,2.3-9.1,2.3
		h-34.7v16h35.9c7.7,0,13.7-2.2,17.8-6.5c4.1-4.3,6.2-10.5,6.2-18.6c0-8.2-2.1-14.5-6.4-18.9S253.4,473.8,245.7,473.8z"/>
	<path fill="#EEEEEE" d="M269.2,430.9v-18.1L243.5,430c-3.7-6.7-9-10-15.9-10c-11.6,0-17.4,8-17.4,24.1v19.3h59v-16h-21.5v-4
		L269.2,430.9z M235.7,447.5h-13.5v-3.2c0-5.5,2-8.2,6.1-8.2c4.9,0,7.4,2.8,7.4,8.4V447.5z"/>
	<path fill="#EEEEEE" d="M269.2,367.1c0-6.9-1.5-12.4-4.6-16.5c-3.1-4-7.3-6-12.7-6c-3.6,0-6.5,0.8-8.8,2.5s-3.9,4.3-4.8,8h-0.4
		c-0.7-2.8-2.2-5-4.5-6.7s-5.2-2.5-8.5-2.5c-5,0-8.7,1.9-11.1,5.8c-2.4,3.9-3.6,9.8-3.6,17.9v20.6h59V367.1z M232.8,374.1h-10.6
		v-4.5c0-5,1.7-7.5,5-7.5c1.9,0,3.3,0.6,4.2,1.9s1.4,3,1.4,5.3V374.1z M256.9,374.1h-12.4v-5.3c0-2.5,0.5-4.5,1.6-5.8
		c1.1-1.3,2.6-2,4.5-2c4.2,0,6.3,2.5,6.3,7.5V374.1z"/>
	<path fill="#EEEEEE" d="M269.2,246.3v-17.4l-59.3,19.5v21.3l56.2,18.3L243.5,303c-3.7-6.7-9-10-15.9-10c-11.6,0-17.4,8-17.4,24.1
		v19.3h59v-16h-21.5v-4l21.5-12.5v-15v-3.1v-14.5l-11.1-3v-19.2L269.2,246.3z M235.7,320.5h-13.5v-3.2c0-5.5,2-8.2,6.1-8.2
		c4.9,0,7.4,2.8,7.4,8.4V320.5z M245.1,265.1c-9.3-2.4-15.5-4-18.6-4.7c-3.2-0.7-5.4-1.2-6.8-1.4c1.5-0.3,3.9-0.8,7.4-1.7
		c3.4-0.8,6.2-1.6,8.4-2.2l9.7-2.5V265.1z"/>
	<path fill="#EEEEEE" d="M269.2,189.2v-20.9h-59v14.2h26.7c3.6,0,8.4-0.2,14.3-0.6v0.2l-41,21.5v20.8h59v-14.1h-26.6
		c-3.4,0-8.4,0.3-15,0.8v-0.4L269.2,189.2z"/>
	<path fill="#EEEEEE" d="M269.2,138.5c0-9.8-2.7-17.5-8-22.9c-5.3-5.4-12.9-8.1-22.8-8.1c-9.2,0-16.2,2.6-21,7.7
		c-4.8,5.2-7.3,12.5-7.3,22v20.4h59V138.5z M256.1,141.7h-33.1V137c0-4.4,1.3-7.6,3.9-9.8c2.6-2.1,6.6-3.2,12-3.2
		c5.8,0,10.1,1.1,12.9,3.4s4.2,5.8,4.2,10.7V141.7z"/>
	<path fill="#EEEEEE" d="M226.6,101.3c2.9,0,5.4-0.5,7.6-1.4c2.1-0.9,4-2.4,5.7-4.3c1.6-1.9,3.3-4.8,5.1-8.7
		c1.9-4.3,3.2-6.9,3.8-7.9s1.2-1.7,1.8-2.1c0.6-0.4,1.3-0.7,2.1-0.7c1.3,0,2.3,0.6,3.2,1.7c0.8,1.1,1.2,2.8,1.2,5.2
		c0,2.7-0.4,5.8-1.3,9s-2.1,6.4-3.7,9.5h14.2c1.4-2.9,2.3-5.7,2.9-8.3c0.6-2.7,0.8-6,0.8-9.9c0-4.7-0.8-8.8-2.4-12.3s-3.8-6.2-6.6-8
		s-6.1-2.8-9.8-2.8c-4,0-7.3,1-9.9,3s-5.1,5.5-7.4,10.6c-2.4,5.3-4.1,8.6-5,9.8c-0.9,1.2-2,1.8-3.1,1.8c-1.1,0-2-0.5-2.7-1.4
		c-0.7-0.9-1.1-2.5-1.1-4.5c0-4,1.3-8.8,3.8-14.3l-12.3-4.9c-2.8,6.4-4.2,12.6-4.2,18.7c0,6.9,1.5,12.4,4.6,16.3
		C216.9,99.3,221.2,101.3,226.6,101.3z"/>
</g>
</svg>
