<?xml version="1.0" encoding="utf-8"?>
<!-- Generator: Adobe Illustrator 18.0.0, SVG Export Plug-In . SVG Version: 6.00 Build 0)  -->
<!DOCTYPE svg PUBLIC "-//W3C//DTD SVG 1.1//EN" "http://www.w3.org/Graphics/SVG/1.1/DTD/svg11.dtd">
<svg version="1.1" id="Layer_1" xmlns="http://www.w3.org/2000/svg" xmlns:xlink="http://www.w3.org/1999/xlink" x="0px" y="0px"
	 viewBox="0 0 83 622" enable-background="new 0 0 83 622" xml:space="preserve">
<g>
	<g>
		<path fill="#EEEEEE" d="M63.3,567.3v17.1H37.6v19.8h25.7v17.1h-63v-17.1h23.4v-19.8H0.3v-17.1H63.3z"/>
		<path fill="#EEEEEE" d="M63.3,517.2l-11.8,3.1v20.5l11.8,3.2v18.7L0,542.1v-22.7l63.3-20.8V517.2z M37.5,523.9l-10.3,2.7
			c-2.3,0.6-5.3,1.4-8.9,2.3c-3.6,0.9-6.3,1.5-7.8,1.8c1.5,0.3,3.9,0.8,7.2,1.5s10,2.5,19.9,5.1V523.9z"/>
		<path fill="#EEEEEE" d="M63.3,411.5V494h-63v-17.1h49.1v-15.7H0.3v-16.8h49.1v-15.7H0.3v-17.2H63.3z"/>
		<path fill="#EEEEEE" d="M63.3,400.1h-63V383h63V400.1z"/>
		<path fill="#EEEEEE" d="M42.8,304.3c6.6,0,11.7,2.3,15.2,6.8c3.5,4.5,5.3,11.1,5.3,19.6v20.2h-63v-41.5h13.7v24.4h9.6v-2.5
			c0-8.8,1.6-15.5,4.8-20.1C31.6,306.6,36.4,304.3,42.8,304.3z M50.1,333.8v-2.3c0-3.6-0.6-6.1-1.8-7.7c-1.2-1.6-2.9-2.3-5.2-2.3
			c-2.3,0-4,0.8-5.1,2.5c-1.1,1.7-1.6,4.2-1.6,7.6v2.2H50.1z"/>
		<path fill="#EEEEEE" d="M20.3,250.2c7,0,12.5,2.1,16.3,6.2c3.8,4.2,5.8,10.1,5.8,17.7v4.8h20.9v17h-63v-21.8
			c0-8,1.7-13.9,5.2-17.9C9,252.2,13.9,250.2,20.3,250.2z M28.5,278.9v-3.1c0-2.6-0.7-4.6-2.2-6.1c-1.4-1.5-3.4-2.3-5.9-2.3
			c-4.3,0-6.4,2.4-6.4,7.1v4.4H28.5z"/>
		<path fill="#EEEEEE" d="M63.3,204.9v37.4h-63v-37.4h13.7v20.4h9.9v-18.9h13.7v18.9h11.9v-20.4H63.3z"/>
		<path fill="#EEEEEE" d="M63.3,142.1v17.1H37.6V179h25.7v17.1h-63V179h23.4v-19.8H0.3v-17.1H63.3z"/>
		<path fill="#EEEEEE" d="M82.9,67.2v16.6H63.3v36.7h19.6v16.6H49.3v-5.2c-6.4-3.8-13.8-6.9-22.1-9.3c-8.4-2.4-17.4-4-26.9-4.7v-42
			h49.1v-8.6H82.9z M49.3,93H14.2v11.2c12.3,1.2,24,4.4,35.1,9.7V93z"/>
		<path fill="#EEEEEE" d="M0.3,61V45.8h27.1c2.9,0,8.6,0.2,17.2,0.7v-0.3L0.3,21V0h63v15.1H36.9c-4,0-10-0.3-17.9-0.8v0.3L63.3,40
			v21H0.3z"/>
	</g>
</g>
</svg>
