<!-- Generator: Adobe Illustrator 18.1.1, SVG Export Plug-In  -->
<svg version="1.1"
   xmlns="http://www.w3.org/2000/svg" xmlns:xlink="http://www.w3.org/1999/xlink" xmlns:a="http://ns.adobe.com/AdobeSVGViewerExtensions/3.0/"
   x="0px" y="0px" width="151.5px" height="57px" viewBox="0 0 151.5 57" enable-background="new 0 0 151.5 57" xml:space="preserve"
  >
<defs>
</defs>
<g>
  <g>
    <path fill="#F5F5F5" d="M151.5,7.8c0,0,0.1-0.8-0.4-1.4c-0.4-0.5-1-0.7-2-0.8c-2.5-0.1-5.6,0-5.6,0l-0.2,0v42.6l0.2,0
      c0,0,1.5,0.1,3.2,0.1c1,0,2,0,2.7-0.1c0.7,0.1,1.2-0.1,1.5-0.5c0.6-0.7,0.5-1.8,0.5-1.8L151.5,7.8z M150.7,47.5
      c-0.2,0.2-0.5,0.4-0.9,0.4c-0.1,0-0.2,0-0.3,0c-0.8,0-1.7,0.1-2.8,0.1c-1.4,0-2.6,0-3-0.1V6c0.7,0,3.3,0,5.4,0
      c0.8,0,1.3,0.2,1.7,0.6c0.4,0.5,0.3,1,0.3,1.1V46C151.1,46,151.2,47,150.7,47.5z"/>
  </g>
  <g>
    <path fill="#F5F5F5" d="M146.7,13.2v-1.8h2.3v-0.6h-2.3V9.1h2.6V8.5h-3.2v5.3h3.4v-0.6H146.7z"/>
    <path fill="#F5F5F5" d="M147.1,19.2l2.5-2.6h-0.6l-2.4,2.6h0v-2.6h-0.6v5.3h0.6v-2.6h0l2.6,2.6h0.6L147.1,19.2z"/>
    <path fill="#F5F5F5" d="M148,27.7L148,27.7c0.2-0.1,0.4-0.1,0.6-0.2c0.2-0.1,0.3-0.2,0.4-0.3c0.1-0.1,0.2-0.3,0.3-0.4
      c0.1-0.2,0.1-0.4,0.1-0.6c0-0.4-0.1-0.7-0.3-0.9c-0.2-0.2-0.5-0.4-0.8-0.5c-0.1,0-0.3-0.1-0.4-0.1c-0.2,0-0.4,0-0.6,0h-1.4V30h0.6
      v-2.2h0.8L149,30h0.6L148,27.7z M147.2,27.2h-0.6v-1.9h0.7c0.2,0,0.4,0,0.5,0c0.1,0,0.2,0,0.3,0.1c0.2,0.1,0.4,0.2,0.5,0.3
      c0.1,0.1,0.2,0.3,0.2,0.5c0,0.2-0.1,0.4-0.2,0.6c-0.1,0.1-0.3,0.3-0.5,0.3c-0.1,0-0.2,0.1-0.4,0.1
      C147.6,27.2,147.4,27.2,147.2,27.2z"/>
    <path fill="#F5F5F5" d="M147.9,32.8h-0.6l-2.1,5.3h0.7l0.6-1.6h2.2l0.6,1.6h0.7L147.9,32.8z M146.8,35.9l0.2-0.5
      c0.2-0.5,0.4-1.1,0.7-1.8h0c0.2,0.6,0.4,1.2,0.7,1.8l0.2,0.5H146.8z"/>
    <path fill="#F5F5F5" d="M149.1,40.9v2.8c0,0.5,0,1.1,0,1.6h0c-0.3-0.5-0.6-1-1-1.4l-2.1-2.9h-0.6v5.3h0.6v-2.7c0-0.6,0-1.2,0-1.7
      h0c0.3,0.4,0.6,0.9,1,1.4l2.1,2.9h0.6v-5.3H149.1z"/>
  </g>
  <g>
    <path fill="#F5F5F5" d="M35.8,18.3H32v-6.6h2.8c0.7,0,1.3,0,1.8,0.1c0.5,0,1,0.1,1.3,0.2c0.8,0.2,1.4,0.6,1.7,1.1
      c0.4,0.5,0.5,1.1,0.5,1.9c0,0.7-0.2,1.4-0.5,1.9c-0.3,0.5-0.9,0.9-1.7,1.2c-0.3,0.1-0.6,0.2-1,0.2C36.7,18.2,36.3,18.3,35.8,18.3z
      "/>
    <path fill="#F5F5F5" d="M35,27.6h-3v-7.1h3.9c0.6,0,1.1,0,1.5,0c0.4,0,0.7,0.1,1.1,0.2c0.5,0.1,0.9,0.3,1.3,0.5
      c0.3,0.2,0.6,0.4,0.8,0.7c0.2,0.3,0.4,0.6,0.4,0.9c0.1,0.3,0.1,0.7,0.1,1.1c0,0.3,0,0.7-0.1,1c-0.1,0.3-0.2,0.6-0.4,0.9
      c-0.2,0.3-0.5,0.6-0.8,0.8c-0.3,0.2-0.7,0.4-1.2,0.6c-0.4,0.1-0.9,0.2-1.6,0.3C36.4,27.6,35.7,27.6,35,27.6z"/>
    <path fill="#F5F5F5" stroke="#F5F5F5" stroke-miterlimit="10" d="M4.8,37.3c0,0.2,0,0.5,0,0.7c0.3,0.1,0.6,0.1,0.7,0.1
      c0,0,0.1,0,0.1,0C5.7,37.9,5.3,37.6,4.8,37.3z M4.8,30.1c0,1,0,2.1,0,3.1c0.2-0.6,0.7-1,1.6-1.4C5.9,31.3,5.3,30.7,4.8,30.1z
       M6.7,37c-0.6-0.6-1.6-1.6-1.9-2.7c0,0.7,0,1.3,0,2c0.7,0.6,1.5,1.2,2,1.2c0.1,0,0.2,0,0.3-0.1C7.1,37.4,6.9,37.2,6.7,37z
       M7.9,21.3c-0.2-0.7-2.1-1.7-3.1-1.8c0,1,0,2,0,3.1v0c0.2,0.4,0.5,0.7,0.9,0.7C6.7,23.2,8.2,22.1,7.9,21.3z M5.1,14.6
      c-0.1,0-0.2,0-0.3,0.1c0,1.3,0,2.6,0,4C6,19,7.9,18.5,8,17.9C8.1,17,6,14.4,5.1,14.6z M7.1,11.6c-0.8,0.2-1.6,1.6-1.5,2.3
      c0.2,0.7,2.5,2,3.3,1.8C9.7,15.5,7.8,11.5,7.1,11.6z M6.1,24.4C6,25,7,26.7,7.8,26.7c0.3-0.1,1.6-0.9,1.6-1.5
      C9.2,24.2,6.1,23.7,6.1,24.4z M10,9.3c-0.8,0.2-2.3,1.3-2.1,1.9c0.2,0.7,1.7,2.9,2.5,2.7C11.2,13.8,10.8,9.1,10,9.3z M11.5,28.6
      c-0.1-0.8-3.1-1.8-3.3-1.3C8,27.8,9.3,29.9,10,29.7C10.7,29.4,11.6,29,11.5,28.6z M12.7,5.7c0,0.2,0,0.5,0.1,0.6
      c0,0.1,0.1,0.2,0.1,0.3c0,0,0,0,0,0.1c0,0,0,0,0,0.1c0.4,0.9,1.3,1.7,1.9,1.7c0.1,0,0.1,0,0.1,0c0.4-0.1,1-1.2,1.4-2.3
      c0.1-0.2,0.1-0.3,0.1-0.5H12.7z M12.6,6.4c-0.1-0.3-0.1-0.5-0.1-0.7h-2.4c-1,0.1-2.4,0.4-4.1,1L5.9,6.7l0-0.2
      c0.1-0.5,0.7-0.7,1.2-0.9c0,0,0,0,0.1,0H4.8c0,0,0,0.7,0,1.8c0.3,0.4,0.5,0.9,0.3,1C5,8.6,4.9,8.7,4.8,8.8c0,0.2,0,0.4,0,0.6
      c0.3,0,0.6,0,0.8,0.1c0.1,0,0.3,0,0.4,0l0.3,0L6,9.6C5.6,9.8,5.2,10,4.8,10.2c0,0.3,0,0.7,0,1.1c0.5-0.2,1-0.3,1-0.1
      c0,0.3-0.5,1.1-1,1.7c0,0.2,0,0.4,0,0.5c1.4-2.2,3.8-4.3,7.3-6c0.2-0.3,0.5-0.5,0.7-0.7C12.7,6.6,12.7,6.5,12.6,6.4z M6.7,7
      c0.5-0.3,1.6-0.5,1.6-0.2c0,0.3-1.2,1.6-1.5,1.6C6.3,8.3,6.3,7.3,6.7,7z M6.7,10.7c-0.2,0.1-1.5,0-1.2-0.4c0.1-0.2,3.4-2,3.7-1.5
      C9.4,9,6.9,10.7,6.7,10.7z M11.6,7.1c-0.2,0.5-2.7,1-3.1,0.9C8.1,8,10,6.3,10.7,6.1C11.4,6,11.7,6.8,11.6,7.1z M13.1,29.5
      c-0.2-0.7-2.5,1-2.4,1.7c0.2,0.7,1.2,2,1.8,2C13.1,33,13.2,30.2,13.1,29.5z M12.1,17.1c-0.6,0.2-1.3,1.1-0.8,1.4
      c0.5,0.4,2.7,0.1,2.6-0.3C13.9,17.7,12.7,16.9,12.1,17.1z M14.4,10.1c-0.5-0.5-1.6-2-2.1-2c-0.9-0.1-1.4,5.9,0.3,4.1
      C13.2,11.5,14.8,10.5,14.4,10.1z M14.6,11.8c-0.3-0.1-2.6,2-2.4,2.8c0.2,0.3,0.7,0.9,1.1,0.6C14.6,14.5,15.1,12,14.6,11.8z
       M14.7,35.2c-0.2-0.2-1.7-1.3-1.9-1c-0.2,0.2,0.8,2.5,1.3,2.5C14.5,36.7,15.1,35.4,14.7,35.2z M15.3,31c-0.1-0.5-1-2-1.4-2.1
      c-0.5,0-0.4,2.3-0.2,2.8C13.8,32.3,15.5,31.6,15.3,31z M15.4,35.5c0.4,0.9,0.7,1.7,0.9,2.6C16,37.3,15.7,36.4,15.4,35.5z M16,38.5
      c-0.1-0.5-1.3-1.4-1.7-0.9c-0.1,0.1,0,0.2,0,0.4c0,0,0,0,0,0c0.1,0.3,0.2,0.7,0.4,1.1l0,0c0.1,0.3,0.3,0.6,0.3,0.7
      C15.3,40.2,16.1,39,16,38.5z M15.7,40.5c0,0,0,0-0.1,0c-0.1,0-0.3,0-0.5,0.1c0,0-0.1,0-0.1,0c0,0,0,0-0.1,0
      c-0.6,0.1-1.3,0.4-1.3,0.6c0,0.2,0.1,0.5,0.4,0.8c0.4,0.4,0.8,0.7,1,0.7c0.1,0,0.1,0,0.2-0.1c0,0,0,0,0.1-0.1c0,0,0-0.1,0.1-0.1
      c0.2-0.2,0.3-0.5,0.4-0.9C15.9,41.1,15.9,40.7,15.7,40.5z M15,45.3c-0.2,0-0.3-0.2-0.5-0.3c-0.2-0.3-0.3-0.6-0.3-0.8
      c0.1-0.2,0.5-0.3,0.9-0.3c0,0,0.1,0,0.1,0c0-0.3,0-0.6,0-1C15.2,43,15.1,43,15,43h0c-0.3,0-0.8-0.4-1.1-0.8
      c-0.2-0.2-0.5-0.6-0.5-0.9c0.1-0.3,0.8-0.6,1.4-0.8c-0.8-3.5-3-7.1-6.9-11.8c-1.3-1.6-2.4-3.2-3.2-4.7c0,0.5,0,1,0,1.5
      c0.6,0.6,1.4,1.6,1.4,2c0.1,0.4-0.7,0.6-1.4,0.6c0,0.6,0,1.2,0,1.8c0.5,0.7,1.1,1.3,1.8,1.9l0.1,0.1l-0.1,0
      c-1,0.4-1.5,0.9-1.6,1.5c-0.3,1.2,1.1,2.7,1.9,3.5c0.4,0.4,0.5,0.5,0.4,0.6c-0.1,0.1-0.3,0.2-0.4,0.2c-0.3,0-0.6-0.2-1-0.4
      c-0.3-0.2-0.7-0.5-1-0.8c0,0.2,0,0.4,0,0.6c0.6,0.4,1.1,0.7,1,1c0,0.1-0.1,0.2-0.3,0.2c-0.2,0-0.4-0.1-0.7-0.1c0,0.2,0,0.4,0,0.5
      c0.7,0.1,0.9,0.2,0.9,0.3c0,0.2-0.3,0.3-0.9,0.5c0,0.1,0,0.3,0,0.4c0.5-0.2,0.9-0.4,1.2-0.4c0.1,0,0.2,0,0.3,0.1c0,0,0,0,0,0.1
      c0,0.1-0.1,0.3-0.4,0.6c-0.3,0.3-0.7,0.8-0.6,1c0,0,0,0.1,0.1,0.1c0,0,0.1,0,0.1,0c0.1,0,0.2-0.1,0.4-0.4c0.4-0.6,1-1.6,3.4-2.2
      c0.2,0,0.3-0.1,0.4-0.3c0.3-0.5,0-1.6-0.2-2.2c-0.1-0.5-0.2-0.6-0.1-0.7c0,0,0.1-0.1,0.2,0l0,0c3,4.9,4.2,9.1,3.6,12.4h1.5
      c0-0.1,0-0.2,0.1-0.3c0,0,0,0,0,0c0,0,0,0,0,0c0,0-0.1,0-0.2-0.2c-0.2-0.2-0.4-0.6-0.3-0.8c0-0.2,0.2-0.3,0.5-0.3
      c0.1,0,0.3,0,0.4,0.1c0.1-0.5,0.2-0.9,0.2-1.4C15.1,45.3,15.1,45.3,15,45.3C15,45.3,15,45.3,15,45.3z M6.9,28.3
      c0.5-0.2,1.6,1.6,1.7,2c0.1,0.4-1.6,1.2-1.8,0.9C6.4,30.4,6.3,28.4,6.9,28.3z M5.3,33.6c-0.1-0.3,1.7-1.3,2-1.3
      c0.7,0.2,0.3,2.3,0,2.4C6.6,34.9,5.4,34,5.3,33.6z M8.1,36.8c-0.6,0-1.6-0.9-1.3-1.2c0.2-0.3,1.2-0.8,1.6-0.4
      C8.7,35.5,8.5,36.8,8.1,36.8z M8.2,34.4c-0.1-0.6,0.3-2.5,0.9-2.6c0.6-0.2,2,1.4,2.1,2.1C11.4,34.6,8.3,35.1,8.2,34.4z M11.3,37.5
      c-0.5-0.9,0-2.4,0.5-2.5c0.5-0.1,1.4,1.6,1.5,2C13.2,37.5,11.6,37.9,11.3,37.5z M12.6,39.2c0.1-0.5,0.7-1.6,1-1.3
      c0.4,0.4,0.8,2,0.5,2.3C13.9,40.5,12.5,39.9,12.6,39.2z M15.1,44c-0.4,0-0.7,0.1-0.7,0.2c0,0.1,0.1,0.4,0.3,0.7
      c0.1,0.2,0.3,0.3,0.3,0.3c0,0,0.1,0,0.2-0.1c0-0.4,0.1-0.7,0.1-1C15.2,44,15.2,44,15.1,44z M15.7,44.2c-0.1,0-0.2-0.1-0.3-0.1
      c0,0-0.1,0-0.1,0c0,0-0.1,0-0.1,0c0,0-0.1,0-0.1,0c-0.4,0-0.7,0.1-0.7,0.2c0,0.1,0.1,0.4,0.3,0.7c0.1,0.2,0.3,0.3,0.3,0.3
      c0,0,0.1,0,0.2-0.1c0,0,0.1-0.1,0.1-0.1c0,0,0.1-0.1,0.1-0.1c0.1-0.2,0.2-0.4,0.3-0.5C15.7,44.2,15.7,44.2,15.7,44.2z M15.1,47
      C15.1,47,15.1,47,15.1,47c-0.1-0.1-0.1-0.1-0.1-0.1c0,0,0,0-0.1,0c-0.1,0-0.3-0.1-0.4-0.1c-0.1,0-0.3,0-0.3,0.1
      c0,0.1,0,0.3,0.1,0.5c0.1,0.2,0.2,0.3,0.2,0.3l0,0c0,0,0,0,0.1-0.1c0,0,0.1-0.1,0.1-0.1l0,0v0c0,0,0.1-0.1,0.1-0.2
      c0.1-0.1,0.1-0.2,0.2-0.3C15.2,47,15.2,47,15.1,47z M16.1,32.5c-0.4-0.2-1.5,0-1.3,0.6c0.1,0.3,1.2,0.8,1.6,0.7
      C16.9,33.7,16.5,32.6,16.1,32.5z M18.6,7.7c-0.5-0.5,2-1.5,2-2h-2.1c-0.8,0.8-1.3,2.6-0.7,3c0.9,0.5,3.6-0.5,3.4-2.1
      C21.1,6,19.2,8.5,18.6,7.7z M44.2,35.1l-1.9,5.9h3.9L44.2,35.1z M63.7,35.1l-1.9,5.9h3.9L63.7,35.1z M87.7,35.1l-1.9,5.9h3.9
      L87.7,35.1z M113.7,37.8c-0.1-0.6-0.4-1.1-0.7-1.5c-0.3-0.4-0.8-0.7-1.3-1c-0.6-0.2-1.2-0.3-2.1-0.3h-2.1v9.8h2.1
      c0.8,0,1.5-0.1,2.1-0.3c0.6-0.2,1-0.5,1.3-1c0.3-0.4,0.6-1,0.7-1.6c0.1-0.6,0.2-1.3,0.2-2.1C113.9,39.1,113.8,38.4,113.7,37.8z
       M129.3,19.5c-0.8-2.1-1.7-4.4-2.6-6.9h-0.1c-0.9,2.5-1.8,4.9-2.6,6.9l-0.8,1.9h6.8L129.3,19.5z M135.1,35.4
      c-0.4-0.3-1-0.5-1.8-0.5h-3.6v4.4h3.4c0.5,0,0.9,0,1.2-0.1c0.3-0.1,0.6-0.2,0.8-0.4c0.2-0.2,0.4-0.4,0.5-0.7
      c0.1-0.3,0.1-0.6,0.1-1C135.7,36.3,135.5,35.8,135.1,35.4z M135.1,35.4c-0.4-0.3-1-0.5-1.8-0.5h-3.6v4.4h3.4c0.5,0,0.9,0,1.2-0.1
      c0.3-0.1,0.6-0.2,0.8-0.4c0.2-0.2,0.4-0.4,0.5-0.7c0.1-0.3,0.1-0.6,0.1-1C135.7,36.3,135.5,35.8,135.1,35.4z M129.3,19.5
      c-0.8-2.1-1.7-4.4-2.6-6.9h-0.1c-0.9,2.5-1.8,4.9-2.6,6.9l-0.8,1.9h6.8L129.3,19.5z M113.7,37.8c-0.1-0.6-0.4-1.1-0.7-1.5
      c-0.3-0.4-0.8-0.7-1.3-1c-0.6-0.2-1.2-0.3-2.1-0.3h-2.1v9.8h2.1c0.8,0,1.5-0.1,2.1-0.3c0.6-0.2,1-0.5,1.3-1c0.3-0.4,0.6-1,0.7-1.6
      c0.1-0.6,0.2-1.3,0.2-2.1C113.9,39.1,113.8,38.4,113.7,37.8z M87.7,35.1l-1.9,5.9h3.9L87.7,35.1z M63.7,35.1l-1.9,5.9h3.9
      L63.7,35.1z M44.2,35.1l-1.9,5.9h3.9L44.2,35.1z M44.2,35.1l-1.9,5.9h3.9L44.2,35.1z M63.7,35.1l-1.9,5.9h3.9L63.7,35.1z
       M87.7,35.1l-1.9,5.9h3.9L87.7,35.1z M113.7,37.8c-0.1-0.6-0.4-1.1-0.7-1.5c-0.3-0.4-0.8-0.7-1.3-1c-0.6-0.2-1.2-0.3-2.1-0.3h-2.1
      v9.8h2.1c0.8,0,1.5-0.1,2.1-0.3c0.6-0.2,1-0.5,1.3-1c0.3-0.4,0.6-1,0.7-1.6c0.1-0.6,0.2-1.3,0.2-2.1
      C113.9,39.1,113.8,38.4,113.7,37.8z M129.3,19.5c-0.8-2.1-1.7-4.4-2.6-6.9h-0.1c-0.9,2.5-1.8,4.9-2.6,6.9l-0.8,1.9h6.8L129.3,19.5
      z M135.1,35.4c-0.4-0.3-1-0.5-1.8-0.5h-3.6v4.4h3.4c0.5,0,0.9,0,1.2-0.1c0.3-0.1,0.6-0.2,0.8-0.4c0.2-0.2,0.4-0.4,0.5-0.7
      c0.1-0.3,0.1-0.6,0.1-1C135.7,36.3,135.5,35.8,135.1,35.4z M135.1,35.4c-0.4-0.3-1-0.5-1.8-0.5h-3.6v4.4h3.4c0.5,0,0.9,0,1.2-0.1
      c0.3-0.1,0.6-0.2,0.8-0.4c0.2-0.2,0.4-0.4,0.5-0.7c0.1-0.3,0.1-0.6,0.1-1C135.7,36.3,135.5,35.8,135.1,35.4z M129.3,19.5
      c-0.8-2.1-1.7-4.4-2.6-6.9h-0.1c-0.9,2.5-1.8,4.9-2.6,6.9l-0.8,1.9h6.8L129.3,19.5z M113.7,37.8c-0.1-0.6-0.4-1.1-0.7-1.5
      c-0.3-0.4-0.8-0.7-1.3-1c-0.6-0.2-1.2-0.3-2.1-0.3h-2.1v9.8h2.1c0.8,0,1.5-0.1,2.1-0.3c0.6-0.2,1-0.5,1.3-1c0.3-0.4,0.6-1,0.7-1.6
      c0.1-0.6,0.2-1.3,0.2-2.1C113.9,39.1,113.8,38.4,113.7,37.8z M87.7,35.1l-1.9,5.9h3.9L87.7,35.1z M63.7,35.1l-1.9,5.9h3.9
      L63.7,35.1z M44.2,35.1l-1.9,5.9h3.9L44.2,35.1z M44.2,35.1l-1.9,5.9h3.9L44.2,35.1z M63.7,35.1l-1.9,5.9h3.9L63.7,35.1z
       M87.7,35.1l-1.9,5.9h3.9L87.7,35.1z M113.7,37.8c-0.1-0.6-0.4-1.1-0.7-1.5c-0.3-0.4-0.8-0.7-1.3-1c-0.6-0.2-1.2-0.3-2.1-0.3h-2.1
      v9.8h2.1c0.8,0,1.5-0.1,2.1-0.3c0.6-0.2,1-0.5,1.3-1c0.3-0.4,0.6-1,0.7-1.6c0.1-0.6,0.2-1.3,0.2-2.1
      C113.9,39.1,113.8,38.4,113.7,37.8z M129.3,19.5c-0.8-2.1-1.7-4.4-2.6-6.9h-0.1c-0.9,2.5-1.8,4.9-2.6,6.9l-0.8,1.9h6.8L129.3,19.5
      z M135.1,35.4c-0.4-0.3-1-0.5-1.8-0.5h-3.6v4.4h3.4c0.5,0,0.9,0,1.2-0.1c0.3-0.1,0.6-0.2,0.8-0.4c0.2-0.2,0.4-0.4,0.5-0.7
      c0.1-0.3,0.1-0.6,0.1-1C135.7,36.3,135.5,35.8,135.1,35.4z M135.1,35.4c-0.4-0.3-1-0.5-1.8-0.5h-3.6v4.4h3.4c0.5,0,0.9,0,1.2-0.1
      c0.3-0.1,0.6-0.2,0.8-0.4c0.2-0.2,0.4-0.4,0.5-0.7c0.1-0.3,0.1-0.6,0.1-1C135.7,36.3,135.5,35.8,135.1,35.4z M129.3,19.5
      c-0.8-2.1-1.7-4.4-2.6-6.9h-0.1c-0.9,2.5-1.8,4.9-2.6,6.9l-0.8,1.9h6.8L129.3,19.5z M113.7,37.8c-0.1-0.6-0.4-1.1-0.7-1.5
      c-0.3-0.4-0.8-0.7-1.3-1c-0.6-0.2-1.2-0.3-2.1-0.3h-2.1v9.8h2.1c0.8,0,1.5-0.1,2.1-0.3c0.6-0.2,1-0.5,1.3-1c0.3-0.4,0.6-1,0.7-1.6
      c0.1-0.6,0.2-1.3,0.2-2.1C113.9,39.1,113.8,38.4,113.7,37.8z M87.7,35.1l-1.9,5.9h3.9L87.7,35.1z M63.7,35.1l-1.9,5.9h3.9
      L63.7,35.1z M44.2,35.1l-1.9,5.9h3.9L44.2,35.1z M44.2,35.1l-1.9,5.9h3.9L44.2,35.1z M63.7,35.1l-1.9,5.9h3.9L63.7,35.1z
       M87.7,35.1l-1.9,5.9h3.9L87.7,35.1z M113.7,37.8c-0.1-0.6-0.4-1.1-0.7-1.5c-0.3-0.4-0.8-0.7-1.3-1c-0.6-0.2-1.2-0.3-2.1-0.3h-2.1
      v9.8h2.1c0.8,0,1.5-0.1,2.1-0.3c0.6-0.2,1-0.5,1.3-1c0.3-0.4,0.6-1,0.7-1.6c0.1-0.6,0.2-1.3,0.2-2.1
      C113.9,39.1,113.8,38.4,113.7,37.8z M129.3,19.5c-0.8-2.1-1.7-4.4-2.6-6.9h-0.1c-0.9,2.5-1.8,4.9-2.6,6.9l-0.8,1.9h6.8L129.3,19.5
      z M135.1,35.4c-0.4-0.3-1-0.5-1.8-0.5h-3.6v4.4h3.4c0.5,0,0.9,0,1.2-0.1c0.3-0.1,0.6-0.2,0.8-0.4c0.2-0.2,0.4-0.4,0.5-0.7
      c0.1-0.3,0.1-0.6,0.1-1C135.7,36.3,135.5,35.8,135.1,35.4z M135.1,35.4c-0.4-0.3-1-0.5-1.8-0.5h-3.6v4.4h3.4c0.5,0,0.9,0,1.2-0.1
      c0.3-0.1,0.6-0.2,0.8-0.4c0.2-0.2,0.4-0.4,0.5-0.7c0.1-0.3,0.1-0.6,0.1-1C135.7,36.3,135.5,35.8,135.1,35.4z M129.3,19.5
      c-0.8-2.1-1.7-4.4-2.6-6.9h-0.1c-0.9,2.5-1.8,4.9-2.6,6.9l-0.8,1.9h6.8L129.3,19.5z M113.7,37.8c-0.1-0.6-0.4-1.1-0.7-1.5
      c-0.3-0.4-0.8-0.7-1.3-1c-0.6-0.2-1.2-0.3-2.1-0.3h-2.1v9.8h2.1c0.8,0,1.5-0.1,2.1-0.3c0.6-0.2,1-0.5,1.3-1c0.3-0.4,0.6-1,0.7-1.6
      c0.1-0.6,0.2-1.3,0.2-2.1C113.9,39.1,113.8,38.4,113.7,37.8z M87.7,35.1l-1.9,5.9h3.9L87.7,35.1z M63.7,35.1l-1.9,5.9h3.9
      L63.7,35.1z M44.2,35.1l-1.9,5.9h3.9L44.2,35.1z M44.2,35.1l-1.9,5.9h3.9L44.2,35.1z M63.7,35.1l-1.9,5.9h3.9L63.7,35.1z
       M87.7,35.1l-1.9,5.9h3.9L87.7,35.1z M113.7,37.8c-0.1-0.6-0.4-1.1-0.7-1.5c-0.3-0.4-0.8-0.7-1.3-1c-0.6-0.2-1.2-0.3-2.1-0.3h-2.1
      v9.8h2.1c0.8,0,1.5-0.1,2.1-0.3c0.6-0.2,1-0.5,1.3-1c0.3-0.4,0.6-1,0.7-1.6c0.1-0.6,0.2-1.3,0.2-2.1
      C113.9,39.1,113.8,38.4,113.7,37.8z M129.3,19.5c-0.8-2.1-1.7-4.4-2.6-6.9h-0.1c-0.9,2.5-1.8,4.9-2.6,6.9l-0.8,1.9h6.8L129.3,19.5
      z M135.1,35.4c-0.4-0.3-1-0.5-1.8-0.5h-3.6v4.4h3.4c0.5,0,0.9,0,1.2-0.1c0.3-0.1,0.6-0.2,0.8-0.4c0.2-0.2,0.4-0.4,0.5-0.7
      c0.1-0.3,0.1-0.6,0.1-1C135.7,36.3,135.5,35.8,135.1,35.4z M135.1,35.4c-0.4-0.3-1-0.5-1.8-0.5h-3.6v4.4h3.4c0.5,0,0.9,0,1.2-0.1
      c0.3-0.1,0.6-0.2,0.8-0.4c0.2-0.2,0.4-0.4,0.5-0.7c0.1-0.3,0.1-0.6,0.1-1C135.7,36.3,135.5,35.8,135.1,35.4z M129.3,19.5
      c-0.8-2.1-1.7-4.4-2.6-6.9h-0.1c-0.9,2.5-1.8,4.9-2.6,6.9l-0.8,1.9h6.8L129.3,19.5z M113.7,37.8c-0.1-0.6-0.4-1.1-0.7-1.5
      c-0.3-0.4-0.8-0.7-1.3-1c-0.6-0.2-1.2-0.3-2.1-0.3h-2.1v9.8h2.1c0.8,0,1.5-0.1,2.1-0.3c0.6-0.2,1-0.5,1.3-1c0.3-0.4,0.6-1,0.7-1.6
      c0.1-0.6,0.2-1.3,0.2-2.1C113.9,39.1,113.8,38.4,113.7,37.8z M87.7,35.1l-1.9,5.9h3.9L87.7,35.1z M63.7,35.1l-1.9,5.9h3.9
      L63.7,35.1z M44.2,35.1l-1.9,5.9h3.9L44.2,35.1z M44.2,35.1l-1.9,5.9h3.9L44.2,35.1z M63.7,35.1l-1.9,5.9h3.9L63.7,35.1z
       M87.7,35.1l-1.9,5.9h3.9L87.7,35.1z M113.7,37.8c-0.1-0.6-0.4-1.1-0.7-1.5c-0.3-0.4-0.8-0.7-1.3-1c-0.6-0.2-1.2-0.3-2.1-0.3h-2.1
      v9.8h2.1c0.8,0,1.5-0.1,2.1-0.3c0.6-0.2,1-0.5,1.3-1c0.3-0.4,0.6-1,0.7-1.6c0.1-0.6,0.2-1.3,0.2-2.1
      C113.9,39.1,113.8,38.4,113.7,37.8z M129.3,19.5c-0.8-2.1-1.7-4.4-2.6-6.9h-0.1c-0.9,2.5-1.8,4.9-2.6,6.9l-0.8,1.9h6.8L129.3,19.5
      z M135.1,35.4c-0.4-0.3-1-0.5-1.8-0.5h-3.6v4.4h3.4c0.5,0,0.9,0,1.2-0.1c0.3-0.1,0.6-0.2,0.8-0.4c0.2-0.2,0.4-0.4,0.5-0.7
      c0.1-0.3,0.1-0.6,0.1-1C135.7,36.3,135.5,35.8,135.1,35.4z M135.1,35.4c-0.4-0.3-1-0.5-1.8-0.5h-3.6v4.4h3.4c0.5,0,0.9,0,1.2-0.1
      c0.3-0.1,0.6-0.2,0.8-0.4c0.2-0.2,0.4-0.4,0.5-0.7c0.1-0.3,0.1-0.6,0.1-1C135.7,36.3,135.5,35.8,135.1,35.4z M129.3,19.5
      c-0.8-2.1-1.7-4.4-2.6-6.9h-0.1c-0.9,2.5-1.8,4.9-2.6,6.9l-0.8,1.9h6.8L129.3,19.5z M113.7,37.8c-0.1-0.6-0.4-1.1-0.7-1.5
      c-0.3-0.4-0.8-0.7-1.3-1c-0.6-0.2-1.2-0.3-2.1-0.3h-2.1v9.8h2.1c0.8,0,1.5-0.1,2.1-0.3c0.6-0.2,1-0.5,1.3-1c0.3-0.4,0.6-1,0.7-1.6
      c0.1-0.6,0.2-1.3,0.2-2.1C113.9,39.1,113.8,38.4,113.7,37.8z M87.7,35.1l-1.9,5.9h3.9L87.7,35.1z M63.7,35.1l-1.9,5.9h3.9
      L63.7,35.1z M44.2,35.1l-1.9,5.9h3.9L44.2,35.1z M44.2,35.1l-1.9,5.9h3.9L44.2,35.1z M63.7,35.1l-1.9,5.9h3.9L63.7,35.1z
       M87.7,35.1l-1.9,5.9h3.9L87.7,35.1z M113.7,37.8c-0.1-0.6-0.4-1.1-0.7-1.5c-0.3-0.4-0.8-0.7-1.3-1c-0.6-0.2-1.2-0.3-2.1-0.3h-2.1
      v9.8h2.1c0.8,0,1.5-0.1,2.1-0.3c0.6-0.2,1-0.5,1.3-1c0.3-0.4,0.6-1,0.7-1.6c0.1-0.6,0.2-1.3,0.2-2.1
      C113.9,39.1,113.8,38.4,113.7,37.8z M129.3,19.5c-0.8-2.1-1.7-4.4-2.6-6.9h-0.1c-0.9,2.5-1.8,4.9-2.6,6.9l-0.8,1.9h6.8L129.3,19.5
      z M135.1,35.4c-0.4-0.3-1-0.5-1.8-0.5h-3.6v4.4h3.4c0.5,0,0.9,0,1.2-0.1c0.3-0.1,0.6-0.2,0.8-0.4c0.2-0.2,0.4-0.4,0.5-0.7
      c0.1-0.3,0.1-0.6,0.1-1C135.7,36.3,135.5,35.8,135.1,35.4z M135.1,35.4c-0.4-0.3-1-0.5-1.8-0.5h-3.6v4.4h3.4c0.5,0,0.9,0,1.2-0.1
      c0.3-0.1,0.6-0.2,0.8-0.4c0.2-0.2,0.4-0.4,0.5-0.7c0.1-0.3,0.1-0.6,0.1-1C135.7,36.3,135.5,35.8,135.1,35.4z M129.3,19.5
      c-0.8-2.1-1.7-4.4-2.6-6.9h-0.1c-0.9,2.5-1.8,4.9-2.6,6.9l-0.8,1.9h6.8L129.3,19.5z M113.7,37.8c-0.1-0.6-0.4-1.1-0.7-1.5
      c-0.3-0.4-0.8-0.7-1.3-1c-0.6-0.2-1.2-0.3-2.1-0.3h-2.1v9.8h2.1c0.8,0,1.5-0.1,2.1-0.3c0.6-0.2,1-0.5,1.3-1c0.3-0.4,0.6-1,0.7-1.6
      c0.1-0.6,0.2-1.3,0.2-2.1C113.9,39.1,113.8,38.4,113.7,37.8z M87.7,35.1l-1.9,5.9h3.9L87.7,35.1z M63.7,35.1l-1.9,5.9h3.9
      L63.7,35.1z M44.2,35.1l-1.9,5.9h3.9L44.2,35.1z M44.2,35.1l-1.9,5.9h3.9L44.2,35.1z M63.7,35.1l-1.9,5.9h3.9L63.7,35.1z
       M87.7,35.1l-1.9,5.9h3.9L87.7,35.1z M113.7,37.8c-0.1-0.6-0.4-1.1-0.7-1.5c-0.3-0.4-0.8-0.7-1.3-1c-0.6-0.2-1.2-0.3-2.1-0.3h-2.1
      v9.8h2.1c0.8,0,1.5-0.1,2.1-0.3c0.6-0.2,1-0.5,1.3-1c0.3-0.4,0.6-1,0.7-1.6c0.1-0.6,0.2-1.3,0.2-2.1
      C113.9,39.1,113.8,38.4,113.7,37.8z M129.3,19.5c-0.8-2.1-1.7-4.4-2.6-6.9h-0.1c-0.9,2.5-1.8,4.9-2.6,6.9l-0.8,1.9h6.8L129.3,19.5
      z M135.1,35.4c-0.4-0.3-1-0.5-1.8-0.5h-3.6v4.4h3.4c0.5,0,0.9,0,1.2-0.1c0.3-0.1,0.6-0.2,0.8-0.4c0.2-0.2,0.4-0.4,0.5-0.7
      c0.1-0.3,0.1-0.6,0.1-1C135.7,36.3,135.5,35.8,135.1,35.4z M135.1,35.4c-0.4-0.3-1-0.5-1.8-0.5h-3.6v4.4h3.4c0.5,0,0.9,0,1.2-0.1
      c0.3-0.1,0.6-0.2,0.8-0.4c0.2-0.2,0.4-0.4,0.5-0.7c0.1-0.3,0.1-0.6,0.1-1C135.7,36.3,135.5,35.8,135.1,35.4z M129.3,19.5
      c-0.8-2.1-1.7-4.4-2.6-6.9h-0.1c-0.9,2.5-1.8,4.9-2.6,6.9l-0.8,1.9h6.8L129.3,19.5z M113.7,37.8c-0.1-0.6-0.4-1.1-0.7-1.5
      c-0.3-0.4-0.8-0.7-1.3-1c-0.6-0.2-1.2-0.3-2.1-0.3h-2.1v9.8h2.1c0.8,0,1.5-0.1,2.1-0.3c0.6-0.2,1-0.5,1.3-1c0.3-0.4,0.6-1,0.7-1.6
      c0.1-0.6,0.2-1.3,0.2-2.1C113.9,39.1,113.8,38.4,113.7,37.8z M87.7,35.1l-1.9,5.9h3.9L87.7,35.1z M63.7,35.1l-1.9,5.9h3.9
      L63.7,35.1z M44.2,35.1l-1.9,5.9h3.9L44.2,35.1z M44.2,35.1l-1.9,5.9h3.9L44.2,35.1z M63.7,35.1l-1.9,5.9h3.9L63.7,35.1z
       M87.7,35.1l-1.9,5.9h3.9L87.7,35.1z M113.7,37.8c-0.1-0.6-0.4-1.1-0.7-1.5c-0.3-0.4-0.8-0.7-1.3-1c-0.6-0.2-1.2-0.3-2.1-0.3h-2.1
      v9.8h2.1c0.8,0,1.5-0.1,2.1-0.3c0.6-0.2,1-0.5,1.3-1c0.3-0.4,0.6-1,0.7-1.6c0.1-0.6,0.2-1.3,0.2-2.1
      C113.9,39.1,113.8,38.4,113.7,37.8z M129.3,19.5c-0.8-2.1-1.7-4.4-2.6-6.9h-0.1c-0.9,2.5-1.8,4.9-2.6,6.9l-0.8,1.9h6.8L129.3,19.5
      z M135.1,35.4c-0.4-0.3-1-0.5-1.8-0.5h-3.6v4.4h3.4c0.5,0,0.9,0,1.2-0.1c0.3-0.1,0.6-0.2,0.8-0.4c0.2-0.2,0.4-0.4,0.5-0.7
      c0.1-0.3,0.1-0.6,0.1-1C135.7,36.3,135.5,35.8,135.1,35.4z M135.1,35.4c-0.4-0.3-1-0.5-1.8-0.5h-3.6v4.4h3.4c0.5,0,0.9,0,1.2-0.1
      c0.3-0.1,0.6-0.2,0.8-0.4c0.2-0.2,0.4-0.4,0.5-0.7c0.1-0.3,0.1-0.6,0.1-1C135.7,36.3,135.5,35.8,135.1,35.4z M129.3,19.5
      c-0.8-2.1-1.7-4.4-2.6-6.9h-0.1c-0.9,2.5-1.8,4.9-2.6,6.9l-0.8,1.9h6.8L129.3,19.5z M113.7,37.8c-0.1-0.6-0.4-1.1-0.7-1.5
      c-0.3-0.4-0.8-0.7-1.3-1c-0.6-0.2-1.2-0.3-2.1-0.3h-2.1v9.8h2.1c0.8,0,1.5-0.1,2.1-0.3c0.6-0.2,1-0.5,1.3-1c0.3-0.4,0.6-1,0.7-1.6
      c0.1-0.6,0.2-1.3,0.2-2.1C113.9,39.1,113.8,38.4,113.7,37.8z M87.7,35.1l-1.9,5.9h3.9L87.7,35.1z M63.7,35.1l-1.9,5.9h3.9
      L63.7,35.1z M44.2,35.1l-1.9,5.9h3.9L44.2,35.1z M23.9,5.7c-0.5,1-1.3,2.1-2.2,3.1c-0.1,0.1-0.3,0.3-0.4,0.4
      c-0.2,0.1-0.3,0.3-0.5,0.4c-0.4,0.3-0.8,0.5-1.2,0.7c-0.1,0.1-0.2,0.1-0.3,0.2c-0.1,0-0.1,0.1-0.2,0.1c0,0-0.1,0-0.2,0.1
      c-0.1,0-0.2,0.1-0.3,0.1c-0.1,0-0.2,0.1-0.3,0.1c-0.1,0-0.3,0.1-0.4,0.1c-0.1,0-0.2,0-0.3,0.1c-0.1,0-0.2,0-0.3,0.1
      c-0.2,0-0.5,0-0.7,0h0c-0.2,1.7-1,3.1-1.7,4.3c-0.3,0.5-0.6,1-0.8,1.4c0,0,0,0,0,0c0.2-0.1,0.7-0.3,1.4-0.2
      c0.4-0.2,0.7-1.1,0.9-1.9c0.3-0.9,0.5-1.6,0.9-1.6c0,0,0.1,0,0.1,0c0,0,0.1,0,0.1,0.1c0,0,0.1,0.1,0.1,0.1c0,0.1,0,0.1,0,0.2
      c0,0,0,0.1,0,0.1c0,0,0,0.1,0,0.1c0,0.1,0,0.2-0.1,0.2c-0.1,0.2-0.2,0.5-0.3,0.8c-0.1,0.3-0.3,0.7-0.3,0.9c0,0,0,0,0,0v0
      c0,0,0,0,0,0c0,0,0,0,0,0c0,0,0,0,0,0c0,0,0,0,0,0c0.2,0,0.7-0.6,1.2-1.2c0.6-0.7,1.2-1.4,1.6-1.4c0.1,0,0.2,0,0.3,0.1
      c0.4,0.4-0.4,1.2-1.1,1.9c-0.5,0.5-1.1,1-1,1.2c0,0,0.1,0,0.1,0c0.2,0,0.5-0.1,0.9-0.2c0.4-0.1,0.9-0.3,1.2-0.3
      c0.4,0,0.5,0.2,0.5,0.4c0,0.5-0.9,0.6-1.7,0.7c-0.5,0.1-1.1,0.1-1.2,0.3c0,0.1,0,0.1,0,0.2c0.1,0.2,0.4,0.3,0.8,0.4
      c0.4,0.1,0.8,0.3,0.9,0.5c0.1,0.1,0.1,0.2,0,0.4c-0.1,0.2-0.2,0.2-0.4,0.2c-0.1,0-0.1,0-0.2,0c0,0-0.1,0-0.1,0
      c-0.2-0.1-0.4-0.2-0.7-0.3l0,0c-0.1,0-0.1-0.1-0.2-0.1c-0.5-0.2-0.9-0.4-1.4-0.4h0c-0.2,0-0.4,0.1-0.6,0.2c-1.1,0.5-2,0.8-2.7,1
      c-0.1,0-0.2,0-0.3,0.1c-0.1,0-0.2,0-0.3,0.1c-0.2,0-0.4,0-0.6,0c-0.6,0-1.1-0.2-1.4-0.5c-0.7-1,0-2.1,0.4-2.7
      c0.1-0.1,0.2-0.2,0.2-0.3c-1.1,1.3-2.7,4.4-2.1,6.9c0.6,2.2,1.3,3.2,2.1,4.3c0.3,0.4,0.7,0.9,1,1.5c0.6-0.3,1.2-0.5,1.6-0.5
      c0.9,0,1.2,0.7,1.7,1.7c0.2,0.5,0.5,1,0.8,1.5c0,0,0,0,0-0.1c0.2-0.4-0.3-1.6-0.7-2.7c-0.6-1.5-0.9-2.4-0.5-2.6
      c0.1,0,0.1-0.1,0.2-0.1c0.6,0,0.9,1.4,1.2,2.6c0.1,0.5,0.3,1.1,0.4,1.2c0.1-0.2,0-1.2,0-2.1c-0.1-2.5-0.2-4.4,0.6-4.4h0
      c0.1,0,0.1,0,0.2,0.1c0.3,0.4,0.3,2,0.2,3.7c-0.1,1.1-0.1,2.6,0,2.7c0.1-0.1,0.3-0.9,0.5-1.6c0.4-1.6,0.7-2.6,1.1-2.6
      c0,0,0.1,0,0.1,0c0.6,0.3,0,2-0.5,3.4c-0.2,0.5-0.4,1.1-0.4,1.2c0.2,0,0.4-0.2,0.7-0.4c0.4-0.3,0.8-0.6,1.2-0.6
      c0.2,0,0.3,0.1,0.5,0.2c0.2,0.5-0.7,1-1.5,1.5c-0.4,0.2-0.8,0.4-1,0.6c-0.6,0.8-0.9,1.6-1.1,2.2c-0.2,0.7-0.4,1.3-1,1.3
      c-0.4,0-1-0.3-2-0.9c2.7,5.5,3.3,10.3,1.6,14.5h127.5V5.7H23.9z M68.3,9.4h2.5v10.1h0l9.4-10.1h2.5l-9.5,10.2l10.1,10.3h-2.5
      l-10-10h0v10h-2.5V9.4z M54.4,9.4h2.5v20.5h-2.5V9.4z M29.5,9.4h5c0.5,0,0.9,0,1.3,0c0.4,0,0.7,0,1,0.1c0.3,0,0.6,0.1,0.9,0.1
      c0.3,0,0.5,0.1,0.8,0.2c0.6,0.2,1.2,0.4,1.7,0.7c0.5,0.3,1,0.7,1.3,1.1c0.4,0.4,0.6,0.9,0.8,1.4c0.2,0.5,0.3,1.1,0.3,1.7
      c0,0.5-0.1,1-0.2,1.4c-0.1,0.5-0.3,0.9-0.6,1.3c-0.3,0.4-0.6,0.7-1,1c-0.4,0.3-0.9,0.6-1.5,0.8v0.1c0.6,0.1,1.2,0.3,1.7,0.5
      c0.5,0.2,0.9,0.6,1.3,0.9c0.4,0.4,0.6,0.8,0.8,1.4c0.2,0.5,0.3,1.1,0.3,1.8c0,0.5-0.1,1-0.2,1.5c-0.1,0.5-0.4,1-0.7,1.5
      c-0.3,0.5-0.8,1-1.3,1.4c-0.5,0.4-1.2,0.8-2,1c-0.6,0.2-1.3,0.3-2,0.4c-0.7,0.1-1.6,0.1-2.6,0.1h-5.2V9.4z M37.9,44.2
      c-0.2,0.5-0.5,0.9-0.9,1.2c-0.4,0.3-0.8,0.6-1.3,0.8c-0.5,0.2-1.1,0.3-1.7,0.3c-0.8,0-1.5-0.1-2.1-0.3c-0.6-0.2-1.1-0.5-1.5-0.9
      c-0.4-0.4-0.7-0.8-0.9-1.4c-0.2-0.5-0.3-1.1-0.3-1.8h1.5c0,0.5,0.2,0.9,0.3,1.3c0.2,0.4,0.4,0.7,0.7,0.9c0.3,0.2,0.6,0.4,1,0.5
      C33,45,33.4,45,33.9,45c0.4,0,0.8,0,1.2-0.2c0.3-0.1,0.6-0.2,0.9-0.4c0.2-0.2,0.4-0.4,0.6-0.7c0.1-0.3,0.2-0.6,0.2-0.9
      c0-0.4-0.1-0.7-0.2-0.9c-0.1-0.2-0.3-0.5-0.6-0.6c-0.3-0.2-0.6-0.3-1.1-0.5c-0.5-0.1-1-0.3-1.7-0.4c-0.6-0.2-1.2-0.3-1.7-0.6
      c-0.5-0.2-0.8-0.5-1.1-0.7c-0.3-0.3-0.5-0.6-0.7-1c-0.1-0.4-0.2-0.8-0.2-1.3c0-0.5,0.1-1,0.3-1.4c0.2-0.4,0.5-0.8,0.8-1.1
      c0.4-0.3,0.8-0.6,1.3-0.7c0.5-0.2,1.1-0.3,1.7-0.3c0.6,0,1.2,0.1,1.8,0.3c0.5,0.2,1,0.4,1.4,0.8c0.4,0.3,0.7,0.7,0.9,1.2
      c0.2,0.5,0.3,1,0.4,1.6h-1.5c-0.1-1.6-1.1-2.3-2.8-2.3c-0.8,0-1.5,0.2-2,0.5c-0.5,0.4-0.7,0.8-0.7,1.4c0,0.3,0,0.5,0.1,0.7
      s0.2,0.4,0.4,0.5c0.2,0.1,0.5,0.3,0.8,0.4c0.3,0.1,0.8,0.2,1.3,0.4c0.3,0.1,0.7,0.2,1.1,0.3c0.4,0.1,0.7,0.2,1.1,0.3
      c0.3,0.1,0.7,0.3,1,0.5c0.3,0.2,0.6,0.4,0.8,0.7c0.2,0.3,0.4,0.6,0.5,0.9c0.1,0.4,0.2,0.8,0.2,1.3C38.2,43.2,38.1,43.8,37.9,44.2z
       M48,46.3l-1.3-3.9h-4.8l-1.3,3.9H39l4.4-12.9H45l4.7,12.9H48z M58,46.3H51V33.5h1.5v11.3H58V46.3z M67.5,46.3l-1.3-3.9h-4.8
      l-1.3,3.9h-1.6l4.4-12.9h1.6l4.7,12.9H67.5z M81.3,46.3h-1.4V35.4l-3.3,10.9h-1.4l-3.3-10.9v10.9h-1.4V33.5h2.3l3.1,10.7L79,33.5
      h2.3V46.3z M91.5,46.3l-1.3-3.9h-4.8l-1.3,3.9h-1.6l4.4-12.9h1.6l4.7,12.9H91.5z M93.6,9.4h2.5v8.9h10.7V9.4h2.5v20.5h-2.5v-9.4
      H96.1v9.4h-2.5V9.4z M103.4,46.3h-1.6l-6-10.1v10.1h-1.4V33.5H96l6,10.2V33.5h1.5V46.3z M109.6,46.3H106V33.5h3.6
      c3.9,0,5.8,2.1,5.8,6.4C115.4,44.2,113.5,46.3,109.6,46.3z M125.7,9.4h2.2l8.3,20.5h-2.7l-2.4-6.2h-8.6l-2.4,6.2h-2.7L125.7,9.4z
       M126,46.3h-8.5V33.5h8.3V35H119v3.9h6.3v1.5H119v4.4h7V46.3z M136.1,46.3l-1.1-3.4c-0.1-0.3-0.2-0.6-0.4-0.8
      c-0.2-0.2-0.3-0.5-0.6-0.6c-0.2-0.2-0.5-0.3-0.7-0.4c-0.3-0.1-0.5-0.2-0.8-0.2h-2.8v5.5h-1.5V33.5h5.1c0.3,0,0.6,0,0.9,0
      c0.3,0,0.5,0,0.8,0.1c0.2,0.1,0.5,0.1,0.7,0.3c0.2,0.1,0.4,0.3,0.6,0.4c0.3,0.3,0.6,0.8,0.8,1.3c0.2,0.5,0.3,1,0.3,1.5
      c0,0.4-0.1,0.9-0.2,1.2s-0.3,0.7-0.5,1c-0.2,0.3-0.5,0.5-0.8,0.7c-0.3,0.2-0.7,0.3-1.1,0.4v0c0.8,0.3,1.4,1.1,1.8,2.3l1.1,3.5
      H136.1z M135.6,38.1c0.1-0.3,0.1-0.6,0.1-1c0-0.7-0.2-1.3-0.6-1.6c-0.4-0.3-1-0.5-1.8-0.5h-3.6v4.4h3.4c0.5,0,0.9,0,1.2-0.1
      c0.3-0.1,0.6-0.2,0.8-0.4C135.3,38.6,135.5,38.4,135.6,38.1z M129.3,19.5c-0.8-2.1-1.7-4.4-2.6-6.9h-0.1c-0.9,2.5-1.8,4.9-2.6,6.9
      l-0.8,1.9h6.8L129.3,19.5z M113,36.3c-0.3-0.4-0.8-0.7-1.3-1c-0.6-0.2-1.2-0.3-2.1-0.3h-2.1v9.8h2.1c0.8,0,1.5-0.1,2.1-0.3
      c0.6-0.2,1-0.5,1.3-1c0.3-0.4,0.6-1,0.7-1.6c0.1-0.6,0.2-1.3,0.2-2.1c0-0.7-0.1-1.4-0.2-2C113.5,37.2,113.3,36.7,113,36.3z
       M85.8,41.1h3.9l-2-5.9L85.8,41.1z M61.8,41.1h3.9l-2-5.9L61.8,41.1z M42.3,41.1h3.9l-2-5.9L42.3,41.1z M44.2,35.1l-1.9,5.9h3.9
      L44.2,35.1z M63.7,35.1l-1.9,5.9h3.9L63.7,35.1z M87.7,35.1l-1.9,5.9h3.9L87.7,35.1z M113.7,37.8c-0.1-0.6-0.4-1.1-0.7-1.5
      c-0.3-0.4-0.8-0.7-1.3-1c-0.6-0.2-1.2-0.3-2.1-0.3h-2.1v9.8h2.1c0.8,0,1.5-0.1,2.1-0.3c0.6-0.2,1-0.5,1.3-1c0.3-0.4,0.6-1,0.7-1.6
      c0.1-0.6,0.2-1.3,0.2-2.1C113.9,39.1,113.8,38.4,113.7,37.8z M129.3,19.5c-0.8-2.1-1.7-4.4-2.6-6.9h-0.1c-0.9,2.5-1.8,4.9-2.6,6.9
      l-0.8,1.9h6.8L129.3,19.5z M135.1,35.4c-0.4-0.3-1-0.5-1.8-0.5h-3.6v4.4h3.4c0.5,0,0.9,0,1.2-0.1c0.3-0.1,0.6-0.2,0.8-0.4
      c0.2-0.2,0.4-0.4,0.5-0.7c0.1-0.3,0.1-0.6,0.1-1C135.7,36.3,135.5,35.8,135.1,35.4z M135.1,35.4c-0.4-0.3-1-0.5-1.8-0.5h-3.6v4.4
      h3.4c0.5,0,0.9,0,1.2-0.1c0.3-0.1,0.6-0.2,0.8-0.4c0.2-0.2,0.4-0.4,0.5-0.7c0.1-0.3,0.1-0.6,0.1-1
      C135.7,36.3,135.5,35.8,135.1,35.4z M129.3,19.5c-0.8-2.1-1.7-4.4-2.6-6.9h-0.1c-0.9,2.5-1.8,4.9-2.6,6.9l-0.8,1.9h6.8L129.3,19.5
      z M113.7,37.8c-0.1-0.6-0.4-1.1-0.7-1.5c-0.3-0.4-0.8-0.7-1.3-1c-0.6-0.2-1.2-0.3-2.1-0.3h-2.1v9.8h2.1c0.8,0,1.5-0.1,2.1-0.3
      c0.6-0.2,1-0.5,1.3-1c0.3-0.4,0.6-1,0.7-1.6c0.1-0.6,0.2-1.3,0.2-2.1C113.9,39.1,113.8,38.4,113.7,37.8z M87.7,35.1l-1.9,5.9h3.9
      L87.7,35.1z M63.7,35.1l-1.9,5.9h3.9L63.7,35.1z M44.2,35.1l-1.9,5.9h3.9L44.2,35.1z M44.2,35.1l-1.9,5.9h3.9L44.2,35.1z
       M63.7,35.1l-1.9,5.9h3.9L63.7,35.1z M87.7,35.1l-1.9,5.9h3.9L87.7,35.1z M113.7,37.8c-0.1-0.6-0.4-1.1-0.7-1.5
      c-0.3-0.4-0.8-0.7-1.3-1c-0.6-0.2-1.2-0.3-2.1-0.3h-2.1v9.8h2.1c0.8,0,1.5-0.1,2.1-0.3c0.6-0.2,1-0.5,1.3-1c0.3-0.4,0.6-1,0.7-1.6
      c0.1-0.6,0.2-1.3,0.2-2.1C113.9,39.1,113.8,38.4,113.7,37.8z M129.3,19.5c-0.8-2.1-1.7-4.4-2.6-6.9h-0.1c-0.9,2.5-1.8,4.9-2.6,6.9
      l-0.8,1.9h6.8L129.3,19.5z M135.1,35.4c-0.4-0.3-1-0.5-1.8-0.5h-3.6v4.4h3.4c0.5,0,0.9,0,1.2-0.1c0.3-0.1,0.6-0.2,0.8-0.4
      c0.2-0.2,0.4-0.4,0.5-0.7c0.1-0.3,0.1-0.6,0.1-1C135.7,36.3,135.5,35.8,135.1,35.4z M135.1,35.4c-0.4-0.3-1-0.5-1.8-0.5h-3.6v4.4
      h3.4c0.5,0,0.9,0,1.2-0.1c0.3-0.1,0.6-0.2,0.8-0.4c0.2-0.2,0.4-0.4,0.5-0.7c0.1-0.3,0.1-0.6,0.1-1
      C135.7,36.3,135.5,35.8,135.1,35.4z M129.3,19.5c-0.8-2.1-1.7-4.4-2.6-6.9h-0.1c-0.9,2.5-1.8,4.9-2.6,6.9l-0.8,1.9h6.8L129.3,19.5
      z M113.7,37.8c-0.1-0.6-0.4-1.1-0.7-1.5c-0.3-0.4-0.8-0.7-1.3-1c-0.6-0.2-1.2-0.3-2.1-0.3h-2.1v9.8h2.1c0.8,0,1.5-0.1,2.1-0.3
      c0.6-0.2,1-0.5,1.3-1c0.3-0.4,0.6-1,0.7-1.6c0.1-0.6,0.2-1.3,0.2-2.1C113.9,39.1,113.8,38.4,113.7,37.8z M87.7,35.1l-1.9,5.9h3.9
      L87.7,35.1z M63.7,35.1l-1.9,5.9h3.9L63.7,35.1z M44.2,35.1l-1.9,5.9h3.9L44.2,35.1z M44.2,35.1l-1.9,5.9h3.9L44.2,35.1z
       M63.7,35.1l-1.9,5.9h3.9L63.7,35.1z M87.7,35.1l-1.9,5.9h3.9L87.7,35.1z M113.7,37.8c-0.1-0.6-0.4-1.1-0.7-1.5
      c-0.3-0.4-0.8-0.7-1.3-1c-0.6-0.2-1.2-0.3-2.1-0.3h-2.1v9.8h2.1c0.8,0,1.5-0.1,2.1-0.3c0.6-0.2,1-0.5,1.3-1c0.3-0.4,0.6-1,0.7-1.6
      c0.1-0.6,0.2-1.3,0.2-2.1C113.9,39.1,113.8,38.4,113.7,37.8z M129.3,19.5c-0.8-2.1-1.7-4.4-2.6-6.9h-0.1c-0.9,2.5-1.8,4.9-2.6,6.9
      l-0.8,1.9h6.8L129.3,19.5z M135.1,35.4c-0.4-0.3-1-0.5-1.8-0.5h-3.6v4.4h3.4c0.5,0,0.9,0,1.2-0.1c0.3-0.1,0.6-0.2,0.8-0.4
      c0.2-0.2,0.4-0.4,0.5-0.7c0.1-0.3,0.1-0.6,0.1-1C135.7,36.3,135.5,35.8,135.1,35.4z M135.1,35.4c-0.4-0.3-1-0.5-1.8-0.5h-3.6v4.4
      h3.4c0.5,0,0.9,0,1.2-0.1c0.3-0.1,0.6-0.2,0.8-0.4c0.2-0.2,0.4-0.4,0.5-0.7c0.1-0.3,0.1-0.6,0.1-1
      C135.7,36.3,135.5,35.8,135.1,35.4z M129.3,19.5c-0.8-2.1-1.7-4.4-2.6-6.9h-0.1c-0.9,2.5-1.8,4.9-2.6,6.9l-0.8,1.9h6.8L129.3,19.5
      z M113.7,37.8c-0.1-0.6-0.4-1.1-0.7-1.5c-0.3-0.4-0.8-0.7-1.3-1c-0.6-0.2-1.2-0.3-2.1-0.3h-2.1v9.8h2.1c0.8,0,1.5-0.1,2.1-0.3
      c0.6-0.2,1-0.5,1.3-1c0.3-0.4,0.6-1,0.7-1.6c0.1-0.6,0.2-1.3,0.2-2.1C113.9,39.1,113.8,38.4,113.7,37.8z M87.7,35.1l-1.9,5.9h3.9
      L87.7,35.1z M63.7,35.1l-1.9,5.9h3.9L63.7,35.1z M44.2,35.1l-1.9,5.9h3.9L44.2,35.1z M44.2,35.1l-1.9,5.9h3.9L44.2,35.1z
       M63.7,35.1l-1.9,5.9h3.9L63.7,35.1z M87.7,35.1l-1.9,5.9h3.9L87.7,35.1z M113.7,37.8c-0.1-0.6-0.4-1.1-0.7-1.5
      c-0.3-0.4-0.8-0.7-1.3-1c-0.6-0.2-1.2-0.3-2.1-0.3h-2.1v9.8h2.1c0.8,0,1.5-0.1,2.1-0.3c0.6-0.2,1-0.5,1.3-1c0.3-0.4,0.6-1,0.7-1.6
      c0.1-0.6,0.2-1.3,0.2-2.1C113.9,39.1,113.8,38.4,113.7,37.8z M129.3,19.5c-0.8-2.1-1.7-4.4-2.6-6.9h-0.1c-0.9,2.5-1.8,4.9-2.6,6.9
      l-0.8,1.9h6.8L129.3,19.5z M135.1,35.4c-0.4-0.3-1-0.5-1.8-0.5h-3.6v4.4h3.4c0.5,0,0.9,0,1.2-0.1c0.3-0.1,0.6-0.2,0.8-0.4
      c0.2-0.2,0.4-0.4,0.5-0.7c0.1-0.3,0.1-0.6,0.1-1C135.7,36.3,135.5,35.8,135.1,35.4z M135.1,35.4c-0.4-0.3-1-0.5-1.8-0.5h-3.6v4.4
      h3.4c0.5,0,0.9,0,1.2-0.1c0.3-0.1,0.6-0.2,0.8-0.4c0.2-0.2,0.4-0.4,0.5-0.7c0.1-0.3,0.1-0.6,0.1-1
      C135.7,36.3,135.5,35.8,135.1,35.4z M129.3,19.5c-0.8-2.1-1.7-4.4-2.6-6.9h-0.1c-0.9,2.5-1.8,4.9-2.6,6.9l-0.8,1.9h6.8L129.3,19.5
      z M113.7,37.8c-0.1-0.6-0.4-1.1-0.7-1.5c-0.3-0.4-0.8-0.7-1.3-1c-0.6-0.2-1.2-0.3-2.1-0.3h-2.1v9.8h2.1c0.8,0,1.5-0.1,2.1-0.3
      c0.6-0.2,1-0.5,1.3-1c0.3-0.4,0.6-1,0.7-1.6c0.1-0.6,0.2-1.3,0.2-2.1C113.9,39.1,113.8,38.4,113.7,37.8z M87.7,35.1l-1.9,5.9h3.9
      L87.7,35.1z M63.7,35.1l-1.9,5.9h3.9L63.7,35.1z M44.2,35.1l-1.9,5.9h3.9L44.2,35.1z M44.2,35.1l-1.9,5.9h3.9L44.2,35.1z
       M63.7,35.1l-1.9,5.9h3.9L63.7,35.1z M87.7,35.1l-1.9,5.9h3.9L87.7,35.1z M113.7,37.8c-0.1-0.6-0.4-1.1-0.7-1.5
      c-0.3-0.4-0.8-0.7-1.3-1c-0.6-0.2-1.2-0.3-2.1-0.3h-2.1v9.8h2.1c0.8,0,1.5-0.1,2.1-0.3c0.6-0.2,1-0.5,1.3-1c0.3-0.4,0.6-1,0.7-1.6
      c0.1-0.6,0.2-1.3,0.2-2.1C113.9,39.1,113.8,38.4,113.7,37.8z M129.3,19.5c-0.8-2.1-1.7-4.4-2.6-6.9h-0.1c-0.9,2.5-1.8,4.9-2.6,6.9
      l-0.8,1.9h6.8L129.3,19.5z M135.1,35.4c-0.4-0.3-1-0.5-1.8-0.5h-3.6v4.4h3.4c0.5,0,0.9,0,1.2-0.1c0.3-0.1,0.6-0.2,0.8-0.4
      c0.2-0.2,0.4-0.4,0.5-0.7c0.1-0.3,0.1-0.6,0.1-1C135.7,36.3,135.5,35.8,135.1,35.4z M135.1,35.4c-0.4-0.3-1-0.5-1.8-0.5h-3.6v4.4
      h3.4c0.5,0,0.9,0,1.2-0.1c0.3-0.1,0.6-0.2,0.8-0.4c0.2-0.2,0.4-0.4,0.5-0.7c0.1-0.3,0.1-0.6,0.1-1
      C135.7,36.3,135.5,35.8,135.1,35.4z M129.3,19.5c-0.8-2.1-1.7-4.4-2.6-6.9h-0.1c-0.9,2.5-1.8,4.9-2.6,6.9l-0.8,1.9h6.8L129.3,19.5
      z M113.7,37.8c-0.1-0.6-0.4-1.1-0.7-1.5c-0.3-0.4-0.8-0.7-1.3-1c-0.6-0.2-1.2-0.3-2.1-0.3h-2.1v9.8h2.1c0.8,0,1.5-0.1,2.1-0.3
      c0.6-0.2,1-0.5,1.3-1c0.3-0.4,0.6-1,0.7-1.6c0.1-0.6,0.2-1.3,0.2-2.1C113.9,39.1,113.8,38.4,113.7,37.8z M87.7,35.1l-1.9,5.9h3.9
      L87.7,35.1z M63.7,35.1l-1.9,5.9h3.9L63.7,35.1z M44.2,35.1l-1.9,5.9h3.9L44.2,35.1z M44.2,35.1l-1.9,5.9h3.9L44.2,35.1z
       M63.7,35.1l-1.9,5.9h3.9L63.7,35.1z M87.7,35.1l-1.9,5.9h3.9L87.7,35.1z M113.7,37.8c-0.1-0.6-0.4-1.1-0.7-1.5
      c-0.3-0.4-0.8-0.7-1.3-1c-0.6-0.2-1.2-0.3-2.1-0.3h-2.1v9.8h2.1c0.8,0,1.5-0.1,2.1-0.3c0.6-0.2,1-0.5,1.3-1c0.3-0.4,0.6-1,0.7-1.6
      c0.1-0.6,0.2-1.3,0.2-2.1C113.9,39.1,113.8,38.4,113.7,37.8z M129.3,19.5c-0.8-2.1-1.7-4.4-2.6-6.9h-0.1c-0.9,2.5-1.8,4.9-2.6,6.9
      l-0.8,1.9h6.8L129.3,19.5z M135.1,35.4c-0.4-0.3-1-0.5-1.8-0.5h-3.6v4.4h3.4c0.5,0,0.9,0,1.2-0.1c0.3-0.1,0.6-0.2,0.8-0.4
      c0.2-0.2,0.4-0.4,0.5-0.7c0.1-0.3,0.1-0.6,0.1-1C135.7,36.3,135.5,35.8,135.1,35.4z M135.1,35.4c-0.4-0.3-1-0.5-1.8-0.5h-3.6v4.4
      h3.4c0.5,0,0.9,0,1.2-0.1c0.3-0.1,0.6-0.2,0.8-0.4c0.2-0.2,0.4-0.4,0.5-0.7c0.1-0.3,0.1-0.6,0.1-1
      C135.7,36.3,135.5,35.8,135.1,35.4z M129.3,19.5c-0.8-2.1-1.7-4.4-2.6-6.9h-0.1c-0.9,2.5-1.8,4.9-2.6,6.9l-0.8,1.9h6.8L129.3,19.5
      z M113.7,37.8c-0.1-0.6-0.4-1.1-0.7-1.5c-0.3-0.4-0.8-0.7-1.3-1c-0.6-0.2-1.2-0.3-2.1-0.3h-2.1v9.8h2.1c0.8,0,1.5-0.1,2.1-0.3
      c0.6-0.2,1-0.5,1.3-1c0.3-0.4,0.6-1,0.7-1.6c0.1-0.6,0.2-1.3,0.2-2.1C113.9,39.1,113.8,38.4,113.7,37.8z M87.7,35.1l-1.9,5.9h3.9
      L87.7,35.1z M63.7,35.1l-1.9,5.9h3.9L63.7,35.1z M44.2,35.1l-1.9,5.9h3.9L44.2,35.1z M44.2,35.1l-1.9,5.9h3.9L44.2,35.1z
       M63.7,35.1l-1.9,5.9h3.9L63.7,35.1z M87.7,35.1l-1.9,5.9h3.9L87.7,35.1z M113.7,37.8c-0.1-0.6-0.4-1.1-0.7-1.5
      c-0.3-0.4-0.8-0.7-1.3-1c-0.6-0.2-1.2-0.3-2.1-0.3h-2.1v9.8h2.1c0.8,0,1.5-0.1,2.1-0.3c0.6-0.2,1-0.5,1.3-1c0.3-0.4,0.6-1,0.7-1.6
      c0.1-0.6,0.2-1.3,0.2-2.1C113.9,39.1,113.8,38.4,113.7,37.8z M129.3,19.5c-0.8-2.1-1.7-4.4-2.6-6.9h-0.1c-0.9,2.5-1.8,4.9-2.6,6.9
      l-0.8,1.9h6.8L129.3,19.5z M135.1,35.4c-0.4-0.3-1-0.5-1.8-0.5h-3.6v4.4h3.4c0.5,0,0.9,0,1.2-0.1c0.3-0.1,0.6-0.2,0.8-0.4
      c0.2-0.2,0.4-0.4,0.5-0.7c0.1-0.3,0.1-0.6,0.1-1C135.7,36.3,135.5,35.8,135.1,35.4z M135.1,35.4c-0.4-0.3-1-0.5-1.8-0.5h-3.6v4.4
      h3.4c0.5,0,0.9,0,1.2-0.1c0.3-0.1,0.6-0.2,0.8-0.4c0.2-0.2,0.4-0.4,0.5-0.7c0.1-0.3,0.1-0.6,0.1-1
      C135.7,36.3,135.5,35.8,135.1,35.4z M129.3,19.5c-0.8-2.1-1.7-4.4-2.6-6.9h-0.1c-0.9,2.5-1.8,4.9-2.6,6.9l-0.8,1.9h6.8L129.3,19.5
      z M113.7,37.8c-0.1-0.6-0.4-1.1-0.7-1.5c-0.3-0.4-0.8-0.7-1.3-1c-0.6-0.2-1.2-0.3-2.1-0.3h-2.1v9.8h2.1c0.8,0,1.5-0.1,2.1-0.3
      c0.6-0.2,1-0.5,1.3-1c0.3-0.4,0.6-1,0.7-1.6c0.1-0.6,0.2-1.3,0.2-2.1C113.9,39.1,113.8,38.4,113.7,37.8z M87.7,35.1l-1.9,5.9h3.9
      L87.7,35.1z M63.7,35.1l-1.9,5.9h3.9L63.7,35.1z M44.2,35.1l-1.9,5.9h3.9L44.2,35.1z M44.2,35.1l-1.9,5.9h3.9L44.2,35.1z
       M63.7,35.1l-1.9,5.9h3.9L63.7,35.1z M87.7,35.1l-1.9,5.9h3.9L87.7,35.1z M113.7,37.8c-0.1-0.6-0.4-1.1-0.7-1.5
      c-0.3-0.4-0.8-0.7-1.3-1c-0.6-0.2-1.2-0.3-2.1-0.3h-2.1v9.8h2.1c0.8,0,1.5-0.1,2.1-0.3c0.6-0.2,1-0.5,1.3-1c0.3-0.4,0.6-1,0.7-1.6
      c0.1-0.6,0.2-1.3,0.2-2.1C113.9,39.1,113.8,38.4,113.7,37.8z M129.3,19.5c-0.8-2.1-1.7-4.4-2.6-6.9h-0.1c-0.9,2.5-1.8,4.9-2.6,6.9
      l-0.8,1.9h6.8L129.3,19.5z M135.1,35.4c-0.4-0.3-1-0.5-1.8-0.5h-3.6v4.4h3.4c0.5,0,0.9,0,1.2-0.1c0.3-0.1,0.6-0.2,0.8-0.4
      c0.2-0.2,0.4-0.4,0.5-0.7c0.1-0.3,0.1-0.6,0.1-1C135.7,36.3,135.5,35.8,135.1,35.4z M135.1,35.4c-0.4-0.3-1-0.5-1.8-0.5h-3.6v4.4
      h3.4c0.5,0,0.9,0,1.2-0.1c0.3-0.1,0.6-0.2,0.8-0.4c0.2-0.2,0.4-0.4,0.5-0.7c0.1-0.3,0.1-0.6,0.1-1
      C135.7,36.3,135.5,35.8,135.1,35.4z M129.3,19.5c-0.8-2.1-1.7-4.4-2.6-6.9h-0.1c-0.9,2.5-1.8,4.9-2.6,6.9l-0.8,1.9h6.8L129.3,19.5
      z M113.7,37.8c-0.1-0.6-0.4-1.1-0.7-1.5c-0.3-0.4-0.8-0.7-1.3-1c-0.6-0.2-1.2-0.3-2.1-0.3h-2.1v9.8h2.1c0.8,0,1.5-0.1,2.1-0.3
      c0.6-0.2,1-0.5,1.3-1c0.3-0.4,0.6-1,0.7-1.6c0.1-0.6,0.2-1.3,0.2-2.1C113.9,39.1,113.8,38.4,113.7,37.8z M87.7,35.1l-1.9,5.9h3.9
      L87.7,35.1z M63.7,35.1l-1.9,5.9h3.9L63.7,35.1z M44.2,35.1l-1.9,5.9h3.9L44.2,35.1z M44.2,35.1l-1.9,5.9h3.9L44.2,35.1z
       M63.7,35.1l-1.9,5.9h3.9L63.7,35.1z M87.7,35.1l-1.9,5.9h3.9L87.7,35.1z M113.7,37.8c-0.1-0.6-0.4-1.1-0.7-1.5
      c-0.3-0.4-0.8-0.7-1.3-1c-0.6-0.2-1.2-0.3-2.1-0.3h-2.1v9.8h2.1c0.8,0,1.5-0.1,2.1-0.3c0.6-0.2,1-0.5,1.3-1c0.3-0.4,0.6-1,0.7-1.6
      c0.1-0.6,0.2-1.3,0.2-2.1C113.9,39.1,113.8,38.4,113.7,37.8z M129.3,19.5c-0.8-2.1-1.7-4.4-2.6-6.9h-0.1c-0.9,2.5-1.8,4.9-2.6,6.9
      l-0.8,1.9h6.8L129.3,19.5z M135.1,35.4c-0.4-0.3-1-0.5-1.8-0.5h-3.6v4.4h3.4c0.5,0,0.9,0,1.2-0.1c0.3-0.1,0.6-0.2,0.8-0.4
      c0.2-0.2,0.4-0.4,0.5-0.7c0.1-0.3,0.1-0.6,0.1-1C135.7,36.3,135.5,35.8,135.1,35.4z M135.1,35.4c-0.4-0.3-1-0.5-1.8-0.5h-3.6v4.4
      h3.4c0.5,0,0.9,0,1.2-0.1c0.3-0.1,0.6-0.2,0.8-0.4c0.2-0.2,0.4-0.4,0.5-0.7c0.1-0.3,0.1-0.6,0.1-1
      C135.7,36.3,135.5,35.8,135.1,35.4z M129.3,19.5c-0.8-2.1-1.7-4.4-2.6-6.9h-0.1c-0.9,2.5-1.8,4.9-2.6,6.9l-0.8,1.9h6.8L129.3,19.5
      z M113.7,37.8c-0.1-0.6-0.4-1.1-0.7-1.5c-0.3-0.4-0.8-0.7-1.3-1c-0.6-0.2-1.2-0.3-2.1-0.3h-2.1v9.8h2.1c0.8,0,1.5-0.1,2.1-0.3
      c0.6-0.2,1-0.5,1.3-1c0.3-0.4,0.6-1,0.7-1.6c0.1-0.6,0.2-1.3,0.2-2.1C113.9,39.1,113.8,38.4,113.7,37.8z M87.7,35.1l-1.9,5.9h3.9
      L87.7,35.1z M63.7,35.1l-1.9,5.9h3.9L63.7,35.1z M44.2,35.1l-1.9,5.9h3.9L44.2,35.1z M18.6,7.7c-0.5-0.5,2-1.5,2-2h-2.1
      c-0.8,0.8-1.3,2.6-0.7,3c0.9,0.5,3.6-0.5,3.4-2.1C21.1,6,19.2,8.5,18.6,7.7z M14.3,5.7C13.8,6,13.4,6.4,13,6.8
      c0.4,0.9,1.3,1.7,1.9,1.7c0.1,0,0.1,0,0.1,0c0.4-0.1,1-1.2,1.4-2.3c0.1-0.2,0.1-0.3,0.1-0.5H14.3z M16.1,32.5
      c-0.4-0.2-1.5,0-1.3,0.6c0.1,0.3,1.2,0.8,1.6,0.7C16.9,33.7,16.5,32.6,16.1,32.5z M16,38.5c-0.1-0.5-1.3-1.4-1.7-0.9
      c-0.1,0.1,0,0.2,0,0.4c0,0,0,0,0,0c0.1,0.4,0.3,0.7,0.4,1.1l0,0c0.1,0.3,0.3,0.6,0.3,0.7C15.3,40.2,16.1,39,16,38.5z M15.7,40.5
      c0,0,0,0-0.1,0c-0.1,0-0.3,0-0.5,0.1c0.1,0.7,0.2,1.3,0.3,2c0.2-0.2,0.3-0.5,0.4-0.9C15.9,41.1,15.9,40.7,15.7,40.5z M15.4,35.5
      c0.4,0.9,0.7,1.7,0.9,2.6C16,37.3,15.7,36.4,15.4,35.5z M15.3,31c-0.1-0.5-1-2-1.4-2.1c-0.5,0-0.4,2.3-0.2,2.8
      C13.8,32.3,15.5,31.6,15.3,31z M14.7,35.2c-0.2-0.2-1.7-1.3-1.9-1c-0.2,0.2,0.8,2.5,1.3,2.5C14.5,36.7,15.1,35.4,14.7,35.2z
       M14.6,11.8c-0.3-0.1-2.6,2-2.4,2.8c0.2,0.3,0.7,0.9,1.1,0.6C14.6,14.5,15.1,12,14.6,11.8z M14.4,10.1c-0.5-0.5-1.6-2-2.1-2
      c-0.9-0.1-1.4,5.9,0.3,4.1C13.2,11.5,14.8,10.5,14.4,10.1z M12.1,17.1c-0.6,0.2-1.3,1.1-0.8,1.4c0.5,0.4,2.7,0.1,2.6-0.3
      C13.9,17.7,12.7,16.9,12.1,17.1z M13.1,29.5c-0.2-0.7-2.5,1-2.4,1.7c0.2,0.7,1.2,2,1.8,2C13.1,33,13.2,30.2,13.1,29.5z M11.5,28.6
      c-0.1-0.8-3.1-1.8-3.3-1.3C8,27.8,9.3,29.9,10,29.7C10.7,29.4,11.6,29,11.5,28.6z M10,9.3c-0.8,0.2-2.3,1.3-2.1,1.9
      c0.2,0.7,1.7,2.9,2.5,2.7C11.2,13.8,10.8,9.1,10,9.3z M6.1,24.4C6,25,7,26.7,7.8,26.7c0.3-0.1,1.6-0.9,1.6-1.5
      C9.2,24.2,6.1,23.7,6.1,24.4z M7.1,11.6c-0.8,0.2-1.6,1.6-1.5,2.3c0.2,0.7,2.5,2,3.3,1.8C9.7,15.5,7.8,11.5,7.1,11.6z M5.1,14.6
      c-0.1,0-0.2,0-0.3,0.1c0,1.3,0,2.6,0,4C6,19,7.9,18.5,8,17.9C8.1,17,6,14.4,5.1,14.6z M7.9,21.3c-0.2-0.7-2.1-1.7-3.1-1.8
      c0,1,0,2,0,3.1v0c0.2,0.4,0.5,0.7,0.9,0.7C6.7,23.2,8.2,22.1,7.9,21.3z M9.5,36.1c0,0.1,0.1,0.2,0.1,0.3c0.2,0.7,0.6,1.8,0.2,2.4
      c-0.1,0.2-0.3,0.3-0.5,0.3c-2.3,0.5-3,1.5-3.3,2.1c-0.2,0.3-0.3,0.5-0.5,0.5c-0.1,0-0.1,0-0.2,0c-0.1,0-0.2-0.1-0.2-0.2
      c-0.1-0.3,0.3-0.8,0.6-1.2c0.1-0.2,0.4-0.4,0.4-0.5c0,0-0.1,0-0.1,0c-0.3,0-0.7,0.2-1.2,0.4c0,2.8,0,4.8-0.1,5.4
      c-0.2,2.3,2.4,2.7,2.4,2.7H13C13.6,45,12.4,40.9,9.5,36.1z M4.8,38.9v0.5c0.4-0.1,0.8-0.2,0.8-0.3C5.6,39,5.3,38.9,4.8,38.9z
       M44.2,35.1l-1.9,5.9h3.9L44.2,35.1z M44.2,35.1l-1.9,5.9h3.9L44.2,35.1z M44.2,35.1l-1.9,5.9h3.9L44.2,35.1z M44.2,35.1l-1.9,5.9
      h3.9L44.2,35.1z M44.2,35.1l-1.9,5.9h3.9L44.2,35.1z M44.2,35.1l-1.9,5.9h3.9L44.2,35.1z M44.2,35.1l-1.9,5.9h3.9L44.2,35.1z
       M44.2,35.1l-1.9,5.9h3.9L44.2,35.1z M44.2,35.1l-1.9,5.9h3.9L44.2,35.1z M44.2,35.1l-1.9,5.9h3.9L44.2,35.1z M44.2,35.1l-1.9,5.9
      h3.9L44.2,35.1z M44.2,35.1l-1.9,5.9h3.9L44.2,35.1z M44.2,35.1l-1.9,5.9h3.9L44.2,35.1z M44.2,35.1l-1.9,5.9h3.9L44.2,35.1z
       M44.2,35.1l-1.9,5.9h3.9L44.2,35.1z M44.2,35.1l-1.9,5.9h3.9L44.2,35.1z M44.2,35.1l-1.9,5.9h3.9L44.2,35.1z M44.2,35.1l-1.9,5.9
      h3.9L44.2,35.1z M44.2,35.1l-1.9,5.9h3.9L44.2,35.1z M44.2,35.1l-1.9,5.9h3.9L44.2,35.1z M44.2,35.1l-1.9,5.9h3.9L44.2,35.1z
       M44.2,35.1l-1.9,5.9h3.9L44.2,35.1z M44.2,35.1l-1.9,5.9h3.9L44.2,35.1z M44.2,35.1l-1.9,5.9h3.9L44.2,35.1z M44.2,35.1l-1.9,5.9
      h3.9L44.2,35.1z M44.2,35.1l-1.9,5.9h3.9L44.2,35.1z M44.2,35.1l-1.9,5.9h3.9L44.2,35.1z M44.2,35.1l-1.9,5.9h3.9L44.2,35.1z
       M44.2,35.1l-1.9,5.9h3.9L44.2,35.1z M44.2,35.1l-1.9,5.9h3.9L44.2,35.1z M44.2,35.1l-1.9,5.9h3.9L44.2,35.1z M44.2,35.1l-1.9,5.9
      h3.9L44.2,35.1z M44.2,35.1l-1.9,5.9h3.9L44.2,35.1z M44.2,35.1l-1.9,5.9h3.9L44.2,35.1z M44.2,35.1l-1.9,5.9h3.9L44.2,35.1z
       M44.2,35.1l-1.9,5.9h3.9L44.2,35.1z M44.2,35.1l-1.9,5.9h3.9L44.2,35.1z M44.2,35.1l-1.9,5.9h3.9L44.2,35.1z M44.2,35.1l-1.9,5.9
      h3.9L44.2,35.1z M44.2,35.1l-1.9,5.9h3.9L44.2,35.1z M44.2,35.1l-1.9,5.9h3.9L44.2,35.1z M44.2,35.1l-1.9,5.9h3.9L44.2,35.1z
       M44.2,35.1l-1.9,5.9h3.9L44.2,35.1z M44.2,35.1l-1.9,5.9h3.9L44.2,35.1z M44.2,35.1l-1.9,5.9h3.9L44.2,35.1z M44.2,35.1l-1.9,5.9
      h3.9L44.2,35.1z M44.2,35.1l-1.9,5.9h3.9L44.2,35.1z M15.7,44.2c-0.1,0-0.2-0.1-0.3-0.1c0,0.3,0,0.6,0,0.8
      c0.1-0.2,0.2-0.4,0.3-0.5C15.7,44.2,15.7,44.2,15.7,44.2z M15.1,47C15.1,47,15.1,47,15.1,47c-0.1,0.1-0.1,0.3-0.2,0.5
      c0.1-0.1,0.1-0.2,0.2-0.3C15.2,47,15.2,47,15.1,47z M44.2,35.1l-1.9,5.9h3.9L44.2,35.1z M44.2,35.1l-1.9,5.9h3.9L44.2,35.1z
       M44.2,35.1l-1.9,5.9h3.9L44.2,35.1z M44.2,35.1l-1.9,5.9h3.9L44.2,35.1z M44.2,35.1l-1.9,5.9h3.9L44.2,35.1z M44.2,35.1l-1.9,5.9
      h3.9L44.2,35.1z M44.2,35.1l-1.9,5.9h3.9L44.2,35.1z M44.2,35.1l-1.9,5.9h3.9L44.2,35.1z M44.2,35.1l-1.9,5.9h3.9L44.2,35.1z
       M44.2,35.1l-1.9,5.9h3.9L44.2,35.1z M44.2,35.1l-1.9,5.9h3.9L44.2,35.1z M44.2,35.1l-1.9,5.9h3.9L44.2,35.1z M44.2,35.1l-1.9,5.9
      h3.9L44.2,35.1z M44.2,35.1l-1.9,5.9h3.9L44.2,35.1z M44.2,35.1l-1.9,5.9h3.9L44.2,35.1z M44.2,35.1l-1.9,5.9h3.9L44.2,35.1z
       M44.2,35.1l-1.9,5.9h3.9L44.2,35.1z M44.2,35.1l-1.9,5.9h3.9L44.2,35.1z M44.2,35.1l-1.9,5.9h3.9L44.2,35.1z M44.2,35.1l-1.9,5.9
      h3.9L44.2,35.1z M44.2,35.1l-1.9,5.9h3.9L44.2,35.1z M44.2,35.1l-1.9,5.9h3.9L44.2,35.1z M44.2,35.1l-1.9,5.9h3.9L44.2,35.1z
       M44.2,35.1l-1.9,5.9h3.9L44.2,35.1z M44.2,35.1l-1.9,5.9h3.9L44.2,35.1z M44.2,35.1l-1.9,5.9h3.9L44.2,35.1z M44.2,35.1l-1.9,5.9
      h3.9L44.2,35.1z M129.3,19.5c-0.8-2.1-1.7-4.4-2.6-6.9h-0.1c-0.9,2.5-1.8,4.9-2.6,6.9l-0.8,1.9h6.8L129.3,19.5z M129.3,19.5
      c-0.8-2.1-1.7-4.4-2.6-6.9h-0.1c-0.9,2.5-1.8,4.9-2.6,6.9l-0.8,1.9h6.8L129.3,19.5z M129.3,19.5c-0.8-2.1-1.7-4.4-2.6-6.9h-0.1
      c-0.9,2.5-1.8,4.9-2.6,6.9l-0.8,1.9h6.8L129.3,19.5z M129.3,19.5c-0.8-2.1-1.7-4.4-2.6-6.9h-0.1c-0.9,2.5-1.8,4.9-2.6,6.9
      l-0.8,1.9h6.8L129.3,19.5z M63.7,35.1l-1.9,5.9h3.9L63.7,35.1z M129.3,19.5c-0.8-2.1-1.7-4.4-2.6-6.9h-0.1
      c-0.9,2.5-1.8,4.9-2.6,6.9l-0.8,1.9h6.8L129.3,19.5z M129.3,19.5c-0.8-2.1-1.7-4.4-2.6-6.9h-0.1c-0.9,2.5-1.8,4.9-2.6,6.9
      l-0.8,1.9h6.8L129.3,19.5z M63.7,35.1l-1.9,5.9h3.9L63.7,35.1z M63.7,35.1l-1.9,5.9h3.9L63.7,35.1z M87.7,35.1l-1.9,5.9h3.9
      L87.7,35.1z M129.3,19.5c-0.8-2.1-1.7-4.4-2.6-6.9h-0.1c-0.9,2.5-1.8,4.9-2.6,6.9l-0.8,1.9h6.8L129.3,19.5z M129.3,19.5
      c-0.8-2.1-1.7-4.4-2.6-6.9h-0.1c-0.9,2.5-1.8,4.9-2.6,6.9l-0.8,1.9h6.8L129.3,19.5z M87.7,35.1l-1.9,5.9h3.9L87.7,35.1z
       M63.7,35.1l-1.9,5.9h3.9L63.7,35.1z M63.7,35.1l-1.9,5.9h3.9L63.7,35.1z M87.7,35.1l-1.9,5.9h3.9L87.7,35.1z M113.7,37.8
      c-0.1-0.6-0.4-1.1-0.7-1.5c-0.3-0.4-0.8-0.7-1.3-1c-0.6-0.2-1.2-0.3-2.1-0.3h-2.1v9.8h2.1c0.8,0,1.5-0.1,2.1-0.3
      c0.6-0.2,1-0.5,1.3-1c0.3-0.4,0.6-1,0.7-1.6c0.1-0.6,0.2-1.3,0.2-2.1C113.9,39.1,113.8,38.4,113.7,37.8z M129.3,19.5
      c-0.8-2.1-1.7-4.4-2.6-6.9h-0.1c-0.9,2.5-1.8,4.9-2.6,6.9l-0.8,1.9h6.8L129.3,19.5z M129.3,19.5c-0.8-2.1-1.7-4.4-2.6-6.9h-0.1
      c-0.9,2.5-1.8,4.9-2.6,6.9l-0.8,1.9h6.8L129.3,19.5z M113.7,37.8c-0.1-0.6-0.4-1.1-0.7-1.5c-0.3-0.4-0.8-0.7-1.3-1
      c-0.6-0.2-1.2-0.3-2.1-0.3h-2.1v9.8h2.1c0.8,0,1.5-0.1,2.1-0.3c0.6-0.2,1-0.5,1.3-1c0.3-0.4,0.6-1,0.7-1.6
      c0.1-0.6,0.2-1.3,0.2-2.1C113.9,39.1,113.8,38.4,113.7,37.8z M87.7,35.1l-1.9,5.9h3.9L87.7,35.1z M63.7,35.1l-1.9,5.9h3.9
      L63.7,35.1z M63.7,35.1l-1.9,5.9h3.9L63.7,35.1z M87.7,35.1l-1.9,5.9h3.9L87.7,35.1z M113.7,37.8c-0.1-0.6-0.4-1.1-0.7-1.5
      c-0.3-0.4-0.8-0.7-1.3-1c-0.6-0.2-1.2-0.3-2.1-0.3h-2.1v9.8h2.1c0.8,0,1.5-0.1,2.1-0.3c0.6-0.2,1-0.5,1.3-1c0.3-0.4,0.6-1,0.7-1.6
      c0.1-0.6,0.2-1.3,0.2-2.1C113.9,39.1,113.8,38.4,113.7,37.8z M129.3,19.5c-0.8-2.1-1.7-4.4-2.6-6.9h-0.1c-0.9,2.5-1.8,4.9-2.6,6.9
      l-0.8,1.9h6.8L129.3,19.5z M135.1,35.4c-0.4-0.3-1-0.5-1.8-0.5h-3.6v4.4h3.4c0.5,0,0.9,0,1.2-0.1c0.3-0.1,0.6-0.2,0.8-0.4
      c0.2-0.2,0.4-0.4,0.5-0.7c0.1-0.3,0.1-0.6,0.1-1C135.7,36.3,135.5,35.8,135.1,35.4z M135.1,35.4c-0.4-0.3-1-0.5-1.8-0.5h-3.6v4.4
      h3.4c0.5,0,0.9,0,1.2-0.1c0.3-0.1,0.6-0.2,0.8-0.4c0.2-0.2,0.4-0.4,0.5-0.7c0.1-0.3,0.1-0.6,0.1-1
      C135.7,36.3,135.5,35.8,135.1,35.4z M129.3,19.5c-0.8-2.1-1.7-4.4-2.6-6.9h-0.1c-0.9,2.5-1.8,4.9-2.6,6.9l-0.8,1.9h6.8L129.3,19.5
      z M113.7,37.8c-0.1-0.6-0.4-1.1-0.7-1.5c-0.3-0.4-0.8-0.7-1.3-1c-0.6-0.2-1.2-0.3-2.1-0.3h-2.1v9.8h2.1c0.8,0,1.5-0.1,2.1-0.3
      c0.6-0.2,1-0.5,1.3-1c0.3-0.4,0.6-1,0.7-1.6c0.1-0.6,0.2-1.3,0.2-2.1C113.9,39.1,113.8,38.4,113.7,37.8z M87.7,35.1l-1.9,5.9h3.9
      L87.7,35.1z M63.7,35.1l-1.9,5.9h3.9L63.7,35.1z M63.7,35.1l-1.9,5.9h3.9L63.7,35.1z M87.7,35.1l-1.9,5.9h3.9L87.7,35.1z
       M113.7,37.8c-0.1-0.6-0.4-1.1-0.7-1.5c-0.3-0.4-0.8-0.7-1.3-1c-0.6-0.2-1.2-0.3-2.1-0.3h-2.1v9.8h2.1c0.8,0,1.5-0.1,2.1-0.3
      c0.6-0.2,1-0.5,1.3-1c0.3-0.4,0.6-1,0.7-1.6c0.1-0.6,0.2-1.3,0.2-2.1C113.9,39.1,113.8,38.4,113.7,37.8z M129.3,19.5
      c-0.8-2.1-1.7-4.4-2.6-6.9h-0.1c-0.9,2.5-1.8,4.9-2.6,6.9l-0.8,1.9h6.8L129.3,19.5z M135.1,35.4c-0.4-0.3-1-0.5-1.8-0.5h-3.6v4.4
      h3.4c0.5,0,0.9,0,1.2-0.1c0.3-0.1,0.6-0.2,0.8-0.4c0.2-0.2,0.4-0.4,0.5-0.7c0.1-0.3,0.1-0.6,0.1-1
      C135.7,36.3,135.5,35.8,135.1,35.4z M135.1,35.4c-0.4-0.3-1-0.5-1.8-0.5h-3.6v4.4h3.4c0.5,0,0.9,0,1.2-0.1
      c0.3-0.1,0.6-0.2,0.8-0.4c0.2-0.2,0.4-0.4,0.5-0.7c0.1-0.3,0.1-0.6,0.1-1C135.7,36.3,135.5,35.8,135.1,35.4z M129.3,19.5
      c-0.8-2.1-1.7-4.4-2.6-6.9h-0.1c-0.9,2.5-1.8,4.9-2.6,6.9l-0.8,1.9h6.8L129.3,19.5z M113.7,37.8c-0.1-0.6-0.4-1.1-0.7-1.5
      c-0.3-0.4-0.8-0.7-1.3-1c-0.6-0.2-1.2-0.3-2.1-0.3h-2.1v9.8h2.1c0.8,0,1.5-0.1,2.1-0.3c0.6-0.2,1-0.5,1.3-1c0.3-0.4,0.6-1,0.7-1.6
      c0.1-0.6,0.2-1.3,0.2-2.1C113.9,39.1,113.8,38.4,113.7,37.8z M87.7,35.1l-1.9,5.9h3.9L87.7,35.1z M63.7,35.1l-1.9,5.9h3.9
      L63.7,35.1z M63.7,35.1l-1.9,5.9h3.9L63.7,35.1z M87.7,35.1l-1.9,5.9h3.9L87.7,35.1z M113.7,37.8c-0.1-0.6-0.4-1.1-0.7-1.5
      c-0.3-0.4-0.8-0.7-1.3-1c-0.6-0.2-1.2-0.3-2.1-0.3h-2.1v9.8h2.1c0.8,0,1.5-0.1,2.1-0.3c0.6-0.2,1-0.5,1.3-1c0.3-0.4,0.6-1,0.7-1.6
      c0.1-0.6,0.2-1.3,0.2-2.1C113.9,39.1,113.8,38.4,113.7,37.8z M129.3,19.5c-0.8-2.1-1.7-4.4-2.6-6.9h-0.1c-0.9,2.5-1.8,4.9-2.6,6.9
      l-0.8,1.9h6.8L129.3,19.5z M135.1,35.4c-0.4-0.3-1-0.5-1.8-0.5h-3.6v4.4h3.4c0.5,0,0.9,0,1.2-0.1c0.3-0.1,0.6-0.2,0.8-0.4
      c0.2-0.2,0.4-0.4,0.5-0.7c0.1-0.3,0.1-0.6,0.1-1C135.7,36.3,135.5,35.8,135.1,35.4z M135.1,35.4c-0.4-0.3-1-0.5-1.8-0.5h-3.6v4.4
      h3.4c0.5,0,0.9,0,1.2-0.1c0.3-0.1,0.6-0.2,0.8-0.4c0.2-0.2,0.4-0.4,0.5-0.7c0.1-0.3,0.1-0.6,0.1-1
      C135.7,36.3,135.5,35.8,135.1,35.4z M129.3,19.5c-0.8-2.1-1.7-4.4-2.6-6.9h-0.1c-0.9,2.5-1.8,4.9-2.6,6.9l-0.8,1.9h6.8L129.3,19.5
      z M113.7,37.8c-0.1-0.6-0.4-1.1-0.7-1.5c-0.3-0.4-0.8-0.7-1.3-1c-0.6-0.2-1.2-0.3-2.1-0.3h-2.1v9.8h2.1c0.8,0,1.5-0.1,2.1-0.3
      c0.6-0.2,1-0.5,1.3-1c0.3-0.4,0.6-1,0.7-1.6c0.1-0.6,0.2-1.3,0.2-2.1C113.9,39.1,113.8,38.4,113.7,37.8z M87.7,35.1l-1.9,5.9h3.9
      L87.7,35.1z M63.7,35.1l-1.9,5.9h3.9L63.7,35.1z M63.7,35.1l-1.9,5.9h3.9L63.7,35.1z M87.7,35.1l-1.9,5.9h3.9L87.7,35.1z
       M113.7,37.8c-0.1-0.6-0.4-1.1-0.7-1.5c-0.3-0.4-0.8-0.7-1.3-1c-0.6-0.2-1.2-0.3-2.1-0.3h-2.1v9.8h2.1c0.8,0,1.5-0.1,2.1-0.3
      c0.6-0.2,1-0.5,1.3-1c0.3-0.4,0.6-1,0.7-1.6c0.1-0.6,0.2-1.3,0.2-2.1C113.9,39.1,113.8,38.4,113.7,37.8z M129.3,19.5
      c-0.8-2.1-1.7-4.4-2.6-6.9h-0.1c-0.9,2.5-1.8,4.9-2.6,6.9l-0.8,1.9h6.8L129.3,19.5z M135.1,35.4c-0.4-0.3-1-0.5-1.8-0.5h-3.6v4.4
      h3.4c0.5,0,0.9,0,1.2-0.1c0.3-0.1,0.6-0.2,0.8-0.4c0.2-0.2,0.4-0.4,0.5-0.7c0.1-0.3,0.1-0.6,0.1-1
      C135.7,36.3,135.5,35.8,135.1,35.4z M135.1,35.4c-0.4-0.3-1-0.5-1.8-0.5h-3.6v4.4h3.4c0.5,0,0.9,0,1.2-0.1
      c0.3-0.1,0.6-0.2,0.8-0.4c0.2-0.2,0.4-0.4,0.5-0.7c0.1-0.3,0.1-0.6,0.1-1C135.7,36.3,135.5,35.8,135.1,35.4z M129.3,19.5
      c-0.8-2.1-1.7-4.4-2.6-6.9h-0.1c-0.9,2.5-1.8,4.9-2.6,6.9l-0.8,1.9h6.8L129.3,19.5z M113.7,37.8c-0.1-0.6-0.4-1.1-0.7-1.5
      c-0.3-0.4-0.8-0.7-1.3-1c-0.6-0.2-1.2-0.3-2.1-0.3h-2.1v9.8h2.1c0.8,0,1.5-0.1,2.1-0.3c0.6-0.2,1-0.5,1.3-1c0.3-0.4,0.6-1,0.7-1.6
      c0.1-0.6,0.2-1.3,0.2-2.1C113.9,39.1,113.8,38.4,113.7,37.8z M87.7,35.1l-1.9,5.9h3.9L87.7,35.1z M63.7,35.1l-1.9,5.9h3.9
      L63.7,35.1z M63.7,35.1l-1.9,5.9h3.9L63.7,35.1z M87.7,35.1l-1.9,5.9h3.9L87.7,35.1z M113.7,37.8c-0.1-0.6-0.4-1.1-0.7-1.5
      c-0.3-0.4-0.8-0.7-1.3-1c-0.6-0.2-1.2-0.3-2.1-0.3h-2.1v9.8h2.1c0.8,0,1.5-0.1,2.1-0.3c0.6-0.2,1-0.5,1.3-1c0.3-0.4,0.6-1,0.7-1.6
      c0.1-0.6,0.2-1.3,0.2-2.1C113.9,39.1,113.8,38.4,113.7,37.8z M129.3,19.5c-0.8-2.1-1.7-4.4-2.6-6.9h-0.1c-0.9,2.5-1.8,4.9-2.6,6.9
      l-0.8,1.9h6.8L129.3,19.5z M135.1,35.4c-0.4-0.3-1-0.5-1.8-0.5h-3.6v4.4h3.4c0.5,0,0.9,0,1.2-0.1c0.3-0.1,0.6-0.2,0.8-0.4
      c0.2-0.2,0.4-0.4,0.5-0.7c0.1-0.3,0.1-0.6,0.1-1C135.7,36.3,135.5,35.8,135.1,35.4z M135.1,35.4c-0.4-0.3-1-0.5-1.8-0.5h-3.6v4.4
      h3.4c0.5,0,0.9,0,1.2-0.1c0.3-0.1,0.6-0.2,0.8-0.4c0.2-0.2,0.4-0.4,0.5-0.7c0.1-0.3,0.1-0.6,0.1-1
      C135.7,36.3,135.5,35.8,135.1,35.4z M129.3,19.5c-0.8-2.1-1.7-4.4-2.6-6.9h-0.1c-0.9,2.5-1.8,4.9-2.6,6.9l-0.8,1.9h6.8L129.3,19.5
      z M113.7,37.8c-0.1-0.6-0.4-1.1-0.7-1.5c-0.3-0.4-0.8-0.7-1.3-1c-0.6-0.2-1.2-0.3-2.1-0.3h-2.1v9.8h2.1c0.8,0,1.5-0.1,2.1-0.3
      c0.6-0.2,1-0.5,1.3-1c0.3-0.4,0.6-1,0.7-1.6c0.1-0.6,0.2-1.3,0.2-2.1C113.9,39.1,113.8,38.4,113.7,37.8z M87.7,35.1l-1.9,5.9h3.9
      L87.7,35.1z M63.7,35.1l-1.9,5.9h3.9L63.7,35.1z M63.7,35.1l-1.9,5.9h3.9L63.7,35.1z M87.7,35.1l-1.9,5.9h3.9L87.7,35.1z
       M113.7,37.8c-0.1-0.6-0.4-1.1-0.7-1.5c-0.3-0.4-0.8-0.7-1.3-1c-0.6-0.2-1.2-0.3-2.1-0.3h-2.1v9.8h2.1c0.8,0,1.5-0.1,2.1-0.3
      c0.6-0.2,1-0.5,1.3-1c0.3-0.4,0.6-1,0.7-1.6c0.1-0.6,0.2-1.3,0.2-2.1C113.9,39.1,113.8,38.4,113.7,37.8z M129.3,19.5
      c-0.8-2.1-1.7-4.4-2.6-6.9h-0.1c-0.9,2.5-1.8,4.9-2.6,6.9l-0.8,1.9h6.8L129.3,19.5z M129.3,19.5c-0.8-2.1-1.7-4.4-2.6-6.9h-0.1
      c-0.9,2.5-1.8,4.9-2.6,6.9l-0.8,1.9h6.8L129.3,19.5z M113.7,37.8c-0.1-0.6-0.4-1.1-0.7-1.5c-0.3-0.4-0.8-0.7-1.3-1
      c-0.6-0.2-1.2-0.3-2.1-0.3h-2.1v9.8h2.1c0.8,0,1.5-0.1,2.1-0.3c0.6-0.2,1-0.5,1.3-1c0.3-0.4,0.6-1,0.7-1.6
      c0.1-0.6,0.2-1.3,0.2-2.1C113.9,39.1,113.8,38.4,113.7,37.8z M87.7,35.1l-1.9,5.9h3.9L87.7,35.1z M63.7,35.1l-1.9,5.9h3.9
      L63.7,35.1z M63.7,35.1l-1.9,5.9h3.9L63.7,35.1z M87.7,35.1l-1.9,5.9h3.9L87.7,35.1z M129.3,19.5c-0.8-2.1-1.7-4.4-2.6-6.9h-0.1
      c-0.9,2.5-1.8,4.9-2.6,6.9l-0.8,1.9h6.8L129.3,19.5z M129.3,19.5c-0.8-2.1-1.7-4.4-2.6-6.9h-0.1c-0.9,2.5-1.8,4.9-2.6,6.9
      l-0.8,1.9h6.8L129.3,19.5z M87.7,35.1l-1.9,5.9h3.9L87.7,35.1z M63.7,35.1l-1.9,5.9h3.9L63.7,35.1z M63.7,35.1l-1.9,5.9h3.9
      L63.7,35.1z M129.3,19.5c-0.8-2.1-1.7-4.4-2.6-6.9h-0.1c-0.9,2.5-1.8,4.9-2.6,6.9l-0.8,1.9h6.8L129.3,19.5z M129.3,19.5
      c-0.8-2.1-1.7-4.4-2.6-6.9h-0.1c-0.9,2.5-1.8,4.9-2.6,6.9l-0.8,1.9h6.8L129.3,19.5z M63.7,35.1l-1.9,5.9h3.9L63.7,35.1z
       M129.3,19.5c-0.8-2.1-1.7-4.4-2.6-6.9h-0.1c-0.9,2.5-1.8,4.9-2.6,6.9l-0.8,1.9h6.8L129.3,19.5z M129.3,19.5
      c-0.8-2.1-1.7-4.4-2.6-6.9h-0.1c-0.9,2.5-1.8,4.9-2.6,6.9l-0.8,1.9h6.8L129.3,19.5z M129.3,19.5c-0.8-2.1-1.7-4.4-2.6-6.9h-0.1
      c-0.9,2.5-1.8,4.9-2.6,6.9l-0.8,1.9h6.8L129.3,19.5z M129.3,19.5c-0.8-2.1-1.7-4.4-2.6-6.9h-0.1c-0.9,2.5-1.8,4.9-2.6,6.9
      l-0.8,1.9h6.8L129.3,19.5z M63.7,35.1l-1.9,5.9h3.9L63.7,35.1z M87.7,35.1l-1.9,5.9h3.9L87.7,35.1z M113.7,37.8
      c-0.1-0.6-0.4-1.1-0.7-1.5c-0.3-0.4-0.8-0.7-1.3-1c-0.6-0.2-1.2-0.3-2.1-0.3h-2.1v9.8h2.1c0.8,0,1.5-0.1,2.1-0.3
      c0.6-0.2,1-0.5,1.3-1c0.3-0.4,0.6-1,0.7-1.6c0.1-0.6,0.2-1.3,0.2-2.1C113.9,39.1,113.8,38.4,113.7,37.8z M129.3,19.5
      c-0.8-2.1-1.7-4.4-2.6-6.9h-0.1c-0.9,2.5-1.8,4.9-2.6,6.9l-0.8,1.9h6.8L129.3,19.5z M135.1,35.4c-0.4-0.3-1-0.5-1.8-0.5h-3.6v4.4
      h3.4c0.5,0,0.9,0,1.2-0.1c0.3-0.1,0.6-0.2,0.8-0.4c0.2-0.2,0.4-0.4,0.5-0.7c0.1-0.3,0.1-0.6,0.1-1
      C135.7,36.3,135.5,35.8,135.1,35.4z M135.1,35.4c-0.4-0.3-1-0.5-1.8-0.5h-3.6v4.4h3.4c0.5,0,0.9,0,1.2-0.1
      c0.3-0.1,0.6-0.2,0.8-0.4c0.2-0.2,0.4-0.4,0.5-0.7c0.1-0.3,0.1-0.6,0.1-1C135.7,36.3,135.5,35.8,135.1,35.4z M129.3,19.5
      c-0.8-2.1-1.7-4.4-2.6-6.9h-0.1c-0.9,2.5-1.8,4.9-2.6,6.9l-0.8,1.9h6.8L129.3,19.5z M113.7,37.8c-0.1-0.6-0.4-1.1-0.7-1.5
      c-0.3-0.4-0.8-0.7-1.3-1c-0.6-0.2-1.2-0.3-2.1-0.3h-2.1v9.8h2.1c0.8,0,1.5-0.1,2.1-0.3c0.6-0.2,1-0.5,1.3-1c0.3-0.4,0.6-1,0.7-1.6
      c0.1-0.6,0.2-1.3,0.2-2.1C113.9,39.1,113.8,38.4,113.7,37.8z M87.7,35.1l-1.9,5.9h3.9L87.7,35.1z M63.7,35.1l-1.9,5.9h3.9
      L63.7,35.1z M63.7,35.1l-1.9,5.9h3.9L63.7,35.1z M87.7,35.1l-1.9,5.9h3.9L87.7,35.1z M113.7,37.8c-0.1-0.6-0.4-1.1-0.7-1.5
      c-0.3-0.4-0.8-0.7-1.3-1c-0.6-0.2-1.2-0.3-2.1-0.3h-2.1v9.8h2.1c0.8,0,1.5-0.1,2.1-0.3c0.6-0.2,1-0.5,1.3-1c0.3-0.4,0.6-1,0.7-1.6
      c0.1-0.6,0.2-1.3,0.2-2.1C113.9,39.1,113.8,38.4,113.7,37.8z M129.3,19.5c-0.8-2.1-1.7-4.4-2.6-6.9h-0.1c-0.9,2.5-1.8,4.9-2.6,6.9
      l-0.8,1.9h6.8L129.3,19.5z M135.1,35.4c-0.4-0.3-1-0.5-1.8-0.5h-3.6v4.4h3.4c0.5,0,0.9,0,1.2-0.1c0.3-0.1,0.6-0.2,0.8-0.4
      c0.2-0.2,0.4-0.4,0.5-0.7c0.1-0.3,0.1-0.6,0.1-1C135.7,36.3,135.5,35.8,135.1,35.4z M135.1,35.4c-0.4-0.3-1-0.5-1.8-0.5h-3.6v4.4
      h3.4c0.5,0,0.9,0,1.2-0.1c0.3-0.1,0.6-0.2,0.8-0.4c0.2-0.2,0.4-0.4,0.5-0.7c0.1-0.3,0.1-0.6,0.1-1
      C135.7,36.3,135.5,35.8,135.1,35.4z M129.3,19.5c-0.8-2.1-1.7-4.4-2.6-6.9h-0.1c-0.9,2.5-1.8,4.9-2.6,6.9l-0.8,1.9h6.8L129.3,19.5
      z M113.7,37.8c-0.1-0.6-0.4-1.1-0.7-1.5c-0.3-0.4-0.8-0.7-1.3-1c-0.6-0.2-1.2-0.3-2.1-0.3h-2.1v9.8h2.1c0.8,0,1.5-0.1,2.1-0.3
      c0.6-0.2,1-0.5,1.3-1c0.3-0.4,0.6-1,0.7-1.6c0.1-0.6,0.2-1.3,0.2-2.1C113.9,39.1,113.8,38.4,113.7,37.8z M87.7,35.1l-1.9,5.9h3.9
      L87.7,35.1z M63.7,35.1l-1.9,5.9h3.9L63.7,35.1z M63.7,35.1l-1.9,5.9h3.9L63.7,35.1z M87.7,35.1l-1.9,5.9h3.9L87.7,35.1z
       M113.7,37.8c-0.1-0.6-0.4-1.1-0.7-1.5c-0.3-0.4-0.8-0.7-1.3-1c-0.6-0.2-1.2-0.3-2.1-0.3h-2.1v9.8h2.1c0.8,0,1.5-0.1,2.1-0.3
      c0.6-0.2,1-0.5,1.3-1c0.3-0.4,0.6-1,0.7-1.6c0.1-0.6,0.2-1.3,0.2-2.1C113.9,39.1,113.8,38.4,113.7,37.8z M129.3,19.5
      c-0.8-2.1-1.7-4.4-2.6-6.9h-0.1c-0.9,2.5-1.8,4.9-2.6,6.9l-0.8,1.9h6.8L129.3,19.5z M135.1,35.4c-0.4-0.3-1-0.5-1.8-0.5h-3.6v4.4
      h3.4c0.5,0,0.9,0,1.2-0.1c0.3-0.1,0.6-0.2,0.8-0.4c0.2-0.2,0.4-0.4,0.5-0.7c0.1-0.3,0.1-0.6,0.1-1
      C135.7,36.3,135.5,35.8,135.1,35.4z M135.1,35.4c-0.4-0.3-1-0.5-1.8-0.5h-3.6v4.4h3.4c0.5,0,0.9,0,1.2-0.1
      c0.3-0.1,0.6-0.2,0.8-0.4c0.2-0.2,0.4-0.4,0.5-0.7c0.1-0.3,0.1-0.6,0.1-1C135.7,36.3,135.5,35.8,135.1,35.4z M129.3,19.5
      c-0.8-2.1-1.7-4.4-2.6-6.9h-0.1c-0.9,2.5-1.8,4.9-2.6,6.9l-0.8,1.9h6.8L129.3,19.5z M113.7,37.8c-0.1-0.6-0.4-1.1-0.7-1.5
      c-0.3-0.4-0.8-0.7-1.3-1c-0.6-0.2-1.2-0.3-2.1-0.3h-2.1v9.8h2.1c0.8,0,1.5-0.1,2.1-0.3c0.6-0.2,1-0.5,1.3-1c0.3-0.4,0.6-1,0.7-1.6
      c0.1-0.6,0.2-1.3,0.2-2.1C113.9,39.1,113.8,38.4,113.7,37.8z M87.7,35.1l-1.9,5.9h3.9L87.7,35.1z M63.7,35.1l-1.9,5.9h3.9
      L63.7,35.1z"/>
  </g>
  <g>
    <g>
      <path fill="#F5F5F5" d="M4.8,19.5c-0.3,0-0.6,0.1-0.6,0.4c0,0.7,0.2,1.9,0.6,2.7C4.8,21.6,4.8,20.5,4.8,19.5z M4.8,14.7
        c-0.7,0.5-1,2.4-0.8,3.4c0.1,0.3,0.4,0.5,0.8,0.6C4.8,17.3,4.8,16,4.8,14.7z M15.9,4.2c-0.9,0-2.3,0.5-3,1
        c-0.1,0.1-0.2,0.3-0.2,0.4c0,0.2,0,0.5,0.1,0.6c0,0.1,0.1,0.2,0.1,0.3C13.3,6.3,13.6,6,14,5.7c0.7-0.5,1.5-1,2.3-1.4
        C16.2,4.3,16,4.2,15.9,4.2z M16.4,4.3C16.4,4.3,16.3,4.3,16.4,4.3c-0.2-0.1-0.3-0.1-0.5-0.1c-0.9,0-2.3,0.5-3,1
        c-0.1,0.1-0.2,0.3-0.2,0.4c0,0.2,0,0.5,0.1,0.6c0,0.1,0.1,0.2,0.1,0.3c0,0,0,0,0,0.1c0,0,0,0,0,0.1c0.4-0.4,0.9-0.8,1.3-1.1
        C15,5.2,15.7,4.7,16.4,4.3C16.4,4.4,16.4,4.3,16.4,4.3z M19.1,3.2c0,0-0.1-0.1-0.4-0.1c-0.5,0-1.1,0.1-1.5,0.3
        c-0.2,0.1-0.1,0.4-0.1,0.5c0,0,0,0,0,0.1c0,0,0,0,0,0.1c0,0,0,0.1,0,0.1c0.1,0.3,0.3,0.5,0.5,0.5c0.6-0.2,1.1-0.7,1.3-1.1
        c0,0,0-0.1,0.1-0.1C19.1,3.3,19.1,3.3,19.1,3.2C19.1,3.2,19.1,3.2,19.1,3.2C19.1,3.2,19.1,3.2,19.1,3.2z M16.5,4.4
        C16.5,4.4,16.5,4.4,16.5,4.4c-0.1-0.1-0.1-0.1-0.1-0.1c0,0-0.1,0-0.1,0c-0.1,0-0.3-0.1-0.4-0.1c-0.9,0-2.3,0.5-3,1
        c-0.1,0.1-0.2,0.3-0.2,0.4c0,0.2,0,0.5,0.1,0.6c0,0.1,0.1,0.2,0.1,0.3c0,0,0,0,0,0.1c0,0,0,0,0,0.1c0.4,0.9,1.3,1.7,1.9,1.7
        c0.1,0,0.1,0,0.1,0c0.4-0.1,1-1.2,1.4-2.3c0.1-0.2,0.1-0.3,0.1-0.5C16.7,5.1,16.7,4.6,16.5,4.4z M16,38.5
        c-0.1-0.5-1.3-1.4-1.7-0.9c-0.1,0.1,0,0.2,0,0.4c0,0,0,0,0,0c0.1,0.3,0.2,0.7,0.4,1.1l0,0c0.1,0.3,0.3,0.6,0.3,0.7
        C15.3,40.2,16.1,39,16,38.5z M15.1,47C15.1,47,15.1,47,15.1,47c-0.1-0.1-0.1-0.1-0.1-0.1c0,0,0,0-0.1,0c-0.1,0-0.3-0.1-0.4-0.1
        c-0.1,0-0.3,0-0.3,0.1c0,0.1,0,0.3,0.1,0.5c0.1,0.2,0.2,0.3,0.2,0.3l0,0c0,0,0,0,0.1-0.1c0,0,0.1-0.1,0.1-0.1l0,0v0
        c0,0,0.1-0.1,0.1-0.2c0.1-0.1,0.1-0.2,0.2-0.3C15.2,47,15.2,47,15.1,47z M15.1,44c-0.4,0-0.7,0.1-0.7,0.2c0,0.1,0.1,0.4,0.3,0.7
        c0.1,0.2,0.3,0.3,0.3,0.3c0,0,0.1,0,0.2-0.1c0-0.4,0.1-0.7,0.1-1C15.2,44,15.2,44,15.1,44z M18.9,1.7L18.9,1.7L18.9,1.7
        c-0.3-0.3-0.7-0.5-1.3-0.5c-0.7,0-1.4,0.2-1.8,0.4c-0.9,0.3-1.5,1-2.1,1.9c-0.5,0.6-1.1,1.3-1.9,2c-0.1,0.1-0.2,0.1-0.6,0.1
        c-0.3,0-0.6,0-1.1,0.1c-1,0.1-2.4,0.4-4.1,1L5.9,6.7l0-0.2c0.1-0.5,0.7-0.7,1.2-0.9c0,0,0,0,0.1,0C7.6,5.5,7.9,5.4,8,5.2
        c0.4-0.5,1.4-0.8,2.3-1.1c0.7-0.2,1.4-0.5,1.5-0.7c0,0,0-0.1,0-0.1c0-0.1-0.1-0.2-0.3-0.2c-0.3,0-0.8,0.2-1.3,0.4
        C9.7,3.8,9.3,4,9.1,4C9,4,8.9,3.9,8.8,3.9C8.8,3.8,8.8,3.7,8.8,3.6c0-0.3,0.5-0.8,1-1.4c0.6-0.6,1.3-1.3,1.1-1.6
        c-0.1-0.1-0.2-0.1-0.2-0.1c-0.4,0-1.1,1-1.7,1.8C8.5,3.1,8.1,3.5,7.9,3.5c-0.1,0-0.1,0-0.2-0.1C7.6,3.2,7.8,2.5,8,1.8
        c0.2-0.7,0.5-1.5,0.3-1.7c0,0,0-0.1-0.1-0.1c0,0,0,0-0.1,0C7.6,0,7.4,1.4,7.3,2.4C7.2,3.2,7.1,3.7,6.9,3.7c0,0-0.1,0-0.1,0
        c-0.4,0-0.6-0.5-0.9-1.1c-0.2-0.5-0.5-1-0.7-1c0,0-0.1,0-0.1,0C5,1.6,5,1.7,4.9,1.7c0,0.2,0.2,0.5,0.4,0.8
        c0.4,0.5,0.8,1.1,0.9,1.9l0,0L5.8,4.8C3.3,6.3,2.2,7,2.3,8.5C2.4,9,3.7,9.2,4.8,9.3c0.3,0,0.6,0,0.8,0.1c0.1,0,0.3,0,0.4,0l0.3,0
        L6,9.6C5.6,9.8,5.2,10,4.8,10.2C2.5,11.8,1,14.1,0.5,17c-0.7,4.2,0.9,8.9,4.3,12.9c0.5,0.7,1.1,1.3,1.8,1.9l0.1,0.1l-0.1,0
        c-1,0.4-1.5,0.9-1.6,1.5c-0.3,1.2,1.1,2.7,1.9,3.5c0.4,0.4,0.5,0.5,0.4,0.6c-0.1,0.1-0.3,0.2-0.4,0.2c-0.3,0-0.6-0.2-1-0.4
        c-0.3-0.2-0.7-0.5-1-0.8c0,0-0.1-0.1-0.1-0.1c-0.7-0.6-1.4-1.2-1.8-1.2c-0.1,0-0.2,0.1-0.3,0.2c0,0,0,0.1,0,0.2
        c0.1,0.3,0.9,0.8,1.6,1.2c0.2,0.1,0.4,0.2,0.6,0.3c0.6,0.4,1.1,0.7,1,1c0,0.1-0.1,0.2-0.3,0.2c-0.2,0-0.4-0.1-0.7-0.1
        c-0.4-0.1-0.8-0.2-1.3-0.4c-1.1-0.4-2.3-0.8-3-0.8C0,37,0,37.3,0,37.4c-0.1,0.6,2.3,0.9,3.8,1.2c0.4,0.1,0.8,0.1,1,0.2
        c0.7,0.1,0.9,0.2,0.9,0.3c0,0.2-0.3,0.3-0.9,0.5c-0.1,0-0.1,0-0.2,0c-0.8,0.2-1.8,0.4-2.1,0.8c0,0.1-0.1,0.2,0,0.2
        c0,0,0.1,0.1,0.2,0.1c0.4,0,1-0.3,1.7-0.6c0.1-0.1,0.3-0.1,0.4-0.2c0.5-0.2,0.9-0.4,1.2-0.4c0.1,0,0.2,0,0.3,0.1c0,0,0,0,0,0.1
        c0,0.1-0.1,0.3-0.4,0.6c-0.3,0.3-0.7,0.8-0.6,1c0,0,0,0.1,0.1,0.1c0,0,0.1,0,0.1,0c0.1,0,0.2-0.1,0.4-0.4c0.4-0.6,1-1.6,3.4-2.2
        c0.2,0,0.3-0.1,0.4-0.3c0.3-0.5,0-1.6-0.2-2.2c-0.1-0.5-0.2-0.6-0.1-0.7c0,0,0.1-0.1,0.2,0l0,0c3,4.9,4.2,9.1,3.6,12.4
        c0,0.3-0.1,0.6-0.2,0.8c-1.1,4-4.8,5.8-6.9,6.9c-0.9,0.5-1.6,0.8-1.7,1.1c3-1.1,8.3-3.6,10.2-8.5c0-0.1,0-0.2,0.1-0.2
        c0-0.1,0-0.2,0.1-0.3c0,0,0,0,0,0c0,0,0,0,0,0c0,0-0.1,0-0.2-0.2c-0.2-0.2-0.4-0.6-0.3-0.8c0-0.2,0.2-0.3,0.5-0.3
        c0.1,0,0.3,0,0.4,0.1c0.1-0.5,0.2-0.9,0.2-1.4c0,0-0.1,0-0.1,0c0,0,0,0,0,0c-0.2,0-0.3-0.2-0.5-0.3c-0.2-0.3-0.3-0.6-0.3-0.8
        c0.1-0.2,0.5-0.3,0.9-0.3c0,0,0.1,0,0.1,0c0-0.3,0-0.6,0-1C15.2,43,15.1,43,15,43h0c-0.3,0-0.8-0.4-1.1-0.8
        c-0.2-0.2-0.5-0.6-0.5-0.9c0.1-0.3,0.8-0.6,1.4-0.8c-0.8-3.5-3-7.1-6.9-11.8c-1.3-1.6-2.4-3.2-3.2-4.7c-1.3-2.6-1.8-5.1-1.3-7.4
        c0.2-1.1,0.6-2.1,1.3-3.1c1.4-2.2,3.8-4.3,7.3-6c0.2-0.3,0.5-0.5,0.7-0.7c-0.1-0.1-0.1-0.3-0.2-0.4c-0.1-0.3-0.1-0.5-0.1-0.7
        c0-0.2,0.1-0.4,0.3-0.6c0.7-0.5,2.2-1,3.1-1c0.3,0,0.5,0,0.6,0.1c0.1-0.1,0.3-0.1,0.5-0.2c0,0,0-0.1,0-0.1
        c-0.1-0.3,0-0.6,0.2-0.7c0.4-0.2,1.1-0.3,1.6-0.3c0.3,0,0.5,0,0.6,0.2c0,0,0,0.1,0,0.1C19.6,3.1,19.9,3,20.2,3c0-0.2,0-0.3,0-0.4
        c0-0.3,0.4-0.5,1.1-0.5c0.7,0,1.6,0.2,2,0.6c0.1,0,0.2,0,0.3,0c0.1,0,0.3,0,0.4,0C22.9,1.9,20.9,1.8,18.9,1.7z M5.1,8.6
        C5,8.6,4.9,8.7,4.8,8.8C4.2,9,3.1,8.7,2.8,8.2C2.5,7.8,3.4,7.1,4,7.1c0.3,0,0.6,0.2,0.8,0.5C5.1,7.9,5.3,8.4,5.1,8.6z M6.7,7
        c0.5-0.3,1.6-0.5,1.6-0.2c0,0.3-1.2,1.6-1.5,1.6C6.3,8.3,6.3,7.3,6.7,7z M5.3,33.6c-0.1-0.3,1.7-1.3,2-1.3c0.7,0.2,0.3,2.3,0,2.4
        C6.6,34.9,5.4,34,5.3,33.6z M8.1,36.8c-0.6,0-1.6-0.9-1.3-1.2c0.2-0.3,1.2-0.8,1.6-0.4C8.7,35.5,8.5,36.8,8.1,36.8z M13.6,37.9
        c0.4,0.4,0.8,2,0.5,2.3c-0.2,0.3-1.6-0.2-1.5-0.9C12.7,38.8,13.3,37.7,13.6,37.9z M11.7,35c0.5-0.1,1.4,1.6,1.5,2
        c0,0.5-1.6,0.9-2,0.5C10.7,36.6,11.3,35.1,11.7,35z M9.2,31.9c0.6-0.2,2,1.4,2.1,2.1c0.1,0.6-3,1.1-3.1,0.5
        C8.1,33.8,8.5,31.9,9.2,31.9z M6.9,28.3c0.5-0.2,1.6,1.6,1.7,2c0.1,0.4-1.6,1.2-1.8,0.9C6.4,30.4,6.3,28.4,6.9,28.3z M4.2,25
        c0.1,0,0.4,0.1,0.7,0.4c0.6,0.6,1.4,1.6,1.4,2c0.1,0.4-0.7,0.6-1.4,0.6c-0.4,0-0.8,0-0.9-0.2C3.6,27.4,3.5,25.3,4.2,25z
         M3.9,23.7c-0.2,1-2.6-0.9-2.7-1.6c-0.1-0.7,1-2.7,1.5-2.2C3.1,20.4,4,23.1,3.9,23.7z M2.5,18.6c-0.5,0.6-2-1.2-1.5-2.2
        c0.5-1.3,2.3-2.4,2.5-2C3.7,14.8,2.9,18,2.5,18.6z M4.8,13c-0.3,0.3-0.5,0.6-0.7,0.6c-0.4,0.1-1.7,0-1.6-0.5
        c0-0.7,1.3-1.4,2.3-1.8c0.5-0.2,1-0.3,1-0.1C5.8,11.5,5.3,12.4,4.8,13z M6.7,10.7c-0.2,0.1-1.5,0-1.2-0.4c0.1-0.2,3.4-2,3.7-1.5
        C9.4,9,6.9,10.7,6.7,10.7z M11.6,7.1c-0.2,0.5-2.7,1-3.1,0.9C8.1,8,10,6.3,10.7,6.1C11.4,6,11.7,6.8,11.6,7.1z M15.7,44.2
        c-0.1,0-0.2-0.1-0.3-0.1c0,0-0.1,0-0.1,0c0,0-0.1,0-0.1,0c0,0-0.1,0-0.1,0c-0.4,0-0.7,0.1-0.7,0.2c0,0.1,0.1,0.4,0.3,0.7
        c0.1,0.2,0.3,0.3,0.3,0.3c0,0,0.1,0,0.2-0.1c0,0,0.1-0.1,0.1-0.1c0,0,0.1-0.1,0.1-0.1c0.1-0.2,0.2-0.4,0.3-0.5
        C15.7,44.2,15.7,44.2,15.7,44.2z M15.7,40.5c0,0,0,0-0.1,0c-0.1,0-0.3,0-0.5,0.1c0,0-0.1,0-0.1,0c0,0,0,0-0.1,0
        c-0.6,0.1-1.3,0.4-1.3,0.6c0,0.2,0.1,0.5,0.4,0.8c0.4,0.4,0.8,0.7,1,0.7c0.1,0,0.1,0,0.2-0.1c0,0,0,0,0.1-0.1c0,0,0-0.1,0.1-0.1
        c0.2-0.2,0.3-0.5,0.4-0.9C15.9,41.1,15.9,40.7,15.7,40.5z M23.2,2.7C23.2,2.7,23.1,2.7,23.2,2.7C23.1,2.6,23,2.6,23,2.6
        c-0.4-0.2-1.1-0.4-1.8-0.4c-0.5,0-0.9,0.1-0.9,0.3c0,0.1,0,0.3,0,0.4c0,0,0,0,0,0.1c0,0,0,0.1,0,0.1c0.1,0.7,0.5,1.5,1,1.5
        c0,0,0.1,0,0.1,0c0.7,0,1.7-1,1.8-1.7C23.3,2.8,23.2,2.8,23.2,2.7z M18.6,7.7c-0.5-0.5,2-1.5,2-2c0,0,0,0,0,0
        c0.1-0.2-1.2-0.5-1.6-0.3c-0.2,0.1-0.3,0.2-0.5,0.3c-0.8,0.8-1.3,2.6-0.7,3c0.9,0.5,3.6-0.5,3.4-2.1C21.1,6,19.2,8.5,18.6,7.7z
         M15.9,4.2c-0.9,0-2.3,0.5-3,1c-0.1,0.1-0.2,0.3-0.2,0.4c0,0.2,0,0.5,0.1,0.6c0,0.1,0.1,0.2,0.1,0.3C13.3,6.3,13.6,6,14,5.7
        c0.7-0.5,1.5-1,2.3-1.4C16.2,4.3,16,4.2,15.9,4.2z M16.1,32.5c-0.4-0.2-1.5,0-1.3,0.6c0.1,0.3,1.2,0.8,1.6,0.7
        C16.9,33.7,16.5,32.6,16.1,32.5z M15.4,35.5c0.4,0.9,0.7,1.7,0.9,2.6C16,37.3,15.7,36.4,15.4,35.5z M15.3,31
        c-0.1-0.5-1-2-1.4-2.1c-0.5,0-0.4,2.3-0.2,2.8C13.8,32.3,15.5,31.6,15.3,31z M14.7,35.2c-0.2-0.2-1.7-1.3-1.9-1
        c-0.2,0.2,0.8,2.5,1.3,2.5C14.5,36.7,15.1,35.4,14.7,35.2z M14.6,11.8c-0.3-0.1-2.6,2-2.4,2.8c0.2,0.3,0.7,0.9,1.1,0.6
        C14.6,14.5,15.1,12,14.6,11.8z M14.4,10.1c-0.5-0.5-1.6-2-2.1-2c-0.9-0.1-1.4,5.9,0.3,4.1C13.2,11.5,14.8,10.5,14.4,10.1z
         M12.1,17.1c-0.6,0.2-1.3,1.1-0.8,1.4c0.5,0.4,2.7,0.1,2.6-0.3C13.9,17.7,12.7,16.9,12.1,17.1z M13.1,29.5
        c-0.2-0.7-2.5,1-2.4,1.7c0.2,0.7,1.2,2,1.8,2C13.1,33,13.2,30.2,13.1,29.5z M11.5,28.6c-0.1-0.8-3.1-1.8-3.3-1.3
        C8,27.8,9.3,29.9,10,29.7C10.7,29.4,11.6,29,11.5,28.6z M10,9.3c-0.8,0.2-2.3,1.3-2.1,1.9c0.2,0.7,1.7,2.9,2.5,2.7
        C11.2,13.8,10.8,9.1,10,9.3z M6.1,24.4C6,25,7,26.7,7.8,26.7c0.3-0.1,1.6-0.9,1.6-1.5C9.2,24.2,6.1,23.7,6.1,24.4z M7.1,11.6
        c-0.8,0.2-1.6,1.6-1.5,2.3c0.2,0.7,2.5,2,3.3,1.8C9.7,15.5,7.8,11.5,7.1,11.6z M5.1,14.6c-0.1,0-0.2,0-0.3,0.1
        c-0.7,0.5-1,2.4-0.8,3.4c0.1,0.3,0.4,0.5,0.8,0.6C6,19,7.9,18.5,8,17.9C8.1,17,6,14.4,5.1,14.6z M7.9,21.3
        c-0.2-0.7-2.1-1.7-3.1-1.8c-0.3,0-0.6,0.1-0.6,0.4c0,0.7,0.2,1.9,0.6,2.7v0c0.2,0.4,0.5,0.7,0.9,0.7C6.7,23.2,8.2,22.1,7.9,21.3z
         M4.8,19.5c-0.3,0-0.6,0.1-0.6,0.4c0,0.7,0.2,1.9,0.6,2.7C4.8,21.6,4.8,20.5,4.8,19.5z M4.8,14.7c-0.7,0.5-1,2.4-0.8,3.4
        c0.1,0.3,0.4,0.5,0.8,0.6C4.8,17.3,4.8,16,4.8,14.7z"/>
      <path fill="#F5F5F5" d="M15.4,35.5c0.4,0.9,0.7,1.7,0.9,2.6C16,37.3,15.7,36.4,15.4,35.5z"/>
    </g>
    <g>
      <path fill="#F5F5F5" d="M15.4,35.5c0.4,0.9,0.7,1.7,0.9,2.6C16,37.3,15.7,36.4,15.4,35.5z"/>
    </g>
    <g>
      <path fill="#F5F5F5" d="M7.9,21.3c0.3,0.9-1.2,2-2.2,2c-0.3,0-0.6-0.3-0.9-0.7v0c-0.4-0.8-0.7-2-0.6-2.7c0-0.3,0.3-0.4,0.6-0.4
        C5.8,19.5,7.7,20.6,7.9,21.3z"/>
      <path fill="#F5F5F5" d="M8,17.9c-0.1,0.6-2,1.1-3.2,0.8c-0.4-0.1-0.8-0.3-0.8-0.6c-0.1-1,0.2-2.9,0.8-3.4
        c0.1-0.1,0.2-0.1,0.3-0.1C6,14.4,8.1,17,8,17.9z"/>
      <path fill="#F5F5F5" d="M8.9,15.7c-0.8,0.2-3.1-1.1-3.3-1.8c-0.2-0.6,0.7-2.1,1.5-2.3C7.8,11.5,9.7,15.5,8.9,15.7z"/>
      <path fill="#F5F5F5" d="M9.3,25.2c0.1,0.6-1.3,1.4-1.6,1.5C7,26.7,6,25,6.1,24.4C6.1,23.7,9.2,24.2,9.3,25.2z"/>
      <path fill="#F5F5F5" d="M7.9,11.1C7.8,10.5,9.2,9.4,10,9.3c0.8-0.2,1.2,4.5,0.4,4.6C9.6,14,8.1,11.8,7.9,11.1z"/>
      <path fill="#F5F5F5" d="M8.2,27.3c0.2-0.5,3.2,0.5,3.3,1.3c0.1,0.4-0.8,0.8-1.5,1C9.3,29.9,8,27.8,8.2,27.3z"/>
      <path fill="#F5F5F5" d="M10.7,31.2c-0.1-0.7,2.3-2.4,2.4-1.7c0.1,0.7,0,3.5-0.6,3.7C11.8,33.3,10.8,31.9,10.7,31.2z"/>
      <path fill="#F5F5F5" d="M12.1,17.1c0.6-0.2,1.8,0.6,1.8,1.1c0.1,0.4-2,0.7-2.6,0.3C10.8,18.2,11.4,17.3,12.1,17.1z"/>
      <path fill="#F5F5F5" d="M14.4,10.1c0.4,0.4-1.2,1.3-1.8,2C10.9,14,11.4,8,12.3,8.1C12.8,8.1,13.9,9.7,14.4,10.1z"/>
      <path fill="#F5F5F5" d="M14.6,11.8c0.5,0.2-0.1,2.7-1.3,3.5c-0.4,0.2-0.9-0.3-1.1-0.6C12.1,13.7,14.3,11.7,14.6,11.8z"/>
      <path fill="#F5F5F5" d="M12.8,34.2c0.2-0.2,1.6,0.9,1.9,1c0.4,0.2-0.2,1.5-0.6,1.5C13.6,36.7,12.7,34.4,12.8,34.2z"/>
      <path fill="#F5F5F5" d="M15.3,42.7c0-0.7-0.2-1.4-0.3-2c0,0,0.1,0,0.1,0c0.2,0,0.4-0.1,0.5-0.1c0.1,0,0.1,0,0.1,0
        c0.2,0.1,0.2,0.6,0.1,1.1C15.7,42,15.5,42.3,15.3,42.7C15.4,42.6,15.3,42.6,15.3,42.7z"/>
      <path fill="#F5F5F5" d="M15.2,47.1c0,0.1-0.1,0.2-0.2,0.3c0,0.1-0.1,0.1-0.1,0.2c0.1-0.2,0.1-0.5,0.1-0.7c0,0,0,0,0.1,0
        c0,0,0,0,0.1,0C15.2,47,15.2,47,15.2,47.1z"/>
      <path fill="#F5F5F5" d="M15.7,44.3c-0.1,0.2-0.2,0.4-0.3,0.5c0,0-0.1,0.1-0.1,0.1c0-0.3,0-0.6,0-1c0,0,0.1,0,0.1,0
        c0.1,0,0.2,0.1,0.3,0.1C15.7,44.2,15.7,44.2,15.7,44.3z"/>
      <path fill="#F5F5F5" d="M15,39.8c0-0.1-0.1-0.3-0.3-0.7l0,0c-0.1-0.3-0.3-0.7-0.4-1.1c0,0,0,0,0,0c-0.1-0.2-0.1-0.4,0-0.4
        c0.4-0.5,1.6,0.5,1.7,0.9C16.1,39,15.3,40.2,15,39.8z"/>
      <path fill="#F5F5F5" d="M15.3,31c0.2,0.6-1.6,1.3-1.6,0.7c-0.2-0.5-0.2-2.8,0.2-2.8C14.3,28.9,15.3,30.4,15.3,31z"/>
      <path fill="#F5F5F5" d="M16.4,33.7c-0.5,0.1-1.6-0.4-1.6-0.7c-0.2-0.6,0.9-0.8,1.3-0.6C16.5,32.6,16.9,33.7,16.4,33.7z"/>
      <path fill="#F5F5F5" d="M16.7,15.8"/>
      <path fill="#F5F5F5" d="M16.5,5.7c0,0.1-0.1,0.3-0.1,0.5c-0.4,1.1-1,2.2-1.4,2.3c0,0-0.1,0-0.1,0c-0.6,0-1.4-0.9-1.9-1.7
        c0,0,0,0,0-0.1c0.1-0.1,0.2-0.2,0.3-0.3c0.2-0.1,0.3-0.3,0.5-0.4c0.1-0.1,0.3-0.2,0.4-0.3c0.7-0.5,1.5-1,2.2-1.3
        c0,0,0.1,0,0.1,0.1c0,0,0,0,0.1,0.1C16.7,4.6,16.7,5.1,16.5,5.7z"/>
      <path fill="#F5F5F5" d="M21.2,6.6c0.2,1.7-2.5,2.7-3.4,2.1c-0.6-0.4,0-2.2,0.7-3c0.2-0.2,0.3-0.3,0.5-0.3
        c0.5-0.2,1.7,0.1,1.6,0.3c0,0,0,0,0,0c-0.1,0.5-2.5,1.5-2,2C19.2,8.5,21.1,6,21.2,6.6z"/>
      <path fill="#F5F5F5" d="M17.1,4c0.7-0.3,1.3-0.5,1.9-0.7c0,0,0,0.1-0.1,0.1c-0.2,0.4-0.8,1-1.3,1.1C17.5,4.6,17.3,4.4,17.1,4
        C17.1,4.1,17.1,4,17.1,4z"/>
      <path fill="#F5F5F5" d="M23.3,2.9c-0.1,0.7-1.1,1.7-1.8,1.7c0,0,0,0-0.1,0c-0.5,0-0.9-0.8-1-1.5c0,0,0-0.1,0-0.1
        c1-0.2,2-0.3,2.8-0.3c0,0,0.1,0,0.1,0.1C23.2,2.8,23.3,2.8,23.3,2.9z"/>
    </g>
    <g>
      <path fill="#F5F5F5" d="M14.2,5.7C14,5.8,13.9,5.9,13.7,6c-0.2,0.1-0.3,0.3-0.5,0.4c-0.1,0.1-0.2,0.2-0.3,0.3c0,0,0,0,0,0.1
        c0.4-0.4,0.9-0.8,1.3-1.1H14.2z M14.2,5.7C14,5.8,13.9,5.9,13.7,6c-0.2,0.1-0.3,0.3-0.5,0.4c-0.1,0.1-0.2,0.2-0.3,0.3
        c0,0,0,0,0,0.1c0.4-0.4,0.9-0.8,1.3-1.1H14.2z M14.2,5.7C14,5.8,13.9,5.9,13.7,6c-0.2,0.1-0.3,0.3-0.5,0.4
        c-0.1,0.1-0.2,0.2-0.3,0.3c0,0,0,0,0,0.1c0.4-0.4,0.9-0.8,1.3-1.1H14.2z M14.2,5.7C14,5.8,13.9,5.9,13.7,6
        c-0.2,0.1-0.3,0.3-0.5,0.4c-0.1,0.1-0.2,0.2-0.3,0.3c0,0,0,0,0,0.1c0.4-0.4,0.9-0.8,1.3-1.1H14.2z M16.4,4.3
        C16.4,4.3,16.3,4.3,16.4,4.3c-0.9,0.3-1.6,0.8-2.4,1.3c-0.4,0.3-0.8,0.6-1.1,0.9c0,0,0,0,0,0.1c0,0,0,0,0,0.1
        c0.4-0.4,0.9-0.8,1.3-1.1C15,5.2,15.7,4.7,16.4,4.3C16.4,4.4,16.4,4.3,16.4,4.3z M17.1,3.9C17.1,4,17.1,4,17.1,3.9
        c0,0.1,0,0.1,0.1,0.1c0.6-0.3,1.2-0.5,1.9-0.7c0,0,0-0.1,0.1-0.1c0,0,0-0.1,0-0.1C18.4,3.4,17.8,3.6,17.1,3.9z M23.9,5.7
        c-0.5,1-1.3,2.1-2.2,3.1C22.6,7.8,23.4,6.7,23.9,5.7L23.9,5.7z M23.1,2.7c0,0-0.1,0-0.1-0.1c-0.8,0-1.7,0.1-2.7,0.3
        c0,0,0,0,0,0.1c0,0,0,0.1,0,0.1C21.3,2.9,22.3,2.8,23.1,2.7C23.2,2.7,23.1,2.7,23.1,2.7z M19.5,10.3c0.4-0.2,0.8-0.5,1.2-0.7
        C20.3,9.8,19.9,10.1,19.5,10.3z M17.5,13.2c0,0,0-0.1-0.1-0.1C17.4,13.1,17.4,13.2,17.5,13.2c0,0.1,0,0.1,0,0.2
        C17.5,13.3,17.5,13.3,17.5,13.2z M16.8,15.6C16.8,15.6,16.8,15.6,16.8,15.6C16.8,15.6,16.8,15.6,16.8,15.6
        C16.8,15.6,16.8,15.6,16.8,15.6C16.8,15.6,16.8,15.6,16.8,15.6z M15.4,35.5c0.4,0.9,0.7,1.7,0.9,2.6C16,37.3,15.7,36.4,15.4,35.5
        z M14.3,38c0.1,0.3,0.2,0.7,0.4,1.1C14.5,38.7,14.4,38.4,14.3,38z M15,46.9C15,46.9,15,46.9,15,46.9c-0.1,0.2-0.2,0.5-0.3,0.8
        c0,0,0.1-0.1,0.1-0.1l0,0v0c0,0,0.1-0.1,0.1-0.2C15,47.3,15.1,47.1,15,46.9C15.1,46.9,15,46.9,15,46.9z M15.3,44
        C15.3,44,15.3,44,15.3,44c-0.1,0.3-0.1,0.7-0.1,1c0,0,0.1-0.1,0.1-0.1c0,0,0.1-0.1,0.1-0.1C15.4,44.6,15.4,44.3,15.3,44
        C15.4,44,15.4,44,15.3,44z M15.1,40.6C15.1,40.6,15,40.6,15.1,40.6c-0.1,0-0.1,0-0.2,0c0.2,0.7,0.3,1.4,0.3,2.1c0,0,0,0,0.1-0.1
        c0,0,0-0.1,0.1-0.1C15.3,41.9,15.2,41.3,15.1,40.6z M14.2,5.7C14,5.8,13.9,5.9,13.7,6c-0.2,0.1-0.3,0.3-0.5,0.4
        c-0.1,0.1-0.2,0.2-0.3,0.3c0,0,0,0,0,0.1c0.4-0.4,0.9-0.8,1.3-1.1H14.2z M14.2,5.7C14,5.8,13.9,5.9,13.7,6
        c-0.2,0.1-0.3,0.3-0.5,0.4c-0.1,0.1-0.2,0.2-0.3,0.3c0,0,0,0,0,0.1c0.4-0.4,0.9-0.8,1.3-1.1H14.2z M14.2,5.7
        C14,5.8,13.9,5.9,13.7,6c-0.2,0.1-0.3,0.3-0.5,0.4c-0.1,0.1-0.2,0.2-0.3,0.3c0,0,0,0,0,0.1c0.4-0.4,0.9-0.8,1.3-1.1H14.2z
         M14.2,5.7C14,5.8,13.9,5.9,13.7,6c-0.2,0.1-0.3,0.3-0.5,0.4c-0.1,0.1-0.2,0.2-0.3,0.3c0,0,0,0,0,0.1c0.4-0.4,0.9-0.8,1.3-1.1
        H14.2z M14.2,5.7C14,5.8,13.9,5.9,13.7,6c-0.2,0.1-0.3,0.3-0.5,0.4c-0.1,0.1-0.2,0.2-0.3,0.3c0,0,0,0,0,0.1
        c0.4-0.4,0.9-0.8,1.3-1.1H14.2z"/>
    </g>
    <g>
      <path fill="#F5F5F5" d="M21.2,6.6c0.2,1.7-2.5,2.7-3.4,2.1c-0.6-0.4,0-2.2,0.7-3c0.2-0.2,0.3-0.3,0.5-0.3
        c0.5-0.2,1.7,0.1,1.6,0.3c0,0,0,0,0,0c-0.1,0.5-2.5,1.5-2,2C19.2,8.5,21.1,6,21.2,6.6z"/>
    </g>
    <g>
      <path fill="#F5F5F5" d="M12.6,12.2C10.9,14,11.4,8,12.3,8.1c0.5,0,1.6,1.6,2.1,2C14.8,10.5,13.2,11.5,12.6,12.2z"/>
    </g>
    <g>
      <path fill="#F5F5F5" d="M8.9,15.7c-0.8,0.2-3.1-1.1-3.3-1.8c-0.2-0.6,0.7-2.1,1.5-2.3C7.8,11.5,9.7,15.5,8.9,15.7z"/>
    </g>
    <g>
      <path fill="#F5F5F5" d="M8,17.9c-0.1,0.6-2,1.1-3.2,0.8c-0.4-0.1-0.8-0.3-0.8-0.6c-0.1-1,0.2-2.9,0.8-3.4
        c0.1-0.1,0.2-0.1,0.3-0.1C6,14.4,8.1,17,8,17.9z"/>
    </g>
    <g>
      <path fill="#F5F5F5" d="M5.7,23.3c-0.3,0-0.6-0.3-0.9-0.7v0c-0.4-0.8-0.7-2-0.6-2.7c0-0.3,0.3-0.4,0.6-0.4c1,0,2.8,1.1,3.1,1.8
        C8.2,22.1,6.7,23.2,5.7,23.3z"/>
    </g>
    <g>
      <path fill="#F5F5F5" d="M9.3,25.2c0.1,0.6-1.3,1.4-1.6,1.5C7,26.7,6,25,6.1,24.4C6.1,23.7,9.2,24.2,9.3,25.2z"/>
    </g>
    <g>
      <path fill="#F5F5F5" d="M10,29.7c-0.7,0.2-2-1.9-1.8-2.4c0.2-0.5,3.2,0.5,3.3,1.3C11.6,29,10.7,29.4,10,29.7z"/>
    </g>
    <g>
      <path fill="#F5F5F5" d="M12.5,33.2c-0.6,0.1-1.6-1.3-1.8-2c-0.1-0.7,2.3-2.4,2.4-1.7C13.2,30.2,13.1,33,12.5,33.2z"/>
    </g>
    <g>
      <path fill="#F5F5F5" d="M13.7,31.7c-0.2-0.5-0.2-2.8,0.2-2.8c0.4,0.1,1.3,1.6,1.4,2.1C15.5,31.6,13.8,32.3,13.7,31.7z"/>
    </g>
    <g>
      <path fill="#F5F5F5" d="M14.1,36.7c-0.5,0-1.4-2.4-1.3-2.5c0.2-0.2,1.6,0.9,1.9,1C15.1,35.4,14.5,36.7,14.1,36.7z"/>
    </g>
    <g>
      <path fill="#F5F5F5" d="M15,39.8c0-0.1-0.1-0.3-0.3-0.7l0,0c-0.1-0.3-0.3-0.7-0.4-1.1c0,0,0,0,0,0c-0.1-0.2-0.1-0.4,0-0.4
        c0.4-0.5,1.6,0.5,1.7,0.9C16.1,39,15.3,40.2,15,39.8z"/>
    </g>
    <g>
      <path fill="#F5F5F5" d="M13.3,15.2c-0.4,0.2-0.9-0.3-1.1-0.6c-0.2-0.9,2.1-2.9,2.4-2.8C15.1,12,14.6,14.5,13.3,15.2z"/>
    </g>
    <g>
      <path fill="#F5F5F5" d="M10.4,13.9c-0.8,0.2-2.3-2-2.5-2.7C7.8,10.5,9.2,9.4,10,9.3C10.8,9.1,11.2,13.8,10.4,13.9z"/>
    </g>
    <g>
      <path fill="#F5F5F5" d="M13.9,18.2c0.1,0.4-2,0.7-2.6,0.3c-0.5-0.3,0.2-1.3,0.8-1.4C12.7,16.9,13.9,17.7,13.9,18.2z"/>
    </g>
    <g>
      <path fill="#F5F5F5" d="M16.5,5.7c0,0.1-0.1,0.3-0.1,0.5c-0.4,1.1-1,2.2-1.4,2.3c0,0-0.1,0-0.1,0c-0.6,0-1.4-0.9-1.9-1.7
        c0,0,0,0,0-0.1c0,0,0,0,0-0.1c-0.1-0.1-0.1-0.2-0.1-0.3c-0.1-0.2-0.1-0.4-0.1-0.6c0-0.2,0.1-0.3,0.2-0.4c0.7-0.5,2.1-1,3-1
        c0.2,0,0.3,0,0.4,0.1c0,0,0.1,0,0.1,0c0,0,0.1,0,0.1,0.1c0,0,0,0,0.1,0.1C16.7,4.6,16.7,5.1,16.5,5.7z"/>
    </g>
    <g>
      <path fill="#F5F5F5" d="M23.3,2.9c-0.1,0.7-1.1,1.7-1.8,1.7c0,0,0,0-0.1,0c-0.5,0-0.9-0.8-1-1.5c0,0,0-0.1,0-0.1c0,0,0,0,0-0.1
        c0-0.1,0-0.3,0-0.4c0-0.2,0.4-0.3,0.9-0.3c0.7,0,1.4,0.2,1.8,0.4c0,0,0.1,0,0.1,0.1c0,0,0.1,0,0.1,0.1
        C23.2,2.8,23.3,2.8,23.3,2.9z"/>
    </g>
    <g>
      <path fill="#F5F5F5" d="M15.8,41.6c-0.1,0.4-0.2,0.7-0.4,0.9c0,0,0,0.1-0.1,0.1c0,0,0,0-0.1,0.1c-0.1,0.1-0.1,0.1-0.2,0.1
        c-0.2,0-0.6-0.3-1-0.7c-0.3-0.3-0.4-0.6-0.4-0.8c0-0.2,0.7-0.5,1.3-0.6c0,0,0,0,0.1,0c0,0,0.1,0,0.1,0c0.2,0,0.4-0.1,0.5-0.1
        c0.1,0,0.1,0,0.1,0C15.9,40.7,15.9,41.1,15.8,41.6z"/>
    </g>
    <g>
      <path fill="#F5F5F5" d="M15.7,44.3c-0.1,0.2-0.2,0.4-0.3,0.5c0,0-0.1,0.1-0.1,0.1c0,0-0.1,0.1-0.1,0.1c-0.1,0.1-0.1,0.1-0.2,0.1
        c-0.1,0-0.2-0.1-0.3-0.3c-0.2-0.3-0.3-0.6-0.3-0.7c0-0.1,0.4-0.2,0.7-0.2c0,0,0.1,0,0.1,0c0,0,0.1,0,0.1,0c0,0,0.1,0,0.1,0
        c0.1,0,0.2,0.1,0.3,0.1C15.7,44.2,15.7,44.2,15.7,44.3z"/>
    </g>
    <g>
      <path fill="#F5F5F5" d="M16.4,33.7c-0.5,0.1-1.6-0.4-1.6-0.7c-0.2-0.6,0.9-0.8,1.3-0.6C16.5,32.6,16.9,33.7,16.4,33.7z"/>
    </g>
    <g>
      <path fill="#F5F5F5" d="M19.1,3.2C19.1,3.2,19.1,3.2,19.1,3.2c0,0.1,0,0.1,0,0.1c0,0,0,0.1-0.1,0.1c-0.2,0.4-0.8,1-1.3,1.1
        c-0.2,0.1-0.4-0.2-0.5-0.5c0,0,0-0.1,0-0.1c0,0,0,0,0-0.1c0,0,0,0,0-0.1c0-0.1-0.1-0.4,0.1-0.5c0.4-0.2,1-0.3,1.5-0.3
        C19,3.1,19.1,3.1,19.1,3.2C19.1,3.2,19.1,3.2,19.1,3.2z"/>
    </g>
    <g>
      <path fill="#F5F5F5" d="M15.2,47.1c0,0.1-0.1,0.2-0.2,0.3c0,0.1-0.1,0.1-0.1,0.2v0l0,0c0,0-0.1,0.1-0.1,0.1c0,0-0.1,0.1-0.1,0.1
        l0,0c0,0-0.1-0.1-0.2-0.3c-0.1-0.2-0.2-0.4-0.1-0.5c0-0.1,0.2-0.1,0.3-0.1c0.1,0,0.3,0,0.4,0.1c0,0,0,0,0.1,0c0,0,0,0,0.1,0
        c0,0,0,0,0.1,0C15.2,47,15.2,47,15.2,47.1z"/>
    </g>
  </g>
  <g>
    <path fill="#F5F5F5" d="M18.9,53.4l2-1.8h-1.3l-2,1.9v-1.9h-1V56h1v-1.5l0.5-0.4l1.6,2H21L18.9,53.4z"/>
    <path fill="#F5F5F5" d="M26.1,52.8c-0.1-0.3-0.3-0.5-0.5-0.7c-0.2-0.2-0.4-0.4-0.7-0.5c-0.3-0.1-0.6-0.2-0.9-0.2
      c-0.5,0-0.9,0.1-1.2,0.3c-0.4,0.2-0.6,0.5-0.8,0.8c-0.2,0.4-0.3,0.8-0.3,1.2c0,0.3,0.1,0.6,0.2,0.9c0.1,0.3,0.3,0.5,0.5,0.7
      c0.2,0.2,0.5,0.4,0.8,0.5c0.3,0.1,0.6,0.2,1,0.2c0.3,0,0.7-0.1,0.9-0.2c0.3-0.1,0.5-0.3,0.7-0.5c0.2-0.2,0.4-0.5,0.5-0.8
      c0.1-0.3,0.2-0.6,0.2-1C26.3,53.4,26.2,53.1,26.1,52.8z M25.1,54.6c-0.1,0.2-0.3,0.4-0.5,0.5c-0.2,0.1-0.4,0.2-0.7,0.2
      c-0.5,0-0.8-0.2-1-0.5c-0.2-0.3-0.3-0.7-0.3-1.1c0-0.2,0-0.4,0.1-0.6c0.1-0.2,0.1-0.3,0.3-0.5c0.1-0.1,0.2-0.2,0.4-0.3
      c0.2-0.1,0.3-0.1,0.5-0.1c0.3,0,0.5,0.1,0.7,0.2c0.2,0.1,0.3,0.3,0.4,0.5c0.1,0.2,0.2,0.5,0.2,0.8C25.2,54.1,25.2,54.3,25.1,54.6z
      "/>
    <path fill="#F5F5F5" d="M30.1,51.6v1.7h-1.9v-1.7h-1V56h1v-1.9h1.9V56h1v-4.5H30.1z"/>
    <path fill="#F5F5F5" d="M34.9,55.1c-0.2,0.1-0.4,0.2-0.7,0.2c-0.2,0-0.5-0.1-0.6-0.2c-0.2-0.1-0.3-0.3-0.4-0.5
      c-0.1-0.2-0.1-0.5-0.1-0.8c0-0.3,0-0.6,0.1-0.8c0.1-0.2,0.2-0.4,0.4-0.5c0.2-0.1,0.4-0.2,0.7-0.2c0.3,0,0.5,0.1,0.6,0.2
      c0.2,0.1,0.3,0.3,0.4,0.6h1c0-0.2-0.1-0.5-0.2-0.6c-0.1-0.2-0.3-0.4-0.4-0.5c-0.2-0.1-0.4-0.2-0.6-0.3c-0.2-0.1-0.5-0.1-0.8-0.1
      c-0.3,0-0.6,0.1-0.9,0.2c-0.3,0.1-0.5,0.3-0.7,0.5c-0.2,0.2-0.3,0.4-0.5,0.7c-0.1,0.3-0.2,0.6-0.2,1c0,0.4,0.1,0.7,0.2,1
      c0.1,0.3,0.3,0.5,0.5,0.7s0.4,0.3,0.7,0.5c0.3,0.1,0.6,0.2,0.9,0.2c0.2,0,0.5,0,0.7-0.1c0.2-0.1,0.4-0.1,0.6-0.3
      c0.2-0.1,0.3-0.2,0.5-0.4c0.1-0.1,0.2-0.3,0.2-0.4c0.1-0.1,0.1-0.3,0.1-0.5h-1C35.2,54.7,35.1,55,34.9,55.1z"/>
    <path fill="#F5F5F5" d="M36.9,51.6v0.8h1.5V56h1v-3.7h1.5v-0.8H36.9z"/>
    <path fill="#F5F5F5" d="M45.5,52.5c0-0.1-0.1-0.3-0.2-0.4c-0.1-0.1-0.2-0.2-0.3-0.3c-0.1-0.1-0.3-0.1-0.4-0.2c-0.2,0-0.4,0-0.6,0
      h-2V56h1v-1.6h1c0.3,0,0.5,0,0.7-0.1c0.2,0,0.3-0.1,0.5-0.2c0.2-0.1,0.3-0.3,0.4-0.5c0.1-0.2,0.1-0.4,0.1-0.7
      C45.5,52.8,45.5,52.6,45.5,52.5z M44.3,53.5c-0.1,0.1-0.4,0.1-0.7,0.1h-0.8v-1.3h0.8c0.3,0,0.5,0,0.7,0.2c0.1,0.1,0.2,0.3,0.2,0.5
      C44.5,53.2,44.4,53.4,44.3,53.5z"/>
    <path fill="#F5F5F5" d="M49,51.6l-0.9,2l-0.9-2h-1.2l1.5,3L46.8,56h1.1l2.3-4.5H49z"/>
    <path fill="#F5F5F5" d="M53.3,53.4l2-1.8h-1.3l-2,1.9v-1.9h-1V56h1v-1.5l0.5-0.4l1.6,2h1.3L53.3,53.4z"/>
    <path fill="#F5F5F5" d="M60.2,55.2v-3.7h-1v3.7h-1.9v-3.7h-1V56h4.6v-0.8H60.2z"/>
    <path fill="#F5F5F5" d="M61.7,50.3v0.9h1v-0.9H61.7z M61.7,51.6V56h1v-4.5H61.7z"/>
    <path fill="#F5F5F5" d="M63.5,50.3v0.9h1v-0.9H63.5z M64.3,51.6V56h1v-4.5H64.3z M65.1,50.3v0.9h1v-0.9H65.1z"/>
    <path fill="#F5F5F5" d="M72.5,54c-0.1-0.2-0.3-0.3-0.5-0.4c0.2-0.1,0.3-0.2,0.4-0.4c0.1-0.1,0.1-0.3,0.1-0.5c0-0.2,0-0.3-0.1-0.4
      c-0.1-0.1-0.2-0.3-0.3-0.4c-0.1-0.1-0.3-0.2-0.5-0.2c-0.2-0.1-0.4-0.1-0.7-0.1c-0.3,0-0.6,0-0.9,0.1c-0.2,0.1-0.4,0.2-0.6,0.3
      c-0.1,0.1-0.2,0.3-0.3,0.4c-0.1,0.1-0.1,0.3-0.1,0.4H70c0-0.2,0.1-0.3,0.2-0.4c0.1-0.1,0.3-0.1,0.5-0.1c0.3,0,0.4,0,0.5,0.1
      c0.1,0.1,0.1,0.2,0.1,0.4c0,0.1,0,0.2-0.1,0.2c-0.1,0.1-0.1,0.1-0.2,0.2c-0.1,0-0.2,0.1-0.2,0.1h-0.5v0.7h0.4c0.3,0,0.5,0,0.6,0.1
      c0.1,0.1,0.2,0.2,0.2,0.4c0,0.2-0.1,0.4-0.2,0.5c-0.2,0.1-0.4,0.1-0.6,0.1s-0.5,0-0.7-0.1c-0.2-0.1-0.3-0.2-0.3-0.5h-1.1
      c0,0.2,0.1,0.4,0.2,0.6c0.1,0.2,0.3,0.4,0.6,0.6c0.3,0.2,0.7,0.2,1.2,0.2c0.2,0,0.4,0,0.6-0.1c0.2-0.1,0.4-0.1,0.6-0.2
      c0.2-0.1,0.4-0.3,0.5-0.4c0.1-0.2,0.2-0.4,0.2-0.6C72.6,54.4,72.6,54.2,72.5,54z"/>
    <path fill="#F5F5F5" d="M78.7,51.6l-0.6,2.6c0,0.1-0.1,0.3-0.1,0.5c0,0.2-0.1,0.3-0.1,0.4c0-0.1-0.1-0.3-0.1-0.5
      c0-0.2-0.1-0.3-0.1-0.4l-0.6-2.6h-1.6V56h1v-3.7l0.9,3.7h1l0.9-3.7V56h0.9v-4.5H78.7z"/>
    <path fill="#F5F5F5" d="M82.4,55.2v-1.1h2.3v-0.8h-2.3v-1h2.5v-0.8h-3.5V56H85v-0.8H82.4z"/>
    <path fill="#F5F5F5" d="M85.8,51.6v0.8h1.5V56h1v-3.7h1.5v-0.8H85.8z"/>
    <path fill="#F5F5F5" d="M93.3,51.6h-1.2L90.4,56h1.1l0.3-0.9h1.8l0.3,0.9H95L93.3,51.6z M92.1,54.3l0.6-1.8l0.6,1.8H92.1z"/>
    <path fill="#F5F5F5" d="M97.4,51.6c-0.3,0-0.6,0-0.9,0.2c-0.3,0.1-0.4,0.2-0.6,0.4c-0.1,0.2-0.2,0.4-0.2,0.6V56h1v-3.2
      c0-0.3,0.2-0.5,0.7-0.5h1.2V56h1v-4.5H97.4z"/>
    <path fill="#F5F5F5" d="M105.3,52.8c-0.1-0.3-0.3-0.5-0.5-0.7c-0.2-0.2-0.4-0.4-0.7-0.5c-0.3-0.1-0.6-0.2-0.9-0.2
      c-0.5,0-0.9,0.1-1.2,0.3c-0.4,0.2-0.6,0.5-0.8,0.8c-0.2,0.4-0.3,0.8-0.3,1.2c0,0.3,0.1,0.6,0.2,0.9c0.1,0.3,0.3,0.5,0.5,0.7
      c0.2,0.2,0.5,0.4,0.8,0.5c0.3,0.1,0.6,0.2,1,0.2c0.3,0,0.7-0.1,0.9-0.2c0.3-0.1,0.5-0.3,0.7-0.5c0.2-0.2,0.4-0.5,0.5-0.8
      c0.1-0.3,0.2-0.6,0.2-1C105.5,53.4,105.4,53.1,105.3,52.8z M104.3,54.6c-0.1,0.2-0.3,0.4-0.5,0.5c-0.2,0.1-0.4,0.2-0.7,0.2
      c-0.5,0-0.8-0.2-1-0.5c-0.2-0.3-0.3-0.7-0.3-1.1c0-0.2,0-0.4,0.1-0.6c0.1-0.2,0.2-0.3,0.3-0.5c0.1-0.1,0.3-0.2,0.4-0.3
      c0.2-0.1,0.3-0.1,0.5-0.1c0.3,0,0.5,0.1,0.7,0.2c0.2,0.1,0.3,0.3,0.5,0.5c0.1,0.2,0.2,0.5,0.2,0.8
      C104.4,54.1,104.4,54.3,104.3,54.6z"/>
    <path fill="#F5F5F5" d="M106.4,51.6V56h1v-3.7h1.9V56h1v-4.5H106.4z"/>
    <path fill="#F5F5F5" d="M113.1,51.6c-0.3,0-0.6,0-0.9,0.2c-0.3,0.1-0.4,0.2-0.6,0.4s-0.2,0.4-0.2,0.6V56h1v-3.2
      c0-0.3,0.2-0.5,0.7-0.5h1.2V56h1v-4.5H113.1z"/>
    <path fill="#F5F5F5" d="M119.2,51.6H118l-1.7,4.5h1.1l0.3-0.9h1.8l0.3,0.9h1.1L119.2,51.6z M118,54.3l0.6-1.8l0.6,1.8H118z"/>
    <path fill="#F5F5F5" d="M124.4,55.1c-0.2,0.1-0.4,0.2-0.7,0.2c-0.2,0-0.5-0.1-0.6-0.2c-0.2-0.1-0.3-0.3-0.4-0.5
      c-0.1-0.2-0.1-0.5-0.1-0.8c0-0.3,0-0.6,0.2-0.8c0.1-0.2,0.2-0.4,0.4-0.5c0.2-0.1,0.4-0.2,0.7-0.2c0.3,0,0.5,0.1,0.6,0.2
      c0.2,0.1,0.3,0.3,0.4,0.6h1c0-0.2-0.1-0.5-0.2-0.6c-0.1-0.2-0.3-0.4-0.4-0.5c-0.2-0.1-0.4-0.2-0.6-0.3c-0.2-0.1-0.5-0.1-0.8-0.1
      c-0.3,0-0.6,0.1-0.9,0.2c-0.3,0.1-0.5,0.3-0.7,0.5c-0.2,0.2-0.3,0.4-0.5,0.7c-0.1,0.3-0.2,0.6-0.2,1c0,0.4,0.1,0.7,0.2,1
      c0.1,0.3,0.3,0.5,0.5,0.7c0.2,0.2,0.4,0.3,0.7,0.5c0.3,0.1,0.6,0.2,0.9,0.2c0.2,0,0.5,0,0.7-0.1c0.2-0.1,0.4-0.1,0.6-0.3
      c0.2-0.1,0.3-0.2,0.5-0.4c0.1-0.1,0.2-0.3,0.2-0.4c0.1-0.1,0.1-0.3,0.1-0.5h-1C124.8,54.7,124.6,55,124.4,55.1z"/>
    <path fill="#F5F5F5" d="M126.4,51.6v0.8h1.5V56h1v-3.7h1.5v-0.8H126.4z"/>
    <path fill="#F5F5F5" d="M134.4,51.6l-2,3.1v-3.1h-0.9V56h0.9l2-3.1V56h1v-4.5H134.4z"/>
    <path fill="#F5F5F5" d="M138.7,53.4l2-1.8h-1.3l-2,1.9v-1.9h-1V56h1v-1.5l0.5-0.4l1.6,2h1.3L138.7,53.4z"/>
    <path fill="#F5F5F5" d="M144.2,51.6l-0.9,2l-0.9-2h-1.2l1.5,3l-0.8,1.5h1.1l2.3-4.5H144.2z"/>
  </g>
</g>
</svg>
