<?xml version="1.0" encoding="utf-8"?>
<!-- Generator: Adobe Illustrator 18.0.0, SVG Export Plug-In . SVG Version: 6.00 Build 0)  -->
<!DOCTYPE svg PUBLIC "-//W3C//DTD SVG 1.1//EN" "http://www.w3.org/Graphics/SVG/1.1/DTD/svg11.dtd">
<svg version="1.1" id="Layer_1" xmlns="http://www.w3.org/2000/svg" xmlns:xlink="http://www.w3.org/1999/xlink" x="0px" y="0px"
	 viewBox="0 60 256 256" enable-background="new 0 60 256 256" xml:space="preserve">
<g>
	<g>
		<path fill="#546E7A" d="M58.1,159.7h10.6v40c0,4.7,0.9,6.2,5.3,6.2v9.6c-12.3,0-15.9-3.4-15.9-15.6V159.7z"/>
	</g>
	<g>
		<path fill="#546E7A" d="M100.8,167.8c-7.1-1.1-11,1.8-11,6.6v2.2h9.8v9.1h-9.8v29.8H79.1v-41.3c0-9.8,7.6-16.9,21.6-15.2V167.8z"
			/>
	</g>
	<g>
		<path fill="#546E7A" d="M103.2,187.5c-0.7-10.6,5.4-14.9,16.3-14.9c11.9,0,17.1,5.6,17.1,16.7v26.3H128l-1-4.9
			c-2.5,3.3-6.9,5.5-12,5.5c-7.5,0-13.1-4.1-13.1-12.1c0-10.1,9-14,24.6-13c0-6.4-1.3-9.6-6.9-9.6c-4.6,0-6.3,1.5-6.3,6.1H103.2z
			 M111.9,203.2c0,2.8,2.6,3.8,6.3,3.8c6.2,0,7.9-4.2,8.3-8.5C115.7,197.5,111.9,199.8,111.9,203.2z"/>
	</g>
	<g>
		<g>
			<path fill="#546E7A" d="M140.8,199v-39.2h10.6v16.4c2.3-2.7,6.3-3.8,10-3.8c9.9,0,14.7,5.9,14.7,15.1V199
				c0,11.9-6.2,16.8-17.7,16.8C146.8,215.8,140.8,210.8,140.8,199z M151.4,188.6v10.2c0,5.1,1.5,8.1,6.9,8.1c4.2,0,7.1-2,7.1-8.2
				v-10.1c0-5.2-2.5-7.1-6.9-7.2C154,181.5,151.4,183.8,151.4,188.6z"/>
		</g>
	</g>
	<g>
		<g>
			<path fill="#546E7A" d="M215.6,215.5h-9.4l-0.5-4.3c-2.9,3.2-6.9,4.6-10.7,4.6c-7.5,0.1-14.8-3.6-14.8-16.7v-26.4h10.5V199
				c0,5.5,2.5,7.7,6.9,7.7c4.1,0,7.3-1.9,7.3-7.4v-26.6h10.8V215.5z"/>
		</g>
	</g>
	<g>
		<g>
			<path fill="#546E7A" d="M247.2,215.5l-0.8-4.7c-1.8,3-5.6,4.9-10.7,4.9c-9,0-15-4.6-15-16.5v-11c0-10.1,5.2-15.9,15.3-15.9
				c3.7,0,7.6,0.9,9.3,3.8v-16.3H256v55.8H247.2z M231.3,188.7v10.1c0,6.2,2.7,8.2,6.9,8.2c5.3,0,7.2-3.6,7.2-8.5v-9.8
				c0-5.1-2.6-7.1-6.9-7.1C234,181.5,231.3,183.5,231.3,188.7z"/>
		</g>
	</g>
	<g>
		<polygon fill="#546E7A" points="35.7,142.6 35.7,152.7 37.6,152.7 41,142.6 		"/>
	</g>
	<g>
		<polygon fill="#546E7A" points="35.8,158.1 37.3,153.5 35.8,153.5 		"/>
	</g>
	<g>
		<polygon fill="#546E7A" points="19.2,206.9 22.6,196.8 11.8,196.8 11.8,206.9 		"/>
	</g>
	<g>
		<polygon fill="#546E7A" points="15.5,217.8 18.9,207.7 11.8,207.7 11.8,217.8 		"/>
	</g>
	<g>
		<polygon fill="#546E7A" points="11.8,218.6 11.8,228.7 15.2,218.6 		"/>
	</g>
	<g>
		<g>
			<rect x="11.8" y="142.6" fill="#546E7A" width="11.3" height="10.1"/>
		</g>
		<g>
			<rect x="24.1" y="142.6" fill="#546E7A" width="10.7" height="10.1"/>
		</g>
	</g>
	<g>
		<polygon fill="#546E7A" points="11.2,152.6 11.2,142.8 0,150.3 0,157.7 		"/>
	</g>
	<g>
		<polygon fill="#546E7A" points="11.2,163.8 11.2,153.5 0,158.6 0,167.4 		"/>
	</g>
	<g>
		<polygon fill="#546E7A" points="11.1,174.7 11.2,164.6 0,168.3 0,176.2 		"/>
	</g>
	<g>
		<polygon fill="#546E7A" points="11.1,185.2 11.1,175.5 0,177 0,185.2 		"/>
	</g>
	<g>
		<polygon fill="#546E7A" points="11.1,195.9 11.1,186 0,186 0,194.7 		"/>
	</g>
	<g>
		<polygon fill="#546E7A" points="11.1,207 11.1,196.7 0,195.5 0,204.6 		"/>
	</g>
	<g>
		<g>
			<g>
				<polygon fill="#546E7A" points="11.1,217.7 11.1,207.8 0,205.4 0,213.7 				"/>
			</g>
		</g>
		<g>
			<g>
				<polygon fill="#546E7A" points="0,214.6 0,222.3 11.1,228.7 11.1,218.6 				"/>
			</g>
		</g>
	</g>
	<g>
		<g>
			<polygon fill="#546E7A" points="24.1,192.4 26.3,186 24.1,186 			"/>
		</g>
		<g>
			<polygon fill="#546E7A" points="23.2,186 11.8,186 11.8,196 22.9,196 23.2,195.1 			"/>
		</g>
	</g>
	<g>
		<g>
			<rect x="11.8" y="175.4" fill="#546E7A" width="11.4" height="9.7"/>
		</g>
		<g>
			<polygon fill="#546E7A" points="24.1,175.4 24.1,185.1 26.6,185.1 29.9,175.4 			"/>
		</g>
	</g>
	<g>
		<g>
			<polygon fill="#546E7A" points="24.1,164.5 24.1,174.6 30.2,174.6 33.6,164.5 			"/>
		</g>
		<g>
			<rect x="11.8" y="164.5" fill="#546E7A" width="11.4" height="10.1"/>
		</g>
	</g>
	<g>
		<g>
			<rect x="11.8" y="153.5" fill="#546E7A" width="11.3" height="10.2"/>
		</g>
		<g>
			<polygon fill="#546E7A" points="24.1,153.5 24.1,163.7 33.9,163.7 34.8,160.8 34.8,153.5 			"/>
		</g>
	</g>
	<g>
		<polygon fill="#546E7A" points="37.3,153.6 27.8,180.9 33.6,197.5 24.1,197.5 20.2,208.7 37.5,208.7 39.7,215 58.6,215 		"/>
	</g>
	<g>
		<path fill="#546E7A" d="M15.7,221h5.5v1.4h-3.8v1.6h1.7c0.8,0,1.4,0.1,1.9,0.3c0.5,0.2,0.9,0.5,1.1,0.8c0.2,0.3,0.3,0.7,0.3,1.1
			c0,0.4-0.1,0.7-0.2,1c-0.2,0.3-0.4,0.6-0.7,0.8c-0.3,0.2-0.6,0.3-0.9,0.4c-0.3,0.1-0.8,0.1-1.4,0.1h-3.6V221z M17.4,225.2v1.9H19
			c0.4,0,0.8,0,1-0.1c0.2-0.1,0.4-0.2,0.5-0.3c0.1-0.1,0.1-0.3,0.1-0.6c0-0.3,0-0.4-0.1-0.6c-0.1-0.1-0.3-0.2-0.5-0.3
			c-0.2-0.1-0.6-0.1-1-0.1H17.4z"/>
		<path fill="#546E7A" d="M30.3,221l-3.8,7.5h-1.9l1.3-2.5l-2.4-5h1.9l1.4,3.3l1.5-3.3H30.3z"/>
		<path fill="#546E7A" d="M32,227.2V223c0-0.7,0.3-1.2,0.8-1.5c0.2-0.2,0.5-0.3,0.8-0.3c0.3-0.1,0.7-0.1,1.3-0.1h3.4v6.2h0.8v1.4
			h-7.9v-1.4H32z M33.7,227.2h2.9v-4.8H35c-0.3,0-0.6,0-0.8,0.1c-0.2,0.1-0.3,0.1-0.4,0.3c-0.1,0.1-0.1,0.3-0.1,0.5V227.2z"/>
		<path fill="#546E7A" d="M40.4,218.9h1.7v1.5h-1.7V218.9z M40.4,221h1.7v7.5h-1.7V221z"/>
		<path fill="#546E7A" d="M44.2,221h3.6c0.6,0,1,0,1.3,0.1c0.3,0.1,0.5,0.2,0.8,0.3c0.5,0.4,0.8,0.9,0.8,1.5c0,0.4-0.1,0.7-0.2,0.9
			c-0.1,0.2-0.4,0.5-0.7,0.7c0.3,0.1,0.5,0.2,0.7,0.4c0.2,0.2,0.3,0.3,0.4,0.6c0.1,0.2,0.1,0.5,0.1,0.8c0,0.4-0.1,0.7-0.2,1
			c-0.2,0.3-0.4,0.6-0.7,0.8c-0.3,0.2-0.6,0.3-0.9,0.4c-0.3,0.1-0.8,0.1-1.4,0.1h-3.6V221z M45.9,222.4v1.6h1.7
			c0.5,0,0.9-0.1,1.1-0.2c0.2-0.1,0.3-0.3,0.3-0.6c0-0.3-0.1-0.5-0.3-0.6c-0.2-0.1-0.5-0.2-1-0.2H45.9z M45.9,225.2v1.9h1.7
			c0.4,0,0.8,0,1-0.1c0.2-0.1,0.4-0.2,0.5-0.3c0.1-0.1,0.1-0.3,0.1-0.6c0-0.3,0-0.4-0.1-0.6c-0.1-0.1-0.3-0.2-0.5-0.3
			c-0.2-0.1-0.6-0.1-1-0.1H45.9z"/>
		<path fill="#546E7A" d="M52.5,221h1.7v2.9h3.3V221h1.7v7.5h-1.7v-3.2h-3.3v3.2h-1.7V221z"/>
		<path fill="#546E7A" d="M67.6,228.5H66v-5.2l-3.4,5.2H61V221h1.6v5.2L66,221h1.7V228.5z"/>
		<path fill="#546E7A" d="M77.1,228.5h-7.7V221h1.7v6.2h3.3V221h1.7v6.2h1V228.5z"/>
		<path fill="#546E7A" d="M78.1,221h6.6v1.4h-2.4v6.2h-1.7v-6.2h-2.5V221z"/>
		<path fill="#546E7A" d="M86.3,221h3.6c0.6,0,1,0,1.3,0.1c0.3,0.1,0.5,0.2,0.8,0.3c0.5,0.4,0.8,0.9,0.8,1.5c0,0.4-0.1,0.7-0.2,0.9
			c-0.1,0.2-0.4,0.5-0.7,0.7c0.3,0.1,0.5,0.2,0.7,0.4c0.2,0.2,0.3,0.3,0.4,0.6c0.1,0.2,0.1,0.5,0.1,0.8c0,0.4-0.1,0.7-0.2,1
			c-0.2,0.3-0.4,0.6-0.7,0.8c-0.3,0.2-0.6,0.3-0.9,0.4c-0.3,0.1-0.8,0.1-1.4,0.1h-3.6V221z M88,222.4v1.6h1.7c0.5,0,0.9-0.1,1.1-0.2
			c0.2-0.1,0.3-0.3,0.3-0.6c0-0.3-0.1-0.5-0.3-0.6c-0.2-0.1-0.5-0.2-1-0.2H88z M88,225.2v1.9h1.7c0.4,0,0.8,0,1-0.1
			c0.2-0.1,0.4-0.2,0.5-0.3c0.1-0.1,0.1-0.3,0.1-0.6c0-0.3,0-0.4-0.1-0.6c-0.1-0.1-0.3-0.2-0.5-0.3c-0.2-0.1-0.6-0.1-1-0.1H88z"/>
		<path fill="#546E7A" d="M94.3,224.8c0-0.8,0.2-1.5,0.5-2.1c0.3-0.6,0.8-1.1,1.4-1.4c0.6-0.3,1.3-0.5,2.1-0.5
			c0.6,0,1.1,0.1,1.6,0.3c0.5,0.2,0.9,0.4,1.2,0.8c0.3,0.3,0.6,0.7,0.8,1.2c0.2,0.5,0.3,1,0.3,1.6c0,0.6-0.1,1.1-0.3,1.6
			c-0.2,0.5-0.5,0.9-0.8,1.3c-0.3,0.4-0.8,0.6-1.2,0.8c-0.5,0.2-1,0.3-1.6,0.3c-0.6,0-1.1-0.1-1.6-0.3c-0.5-0.2-0.9-0.5-1.3-0.8
			c-0.4-0.3-0.6-0.8-0.8-1.2C94.4,225.9,94.3,225.4,94.3,224.8z M96,224.7c0,0.7,0.2,1.3,0.5,1.9c0.3,0.5,0.9,0.8,1.7,0.8
			c0.4,0,0.8-0.1,1.2-0.3c0.3-0.2,0.6-0.5,0.8-0.9c0.2-0.4,0.3-0.8,0.3-1.4c0-0.5-0.1-1-0.3-1.3c-0.2-0.4-0.4-0.7-0.8-0.9
			c-0.3-0.2-0.7-0.3-1.2-0.3c-0.3,0-0.6,0.1-0.9,0.2c-0.3,0.1-0.5,0.3-0.7,0.5c-0.2,0.2-0.3,0.5-0.5,0.8
			C96.1,223.9,96.1,224.3,96,224.7z"/>
		<path fill="#546E7A" d="M106.5,228.5l2.9-7.5h1.9l2.9,7.5h-1.8l-0.6-1.6h-3l-0.6,1.6H106.5z M109.3,225.7h2.1l-1-3L109.3,225.7z"
			/>
		<path fill="#546E7A" d="M115.6,223c0-0.4,0.1-0.7,0.4-1c0.2-0.3,0.6-0.5,1-0.7c0.4-0.2,0.9-0.3,1.4-0.3h3.9v7.5h-1.7v-6.2h-2
			c-0.8,0-1.2,0.3-1.2,0.9v5.3h-1.7V223z"/>
		<path fill="#546E7A" d="M127.2,225.3H126v3.2h-1.7V221h1.7v2.9h1.2c0.1-0.5,0.3-0.9,0.5-1.3c0.2-0.4,0.5-0.7,0.8-1
			c0.3-0.3,0.7-0.5,1.2-0.6c0.4-0.1,0.9-0.2,1.4-0.2c0.6,0,1.1,0.1,1.6,0.3c0.5,0.2,0.9,0.4,1.2,0.8c0.3,0.3,0.6,0.7,0.8,1.2
			c0.2,0.5,0.3,1,0.3,1.5c0,0.6-0.1,1.1-0.3,1.6c-0.2,0.5-0.5,0.9-0.8,1.3c-0.3,0.4-0.8,0.6-1.2,0.8c-0.5,0.2-1,0.3-1.6,0.3
			c-0.5,0-1-0.1-1.5-0.2c-0.5-0.2-0.9-0.4-1.2-0.7c-0.3-0.3-0.6-0.7-0.8-1.1C127.3,226.2,127.2,225.8,127.2,225.3z M128.9,224.7
			c0,0.7,0.2,1.3,0.5,1.9c0.3,0.5,0.9,0.8,1.6,0.8c0.4,0,0.8-0.1,1.2-0.3c0.3-0.2,0.6-0.5,0.8-0.9c0.2-0.4,0.3-0.8,0.3-1.4
			c0-0.5-0.1-1-0.3-1.3c-0.2-0.4-0.4-0.7-0.8-0.9c-0.3-0.2-0.7-0.3-1.2-0.3c-0.4,0-0.8,0.1-1.1,0.3c-0.3,0.2-0.6,0.5-0.8,0.8
			C129,223.7,128.9,224.2,128.9,224.7z"/>
		<path fill="#546E7A" d="M136.7,221h2.6l1,4.3c0,0.2,0.1,0.4,0.1,0.7c0.1,0.3,0.1,0.5,0.2,0.8c0-0.2,0.1-0.4,0.1-0.6
			c0.1-0.3,0.1-0.5,0.2-0.8l1.1-4.3h2.6v7.5H143v-6.2l-1.5,6.2h-1.7l-1.5-6.2v6.2h-1.6V221z"/>
		<path fill="#546E7A" d="M146.6,218.9h1.7v1.5h-1.7V218.9z M146.6,221h1.7v7.5h-1.7V221z"/>
		<path fill="#546E7A" d="M150.3,221h1.7v2.9h3.3V221h1.7v7.5h-1.7v-3.2H152v3.2h-1.7V221z"/>
		<path fill="#546E7A" d="M158.7,218.9h1.7v1.5h-1.7V218.9z M158.7,221h1.7v7.5h-1.7V221z"/>
		<path fill="#546E7A" d="M167.1,225.3h-2.6c0.1,0.6,0.3,1.1,0.6,1.5c0.4,0.4,0.8,0.5,1.4,0.5c0.5,0,0.8-0.1,1.1-0.3
			c0.3-0.2,0.5-0.6,0.7-1.1h1.7c0,0.3-0.1,0.6-0.2,0.8c-0.1,0.2-0.2,0.4-0.4,0.7c-0.2,0.3-0.5,0.5-0.8,0.7c-0.3,0.2-0.6,0.3-1,0.4
			c-0.3,0.1-0.7,0.1-1.1,0.1c-0.6,0-1.1-0.1-1.6-0.3c-0.5-0.2-0.9-0.4-1.2-0.8c-0.3-0.3-0.6-0.7-0.8-1.2c-0.2-0.5-0.3-1-0.3-1.6
			c0-0.8,0.1-1.5,0.4-2.1c0.3-0.6,0.7-1.1,1.3-1.4c0.6-0.3,1.2-0.5,2-0.5c0.5,0,0.9,0.1,1.3,0.2c0.4,0.1,0.8,0.3,1.1,0.5
			c0.3,0.2,0.6,0.5,0.8,0.8c0.2,0.3,0.3,0.7,0.3,1.1h-1.7c-0.1-0.4-0.3-0.8-0.7-1c-0.3-0.2-0.7-0.3-1.2-0.3c-0.5,0-0.9,0.1-1.2,0.4
			c-0.3,0.3-0.5,0.7-0.6,1.3h2.5V225.3z"/>
		<path fill="#546E7A" d="M171.5,221h3.6c0.6,0,1,0,1.3,0.1c0.3,0.1,0.5,0.2,0.8,0.3c0.5,0.4,0.8,0.9,0.8,1.5c0,0.4-0.1,0.7-0.2,0.9
			c-0.1,0.2-0.4,0.5-0.7,0.7c0.3,0.1,0.5,0.2,0.7,0.4c0.2,0.2,0.3,0.3,0.4,0.6c0.1,0.2,0.1,0.5,0.1,0.8c0,0.4-0.1,0.7-0.2,1
			c-0.2,0.3-0.4,0.6-0.7,0.8c-0.3,0.2-0.6,0.3-0.9,0.4c-0.3,0.1-0.8,0.1-1.4,0.1h-3.6V221z M173.2,222.4v1.6h1.7
			c0.5,0,0.9-0.1,1.1-0.2c0.2-0.1,0.3-0.3,0.3-0.6c0-0.3-0.1-0.5-0.3-0.6c-0.2-0.1-0.5-0.2-1-0.2H173.2z M173.2,225.2v1.9h1.7
			c0.4,0,0.8,0,1-0.1c0.2-0.1,0.4-0.2,0.5-0.3c0.1-0.1,0.1-0.3,0.1-0.6c0-0.3,0-0.4-0.1-0.6c-0.1-0.1-0.3-0.2-0.5-0.3
			c-0.2-0.1-0.6-0.1-1-0.1H173.2z"/>
		<path fill="#546E7A" d="M186.5,228.5h-1.6v-5.2l-3.4,5.2h-1.6V221h1.6v5.2l3.4-5.2h1.7V228.5z"/>
		<path fill="#546E7A" d="M187.7,228.5l2.6-3.8l-2.5-3.7h1.9l1.6,2.5l1.6-2.5h1.9l-2.5,3.6l2.7,3.9h-2l-1.6-2.7l-1.7,2.7H187.7z"/>
		<path fill="#546E7A" d="M203.7,220.2h1.7v0.6c0.6,0,1.2,0.1,1.7,0.3c0.5,0.2,1,0.5,1.4,0.8c0.4,0.4,0.7,0.8,0.9,1.3
			c0.2,0.5,0.3,1,0.3,1.6c0,0.6-0.1,1.1-0.3,1.6c-0.2,0.5-0.5,0.9-0.9,1.2c-0.4,0.4-0.8,0.6-1.4,0.8c-0.5,0.2-1.1,0.3-1.7,0.3v0.7
			h-1.7v-0.7c-0.8,0-1.5-0.2-2.2-0.5c-0.7-0.3-1.2-0.8-1.6-1.4c-0.4-0.6-0.6-1.3-0.6-2c0-0.8,0.2-1.5,0.6-2.1
			c0.4-0.6,0.9-1.1,1.5-1.4c0.7-0.3,1.4-0.5,2.2-0.5V220.2z M203.7,222.2c-0.3,0-0.7,0.1-0.9,0.2c-0.3,0.1-0.6,0.3-0.8,0.5
			c-0.2,0.2-0.4,0.5-0.6,0.8c-0.1,0.3-0.2,0.6-0.2,1c0,0.4,0.1,0.9,0.3,1.3c0.2,0.4,0.5,0.7,0.9,1c0.4,0.3,0.8,0.4,1.4,0.4V222.2z
			 M205.4,222.2v5.1c0.4,0,0.8-0.1,1.1-0.2c0.3-0.1,0.6-0.4,0.8-0.6c0.2-0.3,0.4-0.5,0.5-0.8c0.1-0.3,0.2-0.6,0.2-1
			c0-0.4-0.1-0.7-0.2-1c-0.1-0.3-0.3-0.6-0.5-0.8c-0.2-0.2-0.5-0.4-0.8-0.5C206.1,222.3,205.7,222.2,205.4,222.2z"/>
		<path fill="#546E7A" d="M210.6,228.5l2.9-7.5h1.9l2.9,7.5h-1.8l-0.6-1.6h-3l-0.6,1.6H210.6z M213.4,225.7h2.1l-1-3L213.4,225.7z"
			/>
		<path fill="#546E7A" d="M226.6,223.5H225c-0.1-0.4-0.3-0.8-0.6-1c-0.3-0.2-0.6-0.3-1.1-0.3c-0.4,0-0.8,0.1-1.2,0.3
			c-0.3,0.2-0.6,0.5-0.7,0.9c-0.2,0.4-0.3,0.9-0.3,1.4c0,0.5,0.1,1,0.2,1.3c0.2,0.4,0.4,0.7,0.7,0.9c0.3,0.2,0.7,0.3,1.1,0.3
			c0.5,0,0.8-0.1,1.1-0.3c0.3-0.2,0.5-0.6,0.7-1.1h1.7c-0.1,0.4-0.1,0.6-0.2,0.8c-0.1,0.2-0.2,0.4-0.4,0.7c-0.2,0.3-0.5,0.5-0.8,0.7
			c-0.3,0.2-0.6,0.3-1,0.4c-0.3,0.1-0.7,0.1-1.1,0.1c-0.6,0-1.1-0.1-1.5-0.3c-0.5-0.2-0.9-0.4-1.2-0.8c-0.3-0.3-0.6-0.7-0.8-1.2
			c-0.2-0.5-0.3-1-0.3-1.6c0-0.6,0.1-1.1,0.3-1.6c0.2-0.5,0.4-0.9,0.8-1.3c0.3-0.3,0.7-0.6,1.2-0.8c0.5-0.2,1-0.3,1.6-0.3
			c0.5,0,0.9,0.1,1.3,0.2c0.4,0.1,0.8,0.3,1.1,0.5c0.3,0.2,0.5,0.5,0.7,0.8C226.5,222.7,226.6,223.1,226.6,223.5z"/>
		<path fill="#546E7A" d="M227.7,228.5l2.9-7.5h1.9l2.9,7.5h-1.8l-0.6-1.6h-3l-0.6,1.6H227.7z M230.5,225.7h2.1l-1-3L230.5,225.7z"
			/>
		<path fill="#546E7A" d="M237,227.2V223c0-0.7,0.3-1.2,0.8-1.5c0.2-0.2,0.5-0.3,0.8-0.3c0.3-0.1,0.7-0.1,1.3-0.1h3.4v6.2h0.8v1.4
			h-7.9v-1.4H237z M238.7,227.2h2.9v-4.8h-1.6c-0.3,0-0.6,0-0.8,0.1c-0.2,0.1-0.3,0.1-0.4,0.3c-0.1,0.1-0.1,0.3-0.1,0.5V227.2z"/>
		<path fill="#546E7A" d="M245.5,218.9h1.7v1.5h-1.7V218.9z M245.5,221h1.7v7.5h-1.7V221z"/>
		<path fill="#546E7A" d="M249.3,221h3.6c0.6,0,1,0,1.3,0.1c0.3,0.1,0.5,0.2,0.8,0.3c0.5,0.4,0.8,0.9,0.8,1.5c0,0.4-0.1,0.7-0.2,0.9
			c-0.1,0.2-0.4,0.5-0.7,0.7c0.3,0.1,0.5,0.2,0.7,0.4c0.2,0.2,0.3,0.3,0.4,0.6c0.1,0.2,0.1,0.5,0.1,0.8c0,0.4-0.1,0.7-0.2,1
			c-0.2,0.3-0.4,0.6-0.7,0.8c-0.3,0.2-0.6,0.3-0.9,0.4c-0.3,0.1-0.8,0.1-1.4,0.1h-3.6V221z M250.9,222.4v1.6h1.7
			c0.5,0,0.9-0.1,1.1-0.2c0.2-0.1,0.3-0.3,0.3-0.6c0-0.3-0.1-0.5-0.3-0.6c-0.2-0.1-0.5-0.2-1-0.2H250.9z M250.9,225.2v1.9h1.7
			c0.4,0,0.8,0,1-0.1c0.2-0.1,0.4-0.2,0.5-0.3c0.1-0.1,0.1-0.3,0.1-0.6c0-0.3,0-0.4-0.1-0.6c-0.1-0.1-0.3-0.2-0.5-0.3
			c-0.2-0.1-0.6-0.1-1-0.1H250.9z"/>
	</g>
</g>
</svg>
