<?xml version="1.0" encoding="utf-8"?>
<!-- Generator: Adobe Illustrator 18.1.1, SVG Export Plug-In . SVG Version: 6.00 Build 0)  -->
<svg version="1.1" id="Layer_1" xmlns="http://www.w3.org/2000/svg" xmlns:xlink="http://www.w3.org/1999/xlink" x="0px" y="0px"
	 width="250px" height="150px" viewBox="0 0 250 150" enable-background="new 0 0 250 150" xml:space="preserve">
<g>
	<g>
		<path fill="#fff" d="M64.4,47.8h9.2v34.7c0,4.1,0.8,5.4,4.6,5.4v8.3c-10.7,0-13.8-2.9-13.8-13.5V47.8z"/>
	</g>
	<g>
		<path fill="#fff" d="M101.4,54.8c-6.2-1-9.5,1.6-9.5,5.7v1.9h8.5v7.9h-8.5v25.8h-9.3V60.4c0-8.5,6.6-14.7,18.7-13.2L101.4,54.8
			L101.4,54.8z"/>
	</g>
	<g>
		<path fill="#fff" d="M103.5,71.9c-0.6-9.2,4.7-12.9,14.1-12.9c10.3,0,14.8,4.9,14.8,14.5v22.8H125l-0.9-4.2
			c-2.2,2.9-6,4.8-10.4,4.8c-6.5,0-11.4-3.6-11.4-10.5c0-8.8,7.8-12.1,21.3-11.3c0-5.5-1.1-8.3-6-8.3c-4,0-5.5,1.3-5.5,5.3
			L103.5,71.9L103.5,71.9z M111,85.5c0,2.4,2.3,3.3,5.5,3.3c5.4,0,6.8-3.6,7.2-7.4C114.3,80.6,111,82.6,111,85.5z"/>
	</g>
	<g>
		<g>
			<path fill="#fff" d="M136.1,81.9v-34h9.2v14.2c2-2.3,5.5-3.3,8.7-3.3c8.6,0,12.7,5.1,12.7,13.1v10c0,10.3-5.4,14.6-15.3,14.6
				C141.3,96.5,136.1,92.1,136.1,81.9z M145.2,72.9v8.8c0,4.4,1.3,7,6,7c3.6,0,6.2-1.7,6.2-7.1v-8.8c0-4.5-2.2-6.2-6-6.2
				C147.5,66.7,145.2,68.7,145.2,72.9z"/>
		</g>
	</g>
	<g>
		<g>
			<path fill="#fff" d="M200.9,96.2h-8.1l-0.4-3.7c-2.5,2.8-6,4-9.3,4c-6.5,0.1-12.8-3.1-12.8-14.5V59.1h9.1v22.8
				c0,4.8,2.2,6.7,6,6.7c3.6,0,6.3-1.6,6.3-6.4V59.1h9.4L200.9,96.2L200.9,96.2z"/>
		</g>
	</g>
	<g>
		<g>
			<path fill="#fff" d="M228.3,96.2l-0.7-4.1c-1.6,2.6-4.9,4.2-9.3,4.2c-7.8,0-13-4-13-14.3v-9.5c0-8.8,4.5-13.8,13.3-13.8
				c3.2,0,6.6,0.8,8.1,3.3V47.9h9.3v48.4L228.3,96.2L228.3,96.2z M214.5,73v8.8c0,5.4,2.3,7.1,6,7.1c4.6,0,6.2-3.1,6.2-7.4V73
				c0-4.4-2.3-6.2-6-6.2C216.9,66.7,214.5,68.5,214.5,73z"/>
		</g>
	</g>
	<g>
		<polygon fill="#fff" points="44.9,33 44.9,41.8 46.6,41.8 49.5,33 		"/>
	</g>
	<g>
		<polygon fill="#fff" points="45,46.4 46.3,42.5 45,42.5 		"/>
	</g>
	<g>
		<polygon fill="#fff" points="30.6,88.7 33.6,80 24.2,80 24.2,88.7 		"/>
	</g>
	<g>
		<polygon fill="#fff" points="27.4,98.2 30.4,89.4 24.2,89.4 24.2,98.2 		"/>
	</g>
	<g>
		<polygon fill="#fff" points="24.2,98.9 24.2,107.6 27.2,98.9 		"/>
	</g>
	<g>
		<g>
			<rect x="24.2" y="33" fill="#fff" width="9.8" height="8.8"/>
		</g>
		<g>
			<rect x="34.9" y="33" fill="#fff" width="9.3" height="8.8"/>
		</g>
	</g>
	<g>
		<polygon fill="#fff" points="23.7,41.7 23.7,33.2 14,39.7 14,46.1 		"/>
	</g>
	<g>
		<polygon fill="#fff" points="23.7,51.4 23.7,42.5 14,46.9 14,54.5 		"/>
	</g>
	<g>
		<polygon fill="#fff" points="23.6,60.8 23.7,52.1 14,55.3 14,62.1 		"/>
	</g>
	<g>
		<polygon fill="#fff" points="23.6,69.9 23.6,61.5 14,62.8 14,69.9 		"/>
	</g>
	<g>
		<polygon fill="#fff" points="23.6,79.2 23.6,70.6 14,70.6 14,78.2 		"/>
	</g>
	<g>
		<polygon fill="#fff" points="23.6,88.8 23.6,79.9 14,78.9 14,86.8 		"/>
	</g>
	<g>
		<g>
			<g>
				<polygon fill="#fff" points="23.6,98.1 23.6,89.5 14,87.4 14,94.6 				"/>
			</g>
		</g>
		<g>
			<g>
				<polygon fill="#fff" points="14,95.4 14,102.1 23.6,107.6 23.6,98.9 				"/>
			</g>
		</g>
	</g>
	<g>
		<g>
			<polygon fill="#fff" points="34.9,76.2 36.8,70.6 34.9,70.6 			"/>
		</g>
		<g>
			<polygon fill="#fff" points="34.1,70.6 24.2,70.6 24.2,79.3 33.8,79.3 34.1,78.5 			"/>
		</g>
	</g>
	<g>
		<g>
			<rect x="24.2" y="61.4" fill="#fff" width="9.9" height="8.4"/>
		</g>
		<g>
			<polygon fill="#fff" points="34.9,61.4 34.9,69.8 37,69.8 39.9,61.4 			"/>
		</g>
	</g>
	<g>
		<g>
			<polygon fill="#fff" points="34.9,52 34.9,60.7 40.2,60.7 43.1,52 			"/>
		</g>
		<g>
			<rect x="24.2" y="52" fill="#fff" width="9.9" height="8.8"/>
		</g>
	</g>
	<g>
		<g>
			<rect x="24.2" y="42.5" fill="#fff" width="9.8" height="8.8"/>
		</g>
		<g>
			<polygon fill="#fff" points="34.9,42.5 34.9,51.3 43.4,51.3 44.2,48.8 44.2,42.5 			"/>
		</g>
	</g>
	<g>
		<polygon fill="#fff" points="46.3,42.5 38.1,66.2 43.1,80.6 34.9,80.6 31.5,90.3 46.5,90.3 48.4,95.8 64.8,95.8 		"/>
	</g>
	<g>
		<path fill="#fff" d="M27.6,101h4.8v1.2h-3.3v1.4h1.5c0.7,0,1.2,0.1,1.6,0.3c0.4,0.2,0.8,0.4,1,0.7s0.3,0.6,0.3,1
			c0,0.3-0.1,0.6-0.2,0.9c-0.2,0.3-0.3,0.5-0.6,0.7c-0.3,0.2-0.5,0.3-0.8,0.3c-0.3,0.1-0.7,0.1-1.2,0.1h-3.1L27.6,101L27.6,101z
			 M29.1,104.6v1.6h1.4c0.3,0,0.7,0,0.9-0.1c0.2-0.1,0.3-0.2,0.4-0.3c0.1-0.1,0.1-0.3,0.1-0.5s0-0.3-0.1-0.5
			c-0.1-0.1-0.3-0.2-0.4-0.3c-0.2-0.1-0.5-0.1-0.9-0.1L29.1,104.6L29.1,104.6z"/>
		<path fill="#fff" d="M40.3,101l-3.3,6.5h-1.6l1.1-2.2l-2.1-4.3H36l1.2,2.9l1.3-2.9H40.3z"/>
		<path fill="#fff" d="M41.7,106.3v-3.6c0-0.6,0.3-1,0.7-1.3c0.2-0.2,0.4-0.3,0.7-0.3c0.3-0.1,0.6-0.1,1.1-0.1h2.9v5.4h0.7v1.2
			H41v-1.2L41.7,106.3L41.7,106.3z M43.2,106.3h2.5v-4.2h-1.4c-0.3,0-0.5,0-0.7,0.1c-0.2,0.1-0.3,0.1-0.3,0.3
			c-0.1,0.1-0.1,0.3-0.1,0.4V106.3z"/>
		<path fill="#fff" d="M49,99.2h1.5v1.3H49V99.2z M49,101h1.5v6.5H49V101z"/>
		<path fill="#fff" d="M52.3,101h3.1c0.5,0,0.9,0,1.1,0.1c0.3,0.1,0.4,0.2,0.7,0.3c0.4,0.3,0.7,0.8,0.7,1.3
			c0,0.3-0.1,0.6-0.2,0.8c-0.1,0.2-0.3,0.4-0.6,0.6c0.3,0.1,0.4,0.2,0.6,0.3c0.2,0.2,0.3,0.3,0.3,0.5c0.1,0.2,0.1,0.4,0.1,0.7
			c0,0.3-0.1,0.6-0.2,0.9c-0.2,0.3-0.3,0.5-0.6,0.7c-0.3,0.2-0.5,0.3-0.8,0.3c-0.3,0.1-0.7,0.1-1.2,0.1h-3.1
			C52.3,107.6,52.3,101,52.3,101z M53.8,102.2v1.4h1.5c0.4,0,0.8-0.1,1-0.2c0.2-0.1,0.3-0.3,0.3-0.5s-0.1-0.4-0.3-0.5
			c-0.2-0.1-0.4-0.2-0.9-0.2H53.8z M53.8,104.6v1.6h1.5c0.3,0,0.7,0,0.9-0.1c0.2-0.1,0.3-0.2,0.4-0.3c0.1-0.1,0.1-0.3,0.1-0.5
			s0-0.3-0.1-0.5c-0.1-0.1-0.3-0.2-0.4-0.3c-0.2-0.1-0.5-0.1-0.9-0.1L53.8,104.6L53.8,104.6z"/>
		<path fill="#fff" d="M59.5,101H61v2.5h2.9V101h1.5v6.5h-1.5v-2.8H61v2.8h-1.5V101z"/>
		<path fill="#fff" d="M72.6,107.5h-1.4V103l-2.9,4.5h-1.4V101h1.4v4.5l2.9-4.5h1.5L72.6,107.5L72.6,107.5z"/>
		<path fill="#fff" d="M80.8,107.5h-6.7V101h1.5v5.4h2.9V101H80v5.4h0.9V107.5z"/>
		<path fill="#fff" d="M81.7,101h5.7v1.2h-2.1v5.4h-1.5v-5.4h-2.2V101z"/>
		<path fill="#fff" d="M88.8,101h3.1c0.5,0,0.9,0,1.1,0.1c0.3,0.1,0.4,0.2,0.7,0.3c0.4,0.3,0.7,0.8,0.7,1.3
			c0,0.3-0.1,0.6-0.2,0.8c-0.1,0.2-0.3,0.4-0.6,0.6c0.3,0.1,0.4,0.2,0.6,0.3c0.2,0.2,0.3,0.3,0.3,0.5c0.1,0.2,0.1,0.4,0.1,0.7
			c0,0.3-0.1,0.6-0.2,0.9c-0.2,0.3-0.3,0.5-0.6,0.7c-0.3,0.2-0.5,0.3-0.8,0.3c-0.3,0.1-0.7,0.1-1.2,0.1h-3.1L88.8,101L88.8,101z
			 M90.3,102.2v1.4h1.5c0.4,0,0.8-0.1,1-0.2c0.2-0.1,0.3-0.3,0.3-0.5s-0.1-0.4-0.3-0.5c-0.2-0.1-0.4-0.2-0.9-0.2H90.3z M90.3,104.6
			v1.6h1.5c0.3,0,0.7,0,0.9-0.1c0.2-0.1,0.3-0.2,0.4-0.3c0.1-0.1,0.1-0.3,0.1-0.5s0-0.3-0.1-0.5c-0.1-0.1-0.3-0.2-0.4-0.3
			c-0.2-0.1-0.5-0.1-0.9-0.1L90.3,104.6L90.3,104.6z"/>
		<path fill="#fff" d="M95.7,104.3c0-0.7,0.2-1.3,0.4-1.8c0.3-0.5,0.7-1,1.2-1.2c0.5-0.3,1.1-0.4,1.8-0.4c0.5,0,1,0.1,1.4,0.3
			s0.8,0.3,1,0.7c0.3,0.3,0.5,0.6,0.7,1s0.3,0.9,0.3,1.4s-0.1,1-0.3,1.4c-0.2,0.4-0.4,0.8-0.7,1.1c-0.3,0.3-0.7,0.5-1,0.7
			c-0.4,0.2-0.9,0.3-1.4,0.3c-0.5,0-1-0.1-1.4-0.3c-0.4-0.2-0.8-0.4-1.1-0.7c-0.3-0.3-0.5-0.7-0.7-1
			C95.8,105.2,95.7,104.8,95.7,104.3z M97.2,104.2c0,0.6,0.2,1.1,0.4,1.6c0.3,0.4,0.8,0.7,1.5,0.7c0.3,0,0.7-0.1,1-0.3
			c0.3-0.2,0.5-0.4,0.7-0.8c0.2-0.3,0.3-0.7,0.3-1.2c0-0.4-0.1-0.9-0.3-1.1c-0.2-0.3-0.3-0.6-0.7-0.8c-0.3-0.2-0.6-0.3-1-0.3
			c-0.3,0-0.5,0.1-0.8,0.2c-0.3,0.1-0.4,0.3-0.6,0.4c-0.2,0.2-0.3,0.4-0.4,0.7C97.3,103.5,97.3,103.8,97.2,104.2z"/>
		<path fill="#fff" d="M106.3,107.5l2.5-6.5h1.6l2.5,6.5h-1.6l-0.5-1.4h-2.6l-0.5,1.4H106.3z M108.7,105h1.8l-0.9-2.6L108.7,105z
			"/>
		<path fill="#fff" d="M114.2,102.7c0-0.3,0.1-0.6,0.3-0.9c0.2-0.3,0.5-0.4,0.9-0.6c0.3-0.2,0.8-0.3,1.2-0.3h3.4v6.5h-1.5v-5.4
			h-1.7c-0.7,0-1,0.3-1,0.8v4.6h-1.5L114.2,102.7L114.2,102.7z"/>
		<path fill="#fff" d="M124.3,104.7h-1v2.8h-1.5V101h1.5v2.5h1c0.1-0.4,0.3-0.8,0.4-1.1c0.2-0.3,0.4-0.6,0.7-0.9s0.6-0.4,1-0.5
			c0.3-0.1,0.8-0.2,1.2-0.2c0.5,0,1,0.1,1.4,0.3c0.4,0.2,0.8,0.3,1,0.7c0.3,0.3,0.5,0.6,0.7,1c0.2,0.4,0.3,0.9,0.3,1.3
			c0,0.5-0.1,1-0.3,1.4c-0.2,0.4-0.4,0.8-0.7,1.1c-0.3,0.3-0.7,0.5-1,0.7c-0.4,0.2-0.9,0.3-1.4,0.3c-0.4,0-0.9-0.1-1.3-0.2
			c-0.4-0.2-0.8-0.3-1-0.6c-0.3-0.3-0.5-0.6-0.7-1C124.3,105.5,124.3,105.1,124.3,104.7z M125.7,104.2c0,0.6,0.2,1.1,0.4,1.6
			c0.3,0.4,0.8,0.7,1.4,0.7c0.3,0,0.7-0.1,1-0.3c0.3-0.2,0.5-0.4,0.7-0.8c0.2-0.3,0.3-0.7,0.3-1.2c0-0.4-0.1-0.9-0.3-1.1
			c-0.2-0.3-0.3-0.6-0.7-0.8c-0.3-0.2-0.6-0.3-1-0.3c-0.3,0-0.7,0.1-1,0.3c-0.3,0.2-0.5,0.4-0.7,0.7
			C125.8,103.3,125.7,103.7,125.7,104.2z"/>
		<path fill="#fff" d="M132.5,101h2.3l0.9,3.7c0,0.2,0.1,0.3,0.1,0.6c0.1,0.3,0.1,0.4,0.2,0.7c0-0.2,0.1-0.3,0.1-0.5
			c0.1-0.3,0.1-0.4,0.2-0.7l1-3.7h2.3v6.5H138v-5.4l-1.3,5.4h-1.5l-1.3-5.4v5.4h-1.4V101z"/>
		<path fill="#fff" d="M141.1,99.2h1.5v1.3h-1.5V99.2z M141.1,101h1.5v6.5h-1.5V101z"/>
		<path fill="#fff" d="M144.3,101h1.5v2.5h2.9V101h1.5v6.5h-1.5v-2.8h-2.9v2.8h-1.5V101z"/>
		<path fill="#fff" d="M151.6,99.2h1.5v1.3h-1.5V99.2z M151.6,101h1.5v6.5h-1.5V101z"/>
		<path fill="#fff" d="M158.9,104.7h-2.3c0.1,0.5,0.3,1,0.5,1.3c0.3,0.3,0.7,0.4,1.2,0.4c0.4,0,0.7-0.1,1-0.3
			c0.3-0.2,0.4-0.5,0.6-1h1.5c0,0.3-0.1,0.5-0.2,0.7c-0.1,0.2-0.2,0.3-0.3,0.6c-0.2,0.3-0.4,0.4-0.7,0.6c-0.3,0.2-0.5,0.3-0.9,0.3
			c-0.3,0.1-0.6,0.1-1,0.1c-0.5,0-1-0.1-1.4-0.3c-0.4-0.2-0.8-0.3-1-0.7c-0.3-0.3-0.5-0.6-0.7-1c-0.2-0.4-0.3-0.9-0.3-1.4
			c0-0.7,0.1-1.3,0.3-1.8c0.3-0.5,0.6-1,1.1-1.2c0.5-0.3,1-0.4,1.7-0.4c0.4,0,0.8,0.1,1.1,0.2c0.3,0.1,0.7,0.3,1,0.4
			c0.3,0.2,0.5,0.4,0.7,0.7c0.2,0.3,0.3,0.6,0.3,1h-1.5c-0.1-0.3-0.3-0.7-0.6-0.9c-0.3-0.2-0.6-0.3-1-0.3s-0.8,0.1-1,0.3
			c-0.3,0.3-0.4,0.6-0.5,1.1h2.2v1.4H158.9z"/>
		<path fill="#fff" d="M162.7,101h3.1c0.5,0,0.9,0,1.1,0.1c0.3,0.1,0.4,0.2,0.7,0.3c0.4,0.3,0.7,0.8,0.7,1.3
			c0,0.3-0.1,0.6-0.2,0.8c-0.1,0.2-0.3,0.4-0.6,0.6c0.3,0.1,0.4,0.2,0.6,0.3c0.2,0.2,0.3,0.3,0.3,0.5c0.1,0.2,0.1,0.4,0.1,0.7
			c0,0.3-0.1,0.6-0.2,0.9c-0.2,0.3-0.3,0.5-0.6,0.7c-0.3,0.2-0.5,0.3-0.8,0.3c-0.3,0.1-0.7,0.1-1.2,0.1h-3.1L162.7,101L162.7,101z
			 M164.1,102.2v1.4h1.5c0.4,0,0.8-0.1,1-0.2c0.2-0.1,0.3-0.3,0.3-0.5s-0.1-0.4-0.3-0.5c-0.2-0.1-0.4-0.2-0.9-0.2H164.1z
			 M164.1,104.6v1.6h1.5c0.3,0,0.7,0,0.9-0.1c0.2-0.1,0.3-0.2,0.4-0.3c0.1-0.1,0.1-0.3,0.1-0.5s0-0.3-0.1-0.5
			c-0.1-0.1-0.3-0.2-0.4-0.3c-0.2-0.1-0.5-0.1-0.9-0.1L164.1,104.6L164.1,104.6z"/>
		<path fill="#fff" d="M175.7,107.5h-1.4V103l-2.9,4.5H170V101h1.4v4.5l2.9-4.5h1.5L175.7,107.5L175.7,107.5z"/>
		<path fill="#fff" d="M176.7,107.5l2.3-3.3l-2.2-3.2h1.6l1.4,2.2l1.4-2.2h1.6l-2.2,3.1l2.3,3.4h-1.7l-1.4-2.3l-1.5,2.3H176.7z"
			/>
		<path fill="#fff" d="M190.6,100.3h1.5v0.5c0.5,0,1,0.1,1.5,0.3s0.9,0.4,1.2,0.7c0.3,0.3,0.6,0.7,0.8,1.1
			c0.2,0.4,0.3,0.9,0.3,1.4c0,0.5-0.1,1-0.3,1.4c-0.2,0.4-0.4,0.8-0.8,1c-0.3,0.3-0.7,0.5-1.2,0.7c-0.4,0.2-1,0.3-1.5,0.3v0.6h-1.5
			v-0.6c-0.7,0-1.3-0.2-1.9-0.4s-1-0.7-1.4-1.2c-0.3-0.5-0.5-1.1-0.5-1.7c0-0.7,0.2-1.3,0.5-1.8c0.3-0.5,0.8-1,1.3-1.2
			c0.6-0.3,1.2-0.4,1.9-0.4L190.6,100.3L190.6,100.3z M190.6,102c-0.3,0-0.6,0.1-0.8,0.2c-0.3,0.1-0.5,0.3-0.7,0.4
			c-0.2,0.2-0.3,0.4-0.5,0.7c-0.1,0.3-0.2,0.5-0.2,0.9s0.1,0.8,0.3,1.1c0.2,0.3,0.4,0.6,0.8,0.9c0.3,0.3,0.7,0.3,1.2,0.3L190.6,102
			L190.6,102z M192.1,102v4.4c0.3,0,0.7-0.1,1-0.2c0.3-0.1,0.5-0.3,0.7-0.5c0.2-0.3,0.3-0.4,0.4-0.7c0.1-0.3,0.2-0.5,0.2-0.9
			s-0.1-0.6-0.2-0.9c-0.1-0.3-0.3-0.5-0.4-0.7c-0.2-0.2-0.4-0.3-0.7-0.4C192.7,102.1,192.3,102,192.1,102z"/>
		<path fill="#fff" d="M196.6,107.5l2.5-6.5h1.6l2.5,6.5h-1.6l-0.5-1.4h-2.6l-0.5,1.4H196.6z M199,105h1.8l-0.9-2.6L199,105z"/>
		<path fill="#fff" d="M210.4,103.1h-1.4c-0.1-0.3-0.3-0.7-0.5-0.9c-0.3-0.2-0.5-0.3-1-0.3c-0.3,0-0.7,0.1-1,0.3
			c-0.3,0.2-0.5,0.4-0.6,0.8c-0.2,0.3-0.3,0.8-0.3,1.2s0.1,0.9,0.2,1.1c0.2,0.3,0.3,0.6,0.6,0.8c0.3,0.2,0.6,0.3,1,0.3
			c0.4,0,0.7-0.1,1-0.3c0.3-0.2,0.4-0.5,0.6-1h1.5c-0.1,0.3-0.1,0.5-0.2,0.7c-0.1,0.2-0.2,0.3-0.3,0.6s-0.4,0.4-0.7,0.6
			c-0.3,0.2-0.5,0.3-0.9,0.3c-0.3,0.1-0.6,0.1-1,0.1c-0.5,0-1-0.1-1.3-0.3c-0.4-0.2-0.8-0.3-1-0.7c-0.3-0.3-0.5-0.6-0.7-1
			c-0.2-0.4-0.3-0.9-0.3-1.4c0-0.5,0.1-1,0.3-1.4s0.3-0.8,0.7-1.1c0.3-0.3,0.6-0.5,1-0.7c0.4-0.2,0.9-0.3,1.4-0.3
			c0.4,0,0.8,0.1,1.1,0.2c0.3,0.1,0.7,0.3,1,0.4c0.3,0.2,0.4,0.4,0.6,0.7C210.4,102.4,210.4,102.8,210.4,103.1z"/>
		<path fill="#fff" d="M211.4,107.5l2.5-6.5h1.6l2.5,6.5h-1.6l-0.5-1.4h-2.6l-0.5,1.4H211.4z M213.8,105h1.8l-0.9-2.6L213.8,105z
			"/>
		<path fill="#fff" d="M219.5,106.3v-3.6c0-0.6,0.3-1,0.7-1.3c0.2-0.2,0.4-0.3,0.7-0.3c0.3-0.1,0.6-0.1,1.1-0.1h2.9v5.4h0.7v1.2
			h-6.8v-1.2L219.5,106.3L219.5,106.3z M220.9,106.3h2.5v-4.2h-1.4c-0.3,0-0.5,0-0.7,0.1c-0.2,0.1-0.3,0.1-0.3,0.3
			c-0.1,0.1-0.1,0.3-0.1,0.4L220.9,106.3L220.9,106.3z"/>
		<path fill="#fff" d="M226.8,99.2h1.5v1.3h-1.5V99.2z M226.8,101h1.5v6.5h-1.5V101z"/>
		<path fill="#fff" d="M230.1,101h3.1c0.5,0,0.9,0,1.1,0.1s0.4,0.2,0.7,0.3c0.4,0.3,0.7,0.8,0.7,1.3c0,0.3-0.1,0.6-0.2,0.8
			c-0.1,0.2-0.3,0.4-0.6,0.6c0.3,0.1,0.4,0.2,0.6,0.3c0.2,0.2,0.3,0.3,0.3,0.5c0.1,0.2,0.1,0.4,0.1,0.7c0,0.3-0.1,0.6-0.2,0.9
			c-0.2,0.3-0.3,0.5-0.6,0.7c-0.3,0.2-0.5,0.3-0.8,0.3c-0.3,0.1-0.7,0.1-1.2,0.1h-3.1L230.1,101L230.1,101z M231.5,102.2v1.4h1.5
			c0.4,0,0.8-0.1,1-0.2c0.2-0.1,0.3-0.3,0.3-0.5s-0.1-0.4-0.3-0.5c-0.2-0.1-0.4-0.2-0.9-0.2H231.5z M231.5,104.6v1.6h1.5
			c0.3,0,0.7,0,0.9-0.1c0.2-0.1,0.3-0.2,0.4-0.3c0.1-0.1,0.1-0.3,0.1-0.5s0-0.3-0.1-0.5c-0.1-0.1-0.3-0.2-0.4-0.3
			c-0.2-0.1-0.5-0.1-0.9-0.1L231.5,104.6L231.5,104.6z"/>
	</g>
</g>
</svg>
