<?xml version="1.0" encoding="utf-8"?>
<!-- Generator: Adobe Illustrator 18.0.0, SVG Export Plug-In . SVG Version: 6.00 Build 0)  -->
<!DOCTYPE svg PUBLIC "-//W3C//DTD SVG 1.1//EN" "http://www.w3.org/Graphics/SVG/1.1/DTD/svg11.dtd">
<svg version="1.1" id="Layer_1" xmlns="http://www.w3.org/2000/svg" xmlns:xlink="http://www.w3.org/1999/xlink" x="0px" y="0px"
	 viewBox="0 60 256 256" enable-background="new 0 60 256 256" xml:space="preserve">
<g>
	<g>
		<g>
			<polygon fill="#546E7A" points="109.4,168.9 110.9,168.9 115.2,159.7 118.3,159.7 113.3,170.3 119,182.5 115.9,182.5 
				110.9,171.7 109.4,171.7 109.4,182.5 106.6,182.5 106.6,163.4 107.8,162.7 107.8,162.4 104.9,162.4 104.9,159.7 109.4,159.7 			
				"/>
			<path fill="#546E7A" d="M128.4,162.4h-0.6l-1.7,11.4h4L128.4,162.4z M123.6,159.7h7.2l3.4,22.9h-2.8l-0.9-6h-4.8l-0.9,6H122
				l2.8-19.2l1.2-0.7v-0.2h-2.4V159.7z"/>
			<path fill="#546E7A" d="M145.4,172.3l1.9-2v-5.9l-1.9-1.9h-3.3v9.8H145.4z M150.1,163.1v8.2l-3.5,3.7h-4.4v7.5h-2.8v-19.3
				l1.2-0.7v-0.2h-2.8v-2.7h8.8L150.1,163.1z"/>
			<polygon fill="#546E7A" points="154,162.2 154,159.7 166.4,159.7 166.4,182.6 163.6,182.6 163.6,162.3 158.4,162.3 158.4,182.6 
				155.6,182.6 155.6,163.1 156.8,162.4 156.8,162.2 			"/>
			<path fill="#546E7A" d="M177.7,162.4h-0.6l-1.7,11.4h4L177.7,162.4z M172.9,159.7h7.2l3.4,22.9h-2.8l-0.9-6H175l-0.9,6h-2.8
				l2.8-19.2l1.2-0.7v-0.2h-2.4V159.7z"/>
			<polygon fill="#546E7A" points="190.5,162.2 188,162.2 187.9,164.6 185.6,164.6 185.6,159.7 198.2,159.7 198.2,164.6 
				195.9,164.6 195.8,162.2 193.2,162.2 193.2,182.6 190.5,182.6 			"/>
			<polygon fill="#546E7A" points="210,164.3 208.3,162.4 206.3,162.4 204.6,164.3 204.6,178.2 206.3,180.2 208.2,180.2 210,178.2 
				210,175.7 212.8,175.6 212.8,179.2 209.5,183 205.1,183 201.8,179.2 201.8,163.1 205.1,159.7 209.5,159.7 212.8,163.1 
				212.8,166.6 210,166.6 			"/>
			<path fill="#546E7A" d="M219.6,170v9.8h3.3l1.9-1.9V172l-1.9-2H219.6z M224,182.6h-7.2v-22.9h2.8v7.5h4.4l3.5,3.7v8.2L224,182.6z
				"/>
			<polygon fill="#546E7A" points="235.9,168.9 237.3,168.9 241.7,159.7 244.8,159.7 239.7,170.3 245.5,182.5 242.4,182.5 
				237.3,171.7 235.9,171.7 235.9,182.5 233.1,182.5 233.1,163.4 234.2,162.7 234.2,162.4 231.4,162.4 231.4,159.7 235.9,159.7 			
				"/>
			<polygon fill="#546E7A" points="248.5,159.7 248.5,162.2 251.9,162.2 251.9,162.4 250.7,163.1 250.7,180.1 248.3,180.1 
				248.3,182.6 256,182.6 256,180.1 253.5,180.1 253.5,162.2 255.7,162.2 255.7,159.7 			"/>
		</g>
		<g>
			<path fill="#546E7A" d="M109.4,206.1h3.2l2,1.9v3.7l-1.8,1.8h-3.4V206.1z M109.4,196.3h2.8l1.8,1.8v3.3l-1.6,1.9h-2.9V196.3z
				 M104.9,193.4v2.8h2.8v0.2l-1.2,0.7v19.1h7.3l3.4-3.4v-6.1l-2.3-2.3l1.7-2v-5.6l-3.4-3.5H104.9z"/>
			<polygon fill="#546E7A" points="121.4,193.4 121.4,195.9 124.8,195.9 124.8,196.1 123.6,196.8 123.6,213.8 121.1,213.8 
				121.1,216.3 128.9,216.3 128.9,213.8 126.4,213.8 126.4,195.9 128.5,195.9 128.5,193.4 			"/>
			<polygon fill="#546E7A" points="143.1,193.5 138.8,202.7 137.3,202.7 137.3,193.5 132.8,193.5 132.8,196.3 135.7,196.3 
				135.7,196.5 134.5,197.2 134.5,216.3 137.3,216.3 137.3,205.5 138.8,205.5 143.8,216.3 146.9,216.3 141.2,204.1 146.2,193.5 			
				"/>
			<polygon fill="#546E7A" points="159.7,193.5 159.7,203.6 154.5,203.6 154.5,193.5 150.1,193.5 150.1,196.3 152.8,196.3 
				152.8,196.5 151.7,197.1 151.7,216.3 154.5,216.3 154.5,206.2 159.7,206.2 159.7,216.3 162.4,216.3 162.4,193.5 			"/>
			<path fill="#546E7A" d="M172.5,196.2h0.6l1.7,11.4h-4L172.5,196.2z M168.3,193.4v2.8h2.4v0.2l-1.2,0.7l-2.8,19.2h2.8l0.9-6h4.8
				l0.9,6h2.8l-3.4-22.9H168.3z"/>
		</g>
	</g>
	<g>
		<polygon fill="#546E7A" points="46.2,162.4 2.7,216.2 11.4,216.2 46.2,173.2 81,216.2 89.7,216.2 		"/>
		<polygon fill="#546E7A" points="46.2,180.7 17.4,216.2 29.5,216.2 46.2,195.6 62.8,216.2 74.9,216.2 		"/>
		<polygon fill="#546E7A" points="46.2,202.2 34.8,216.2 57.5,216.2 		"/>
		<polygon fill="#546E7A" points="0,159.7 0,159.8 0,162.4 0,216.2 2.8,216.2 2.8,162.4 89.5,162.4 89.5,216.2 92.3,216.2 
			92.3,162.4 92.3,159.8 92.3,159.7 		"/>
	</g>
</g>
</svg>
