<?xml version="1.0" encoding="utf-8"?>
<!-- Generator: Adobe Illustrator 18.1.1, SVG Export Plug-In . SVG Version: 6.00 Build 0)  -->
<svg version="1.1" id="Layer_1" xmlns="http://www.w3.org/2000/svg" xmlns:xlink="http://www.w3.org/1999/xlink" x="0px" y="0px"
	 width="250px" height="150px" viewBox="0 0 250 150" enable-background="new 0 0 250 150" xml:space="preserve">
<g>
	<g>
		<g>
			<polygon fill="#fff" points="106.8,56.4 108.3,56.4 112.5,47.4 115.5,47.4 110.6,57.8 116.2,69.7 113.2,69.7 108.3,59.1 
				106.8,59.1 106.8,69.7 104.1,69.7 104.1,51 105.3,50.3 105.3,50 102.4,50 102.4,47.4 106.8,47.4 			"/>
			<path fill="#fff" d="M125.4,50h-0.6l-1.7,11.1h3.9L125.4,50z M120.7,47.4h7l3.3,22.4h-2.7l-0.9-5.9h-4.7l-0.9,5.9h-2.7
				l2.7-18.7l1.2-0.7v-0.2h-2.3V47.4z"/>
			<path fill="#fff" d="M142,59.7l1.9-2V52l-1.9-1.9h-3.2v9.6L142,59.7L142,59.7z M146.6,50.7v8l-3.4,3.6h-4.3v7.3h-2.7V50.8
				l1.2-0.7V50h-2.7v-2.6h8.6L146.6,50.7z"/>
			<polygon fill="#fff" points="150.4,49.9 150.4,47.4 162.5,47.4 162.5,69.8 159.8,69.8 159.8,50 154.7,50 154.7,69.8 152,69.8 
				152,50.7 153.1,50 153.1,49.9 			"/>
			<path fill="#fff" d="M173.5,50h-0.6l-1.7,11.1h3.9L173.5,50z M168.8,47.4h7l3.3,22.4h-2.7l-0.9-5.9h-4.7l-0.9,5.9h-2.7L170,51
				l1.2-0.7v-0.2h-2.3L168.8,47.4L168.8,47.4z"/>
			<polygon fill="#fff" points="186,49.9 183.6,49.9 183.5,52.2 181.3,52.2 181.3,47.4 193.6,47.4 193.6,52.2 191.3,52.2 
				191.2,49.9 188.7,49.9 188.7,69.8 186,69.8 			"/>
			<polygon fill="#fff" points="205.1,51.9 203.4,50 201.5,50 199.8,51.9 199.8,65.5 201.5,67.4 203.3,67.4 205.1,65.5 205.1,63 
				207.8,62.9 207.8,66.5 204.6,70.2 200.3,70.2 197.1,66.5 197.1,50.7 200.3,47.4 204.6,47.4 207.8,50.7 207.8,54.2 205.1,54.2 			
				"/>
			<path fill="#fff" d="M214.5,57.5V67h3.2l1.9-1.9v-5.8l-1.9-2H214.5z M218.8,69.8h-7V47.4h2.7v7.3h4.3l3.4,3.6v8L218.8,69.8z"
				/>
			<polygon fill="#fff" points="230.4,56.4 231.7,56.4 236,47.4 239.1,47.4 234.1,57.8 239.7,69.7 236.7,69.7 231.7,59.1 
				230.4,59.1 230.4,69.7 227.6,69.7 227.6,51 228.7,50.3 228.7,50 226,50 226,47.4 230.4,47.4 			"/>
			<polygon fill="#fff" points="242.7,47.4 242.7,49.9 246,49.9 246,50 244.8,50.7 244.8,67.3 242.5,67.3 242.5,69.8 250,69.8 
				250,67.3 247.6,67.3 247.6,49.9 249.7,49.9 249.7,47.4 			"/>
		</g>
		<g>
			<path fill="#fff" d="M106.8,92.7h3.1l2,1.9v3.6l-1.8,1.8h-3.3C106.8,100,106.8,92.7,106.8,92.7z M106.8,83.2h2.7l1.8,1.8v3.2
				l-1.6,1.9h-2.8L106.8,83.2L106.8,83.2z M102.4,80.3v2.7h2.7v0.2l-1.2,0.7v18.7h7.1l3.3-3.3v-6l-2.2-2.2l1.7-2v-5.5l-3.3-3.4
				L102.4,80.3L102.4,80.3z"/>
			<polygon fill="#fff" points="118.6,80.3 118.6,82.8 121.9,82.8 121.9,83 120.7,83.6 120.7,100.2 118.3,100.2 118.3,102.7 
				125.9,102.7 125.9,100.2 123.4,100.2 123.4,82.8 125.5,82.8 125.5,80.3 			"/>
			<polygon fill="#fff" points="139.7,80.4 135.5,89.4 134.1,89.4 134.1,80.4 129.7,80.4 129.7,83.2 132.5,83.2 132.5,83.3 
				131.3,84 131.3,102.7 134.1,102.7 134.1,92.1 135.5,92.1 140.4,102.7 143.5,102.7 137.9,90.8 142.8,80.4 			"/>
			<polygon fill="#fff" points="156,80.4 156,90.3 150.9,90.3 150.9,80.4 146.6,80.4 146.6,83.2 149.2,83.2 149.2,83.3 
				148.1,83.9 148.1,102.7 150.9,102.7 150.9,92.8 156,92.8 156,102.7 158.6,102.7 158.6,80.4 			"/>
			<path fill="#fff" d="M168.5,83.1h0.6l1.7,11.1h-3.9L168.5,83.1z M164.4,80.3v2.7h2.3v0.2l-1.2,0.7l-2.7,18.8h2.7l0.9-5.9h4.7
				l0.9,5.9h2.7l-3.3-22.4H164.4z"/>
		</g>
	</g>
	<g>
		<polygon fill="#fff" points="45.1,50 2.6,102.6 11.1,102.6 45.1,60.6 79.1,102.6 87.6,102.6 		"/>
		<polygon fill="#fff" points="45.1,67.9 17,102.6 28.8,102.6 45.1,82.5 61.3,102.6 73.1,102.6 		"/>
		<polygon fill="#fff" points="45.1,88.9 34,102.6 56.2,102.6 		"/>
		<polygon fill="#fff" points="0,47.4 0,47.5 0,50 0,102.6 2.7,102.6 2.7,50 87.4,50 87.4,102.6 90.1,102.6 90.1,50 90.1,47.5 
			90.1,47.4 		"/>
	</g>
</g>
</svg>
