<?xml version="1.0" encoding="utf-8"?>
<!-- Generator: Adobe Illustrator 18.0.0, SVG Export Plug-In . SVG Version: 6.00 Build 0)  -->
<!DOCTYPE svg PUBLIC "-//W3C//DTD SVG 1.1//EN" "http://www.w3.org/Graphics/SVG/1.1/DTD/svg11.dtd">
<svg version="1.1" id="Layer_1" xmlns="http://www.w3.org/2000/svg" xmlns:xlink="http://www.w3.org/1999/xlink" x="0px" y="0px"
	 viewBox="0 0 40 40" enable-background="new 0 0 40 40" xml:space="preserve">
<path fill="#00A656" d="M11,12c-0.6,0-1,0.4-1,1c0,9.4,7.6,17,17,17c0.6,0,1-0.4,1-1v-3.5c0-0.6-0.4-1-1-1c-1.3,0-2.5-0.2-3.6-0.6
	c-0.4-0.1-0.7,0-1,0.2l-2.2,2.2c-2.8-1.4-5.1-3.8-6.6-6.6l2.2-2.2c0.3-0.3,0.4-0.6,0.3-1c-0.4-1.1-0.6-2.3-0.6-3.6c0-0.6-0.4-1-1-1
	H11 M26,20v-1.5h-3.5L28,13l-1-1l-5.5,5.5V14H20v6H26z"/>
<g>
	<path fill="#00A656" d="M38,2v36H2V2H38 M40,0H0v40h40V0L40,0z"/>
</g>
</svg>
