<?xml version="1.0" encoding="utf-8"?>
<!-- Generator: Adobe Illustrator 18.1.1, SVG Export Plug-In . SVG Version: 6.00 Build 0)  -->
<svg version="1.1" id="Layer_1" xmlns="http://www.w3.org/2000/svg" xmlns:xlink="http://www.w3.org/1999/xlink" x="0px" y="0px"
	 width="250px" height="150px" viewBox="10.2 29 250 150" enable-background="new 10.2 29 250 150" xml:space="preserve">
<g>
	<path fill="none" d="M242.7,96.1c0.1-0.3,0.3-0.5,0.3-0.8c0-0.4-0.1-0.5-0.3-0.8c-0.1-0.1-0.4-0.4-0.7-0.4c-0.1,0-0.3-0.1-0.5-0.1
		c-0.1,0-0.4,0-0.8,0h-1.1v2.8h0.9c0.3,0,0.5,0,0.8,0c0.1,0,0.4,0,0.5-0.1C242.3,96.5,242.5,96.3,242.7,96.1z"/>
	<path fill="none" d="M244.3,66.9H236v59.7h8.3c1.3,0,2.4-1.1,2.4-2.4v-55C246.7,68,245.6,66.9,244.3,66.9z M238.9,70.2h4.8V71H240
		v2.5h3.3v0.8H240V77h4v0.8h-4.9L238.9,70.2L238.9,70.2z M238.7,81.7h0.9v3.9l0,0l3.6-3.9h0.9l-3.6,3.9l3.9,3.9h-0.9l-3.7-3.9l0,0
		v3.9h-0.9v-7.7H238.7z M244.1,100.9h-0.9l-2.4-3.2h-1.2v3.2h-0.9V93h2c0.4,0,0.7,0,0.9,0s0.4,0,0.7,0.1c0.5,0.1,0.9,0.4,1.2,0.8
		c0.3,0.4,0.4,0.8,0.4,1.3c0,0.3,0,0.5-0.1,0.8s-0.3,0.4-0.4,0.7c-0.1,0.1-0.4,0.4-0.7,0.4c-0.3,0.1-0.5,0.1-0.8,0.3l0,0
		L244.1,100.9z M244.4,123.5h-0.9l-3.1-4.4c-0.5-0.8-0.9-1.5-1.5-2.1l0,0c0,0.7,0.1,1.6,0.1,2.5v4h-0.9v-7.9h0.9l3.1,4.4
		c0.5,0.7,0.9,1.3,1.5,2.1l0,0c0-0.8-0.1-1.6-0.1-2.3v-4.1h0.9V123.5L244.4,123.5z M243.9,112.2l-0.9-2.4h-3.2l-0.9,2.4h-1.1
		l3.2-7.9h0.8l3.2,7.9H243.9z"/>
	<path fill="none" d="M241.3,105.5c-0.4,0.9-0.7,1.9-0.9,2.7l-0.3,0.8h2.5l-0.3-0.8C242,107.4,241.6,106.6,241.3,105.5L241.3,105.5z
		"/>
	<polygon fill="#FFFFFF" points="244,77.3 240,77.3 240,74.5 243.3,74.5 243.3,73.7 240,73.7 240,71.2 243.7,71.2 243.7,70.2 
		238.9,70.2 238.9,78.1 244,78.1 	"/>
	<polygon fill="#FFFFFF" points="239.6,85.7 239.6,85.7 243.5,89.4 244.4,89.4 240.5,85.5 244.1,81.7 243.2,81.7 239.6,85.5 
		239.6,85.5 239.6,81.7 238.7,81.7 238.7,89.4 239.6,89.4 	"/>
	<path fill="#FFFFFF" d="M242.8,97.1c0.3-0.1,0.5-0.3,0.7-0.4c0.1-0.1,0.3-0.4,0.4-0.7c0.1-0.3,0.1-0.5,0.1-0.8
		c0-0.5-0.1-0.9-0.4-1.3c-0.3-0.4-0.7-0.5-1.2-0.8c-0.1,0-0.4-0.1-0.7-0.1s-0.5,0-0.9,0h-2v7.9h0.9v-3.2h1.2l2.4,3.2h0.9l-2.3-3.3
		l0,0C242.1,97.4,242.5,97.3,242.8,97.1z M241.3,96.7c-0.1,0-0.4,0-0.8,0h-0.9v-2.8h1.1c0.3,0,0.5,0,0.8,0c0.1,0,0.4,0,0.5,0.1
		c0.3,0.1,0.5,0.3,0.7,0.4c0.1,0.1,0.3,0.5,0.3,0.8c0,0.4-0.1,0.7-0.3,0.8c-0.1,0.3-0.4,0.4-0.8,0.5
		C241.7,96.6,241.6,96.7,241.3,96.7z"/>
	<path fill="#FFFFFF" d="M240.9,104.3l-3.2,7.9h1.1l0.9-2.4h3.2l0.9,2.4h1.1l-3.2-7.9H240.9z M242.5,109H240c0,0,0.9-2.4,1.3-3.3
		l0,0C241.6,106.6,242.5,109,242.5,109z"/>
	<path fill="#FFFFFF" d="M243.6,122.2L243.6,122.2c-0.5-0.8-4.5-6.5-4.5-6.5h-0.9v7.9h0.9c0,0,0-5.7-0.1-6.5l0,0
		c0.4,0.7,4.5,6.5,4.5,6.5h0.9v-7.9h-0.9C243.5,115.8,243.6,121.5,243.6,122.2z"/>
	<path fill="#FFFFFF" d="M93.7,105.7c-0.1,1.3-2.7,9.6-2.7,9.6h5.6C96.7,115.2,94,106.7,93.7,105.7z"/>
	<path fill="#FFFFFF" d="M213,76.6L213,76.6c-1.1,3.1-3.9,10.4-3.9,10.4h7.6C216.7,86.9,214,79.7,213,76.6z"/>
	<path fill="#FFFFFF" d="M88.4,92.5c0.3-0.4,0.5-0.7,0.7-1.2c0.1-0.4,0.1-0.8,0.1-1.3c0-0.8-0.3-1.6-0.7-2.1s-1.2-1.1-2.1-1.3
		c-0.4-0.1-0.9-0.3-1.5-0.3s-1.3-0.1-2.1-0.1h-5.1v8.3h3.5c0.9,0,1.7,0,2.4-0.1c0.7,0,1.2-0.1,1.7-0.3c0.8-0.1,1.3-0.4,1.9-0.7
		C87.8,93.1,88.2,92.9,88.4,92.5z"/>
	<path fill="#FFFFFF" d="M155.6,105.7c-0.1,1.3-2.7,9.6-2.7,9.6h5.6C158.4,115.2,155.8,106.7,155.6,105.7z"/>
	<path fill="#FFFFFF" d="M85.9,81.1c0.8-0.4,1.3-0.8,1.7-1.3s0.5-1.2,0.5-2s-0.1-1.5-0.5-2.1c-0.4-0.7-1.1-1.1-2-1.3
		c-0.4-0.1-0.8-0.1-1.3-0.3c-0.5,0-1.2-0.1-2-0.1h-4.4v7.6h4.9C84,81.7,85.1,81.4,85.9,81.1z"/>
	<path fill="#FFFFFF" d="M121.6,105.7c-0.1,1.3-2.7,9.6-2.7,9.6h5.6C124.4,115.2,121.9,106.7,121.6,105.7z"/>
	<path fill="#FFFFFF" d="M189.8,106.3c-0.5-0.3-1.5-0.4-2.8-0.4h-3.3v15.2h3.5c1.3,0,2.4-0.3,3.2-0.7c0.8-0.4,1.3-1.2,1.6-2.1
		c0.5-1.3,0.8-2.9,0.8-4.8c0-2-0.3-3.6-0.8-4.8C191.3,107.4,190.6,106.6,189.8,106.3z"/>
	<path fill="#FFFFFF" d="M223.4,110.7c0.3-0.5,0.4-1.2,0.4-1.9c0-0.9-0.3-1.7-0.9-2.4c-0.5-0.5-1.5-0.8-2.5-0.8h-5.2v6.5h4.7
		c0.9,0,1.7-0.1,2.3-0.4C222.6,111.5,223,111.2,223.4,110.7z"/>
	<path fill="none" d="M244.3,66.9H236v59.7h8.3c1.3,0,2.4-1.1,2.4-2.4v-55C246.7,68,245.6,66.9,244.3,66.9z"/>
	<polygon fill="none" points="132.6,85.7 132.6,85.7 144.6,98.9 151.6,98.9 138.2,84.1 150.5,69.4 143.8,69.4 132.6,82.9 
		132.6,82.9 132.6,69.4 127.2,69.4 127.2,98.9 132.6,98.9 	"/>
	<polygon fill="none" points="168.3,86.1 181.9,86.1 181.9,98.9 187.4,98.9 187.4,69.4 181.9,69.4 181.9,81.7 168.3,81.7 
		168.3,69.4 162.9,69.4 162.9,98.9 168.3,98.9 	"/>
	<path fill="#FFFFFF" d="M244.3,65.8H66.2c-0.9,0.8-2.1,1.3-3.2,1.9c-0.3,0.1-0.5,0.3-0.9,0.4c-1.3,0.5-2.8,0.8-4.3,0.8l0,0
		c-0.5,4.5-3.3,7.9-5.2,11.9l0,0c0.5-0.3,1.5-0.7,2.9-0.5c0.7-0.4,0.9-1.3,1.2-2c0.4-0.9,0.5-2,0.9-2.9c0.3-0.7,0.4-1.6,1.1-2.1
		c0.7-0.5,1.2,0.3,1.2,0.9c0,0.8-0.5,1.7-0.8,2.4c-0.3,0.5-0.7,1.2-0.7,1.7l0,0l0,0l0,0l0,0c0.4,0.1,1.2-0.8,1.3-1.1
		c0.5-0.7,1.2-1.3,1.7-2c0.5-0.5,2.3-3.2,3.3-2.1c0.9,1.1-1.3,2.9-2,3.5c-0.4,0.4-2.9,2.3-2.4,2.9c0.3,0.5,2.9-0.7,3.5-0.8
		c0.7-0.1,2.3-0.5,2.4,0.5c0,1.1-1.7,1.2-2.5,1.3c-0.7,0.1-1.5,0.1-2.1,0.3c-0.3,0-1.1,0.1-1.2,0.4c0,0.1,0,0.3,0,0.4
		c0.5,1.2,4.3,0.8,3.6,2.7c-0.1,0.5-0.7,0.5-1.2,0.4c-0.1,0-0.1,0-0.3,0c-0.4-0.1-0.8-0.4-1.3-0.5l0,0c-1.1-0.5-2.1-1.1-3.3-1.1l0,0
		c-0.5,0-0.9,0.1-1.3,0.4c-1.9,0.8-3.9,1.6-5.9,2.1c-1.6,0.4-3.9,0.7-5.2-0.8c-1.6-2.3,0.1-4.4,1.3-6.4c-3.1,3.5-5.3,8.9-4.5,13.6
		c0.4,2.5,1.5,5.1,2.8,7.2c1.2,2,2.8,3.9,4,5.9c1.6-0.8,3.7-1.7,5.2-0.1c0.7,0.8,1.2,1.7,1.6,2.7c0.5,1.1,1.1,2.1,1.7,3.2
		c0.5-0.4,0-1.7-0.1-2.1c-0.3-1.1-0.8-2.3-1.2-3.3c-0.4-1.1-0.8-2.1-1.2-3.3c-0.1-0.5-0.4-1.3-0.3-2c0.1-0.5,0.8-0.7,1.3-0.4
		c0.7,0.5,0.9,1.5,1.2,2.1c0.4,1.1,0.7,2.1,0.9,3.2c0.1,0.7,0.3,1.9,0.8,2.4c0.1-0.4,0.1-0.9,0.1-1.3c0-0.8,0-1.6-0.1-2.4
		c-0.1-1.6-0.1-3.3-0.1-4.9c0-0.9-0.3-4.8,1.3-4.9l0,0c0.9,0,0.8,2,0.9,2.5c0,1.5,0,3.1-0.1,4.5c0,1.3-0.1,2.8-0.1,4.1
		c0,0.4-0.1,2,0.1,2.3c0.4-0.3,0.7-1.7,0.8-2.1c0.3-1.1,0.5-2.1,0.8-3.3c0.1-0.7,0.7-3.5,1.7-3.5c2.4,0-1.6,8.8-1.6,9.7
		c1.3-0.1,3.6-3.5,4.9-1.6c0.5,0.9-1.1,1.9-1.7,2.3c-1.2,0.7-2.5,1.2-3.6,2.1c-0.9,1.1-1.5,2.4-2,3.7c-0.4,0.9-0.5,2.3-1.2,3.1
		c-1.3,1.6-4.3-0.5-5.5-1.3c1.9,3.6,3.3,7.5,4.3,11.5h186.1c1.9,0,3.3-1.5,3.3-3.3V69.2C247.6,67.3,246.1,65.8,244.3,65.8z
		 M210.4,69.4h4.9l11.7,29.4h-5.7l-2.9-7.5h-11.1l-2.9,7.5h-5.7L210.4,69.4z M162.9,69.4h5.3v12.1h13.6V69.4h5.5v29.4h-5.3V86.1
		h-13.6v12.8H163L162.9,69.4L162.9,69.4z M127.2,69.4h5.3v13.5h0.1l11.1-13.5h6.7l-12.3,14.7L151.4,99h-6.9l-11.9-13.3h-0.1V99h-5.3
		L127.2,69.4L127.2,69.4z M107.6,69.4h5.3v29.4h-5.3V69.4z M84.6,120.8c-0.5,0.9-1.2,1.6-2.1,2.1s-2,0.8-3.3,0.8
		c-2,0-3.6-0.5-4.8-1.7c-1.2-1.2-1.9-2.8-1.9-4.9l2-0.3c0.1,1.1,0.4,2,0.8,2.5c0.4,0.5,0.9,1.1,1.6,1.5c0.7,0.4,1.5,0.5,2.4,0.5
		c1.3,0,2.3-0.3,2.9-0.9s1.1-1.5,1.1-2.4c0-0.5-0.1-1.1-0.4-1.6c-0.3-0.4-0.7-0.8-1.2-1.1s-1.6-0.7-3.3-1.2
		c-1.6-0.4-2.7-0.9-3.3-1.3c-0.7-0.4-1.2-1.1-1.5-1.7c-0.4-0.7-0.5-1.5-0.5-2.4c0-1.6,0.5-2.9,1.6-4c1.1-1.1,2.4-1.6,4.1-1.6
		c1.2,0,2.3,0.3,3.2,0.7c0.9,0.5,1.6,1.2,2.1,2s0.8,2,0.8,3.2l-2,0.1c-0.1-1.3-0.5-2.3-1.2-2.8c-0.7-0.7-1.6-0.9-2.8-0.9
		s-2.1,0.3-2.8,0.8s-0.9,1.2-0.9,2.1c0,0.8,0.3,1.5,0.7,1.9s1.5,0.9,3.2,1.3c1.6,0.4,2.8,0.8,3.3,1.2c0.9,0.5,1.7,1.2,2.3,2
		s0.8,1.7,0.8,2.9C85.4,118.8,85.1,119.9,84.6,120.8z M84.8,98.7c-0.5,0-1.1,0.1-1.7,0.1s-1.3,0-2.1,0h-8.5V69.4h10.3
		c2.1,0,4,0.3,5.3,0.7c0.9,0.3,1.9,0.8,2.5,1.2c0.8,0.5,1.3,1.1,1.9,1.7c0.5,0.7,0.8,1.3,1.1,2c0.3,0.7,0.4,1.5,0.4,2.1
		c0,1.3-0.3,2.4-0.8,3.5c-0.5,1.1-1.5,2-2.8,2.7v0.1c0.8,0.3,1.3,0.5,2,0.9c0.5,0.4,1.2,0.8,1.6,1.3c0.4,0.5,0.8,1.2,0.9,1.9
		c0.3,0.7,0.4,1.5,0.4,2.3c0,0.7-0.1,1.5-0.4,2.3c-0.3,0.8-0.7,1.6-1.2,2.4s-1.3,1.5-2.3,2.1s-2.1,1.2-3.6,1.6
		c-0.4,0.1-0.8,0.1-1.2,0.3C85.9,98.7,85.4,98.7,84.8,98.7z M99.2,123.4l-1.9-6h-6.8l-1.7,6h-2.3l6.3-19.8h2.3l6.7,19.8H99.2z
		 M113.3,123.4h-10.1v-19.8h2.1V121h8V123.4z M126.9,123.4l-1.9-6h-6.8l-1.7,6h-2.3l6.3-19.8h2.3l6.7,19.8H126.9z M146.5,123.4h-2
		v-16.5l-4.8,16.5h-2l-4.7-16.9v16.9h-2v-19.8h3.2l4.7,16.9c0.1-0.8,4.8-16.9,4.8-16.9h2.9L146.5,123.4L146.5,123.4z M161,123.4
		l-1.9-6h-6.8l-1.7,6h-2.3l6.3-19.8h2.3l6.7,19.8H161z M177.8,123.4h-2.1l-8.5-15.6v15.6h-2v-19.8h2.1l8.5,15.6v-15.6h2V123.4z
		 M193.9,119c-0.7,1.6-1.5,2.7-2.5,3.3s-2.4,0.9-4,0.9h-5.9v-19.8h5.6c1.3,0,2.4,0.1,3.2,0.4c0.9,0.3,1.7,0.9,2.4,1.7
		c0.7,0.8,1.2,1.9,1.6,3.2c0.4,1.3,0.5,2.8,0.5,4.5C194.8,115.5,194.6,117.5,193.9,119z M210,123.4h-12.1v-19.8h11.7v2.4H200v6h8.9
		v2.4H200v6.8h10L210,123.4L210,123.4z M224.6,123.4l-2.1-4.1c-0.8-1.6-1.5-2.7-1.9-3.2c-0.4-0.5-0.8-0.9-1.2-1.2
		c-0.4-0.1-0.9-0.3-1.7-0.3h-2.5v8.8H213v-19.8h7.2c1.5,0,2.7,0.1,3.3,0.5c0.7,0.4,1.3,0.9,1.7,1.9c0.4,0.8,0.7,1.9,0.7,2.9
		c0,1.5-0.4,2.7-1.2,3.6c-0.8,0.9-1.9,1.5-3.3,1.7c0.5,0.4,1.1,0.8,1.3,1.1c0.7,0.8,1.2,1.6,1.7,2.5l2.8,5.3h-2.7V123.4z
		 M246.7,124.2c0,1.3-1.1,2.4-2.4,2.4H236V66.9h8.3c1.3,0,2.4,1.1,2.4,2.4V124.2z"/>
	<path fill="#FFFFFF" d="M42.2,77c0-0.4-0.1-0.7-0.3-1.1c-0.4-1.6-1.2-3.2-2.1-4.4c-0.4-0.7-1.1-1.6-1.6-1.5c-0.3,0-0.5,0.1-0.8,0.4
		l0,0c-0.1,0-0.1,0.1-0.3,0.1c-0.4,0.3-0.7,0.7-0.9,1.1c-0.1,0.1-0.1,0.3-0.3,0.4c-0.1,0.1-0.1,0.3-0.3,0.4c0,0,0,0,0,0.1
		c-0.1,0.3-0.3,0.4-0.3,0.7c-0.3,0.8-0.4,1.6,0.3,2.3c0.4,0.4,0.7,0.7,1.2,0.9c0.1,0.1,0.3,0.1,0.4,0.3c0,0,0.1,0.1,0.3,0.1
		c0.4,0.3,1.2,0.7,2,1.1c0.5,0.3,1.2,0.4,1.9,0.5C42.3,78.6,42.5,77.9,42.2,77z"/>
	<path fill="#FFFFFF" d="M45.9,72.1c0-0.3,0-0.5,0-0.7l0,0c0-0.3,0-0.5,0-0.8c0-0.1,0-0.3,0-0.4c0-0.1,0-0.3,0-0.4
		c0-0.3,0-0.5-0.1-0.8c0,0,0,0,0-0.1c-0.1-0.8-0.3-1.7-0.5-2.5c0-0.1-0.1-0.3-0.1-0.5c-0.1-0.3-0.3-0.4-0.4-0.7
		c-0.3-0.3-0.5-0.1-0.9,0c-0.4,0.1-0.9,0.4-1.3,0.7c-0.1,0.1-0.3,0.1-0.4,0.3c-0.9,0.5-2.1,1.6-2.3,2.5l0,0v0.1c0,0.1,0,0.1,0,0.3
		s0.1,0.4,0.1,0.5c0.5,1.2,1.3,2.3,2.1,3.2l0,0c0.5,0.5,1.3,1.6,2.1,2c0.1,0,0.3,0.1,0.4,0.1l0,0h0.1h0.1H45c0,0,0,0,0.1,0l0,0
		C45.8,74.2,45.9,73,45.9,72.1L45.9,72.1z"/>
	<path fill="#FFFFFF" d="M39.9,82.2c-0.1-0.3-0.1-0.5-0.3-0.8c-0.1-0.1-0.3-0.4-0.4-0.5c-0.4-0.7-0.9-1.3-1.5-2c0,0,0,0-0.1-0.1
		s-0.1-0.1-0.3-0.3c0,0,0,0-0.1-0.1c-0.7-0.7-1.9-2-2.9-2.1l0,0h-0.1c-0.1,0-0.1,0-0.3,0c-1.2,0.1-1.7,2.1-2,3.1
		c-0.3,1.2-0.5,2.5-0.4,3.9c0,0.1,0,0.4,0,0.5s0,0.1,0,0.1s0,0.1,0.1,0.1c0,0,0,0,0,0.1l0.1,0.1l0,0c0.9,0.8,2.9,0.7,3.9,0.5
		c0,0,0,0,0.1,0h0.1c0.3,0,0.7-0.1,1.2-0.1C38.7,84.3,40.3,83.7,39.9,82.2z"/>
	<path fill="#FFFFFF" d="M37.5,87.9l-0.1-0.1c-0.1-0.1-0.4-0.1-0.5-0.3c0,0-0.1,0-0.1-0.1l0,0c-0.5-0.3-1.7-0.8-2.8-0.9
		c-0.3,0-0.5,0-0.8,0c-0.5,0.1-0.7,0.4-0.8,0.8c0,0.1,0,0.1,0,0.3c0,0.4,0,0.7,0,1.1c0,0.1,0,0.4,0,0.5c0.1,1.3,0.5,2.7,1.2,3.9l0,0
		l0,0c0,0.1,0.1,0.1,0.1,0.3l0,0c0.1,0.3,0.4,0.5,0.7,0.8c0.8,0.7,1.9,0.3,2.7-0.1h0.1c0,0,0,0,0.1,0c0,0,0.1,0,0.1-0.1l0,0
		c0.1,0,0.1-0.1,0.3-0.1c0,0,0.1,0,0.1-0.1l0,0c0.1-0.1,0.4-0.3,0.5-0.4c0.4-0.4,0.9-0.8,1.2-1.3C40.6,90.1,39,88.7,37.5,87.9z"/>
	<path fill="#FFFFFF" d="M42.7,98.1C42.7,98.1,42.6,98.1,42.7,98.1c0-0.1,0-0.1-0.1-0.1l-0.1-0.1c-0.1-0.1-0.3-0.3-0.4-0.4
		c-0.5-0.4-1.2-0.7-1.9-0.9c-0.3-0.1-0.5-0.1-0.8-0.1c0,0-0.1,0-0.3,0s-0.1,0-0.3,0c-0.3,0-0.9-0.1-1.5-0.1s-0.9,0.1-1.2,0.4l0,0
		c0,0,0,0,0,0.1v0.1c0,0.1,0,0.3,0,0.4c0,0.1,0,0.1,0,0.3v0.1c0.1,0.8,0.7,1.5,1.1,2c0,0,0,0.1,0.1,0.1c0,0,0,0.1,0.1,0.1
		c0,0,0,0,0,0.1c0.3,0.4,0.7,0.9,1.2,1.3l0,0c0.1,0,0.1,0.1,0.3,0.1h0.1c0,0,0.1,0,0.1,0.1c0.1,0,0.3,0,0.4,0
		c0.7-0.1,3.5-1.7,3.3-3.1C42.7,98.2,42.7,98.1,42.7,98.1z"/>
	<path fill="#FFFFFF" d="M47.4,105.5c0-0.3-0.3-0.7-0.7-0.9c-0.3-0.3-0.7-0.5-1.1-0.7c-0.3-0.1-0.5-0.3-0.8-0.4
		c-0.4-0.1-0.8-0.4-1.2-0.5s-0.8-0.3-1.2-0.4c-0.1,0-0.3,0-0.4-0.1c-0.5-0.1-1.3-0.3-1.6,0.1c-0.3,0.5,0.3,1.5,0.5,1.9
		c0.5,0.9,1.7,3.2,3.1,3.1c0.5,0,2-0.5,2.8-1.2C47.3,106.2,47.4,105.8,47.4,105.5z M41.3,102.5C41,102.5,41.5,102.5,41.3,102.5
		L41.3,102.5z"/>
	<path fill="#FFFFFF" d="M50.6,107.2c0-0.1,0-0.1-0.1-0.1c-0.1-0.1-0.3-0.1-0.5-0.1c-0.1,0-0.3,0-0.5,0.1c-0.8,0.3-1.6,0.8-2.1,1.3
		c-0.7,0.5-2,1.6-1.9,2.5c0,0.1,0,0.3,0.1,0.4c0,0.1,0,0.1,0.1,0.3v0.1c0.3,0.7,0.7,1.2,1.1,1.7l0,0l0.1,0.1
		c0.4,0.5,1.2,1.3,1.9,1.5l0,0c0.1,0,0.1,0,0.3,0C50.6,114.7,50.7,108.8,50.6,107.2z"/>
	<path fill="#FFFFFF" d="M55.4,110.4c0-0.1,0-0.3,0-0.4c-0.1-0.8-0.7-1.5-1.1-2.1c-0.3-0.4-0.8-1.2-1.2-1.6l0,0
		c-0.1,0-0.1-0.1-0.3-0.1s-0.1-0.1-0.3-0.1h-0.1c-0.5,0.3-0.7,1.9-0.7,3.2c0,0.8,0,1.6,0.1,2.3c0,0.1,0,0.3,0.1,0.4
		C52.1,113.1,55.8,111.8,55.4,110.4z"/>
	<path fill="#FFFFFF" d="M51.4,117.5c-0.1-0.1-0.8-0.5-1.2-0.4c0,0-0.1,0-0.1,0.1v0.1c0,0.4,0.4,1.5,0.5,1.6c0,0.1,0.1,0.3,0.1,0.4
		c0.1,0.1,0.1,0.4,0.3,0.5l0,0c0.1,0.1,0.1,0.4,0.3,0.7c0,0,0,0.1,0.1,0.1c0.1,0.1,0.1,0.3,0.3,0.5c0.1,0.3,0.3,0.4,0.4,0.7
		c0.1,0.1,0.1,0.1,0.3,0.3s0.3,0.1,0.4,0.1c0.1,0,0.3,0,0.4,0c0,0,0,0,0.1,0c0,0,0.1,0,0.1-0.1c0,0,0.1,0,0.1-0.1c0,0,0,0,0.1-0.1
		s0.1-0.3,0.3-0.4c0.1-0.1,0.1-0.4,0.3-0.5c0.1-0.4,0.3-0.8,0.3-1.1v-0.1v-0.1v-0.1c0,0,0-0.1-0.1-0.1l-0.1-0.1
		C53.1,118.7,52.3,118,51.4,117.5C51.3,117.5,51.4,117.5,51.4,117.5z"/>
	<g>
		<path fill="#FFFFFF" d="M53.4,123.9C53.4,123.9,53.4,124,53.4,123.9c-0.1,0-0.1,0.1-0.1,0.1l-0.1,0.1c-0.1,0.1-0.1,0.3-0.1,0.4
			c0,0.1,0.1,0.4,0.1,0.4l0,0c0.1,0.8,0.5,1.5,0.8,2.3l0,0c0,0,0,0.1,0.1,0.1c0.1,0.4,0.4,0.8,0.5,1.2l0.1,0.1l0,0
			c0.5,0.4,1.2-0.7,1.6-1.3c0.1-0.1,0.1-0.4,0.3-0.4c0.1-0.1,0.1-0.4,0.1-0.5s0-0.3,0-0.4C56.6,125.2,54.5,123.5,53.4,123.9z"/>
		<path fill="#FFFFFF" d="M56.7,126.3v-0.1V126.3z"/>
	</g>
	<path fill="#FFFFFF" d="M48.7,81.4c-0.1,0-0.3,0-0.4,0.1c-0.1,0-0.4,0.1-0.5,0.3s-0.4,0.4-0.7,0.7c-0.5,0.5-0.8,1.3-0.4,1.7
		l0.1,0.1c0.1,0,0.1,0.1,0.3,0.1c0,0,0.1,0,0.1,0.1c0,0,0,0,0.1,0c0.5,0.1,1.3,0.1,1.9,0.1h0.1c0,0,0,0,0.1,0c0.1,0,0.7,0,1.2-0.1
		c0.8-0.1,1.5-0.4,1.5-0.8C52.3,82.3,49.8,81.3,48.7,81.4z"/>
	<g>
		<path fill="#FFFFFF" d="M56.6,113.4L56.6,113.4C56.7,113.4,56.7,113.4,56.6,113.4z"/>
		<path fill="#FFFFFF" d="M56.6,113.4C56.5,113.4,56.5,113.4,56.6,113.4L56.6,113.4z"/>
		<path fill="#FFFFFF" d="M58,115.4c0-0.3-0.1-0.4-0.3-0.7c0-0.1-0.1-0.3-0.3-0.4c-0.1-0.4-0.4-0.7-0.7-0.7c0,0-0.1,0-0.1-0.1
			c0,0,0,0-0.1,0h-0.1l0,0l0,0c-0.7-0.1-1.7,0-2.3,0.5c-0.1,0.1-0.1,0.3-0.1,0.5c0,0,0,0,0-0.1c0,0,0,0,0,0.1s0,0,0,0l0,0v0.1
			c0,0,0,0.1,0.1,0.1c0,0,0,0.1,0.1,0.1l0,0c0.3,0.4,0.9,0.5,1.3,0.8c0.4,0.1,0.9,0.4,1.5,0.4c0,0,0,0,0.1,0h0.1c0.1,0,0.1,0,0.3,0
			c0.3,0,0.4-0.1,0.4-0.4C58.2,115.6,58,115.5,58,115.4z"/>
	</g>
	<g>
		<path fill="#FFFFFF" d="M67.6,59.4c0-0.1-0.1-0.1-0.3-0.1l0,0l0,0l0,0c-0.4,0-0.9,0.5-1.5,0.9c-0.4,0.3-0.7,0.5-0.8,0.5
			c-0.5,0.4-2.3,1.9-2.9,0.8c-1.1-1.2,4.1-3.2,4.3-4.3l0,0c0.1-0.5-2-0.8-2.3-0.8c-1.2,0-2.1,0.4-2.8,1.5c-0.7,0.9-1.2,2.1-1.3,3.3
			c-0.1,0.7-0.3,2,0.4,2.4c1.2,0.7,3.1,0.1,4.3-0.4c0,0,0,0,0.1,0c0,0,0,0,0.1,0c0.1-0.1,0.3-0.1,0.4-0.3c0,0,0.1,0,0.1-0.1
			c0.1,0,0.1-0.1,0.3-0.1l0.1-0.1c0.1,0,0.1-0.1,0.3-0.1l0.1-0.1c0.1-0.1,0.1-0.1,0.3-0.3l0.1-0.1c0.1-0.1,0.1-0.1,0.3-0.3
			c0,0,0-0.1,0.1-0.1c0-0.1,0.1-0.1,0.1-0.3v-0.1c0-0.1,0.1-0.3,0.1-0.4l0,0v-0.1v-0.1v-0.1v-0.1c0,0,0-0.1,0-0.3v-0.1
			C67.6,59.7,67.6,59.6,67.6,59.4z"/>
		<path fill="#FFFFFF" d="M67.1,59.4h0.1C67.2,59.3,67.2,59.3,67.1,59.4z"/>
	</g>
	<g>
		<path fill="#FFFFFF" d="M53.9,70.4h-0.1c-0.4,0-0.9,0.7-1.2,0.8c-0.1,0.1-0.1,0.1-0.3,0.3s-0.3,0.3-0.4,0.4
			c-0.1,0.1-0.3,0.3-0.4,0.4c-0.1,0.1-0.1,0.1-0.3,0.3c-0.8,0.8-2.1,2.1-2.3,3.3l0,0v0.1c0,0.1,0,0.1,0,0.3s0.1,0.1,0.1,0.3
			c0,0,0,0,0,0.1c0,0,0,0.1,0.1,0.1l0.1,0.1l0,0c0.4,0.4,0.9,0.8,1.5,0.8c0.7,0,1.3-0.7,1.7-1.2c0-0.1,0.1-0.1,0.1-0.1
			c0.1-0.1,0.3-0.4,0.4-0.5l0,0l0.1-0.1c0.5-0.9,0.9-2,1.2-3.1C54.3,71.4,54.5,70.5,53.9,70.4z"/>
		<path fill="#FFFFFF" d="M52.1,68.9L52.1,68.9c0.1-0.1,0.3-0.1,0.4-0.3c0,0,0,0,0.1-0.1c0.3-0.3,0.7-0.7,0.9-0.9
			c0.1-0.3,0.1-0.5,0-0.8l0,0c-0.3-0.1-0.4-0.4-0.7-0.5c-0.1-0.1-0.3-0.3-0.4-0.4c-0.4-0.5-0.8-1.1-1.3-1.5
			c-0.4-0.4-0.9-1.2-1.6-1.6l0,0c-0.1,0-0.1-0.1-0.3-0.1s-0.1,0-0.3,0c-0.7,0-0.9,1.1-1.2,1.5c-0.1,0.5-0.3,1.2-0.4,1.7
			c-0.1,0.5-0.1,1.1-0.1,1.6c-0.1,1.3,0.1,6,2.4,3.6C50.3,70.4,51.3,69.7,52.1,68.9z"/>
	</g>
	<path fill="#FFFFFF" d="M56.1,130.4c-0.1,0-0.4,0-0.7,0c-0.3,0-0.4,0.1-0.7,0.1h-0.1h-0.1c-0.8,0.1-3.1,0.7-2.5,1.9
		c0,0.1,0.1,0.3,0.3,0.4l0,0c0.3,0.4,0.7,0.8,1.1,1.2l0,0l0.1,0.1c0.3,0.3,0.8,0.7,1.2,0.8h0.1c0.1,0,0.3-0.1,0.4-0.3l0.1-0.1
		l0.1-0.1c0.1-0.1,0.3-0.4,0.4-0.5l0,0c0.4-0.7,0.7-1.5,0.7-2.3C56.5,131.4,56.5,130.7,56.1,130.4z"/>
	<path fill="#FFFFFF" d="M54.9,143.7c0,0-0.1,0-0.1-0.1c0,0-0.1,0-0.1-0.1c-0.1-0.1-0.4-0.1-0.7-0.1s-0.5,0-0.7,0.1l-0.1,0.1v0.1
		c0,0.1,0,0.1,0,0.3c0.1,0.5,0.5,1.2,0.8,1.3l0,0c0.1,0,0.3-0.3,0.4-0.4l0,0l0,0c0.1-0.1,0.1-0.3,0.3-0.4c0.1-0.3,0.3-0.4,0.4-0.7
		l0,0l0,0c0,0,0,0,0-0.1C55,143.9,55,143.9,54.9,143.7C55,143.7,54.9,143.7,54.9,143.7z"/>
	<path fill="#FFFFFF" d="M56.1,138.3L56.1,138.3c0-0.1,0.1-0.4,0-0.4c-0.1-0.1-0.4-0.1-0.5-0.3c-0.4,0-2-0.1-2.1,0.4
		c-0.1,0.4,0.7,2.1,1.2,2c0.1,0,0.3-0.1,0.4-0.3l0.1-0.1c0,0,0,0,0-0.1c0.1-0.1,0.3-0.4,0.5-0.7C55.9,138.7,56.1,138.6,56.1,138.3z"
		/>
	<path fill="#FFFFFF" d="M71.5,51.3c-0.1-0.1-0.3-0.1-0.4-0.3c-0.1,0-0.1-0.1-0.3-0.1c0,0,0,0-0.1,0c-0.8-0.4-1.7-0.4-2.4-0.5
		c-0.1,0-0.1,0-0.3,0c-0.4,0-1.9-0.1-2.4,0.4l0,0c0,0,0,0,0,0.1V51c0,0.4,0.1,0.8,0.1,1.2c0.3,1.5,1.2,3.1,2.1,3.1H68
		c1.5,0,3.6-2,3.7-3.5c0-0.1,0-0.3-0.1-0.4C71.6,51.3,71.6,51.3,71.5,51.3z"/>
	<path fill="#FFFFFF" d="M57.9,55C57.9,55,58.2,55.3,57.9,55c0-0.1-0.1-0.1-0.1-0.1l-0.1-0.1c-0.1,0-0.1-0.1-0.3-0.1h-0.1h-0.1
		c-0.7-0.1-1.3,0-2,0.1c-0.1,0-0.4,0.1-0.5,0.1s-0.3,0-0.3,0.1c-0.1,0-0.3,0.1-0.4,0.1c-0.1,0-0.1,0-0.3,0.1c-0.1,0-0.3,0.1-0.4,0.1
		c-0.1,0-0.1,0-0.3,0.1c-0.3,0.1-0.4,0.1-0.7,0.3c-0.1,0-0.3,0.1-0.4,0.1c0,0,0,0-0.1,0h-0.1c0,0-0.1,0-0.1,0.1c0,0,0,0-0.1,0
		s-0.1,0.1-0.3,0.1c0,0,0,0-0.1,0s-0.1,0.1-0.3,0.1l0,0c-0.1,0-0.1,0.1-0.1,0.1l0,0l-0.1,0.1l0,0c0,0,0,0.1-0.1,0.1c0,0,0,0,0,0.1
		s0,0.1,0,0.3l0,0c0,0.3,0,0.5,0,0.9l0,0c0,0.1,0,0.1,0.1,0.3c0,0,0,0,0,0.1c0,0.1,0,0.1,0.1,0.3v0.1V59c0,0.1,0.1,0.1,0.1,0.3
		c0,0,0,0.1,0.1,0.1c0,0,0,0.1,0.1,0.1c0.1,0.4,0.5,0.9,0.9,1.5c0.1,0.3,0.3,0.4,0.5,0.7c0.1,0.1,0.4,0.4,0.5,0.5
		c0.1,0.1,0.4,0.4,0.5,0.5c0.1,0,0.1,0.1,0.3,0.1c0.3,0.1,0.4,0.1,0.7,0.3c0.3,0,0.4,0,0.7,0c0.1,0,0.1-0.1,0.3-0.1
		c0.5-0.3,0.9-1.1,1.2-1.5c0.1-0.3,0.4-0.7,0.5-0.9c0.1-0.1,0.1-0.4,0.3-0.5c0-0.1,0-0.1,0.1-0.3s0.1-0.4,0.1-0.5v-0.1
		c0-0.1,0.1-0.3,0.1-0.4c0-0.1,0.1-0.4,0.1-0.5v-0.1c0.1-0.3,0.1-0.5,0.1-0.8c0-0.1,0-0.1,0-0.3s0-0.3,0.1-0.4v-0.1
		c0.1-0.5,0.1-0.9,0-1.3l0,0l0,0C57.9,55.2,57.9,55,57.9,55z"/>
	<path fill="#FFFFFF" d="M63,52.1h-0.1l0,0c-0.4-0.1-1.2,0-1.3,0s-0.3,0-0.4,0c-0.1,0-0.3,0-0.4,0h-0.1c-0.1,0-0.3,0-0.4,0.1H60
		c-0.1,0-0.3,0-0.3,0.1c-0.1,0-0.4,0.1-0.5,0.1c-0.4,0.1-0.3,0.8-0.3,1.1v0.1v0.1V54c0,0,0,0,0,0.1s0.1,0.4,0,0v0.1v0.1
		c0,0,0,0,0,0.1c0,0.1,0,0,0,0s0,0.1,0.1,0.1c0.1,0.1,0.1,0.3,0.3,0.3c0,0,0,0,0.1,0c0,0,0,0,0.1,0l0,0l0,0h0.1c0,0,0,0-0.1,0
		c0.4,0,0.8-0.3,0.9-0.4c0.1-0.1,0.3-0.1,0.4-0.3c0.1,0,0.1-0.1,0.3-0.1s0.1-0.1,0.3-0.1c0.1-0.1,0.1-0.1,0.3-0.3
		c0.1-0.1,0.1-0.1,0.3-0.3c0-0.1,0.1-0.1,0.1-0.3c0.1-0.1,0.3-0.4,0.4-0.5c0-0.1,0.1-0.1,0.1-0.3v-0.1v-0.1
		C63.1,52.2,63.1,52.1,63,52.1z"/>
	<path fill="#FFFFFF" d="M62.8,49.3h-0.1l0,0c-1.3-1.7-4.5-0.8-6.1-0.1c-1.7,0.7-2.9,2.1-4.1,3.5c-1.3,1.6-2.7,3.2-4.3,4.5
		c-0.4,0.4-1.6,0.3-2,0.3c-1.1,0.1-2.1,0.3-3.2,0.4c-2.3,0.4-4.5,1.1-6.8,1.9l-0.4,0.1v-0.1v-0.1c0.3-1.1,1.6-1.5,2.5-1.7h0.1
		c0.7-0.3,1.3-0.5,1.6-0.9c0.9-0.9,2.4-1.5,3.6-1.9c0.8-0.3,1.5-0.5,2.3-0.8c0.7-0.3,1.3-0.4,1.9-0.9c0.5-0.4-0.3-0.8-0.7-0.8
		c-0.7,0.1-1.3,0.4-2,0.7c-0.5,0.3-3.6,1.9-3.5,0.3c0-0.5,0.4-0.9,0.7-1.3c0.5-0.7,1.2-1.3,1.7-1.9c0.5-0.5,2.4-2.1,1.9-3.1
		c-1.3-2-4.9,6.1-6.3,6.1c-0.1,0-0.3-0.1-0.4-0.3c-0.5-0.8,0.3-2.7,0.5-3.5c0.3-0.7,0.4-1.3,0.5-2.1c0.1-0.4,0.3-1.1,0-1.5
		c0-0.1-0.1-0.1-0.1-0.1c-1.3-0.1-1.6,2.7-1.7,3.5c-0.1,0.9-0.3,2-0.4,2.9c0,0.3-0.1,1.2-0.5,1.3c-1.7,0.5-2.3-5.2-3.7-4.4
		c-1.1,0.5,0.5,2,0.9,2.5c0.8,1.1,1.3,2.1,1.5,3.5v0.1l-0.9,0.5c-5.1,3.1-7.5,4.5-7.3,7.6c0.3,1.1,2.1,1.3,2.9,1.5
		c1.6,0.3,3.2,0.4,4.7,0.5h0.7l-0.5,0.3C28.6,69,24.3,76.1,23.9,83.8c-0.4,8,2.9,15.9,7.6,22.2c1.6,2.1,3.5,4.1,5.3,6l0.1,0.1l0,0
		l0,0l-0.3,0.1c-1.2,0.4-2.4,1.1-3.1,2.3c-0.7,1.2-0.4,2.5,0.1,3.7c0.5,1.2,1.5,2.3,2.3,3.2c0.1,0.1,0.5,0.4,0.8,0.8
		c0.7,0.7,1.3,1.3,1.2,1.6c-0.4,0.3-0.7,0.4-1.2,0.4c-1.3-0.1-3.2-1.9-3.9-2.5c-0.7-0.5-3.7-3.7-4.5-2.3c0,0.1-0.1,0.1,0,0.3
		c0.1,0.7,1.1,1.2,1.6,1.5c0.9,0.5,1.9,1.1,2.8,1.6c0.8,0.4,2.1,1.1,2.4,2c0.3,1.1-1.7,0.4-2.1,0.4c-1.1-0.3-9.9-3.9-10.1-1.7
		c-0.1,0.5,0.9,0.9,1.3,1.1c1.2,0.4,2.4,0.7,3.6,0.9c1.3,0.3,2.8,0.4,4.1,0.7c0.4,0,3.5,0.4,2.9,1.2c-0.4,0.4-1.3,0.5-1.9,0.7
		c-0.8,0.1-1.5,0.3-2.1,0.5c-0.7,0.1-2.9,0.7-2.7,1.7c0.4,1.3,6.9-3.2,8-2l0.1,0.1c0.1,0.5-0.8,1.2-1.1,1.6
		c-0.3,0.4-0.7,0.8-0.9,1.3c-0.1,0.4-0.1,1.2,0.4,0.8c0.4-0.1,0.5-0.7,0.8-0.9c0.3-0.4,0.5-0.8,0.9-1.2c0.7-0.8,1.5-1.3,2.4-1.9
		c0.7-0.4,1.5-0.7,2.3-0.9c0.3,0,0.4-0.1,0.7-0.1c1.1-0.3,1.9-0.5,1.9-1.7c0-1.1-0.3-2.3-0.7-3.2c0-0.1-0.8-2.3,0-1.9l0,0l0,0
		c1.3,2.3,2.7,4.5,3.9,7.1c2.8,5.9,4.8,12.3,3.7,18.5c-1.2,6.9-6.1,11.6-12,14.8c-0.9,0.5-1.9,0.9-2.8,1.5c-0.7,0.4-1.5,0.7-2.1,1.2
		c-0.4,0.3-1.3,0.7-1.5,1.2c8.8-3.2,17.7-8.8,21.3-17.8c0-0.1,0.1-0.4,0.1-0.5s0.1-0.4,0.1-0.5h-0.1c-0.3,0-0.5-0.4-0.8-0.8
		c-0.3-0.4-0.4-0.9-0.3-1.2v-0.1c0-0.1,0.1-0.3,0.3-0.4c0.1-0.1,0.3-0.1,0.5-0.1c0.4,0,0.8,0,1.1,0.1c0.1-0.9,0.3-2,0.4-2.9
		c-0.1,0-0.1,0.1-0.3,0.1c-0.8,0.1-1.9-1.6-1.6-2.4c0.1-0.4,0.5-0.5,0.9-0.7c0.4-0.1,0.9-0.1,1.2-0.1c0-0.7,0-1.3,0-2
		c-0.1,0.1-0.3,0.1-0.4,0.1l0,0c-0.1,0-0.1,0-0.3,0s-0.1,0-0.3-0.1l0,0c-0.5-0.3-1.2-0.9-1.6-1.3c-0.4-0.4-0.8-0.8-0.9-1.3l0,0
		c0-0.1,0-0.1-0.1-0.3V132v-0.1c0-0.1,0-0.1,0-0.3c0.1-0.9,2.1-1.5,2.9-1.6c-0.1-0.5-0.3-1.2-0.5-1.7v-0.1c0-0.3-0.1-0.4-0.3-0.7
		c-2.4-7.6-7.3-14.3-12.3-20.4c-1.3-1.6-2.7-3.3-4-5.2v0.1c-1.6-2.3-3.2-4.7-4.4-7.2c-1.2-2.4-2-4.9-2.4-7.6c0,0,0,0,0-0.1
		s0-0.4-0.1-0.5c0-0.1,0-0.4,0-0.5v-0.1c-0.1-2-0.1-4,0.4-6c0.9-4.4,3.5-8,6.5-11.1l0,0c1.2-1.2,2.5-2.3,3.9-3.2
		c2.1-1.6,4.3-2.9,6.5-4.1l0,0c0.3-0.1,0.5-0.3,0.8-0.4c0.4-0.5,0.9-1.1,1.5-1.6c0-0.1-0.1-0.1-0.1-0.3c0,0,0,0,0-0.1
		s-0.1-0.1-0.1-0.3v-0.1c0-0.1,0-0.1,0-0.3v-0.1v-0.1c0-0.1,0-0.1,0-0.3v-0.1c0-0.1,0-0.1,0-0.3c0,0,0,0,0-0.1s0-0.1,0-0.3V57
		c0-0.1,0-0.1,0-0.1v-0.1c0,0,0-0.1,0.1-0.1c0,0,0,0,0-0.1l0.1-0.1l0,0c0.5-0.5,1.3-0.8,2-1.1c0.1,0,0.1,0,0.3-0.1
		c0.1,0,0.3-0.1,0.4-0.1c0.1,0,0.3-0.1,0.4-0.1c0.1,0,0.3-0.1,0.4-0.1c0.1,0,0.3-0.1,0.4-0.1c0.1,0,0.3,0,0.4-0.1
		c0.1,0,0.3,0,0.4-0.1c0.1,0,0.1,0,0.3,0c0.5-0.1,1.3-0.3,2-0.3l0,0c0.1,0,0.1,0,0.3,0h0.1h0.1c0.1,0,0.3,0.1,0.4,0.1
		c0.3-0.1,0.7-0.3,0.9-0.4c-0.1-0.5-0.1-1.3,0.4-1.6c0.5-0.3,4.5-1.3,4.5-0.1c0.7-0.1,1.2-0.3,1.9-0.4c0-0.3-0.1-0.7-0.1-0.9
		c0-0.1,0-0.1,0-0.1s0,0,0-0.1l0,0c0,0,0-0.1,0.1-0.1l0,0c0.5-0.7,2.1-0.5,2.8-0.4l0,0c0.7,0,1.5,0.1,2.3,0.4c0.1,0,0.3,0.1,0.4,0.1
		c0,0,0.1,0,0.1,0.1c0.1,0,0.1,0.1,0.3,0.1c0.1,0.1,0.3,0.1,0.4,0.3c0.4,0,0.7,0,1.1,0c-1.3-0.8-2.9-1.1-4.5-1.3
		C66.6,49.4,64.7,49.4,62.8,49.3z M34.1,63.4c0,0.1-0.1,0.1-0.1,0.3c0.3-0.3-0.1,0.1,0,0c-0.9,1.2-4,0.7-4.8-0.7
		c-0.5-0.8,0.4-1.5,1.2-2c0.3-0.1,0.5-0.3,0.9-0.4c0,0,0,0,0.1,0l0,0h0.1c-0.3,0-0.5,0.1,0.1,0c0.1,0,0.1,0,0,0
		c0.7,0,1.2,0.4,1.6,0.9l0.1,0.1C33.8,62,34.3,62.8,34.1,63.4z M36.7,61.4c0-0.1,0-0.1,0-0.3l0,0V61c0.3-0.8,1.1-1.1,1.7-1.2
		c0.4-0.1,1.7-0.4,2.1,0l0,0l0,0c0,0,0,0,0,0.1s0,0.1,0,0.3c-0.1,0.5-0.8,1.2-1.2,1.6c-0.4,0.4-0.9,1.2-1.6,1.3c-0.1,0-0.1,0-0.3,0
		s-0.1,0-0.3-0.1c0,0,0,0-0.1,0c0,0,0,0-0.1,0c-0.3-0.1-0.4-0.4-0.4-0.8c0-0.1,0-0.1,0-0.3l0,0l0,0v-0.1v-0.1
		C36.7,61.6,36.7,61.4,36.7,61.4z M35.9,117.4c-0.4-0.3-0.8-0.5-1.1-0.9c-0.1-0.3-0.4-0.4-0.4-0.7l0,0l0,0c0,0,0,0,0-0.1
		c0,0,0,0,0-0.1c0.1-0.5,1.2-1.1,1.7-1.3c0.3-0.1,0.8-0.5,1.2-0.8s0.9-0.4,1.2-0.3l0,0c0,0,0,0,0.1,0l0,0l0.1,0.1c0,0,0,0,0.1,0.1
		c0,0,0,0.1,0.1,0.1c0,0,0,0.1,0.1,0.1l0,0c0.1,0.5,0.1,1.1,0.1,1.6c0,0.5-0.1,2.3-0.7,2.7h-0.1c-0.3,0.1-0.4,0.1-0.7,0.1
		c-0.1,0-0.4,0-0.5-0.1C36.9,117.9,36.3,117.6,35.9,117.4z M40.2,122.6c-0.8,0-1.5-0.4-2-0.9l0,0l0,0c-0.1-0.1-0.5-0.5-0.7-0.9
		c0-0.1,0-0.3,0-0.4c0,0,0,0,0-0.1s0,0,0,0c0.4-0.8,1.7-1.2,2.8-1.1c0,0,0,0,0.1,0c0,0,0,0,0.1,0h0.1l0,0c0,0,0.1,0,0.1,0.1l0.1,0.1
		c0.1,0.1,0.3,0.5,0.3,0.8C41.3,121.1,40.9,122.6,40.2,122.6z M51.7,124.8C51.7,124.7,51.7,124.7,51.7,124.8
		c0.3,0.3,0.3,0.3,0.3,0.1l0,0l0.1,0.1l0,0c0.3,0.5,0.5,1.2,0.7,1.7c0,0.1,0.1,0.4,0.1,0.5c0.1,0.5,0.1,1.1,0.1,1.5c0,0,0,0,0,0.1
		s0,0.1,0,0.1c0,0.1-0.1,0.1-0.1,0.3l-0.1,0.1c-0.3,0.1-0.8,0.1-1.2,0c-0.8-0.3-1.7-0.9-1.9-1.7l0,0c0-0.1,0-0.1,0-0.3l0,0
		C49.8,127,50.9,124.4,51.7,124.8z M47.5,118.8c0.1,0,0.1-0.1,0.3-0.1c0.8-0.1,1.6,1.2,1.9,1.7c0,0.1,0.1,0.1,0.1,0.3
		c0.1,0.1,0.3,0.4,0.4,0.5c0.1,0.1,0.3,0.4,0.3,0.5c0.1,0.1,0.1,0.4,0.3,0.5c0,0.1,0,0.1,0.1,0.3c0,1.2-3.5,2-4.1,1.2
		c0-0.1-0.1-0.3-0.1-0.4v-0.1c0-0.1,0-0.1-0.1-0.3v-0.1v-0.1v-0.1v-0.1c0-0.1,0-0.1,0-0.3V122c0-0.1,0-0.1,0-0.3v-0.1
		c0-0.1,0-0.1,0-0.3v-0.1v-0.1l0,0C46.6,120.4,46.9,119.2,47.5,118.8z M42.1,112.3C42.2,112.3,42.2,112.3,42.1,112.3
		c0.1,0,0.1,0,0.1-0.1h0.1c-0.5,0.1,0.1,0,0,0h0.1c0.1,0,0.4,0,0.5,0.1c0.1,0,0.4,0.1,0.5,0.3c0.4,0.3,0.7,0.5,0.9,0.8
		c0.1,0.1,0.3,0.3,0.4,0.4c0.4,0.5,0.9,1.1,1.3,1.7c0.3,0.4,0.4,0.8,0.5,1.2l0,0c0,0.3,0,0.1,0,0.1s0,0,0,0.1c0,0,0,0,0,0.1l0,0
		c-0.4,0.7-2,0.9-2.5,1.1c-0.8,0.1-1.7,0.4-2.7,0.1c0,0,0,0-0.1,0s-0.1,0-0.3,0s-0.3-0.1-0.4-0.1c0,0-0.1,0-0.1-0.1l0,0
		c0,0,0,0-0.1-0.1l0,0c0,0,0,0,0-0.1c0,0,0,0,0-0.1s0,0,0-0.1v-0.1l0,0c0-0.8,0.3-1.9,0.4-2.4C41,114,41.4,112.7,42.1,112.3z
		 M36.9,107.2c0-0.8,0-1.7,0.5-2.3c0,0,0,0,0.1-0.1l0,0c0,0,0,0,0.1,0h0.1h0.1h0.1l0,0c0.8,0.1,1.7,1.6,2.1,2.3
		c0.1,0.3,0.4,0.5,0.5,0.8c0,0,0,0.1,0.1,0.1c0,0,0,0,0,0.1c0.1,0.1,0.1,0.4,0.3,0.5l0,0l0,0v0.1c0.1,0.4,0,0.7-0.4,0.9
		c-0.1,0.1-0.4,0.3-0.5,0.4c-0.5,0.3-1.5,0.8-2.1,0.8c-0.1,0-0.3,0-0.4,0c-0.1,0-0.4-0.1-0.4-0.4c-0.3-0.5-0.4-1.5-0.4-2.1
		c0-0.3,0-0.7,0-0.9C36.9,107.4,36.9,107.4,36.9,107.2z M31.9,98.1L31.9,98.1c0.4-0.1,0.9,0.3,1.6,0.8c0.7,0.7,1.2,1.3,1.7,2
		c0.4,0.5,1.1,1.3,1.2,2.1v0.1l0,0v0.1c-0.4,1.2-4.3,1.5-4.9,0.7C30.9,102.9,30.7,98.9,31.9,98.1z M31.5,98.2
		C31.4,98.2,31.4,98.3,31.5,98.2L31.5,98.2z M30.6,91.3c0,0.1,0.1,0.3,0.1,0.4c0.1,0.5,0.4,1.2,0.5,1.7c0,0,0,0,0,0.1s0,0.1,0,0.3
		s0,0.3,0.1,0.4l0,0c0,0.1,0,0.3,0,0.4v0.1v0.1c0,0.1,0,0.1,0,0.3s0,0.1-0.1,0.3s-0.1,0.1-0.1,0.1c-0.3,0.1-0.7,0.1-1.1,0
		c-1.6-0.5-4.1-2.8-4.3-3.7v-0.1c0-1.2,0.8-2.7,1.5-3.6c0.4-0.4,0.8-0.9,1.2-0.9l0,0c0,0,0,0,0.1,0c0.3,0,0.4,0.1,0.7,0.4l0,0l0,0
		c0,0.1,0.1,0.1,0.1,0.3c0.3,0.5,0.5,1.1,0.8,1.6c0,0,0,0.1,0.1,0.1c0,0.1,0.1,0.4,0.1,0.7C30.5,90.7,30.5,91,30.6,91.3z M28.7,84.2
		c0.1-0.1,0.1-0.1-0.1,0.3c-0.4,0.5-0.4,0.4-0.1,0.1l0,0l0,0c-0.4,0.1-0.8,0-1.2-0.4l0,0c0,0,0,0-0.1-0.1c0,0,0,0-0.1-0.1l0,0
		c-0.1-0.1-0.4-0.4-0.4-0.5l0,0c0,0,0-0.1-0.1-0.1c-0.1,0,0,0,0-0.1c0-0.1-0.1-0.1-0.1-0.3c0,0,0-0.1-0.1-0.1c0-0.1-0.1-0.1-0.1-0.3
		c0,0,0,0,0-0.1s-0.1-0.1-0.1-0.3v-0.1c0-0.1-0.1-0.1-0.1-0.3v-0.1c0-0.1,0-0.1,0-0.3s0-0.1,0-0.3v-0.1c0-0.1,0-0.1,0-0.3v-0.1
		c0-0.1,0-0.1,0-0.3v-0.1c0,0,0,0,0-0.1s0,0,0,0s0,0,0-0.1c0.3-0.8,0.9-1.6,1.6-2.3c0.1-0.1,0.3-0.3,0.4-0.4c0.1,0,0.1-0.1,0.3-0.1
		l0.1-0.1c0.1,0,0.1-0.1,0.3-0.1c0,0,0.1,0,0.1-0.1c0,0,0.1,0,0.1-0.1l0,0c0,0,0.3-0.1,0.5-0.4l0,0c0,0,0.1,0,0.1-0.1c0,0,0,0,0.1,0
		l0,0c0,0,0.1,0,0.1-0.1l0,0c0,0,0.1,0,0.1-0.1c0.3-0.1,0.5-0.3,0.8-0.3h0.1l0,0h0.1l0,0l0,0c0,0,0,0,0,0.1
		C31,76.5,29.5,82.3,28.7,84.2z M35,70.5c-0.3,0.4-0.5,0.9-0.8,1.3c-0.4,0.5-0.8,1.2-1.3,1.7c-0.3,0.3-0.5,0.5-0.8,0.5
		c0,0,0,0-0.1,0c-0.8,0.1-2.3,0.1-2.9-0.4c-0.1-0.1-0.3-0.3-0.4-0.4l0,0v-0.1c0-0.1,0-0.1,0-0.3c0.1-0.8,1.1-1.5,1.6-1.9
		c0.1-0.1,0.4-0.3,0.7-0.4c0.1,0,0.3-0.1,0.3-0.1c0.1,0,0.1-0.1,0.3-0.1c0.1-0.1,0.4-0.1,0.5-0.3c0.1,0,0.1-0.1,0.3-0.1
		s0.3-0.1,0.4-0.1c0.3-0.1,0.4-0.1,0.7-0.3c0.4-0.1,1.2-0.4,1.6-0.4l0,0C35.7,69,35.3,69.8,35,70.5z M41.8,65
		c-0.3,0.3-0.7,0.5-1.1,0.8L40.6,66l0,0c-0.4,0.3-0.8,0.5-1.2,0.8c-0.1,0.1-0.3,0.1-0.4,0.3l-0.1,0.1c-0.3,0.1-0.8,0.7-1.2,0.8
		c0,0,0,0-0.1,0h-0.1c0,0-0.4,0.1,0,0c-0.4,0.1-3.1,0-2.4-0.8c0,0,0-0.1,0.1-0.1c0.4-0.4,1.2-0.8,1.6-0.9c0,0,0.1,0,0.1-0.1
		c0.4-0.1,0.8-0.4,1.2-0.5c0,0,0.1,0,0.1-0.1c0.9-0.4,2-1.1,3.1-1.3c0.3-0.1,0.7-0.1,0.9-0.1l0,0c0,0,0,0,0.1,0l0,0
		C43,64,42.2,64.8,41.8,65z M47.5,60.4L47.5,60.4c-0.1,0.3-0.4,0.4-0.5,0.5c-0.3,0.1-0.5,0.3-0.7,0.3c-0.7,0.3-1.3,0.4-1.9,0.5
		s-1.3,0.4-2,0.5c-0.3,0-0.7,0.1-0.9,0c-0.1,0-0.3,0-0.4,0c-0.4,0,0.4-0.8,0.5-0.9c0.3-0.3,0.7-0.5,0.9-0.9c0.1-0.1,0.3-0.3,0.4-0.4
		c0.1-0.1,0.4-0.3,0.5-0.4c0.1-0.1,0.4-0.3,0.5-0.4c0.1,0,0.1-0.1,0.3-0.1l0.1-0.1c0.3-0.1,0.5-0.4,0.9-0.5h0.1l0,0l0,0
		c0.1,0,0.1,0,0.3,0h0.1c0,0,0,0,0.1,0c0.3,0,0.5,0.1,0.8,0.3C47.4,59.2,47.7,59.8,47.5,60.4z"/>
</g>
</svg>
