<?xml version="1.0" encoding="utf-8"?>
<!-- Generator: Adobe Illustrator 18.0.0, SVG Export Plug-In . SVG Version: 6.00 Build 0)  -->
<!DOCTYPE svg PUBLIC "-//W3C//DTD SVG 1.1//EN" "http://www.w3.org/Graphics/SVG/1.1/DTD/svg11.dtd">
<svg version="1.1" id="Layer_1" xmlns="http://www.w3.org/2000/svg" xmlns:xlink="http://www.w3.org/1999/xlink" x="0px" y="0px"
	 viewBox="0 60 256 256" enable-background="new 0 60 256 256" xml:space="preserve">
<g>
	<g>
		<path fill="#546E7A" d="M256,153c0-0.1,0.2-1.3-0.6-2.3c-0.7-0.8-1.8-1.2-3.3-1.3c-4.2-0.1-9.5,0-9.5,0l-0.3,0v72l0.3,0
			c0,0,2.5,0.1,5.5,0.1c1.7,0,3.3,0,4.6-0.1c1.1,0.1,2-0.1,2.5-0.8c1-1.1,0.8-3,0.8-3.1L256,153z M254.6,220.1
			c-0.4,0.4-0.9,0.6-1.5,0.6c-0.1,0-0.3,0-0.5,0c-1.3,0.1-2.9,0.1-4.6,0.1c-2.3,0-4.3-0.1-5.1-0.1v-70.6c1.2,0,5.6-0.1,9.2,0
			c1.3,0,2.3,0.4,2.8,1c0.6,0.8,0.5,1.7,0.5,1.8v64.6C255.3,217.5,255.5,219.2,254.6,220.1z"/>
	</g>
	<g>
		<path fill="#546E7A" d="M247.9,162.2v-3.1h3.8v-1h-3.8v-2.9h4.3v-1h-5.4v8.9h5.7v-1H247.9z"/>
		<path fill="#546E7A" d="M248.6,172.3l4.2-4.4h-1.1l-4.1,4.4h0v-4.4h-1.1v8.9h1.1v-4.4h0l4.3,4.4h1.1L248.6,172.3z"/>
		<path fill="#546E7A" d="M250.1,186.7L250.1,186.7c0.3-0.1,0.7-0.2,1-0.3c0.3-0.1,0.5-0.3,0.7-0.5c0.2-0.2,0.4-0.5,0.5-0.7
			c0.1-0.3,0.2-0.6,0.2-1c0-0.6-0.2-1.1-0.5-1.5c-0.3-0.4-0.8-0.7-1.4-0.9c-0.2-0.1-0.5-0.1-0.7-0.1c-0.3,0-0.6,0-1,0h-2.3v8.9h1.1
			v-3.7h1.3l2.8,3.7h1.1L250.1,186.7z M248.7,185.8h-1.1v-3.3h1.2c0.3,0,0.6,0,0.8,0c0.2,0,0.4,0.1,0.6,0.1c0.3,0.1,0.6,0.3,0.8,0.5
			c0.2,0.2,0.3,0.5,0.3,0.9c0,0.4-0.1,0.7-0.3,1c-0.2,0.3-0.5,0.4-0.9,0.5c-0.2,0.1-0.4,0.1-0.6,0.1
			C249.3,185.8,249,185.8,248.7,185.8z"/>
		<path fill="#546E7A" d="M249.9,195.2H249l-3.6,8.9h1.2l1.1-2.7h3.7l1.1,2.7h1.2L249.9,195.2z M248,200.5l0.3-0.8
			c0.4-0.9,0.7-1.9,1.1-3h0c0.4,1.1,0.8,2.1,1.1,3l0.3,0.8H248z"/>
		<path fill="#546E7A" d="M252,208.9v4.7c0,0.9,0,1.8,0.1,2.7h0c-0.5-0.8-1.1-1.6-1.6-2.4l-3.5-5h-1.1v8.9h1.1v-4.6
			c0-1.1,0-2-0.1-2.8h0c0.5,0.7,1,1.6,1.6,2.4l3.5,5h1.1v-8.9H252z"/>
	</g>
	<g>
		<path fill="#546E7A" d="M60.5,170.7h-6.4v-11.2h4.7c1.2,0,2.2,0,3,0.1c0.9,0.1,1.6,0.2,2.3,0.4c1.3,0.4,2.3,1,2.9,1.8
			c0.6,0.8,0.9,1.9,0.9,3.1c0,1.2-0.3,2.3-0.9,3.2c-0.6,0.9-1.5,1.6-2.8,2c-0.5,0.2-1,0.3-1.6,0.3C62,170.7,61.3,170.7,60.5,170.7z"
			/>
		<path fill="#546E7A" d="M59.2,186.5h-5.1v-12h6.6c1,0,1.8,0,2.5,0.1c0.7,0.1,1.3,0.1,1.8,0.3c0.9,0.2,1.6,0.5,2.2,0.8
			c0.6,0.3,1,0.7,1.4,1.2c0.3,0.5,0.6,1,0.8,1.5c0.2,0.6,0.2,1.2,0.2,1.8c0,0.6-0.1,1.1-0.2,1.7c-0.2,0.6-0.4,1.1-0.7,1.6
			c-0.3,0.5-0.8,0.9-1.3,1.3c-0.6,0.4-1.2,0.7-2,1c-0.7,0.2-1.6,0.4-2.6,0.5C61.5,186.5,60.4,186.5,59.2,186.5z"/>
		<path fill="#546E7A" d="M8.2,202.9c0,0.4,0,0.8,0,1.2c0.5,0.1,1,0.2,1.2,0.2c0.1,0,0.2,0,0.2-0.1C9.7,203.9,9,203.4,8.2,202.9z
			 M8.2,190.8c0,1.8,0,3.5,0,5.2c0.3-1,1.2-1.8,2.7-2.3C9.9,192.7,9,191.7,8.2,190.8z M11.3,202.4c-1-1-2.6-2.8-3.1-4.5
			c0,1.1,0,2.3,0,3.3c1.2,1,2.5,2.1,3.4,2.1c0.2,0,0.3,0,0.5-0.2C11.9,203,11.6,202.7,11.3,202.4z M13.4,175.8
			c-0.4-1.2-3.6-2.9-5.2-3c0,1.7,0,3.5,0,5.2v0c0.4,0.7,0.9,1.2,1.5,1.2C11.4,179.1,13.9,177.2,13.4,175.8z M8.6,164.5
			c-0.2,0-0.3,0.1-0.5,0.2c0,2.1,0,4.4,0,6.8c1.9,0.4,5.2-0.4,5.3-1.4C13.8,168.6,10.1,164.2,8.6,164.5z M12,159.5
			c-1.3,0.3-2.8,2.8-2.5,3.8c0.3,1.2,4.2,3.3,5.6,3C16.4,166.1,13.2,159.2,12,159.5z M10.3,181.1c-0.1,1.1,1.6,3.8,2.8,3.8
			c0.5-0.1,2.8-1.5,2.6-2.5C15.5,180.8,10.3,179.9,10.3,181.1z M16.9,155.5c-1.3,0.3-3.8,2.1-3.6,3.2c0.4,1.2,2.9,4.9,4.2,4.6
			C18.9,163.2,18.3,155.2,16.9,155.5z M19.4,188.2c-0.1-1.3-5.2-3-5.6-2.3c-0.4,0.8,1.9,4.4,3,4C18.1,189.6,19.6,188.9,19.4,188.2z
			 M21.4,149.4c0,0.4,0.1,0.8,0.2,1.1c0.1,0.2,0.1,0.4,0.2,0.5c0,0,0,0.1,0.1,0.1c0,0,0,0.1,0.1,0.1c0.7,1.4,2.2,2.9,3.2,2.9
			c0.1,0,0.2,0,0.3,0c0.7-0.2,1.7-2,2.4-3.9c0.1-0.3,0.2-0.5,0.2-0.8H21.4z M21.3,150.6c-0.1-0.4-0.2-0.8-0.2-1.1h-4.1
			c-1.6,0.2-4,0.6-6.9,1.7l-0.3,0.1l0.1-0.3c0.2-0.8,1.2-1.2,2-1.5c0,0,0.1,0,0.1,0H8.1c0,0,0,1.1,0,3.1c0.5,0.6,0.8,1.5,0.5,1.8
			c-0.1,0.2-0.3,0.3-0.5,0.3c0,0.3,0,0.6,0,1c0.5,0,1,0.1,1.4,0.1c0.2,0,0.4,0,0.6,0l0.5,0l-0.5,0.2c-0.7,0.3-1.4,0.7-2,1.1
			c0,0.6,0,1.2,0,1.8c0.9-0.3,1.6-0.4,1.7-0.2c0.1,0.4-0.8,1.9-1.7,3c0,0.3,0,0.6,0,0.9c2.4-3.8,6.5-7.2,12.3-10.2
			c0.4-0.4,0.8-0.9,1.2-1.2C21.5,151,21.4,150.8,21.3,150.6z M11.4,151.7c0.8-0.5,2.6-0.8,2.8-0.3c0,0.5-2,2.6-2.5,2.6
			C10.7,153.9,10.6,152.2,11.4,151.7z M11.4,157.9c-0.4,0.1-2.5,0-2-0.7c0.1-0.3,5.7-3.3,6.2-2.5C15.9,155.1,11.6,157.9,11.4,157.9z
			 M19.6,151.8c-0.3,0.8-4.6,1.7-5.3,1.6c-0.7,0,2.6-2.9,3.7-3.2C19.2,149.9,19.7,151.3,19.6,151.8z M22.1,189.7
			c-0.3-1.2-4.2,1.7-4.1,2.9c0.3,1.2,2,3.5,3,3.3C22.1,195.7,22.2,190.9,22.1,189.7z M20.4,168.7c-1.1,0.3-2.1,1.9-1.3,2.4
			c0.9,0.7,4.5,0.1,4.4-0.5C23.4,169.8,21.4,168.5,20.4,168.7z M24.3,157c-0.9-0.8-2.8-3.4-3.6-3.4c-1.6-0.1-2.4,9.9,0.5,6.9
			C22.4,159.2,25,157.6,24.3,157z M24.7,159.7c-0.5-0.1-4.4,3.3-4.1,4.8c0.3,0.5,1.2,1.5,1.9,1.1C24.6,164.4,25.5,160.1,24.7,159.7z
			 M24.9,199.4c-0.4-0.3-2.9-2.1-3.2-1.7c-0.3,0.3,1.3,4.2,2.1,4.2C24.5,201.9,25.5,199.6,24.9,199.4z M25.9,192.2
			c-0.1-0.9-1.7-3.4-2.4-3.6c-0.8,0-0.7,3.8-0.4,4.8C23.3,194.5,26.2,193.3,25.9,192.2z M26,199.9c0.6,1.5,1.1,2.9,1.6,4.3
			C27.1,202.8,26.6,201.4,26,199.9z M27,204.9c-0.1-0.8-2.2-2.4-2.9-1.6c-0.1,0.1-0.1,0.4,0,0.7c0,0,0,0,0,0
			c0.1,0.5,0.4,1.2,0.7,1.8l0,0c0.2,0.5,0.4,1,0.5,1.1C25.8,207.8,27.1,205.7,27,204.9z M26.5,208.4c0,0,0,0-0.2,0
			c-0.2,0-0.5,0-0.8,0.1c0,0-0.1,0-0.1,0c0,0-0.1,0-0.1,0c-1,0.2-2.1,0.7-2.2,1.1c0,0.3,0.2,0.8,0.7,1.4c0.6,0.7,1.4,1.2,1.7,1.3
			c0.1,0,0.2-0.1,0.3-0.2c0,0,0.1-0.1,0.1-0.1c0,0,0.1-0.1,0.1-0.2c0.3-0.4,0.5-0.9,0.7-1.5C26.9,209.3,26.8,208.6,26.5,208.4z
			 M25.3,216.5c-0.3,0-0.6-0.3-0.8-0.6c-0.3-0.4-0.6-1.1-0.5-1.3c0.1-0.4,0.8-0.6,1.5-0.6c0.1,0,0.1,0,0.2,0c0-0.5,0-1.1,0-1.6
			c-0.1,0.1-0.2,0.1-0.3,0.1h0c-0.5,0-1.3-0.7-1.9-1.3c-0.3-0.4-0.8-1.1-0.8-1.6c0.1-0.6,1.3-1.1,2.4-1.3c-1.4-5.9-5.1-12-11.6-19.9
			c-2.3-2.8-4.1-5.4-5.3-8c0,0.8,0,1.7,0,2.5c1,1,2.3,2.7,2.4,3.4c0.2,0.7-1.2,1.1-2.4,1.1c0,1,0,2,0,3c0.9,1.1,1.9,2.2,3,3.2
			l0.2,0.1l-0.2,0.1c-1.6,0.6-2.5,1.5-2.8,2.5c-0.5,2.1,1.9,4.6,3.2,5.9c0.7,0.7,0.8,0.9,0.7,1.1c-0.2,0.2-0.5,0.3-0.7,0.3
			c-0.5,0-1.1-0.3-1.7-0.7c-0.5-0.4-1.1-0.8-1.7-1.3c0,0.3,0,0.7,0,1c1,0.6,1.8,1.2,1.7,1.7c0,0.1-0.1,0.3-0.5,0.3
			c-0.3,0-0.7-0.1-1.2-0.2c0,0.3,0,0.6,0,0.9c1.1,0.2,1.6,0.3,1.6,0.6c0.1,0.3-0.4,0.5-1.6,0.8c0,0.2,0,0.5,0,0.7
			c0.8-0.4,1.6-0.7,2.1-0.7c0.2,0,0.3,0,0.4,0.2c0,0,0.1,0.1,0.1,0.1c0,0.2-0.2,0.5-0.7,1.1c-0.5,0.6-1.1,1.4-1,1.8
			c0,0.1,0.1,0.1,0.2,0.2c0.1,0,0.1,0,0.2,0c0.2,0,0.4-0.2,0.7-0.7c0.6-0.9,1.8-2.7,5.8-3.6c0.3-0.1,0.5-0.2,0.6-0.4
			c0.5-0.9-0.1-2.7-0.4-3.8c-0.2-0.8-0.3-1-0.2-1.2c0.1-0.1,0.2-0.1,0.3,0l0,0c5.1,8.3,7.1,15.3,6.1,20.9h2.5c0-0.2,0.1-0.3,0.1-0.5
			c0,0,0,0-0.1,0c0,0,0,0-0.1,0c-0.1,0-0.2-0.1-0.4-0.3c-0.3-0.4-0.6-1.1-0.5-1.4c0.1-0.3,0.3-0.4,0.8-0.4c0.2,0,0.5,0.1,0.7,0.1
			c0.2-0.8,0.3-1.6,0.3-2.4C25.6,216.4,25.5,216.5,25.3,216.5C25.4,216.5,25.4,216.5,25.3,216.5z M11.6,187.7
			c0.8-0.3,2.8,2.8,2.9,3.4c0.1,0.7-2.8,2-3,1.5C10.8,191.3,10.7,187.8,11.6,187.7z M9,196.6c-0.1-0.5,2.9-2.3,3.3-2.1
			c1.2,0.4,0.5,3.8,0,4C11.1,198.8,9.1,197.2,9,196.6z M13.6,202c-1.1,0-2.6-1.5-2.3-2c0.3-0.5,2-1.3,2.8-0.7
			C14.7,199.9,14.3,202,13.6,202z M13.9,198c-0.1-1.1,0.5-4.2,1.6-4.4c1.1-0.3,3.3,2.4,3.6,3.6C19.2,198.3,14,199.1,13.9,198z
			 M19.1,203.2c-0.9-1.6,0-4.1,0.8-4.2c0.9-0.1,2.4,2.8,2.5,3.3C22.4,203.2,19.6,203.9,19.1,203.2z M21.3,206.1
			c0.1-0.8,1.2-2.7,1.7-2.3c0.7,0.7,1.3,3.3,0.8,3.8C23.4,208.2,21.2,207.3,21.3,206.1z M25.6,214.2c-0.6,0-1.2,0.2-1.2,0.4
			c-0.1,0.2,0.1,0.7,0.4,1.1c0.2,0.3,0.5,0.5,0.6,0.4c0.1,0,0.2-0.1,0.3-0.2c0.1-0.6,0.1-1.2,0.1-1.8
			C25.7,214.2,25.7,214.2,25.6,214.2z M26.5,214.5c-0.1-0.1-0.3-0.1-0.5-0.2c0,0-0.1,0-0.1,0c0,0-0.1,0-0.1,0c-0.1,0-0.1,0-0.2,0
			c-0.6,0-1.2,0.2-1.2,0.4c-0.1,0.2,0.1,0.7,0.4,1.1c0.2,0.3,0.5,0.5,0.6,0.4c0.1,0,0.2-0.1,0.3-0.2c0,0,0.1-0.1,0.2-0.1
			c0.1-0.1,0.1-0.1,0.2-0.2c0.2-0.3,0.4-0.6,0.5-0.9C26.6,214.6,26.5,214.5,26.5,214.5z M25.6,219.2
			C25.6,219.2,25.5,219.2,25.6,219.2c-0.1-0.1-0.2-0.1-0.2-0.1c0,0-0.1,0-0.1-0.1c-0.2-0.1-0.4-0.1-0.7-0.1c-0.2,0-0.5,0-0.5,0.2
			c0,0.1,0,0.5,0.2,0.9c0.2,0.4,0.4,0.5,0.4,0.5l0,0c0,0,0.1,0,0.1-0.1c0.1,0,0.1-0.1,0.2-0.2l0,0v0c0.1-0.1,0.1-0.2,0.2-0.3
			c0.1-0.2,0.2-0.4,0.3-0.6C25.6,219.3,25.6,219.2,25.6,219.2z M27.3,194.7c-0.7-0.4-2.5,0-2.2,0.9c0.1,0.5,2,1.3,2.8,1.2
			C28.6,196.8,27.9,195,27.3,194.7z M31.5,152.8c-0.8-0.9,3.3-2.6,3.4-3.4h-3.6c-1.3,1.3-2.2,4.5-1.3,5.1c1.6,0.9,6.1-0.8,5.8-3.6
			C35.7,150.1,32.4,154.2,31.5,152.8z M74.7,199.2l-3.2,10.1h6.6L74.7,199.2z M107.7,199.2l-3.2,10.1h6.6L107.7,199.2z M148.2,199.2
			l-3.2,10.1h6.6L148.2,199.2z M192.1,203.7c-0.2-1-0.6-1.9-1.2-2.6c-0.5-0.7-1.3-1.2-2.2-1.6c-0.9-0.4-2.1-0.6-3.5-0.6h-3.5v16.5
			h3.5c1.4,0,2.6-0.2,3.5-0.6c0.9-0.4,1.7-0.9,2.2-1.6c0.6-0.7,0.9-1.6,1.2-2.6c0.2-1,0.3-2.2,0.3-3.5
			C192.4,205.9,192.3,204.7,192.1,203.7z M218.5,172.9c-1.4-3.6-2.9-7.5-4.3-11.7h-0.1c-1.5,4.3-3,8.2-4.4,11.7l-1.3,3.3h11.5
			L218.5,172.9z M228.3,199.7c-0.7-0.6-1.7-0.9-3.1-0.9h-6.1v7.4h5.7c0.8,0,1.5-0.1,2-0.2c0.6-0.1,1-0.3,1.4-0.6
			c0.4-0.3,0.6-0.7,0.8-1.2c0.2-0.5,0.3-1.1,0.3-1.8C229.4,201.2,229,200.3,228.3,199.7z M228.3,199.7c-0.7-0.6-1.7-0.9-3.1-0.9
			h-6.1v7.4h5.7c0.8,0,1.5-0.1,2-0.2c0.6-0.1,1-0.3,1.4-0.6c0.4-0.3,0.6-0.7,0.8-1.2c0.2-0.5,0.3-1.1,0.3-1.8
			C229.4,201.2,229,200.3,228.3,199.7z M218.5,172.9c-1.4-3.6-2.9-7.5-4.3-11.7h-0.1c-1.5,4.3-3,8.2-4.4,11.7l-1.3,3.3h11.5
			L218.5,172.9z M192.1,203.7c-0.2-1-0.6-1.9-1.2-2.6c-0.5-0.7-1.3-1.2-2.2-1.6c-0.9-0.4-2.1-0.6-3.5-0.6h-3.5v16.5h3.5
			c1.4,0,2.6-0.2,3.5-0.6c0.9-0.4,1.7-0.9,2.2-1.6c0.6-0.7,0.9-1.6,1.2-2.6c0.2-1,0.3-2.2,0.3-3.5
			C192.4,205.9,192.3,204.7,192.1,203.7z M148.2,199.2l-3.2,10.1h6.6L148.2,199.2z M107.7,199.2l-3.2,10.1h6.6L107.7,199.2z
			 M74.7,199.2l-3.2,10.1h6.6L74.7,199.2z M74.7,199.2l-3.2,10.1h6.6L74.7,199.2z M107.7,199.2l-3.2,10.1h6.6L107.7,199.2z
			 M148.2,199.2l-3.2,10.1h6.6L148.2,199.2z M192.1,203.7c-0.2-1-0.6-1.9-1.2-2.6c-0.5-0.7-1.3-1.2-2.2-1.6
			c-0.9-0.4-2.1-0.6-3.5-0.6h-3.5v16.5h3.5c1.4,0,2.6-0.2,3.5-0.6c0.9-0.4,1.7-0.9,2.2-1.6c0.6-0.7,0.9-1.6,1.2-2.6
			c0.2-1,0.3-2.2,0.3-3.5C192.4,205.9,192.3,204.7,192.1,203.7z M218.5,172.9c-1.4-3.6-2.9-7.5-4.3-11.7h-0.1
			c-1.5,4.3-3,8.2-4.4,11.7l-1.3,3.3h11.5L218.5,172.9z M228.3,199.7c-0.7-0.6-1.7-0.9-3.1-0.9h-6.1v7.4h5.7c0.8,0,1.5-0.1,2-0.2
			c0.6-0.1,1-0.3,1.4-0.6c0.4-0.3,0.6-0.7,0.8-1.2c0.2-0.5,0.3-1.1,0.3-1.8C229.4,201.2,229,200.3,228.3,199.7z M228.3,199.7
			c-0.7-0.6-1.7-0.9-3.1-0.9h-6.1v7.4h5.7c0.8,0,1.5-0.1,2-0.2c0.6-0.1,1-0.3,1.4-0.6c0.4-0.3,0.6-0.7,0.8-1.2
			c0.2-0.5,0.3-1.1,0.3-1.8C229.4,201.2,229,200.3,228.3,199.7z M218.5,172.9c-1.4-3.6-2.9-7.5-4.3-11.7h-0.1
			c-1.5,4.3-3,8.2-4.4,11.7l-1.3,3.3h11.5L218.5,172.9z M192.1,203.7c-0.2-1-0.6-1.9-1.2-2.6c-0.5-0.7-1.3-1.2-2.2-1.6
			c-0.9-0.4-2.1-0.6-3.5-0.6h-3.5v16.5h3.5c1.4,0,2.6-0.2,3.5-0.6c0.9-0.4,1.7-0.9,2.2-1.6c0.6-0.7,0.9-1.6,1.2-2.6
			c0.2-1,0.3-2.2,0.3-3.5C192.4,205.9,192.3,204.7,192.1,203.7z M148.2,199.2l-3.2,10.1h6.6L148.2,199.2z M107.7,199.2l-3.2,10.1
			h6.6L107.7,199.2z M74.7,199.2l-3.2,10.1h6.6L74.7,199.2z M74.7,199.2l-3.2,10.1h6.6L74.7,199.2z M107.7,199.2l-3.2,10.1h6.6
			L107.7,199.2z M148.2,199.2l-3.2,10.1h6.6L148.2,199.2z M192.1,203.7c-0.2-1-0.6-1.9-1.2-2.6c-0.5-0.7-1.3-1.2-2.2-1.6
			c-0.9-0.4-2.1-0.6-3.5-0.6h-3.5v16.5h3.5c1.4,0,2.6-0.2,3.5-0.6c0.9-0.4,1.7-0.9,2.2-1.6c0.6-0.7,0.9-1.6,1.2-2.6
			c0.2-1,0.3-2.2,0.3-3.5C192.4,205.9,192.3,204.7,192.1,203.7z M218.5,172.9c-1.4-3.6-2.9-7.5-4.3-11.7h-0.1
			c-1.5,4.3-3,8.2-4.4,11.7l-1.3,3.3h11.5L218.5,172.9z M228.3,199.7c-0.7-0.6-1.7-0.9-3.1-0.9h-6.1v7.4h5.7c0.8,0,1.5-0.1,2-0.2
			c0.6-0.1,1-0.3,1.4-0.6c0.4-0.3,0.6-0.7,0.8-1.2c0.2-0.5,0.3-1.1,0.3-1.8C229.4,201.2,229,200.3,228.3,199.7z M228.3,199.7
			c-0.7-0.6-1.7-0.9-3.1-0.9h-6.1v7.4h5.7c0.8,0,1.5-0.1,2-0.2c0.6-0.1,1-0.3,1.4-0.6c0.4-0.3,0.6-0.7,0.8-1.2
			c0.2-0.5,0.3-1.1,0.3-1.8C229.4,201.2,229,200.3,228.3,199.7z M218.5,172.9c-1.4-3.6-2.9-7.5-4.3-11.7h-0.1
			c-1.5,4.3-3,8.2-4.4,11.7l-1.3,3.3h11.5L218.5,172.9z M192.1,203.7c-0.2-1-0.6-1.9-1.2-2.6c-0.5-0.7-1.3-1.2-2.2-1.6
			c-0.9-0.4-2.1-0.6-3.5-0.6h-3.5v16.5h3.5c1.4,0,2.6-0.2,3.5-0.6c0.9-0.4,1.7-0.9,2.2-1.6c0.6-0.7,0.9-1.6,1.2-2.6
			c0.2-1,0.3-2.2,0.3-3.5C192.4,205.9,192.3,204.7,192.1,203.7z M148.2,199.2l-3.2,10.1h6.6L148.2,199.2z M107.7,199.2l-3.2,10.1
			h6.6L107.7,199.2z M74.7,199.2l-3.2,10.1h6.6L74.7,199.2z M74.7,199.2l-3.2,10.1h6.6L74.7,199.2z M107.7,199.2l-3.2,10.1h6.6
			L107.7,199.2z M148.2,199.2l-3.2,10.1h6.6L148.2,199.2z M192.1,203.7c-0.2-1-0.6-1.9-1.2-2.6c-0.5-0.7-1.3-1.2-2.2-1.6
			c-0.9-0.4-2.1-0.6-3.5-0.6h-3.5v16.5h3.5c1.4,0,2.6-0.2,3.5-0.6c0.9-0.4,1.7-0.9,2.2-1.6c0.6-0.7,0.9-1.6,1.2-2.6
			c0.2-1,0.3-2.2,0.3-3.5C192.4,205.9,192.3,204.7,192.1,203.7z M218.5,172.9c-1.4-3.6-2.9-7.5-4.3-11.7h-0.1
			c-1.5,4.3-3,8.2-4.4,11.7l-1.3,3.3h11.5L218.5,172.9z M228.3,199.7c-0.7-0.6-1.7-0.9-3.1-0.9h-6.1v7.4h5.7c0.8,0,1.5-0.1,2-0.2
			c0.6-0.1,1-0.3,1.4-0.6c0.4-0.3,0.6-0.7,0.8-1.2c0.2-0.5,0.3-1.1,0.3-1.8C229.4,201.2,229,200.3,228.3,199.7z M228.3,199.7
			c-0.7-0.6-1.7-0.9-3.1-0.9h-6.1v7.4h5.7c0.8,0,1.5-0.1,2-0.2c0.6-0.1,1-0.3,1.4-0.6c0.4-0.3,0.6-0.7,0.8-1.2
			c0.2-0.5,0.3-1.1,0.3-1.8C229.4,201.2,229,200.3,228.3,199.7z M218.5,172.9c-1.4-3.6-2.9-7.5-4.3-11.7h-0.1
			c-1.5,4.3-3,8.2-4.4,11.7l-1.3,3.3h11.5L218.5,172.9z M192.1,203.7c-0.2-1-0.6-1.9-1.2-2.6c-0.5-0.7-1.3-1.2-2.2-1.6
			c-0.9-0.4-2.1-0.6-3.5-0.6h-3.5v16.5h3.5c1.4,0,2.6-0.2,3.5-0.6c0.9-0.4,1.7-0.9,2.2-1.6c0.6-0.7,0.9-1.6,1.2-2.6
			c0.2-1,0.3-2.2,0.3-3.5C192.4,205.9,192.3,204.7,192.1,203.7z M148.2,199.2l-3.2,10.1h6.6L148.2,199.2z M107.7,199.2l-3.2,10.1
			h6.6L107.7,199.2z M74.7,199.2l-3.2,10.1h6.6L74.7,199.2z M74.7,199.2l-3.2,10.1h6.6L74.7,199.2z M107.7,199.2l-3.2,10.1h6.6
			L107.7,199.2z M148.2,199.2l-3.2,10.1h6.6L148.2,199.2z M192.1,203.7c-0.2-1-0.6-1.9-1.2-2.6c-0.5-0.7-1.3-1.2-2.2-1.6
			c-0.9-0.4-2.1-0.6-3.5-0.6h-3.5v16.5h3.5c1.4,0,2.6-0.2,3.5-0.6c0.9-0.4,1.7-0.9,2.2-1.6c0.6-0.7,0.9-1.6,1.2-2.6
			c0.2-1,0.3-2.2,0.3-3.5C192.4,205.9,192.3,204.7,192.1,203.7z M218.5,172.9c-1.4-3.6-2.9-7.5-4.3-11.7h-0.1
			c-1.5,4.3-3,8.2-4.4,11.7l-1.3,3.3h11.5L218.5,172.9z M228.3,199.7c-0.7-0.6-1.7-0.9-3.1-0.9h-6.1v7.4h5.7c0.8,0,1.5-0.1,2-0.2
			c0.6-0.1,1-0.3,1.4-0.6c0.4-0.3,0.6-0.7,0.8-1.2c0.2-0.5,0.3-1.1,0.3-1.8C229.4,201.2,229,200.3,228.3,199.7z M228.3,199.7
			c-0.7-0.6-1.7-0.9-3.1-0.9h-6.1v7.4h5.7c0.8,0,1.5-0.1,2-0.2c0.6-0.1,1-0.3,1.4-0.6c0.4-0.3,0.6-0.7,0.8-1.2
			c0.2-0.5,0.3-1.1,0.3-1.8C229.4,201.2,229,200.3,228.3,199.7z M218.5,172.9c-1.4-3.6-2.9-7.5-4.3-11.7h-0.1
			c-1.5,4.3-3,8.2-4.4,11.7l-1.3,3.3h11.5L218.5,172.9z M192.1,203.7c-0.2-1-0.6-1.9-1.2-2.6c-0.5-0.7-1.3-1.2-2.2-1.6
			c-0.9-0.4-2.1-0.6-3.5-0.6h-3.5v16.5h3.5c1.4,0,2.6-0.2,3.5-0.6c0.9-0.4,1.7-0.9,2.2-1.6c0.6-0.7,0.9-1.6,1.2-2.6
			c0.2-1,0.3-2.2,0.3-3.5C192.4,205.9,192.3,204.7,192.1,203.7z M148.2,199.2l-3.2,10.1h6.6L148.2,199.2z M107.7,199.2l-3.2,10.1
			h6.6L107.7,199.2z M74.7,199.2l-3.2,10.1h6.6L74.7,199.2z M74.7,199.2l-3.2,10.1h6.6L74.7,199.2z M107.7,199.2l-3.2,10.1h6.6
			L107.7,199.2z M148.2,199.2l-3.2,10.1h6.6L148.2,199.2z M192.1,203.7c-0.2-1-0.6-1.9-1.2-2.6c-0.5-0.7-1.3-1.2-2.2-1.6
			c-0.9-0.4-2.1-0.6-3.5-0.6h-3.5v16.5h3.5c1.4,0,2.6-0.2,3.5-0.6c0.9-0.4,1.7-0.9,2.2-1.6c0.6-0.7,0.9-1.6,1.2-2.6
			c0.2-1,0.3-2.2,0.3-3.5C192.4,205.9,192.3,204.7,192.1,203.7z M218.5,172.9c-1.4-3.6-2.9-7.5-4.3-11.7h-0.1
			c-1.5,4.3-3,8.2-4.4,11.7l-1.3,3.3h11.5L218.5,172.9z M228.3,199.7c-0.7-0.6-1.7-0.9-3.1-0.9h-6.1v7.4h5.7c0.8,0,1.5-0.1,2-0.2
			c0.6-0.1,1-0.3,1.4-0.6c0.4-0.3,0.6-0.7,0.8-1.2c0.2-0.5,0.3-1.1,0.3-1.8C229.4,201.2,229,200.3,228.3,199.7z M228.3,199.7
			c-0.7-0.6-1.7-0.9-3.1-0.9h-6.1v7.4h5.7c0.8,0,1.5-0.1,2-0.2c0.6-0.1,1-0.3,1.4-0.6c0.4-0.3,0.6-0.7,0.8-1.2
			c0.2-0.5,0.3-1.1,0.3-1.8C229.4,201.2,229,200.3,228.3,199.7z M218.5,172.9c-1.4-3.6-2.9-7.5-4.3-11.7h-0.1
			c-1.5,4.3-3,8.2-4.4,11.7l-1.3,3.3h11.5L218.5,172.9z M192.1,203.7c-0.2-1-0.6-1.9-1.2-2.6c-0.5-0.7-1.3-1.2-2.2-1.6
			c-0.9-0.4-2.1-0.6-3.5-0.6h-3.5v16.5h3.5c1.4,0,2.6-0.2,3.5-0.6c0.9-0.4,1.7-0.9,2.2-1.6c0.6-0.7,0.9-1.6,1.2-2.6
			c0.2-1,0.3-2.2,0.3-3.5C192.4,205.9,192.3,204.7,192.1,203.7z M148.2,199.2l-3.2,10.1h6.6L148.2,199.2z M107.7,199.2l-3.2,10.1
			h6.6L107.7,199.2z M74.7,199.2l-3.2,10.1h6.6L74.7,199.2z M74.7,199.2l-3.2,10.1h6.6L74.7,199.2z M107.7,199.2l-3.2,10.1h6.6
			L107.7,199.2z M148.2,199.2l-3.2,10.1h6.6L148.2,199.2z M192.1,203.7c-0.2-1-0.6-1.9-1.2-2.6c-0.5-0.7-1.3-1.2-2.2-1.6
			c-0.9-0.4-2.1-0.6-3.5-0.6h-3.5v16.5h3.5c1.4,0,2.6-0.2,3.5-0.6c0.9-0.4,1.7-0.9,2.2-1.6c0.6-0.7,0.9-1.6,1.2-2.6
			c0.2-1,0.3-2.2,0.3-3.5C192.4,205.9,192.3,204.7,192.1,203.7z M218.5,172.9c-1.4-3.6-2.9-7.5-4.3-11.7h-0.1
			c-1.5,4.3-3,8.2-4.4,11.7l-1.3,3.3h11.5L218.5,172.9z M228.3,199.7c-0.7-0.6-1.7-0.9-3.1-0.9h-6.1v7.4h5.7c0.8,0,1.5-0.1,2-0.2
			c0.6-0.1,1-0.3,1.4-0.6c0.4-0.3,0.6-0.7,0.8-1.2c0.2-0.5,0.3-1.1,0.3-1.8C229.4,201.2,229,200.3,228.3,199.7z M228.3,199.7
			c-0.7-0.6-1.7-0.9-3.1-0.9h-6.1v7.4h5.7c0.8,0,1.5-0.1,2-0.2c0.6-0.1,1-0.3,1.4-0.6c0.4-0.3,0.6-0.7,0.8-1.2
			c0.2-0.5,0.3-1.1,0.3-1.8C229.4,201.2,229,200.3,228.3,199.7z M218.5,172.9c-1.4-3.6-2.9-7.5-4.3-11.7h-0.1
			c-1.5,4.3-3,8.2-4.4,11.7l-1.3,3.3h11.5L218.5,172.9z M192.1,203.7c-0.2-1-0.6-1.9-1.2-2.6c-0.5-0.7-1.3-1.2-2.2-1.6
			c-0.9-0.4-2.1-0.6-3.5-0.6h-3.5v16.5h3.5c1.4,0,2.6-0.2,3.5-0.6c0.9-0.4,1.7-0.9,2.2-1.6c0.6-0.7,0.9-1.6,1.2-2.6
			c0.2-1,0.3-2.2,0.3-3.5C192.4,205.9,192.3,204.7,192.1,203.7z M148.2,199.2l-3.2,10.1h6.6L148.2,199.2z M107.7,199.2l-3.2,10.1
			h6.6L107.7,199.2z M74.7,199.2l-3.2,10.1h6.6L74.7,199.2z M74.7,199.2l-3.2,10.1h6.6L74.7,199.2z M107.7,199.2l-3.2,10.1h6.6
			L107.7,199.2z M148.2,199.2l-3.2,10.1h6.6L148.2,199.2z M192.1,203.7c-0.2-1-0.6-1.9-1.2-2.6c-0.5-0.7-1.3-1.2-2.2-1.6
			c-0.9-0.4-2.1-0.6-3.5-0.6h-3.5v16.5h3.5c1.4,0,2.6-0.2,3.5-0.6c0.9-0.4,1.7-0.9,2.2-1.6c0.6-0.7,0.9-1.6,1.2-2.6
			c0.2-1,0.3-2.2,0.3-3.5C192.4,205.9,192.3,204.7,192.1,203.7z M218.5,172.9c-1.4-3.6-2.9-7.5-4.3-11.7h-0.1
			c-1.5,4.3-3,8.2-4.4,11.7l-1.3,3.3h11.5L218.5,172.9z M228.3,199.7c-0.7-0.6-1.7-0.9-3.1-0.9h-6.1v7.4h5.7c0.8,0,1.5-0.1,2-0.2
			c0.6-0.1,1-0.3,1.4-0.6c0.4-0.3,0.6-0.7,0.8-1.2c0.2-0.5,0.3-1.1,0.3-1.8C229.4,201.2,229,200.3,228.3,199.7z M228.3,199.7
			c-0.7-0.6-1.7-0.9-3.1-0.9h-6.1v7.4h5.7c0.8,0,1.5-0.1,2-0.2c0.6-0.1,1-0.3,1.4-0.6c0.4-0.3,0.6-0.7,0.8-1.2
			c0.2-0.5,0.3-1.1,0.3-1.8C229.4,201.2,229,200.3,228.3,199.7z M218.5,172.9c-1.4-3.6-2.9-7.5-4.3-11.7h-0.1
			c-1.5,4.3-3,8.2-4.4,11.7l-1.3,3.3h11.5L218.5,172.9z M192.1,203.7c-0.2-1-0.6-1.9-1.2-2.6c-0.5-0.7-1.3-1.2-2.2-1.6
			c-0.9-0.4-2.1-0.6-3.5-0.6h-3.5v16.5h3.5c1.4,0,2.6-0.2,3.5-0.6c0.9-0.4,1.7-0.9,2.2-1.6c0.6-0.7,0.9-1.6,1.2-2.6
			c0.2-1,0.3-2.2,0.3-3.5C192.4,205.9,192.3,204.7,192.1,203.7z M148.2,199.2l-3.2,10.1h6.6L148.2,199.2z M107.7,199.2l-3.2,10.1
			h6.6L107.7,199.2z M74.7,199.2l-3.2,10.1h6.6L74.7,199.2z M74.7,199.2l-3.2,10.1h6.6L74.7,199.2z M107.7,199.2l-3.2,10.1h6.6
			L107.7,199.2z M148.2,199.2l-3.2,10.1h6.6L148.2,199.2z M192.1,203.7c-0.2-1-0.6-1.9-1.2-2.6c-0.5-0.7-1.3-1.2-2.2-1.6
			c-0.9-0.4-2.1-0.6-3.5-0.6h-3.5v16.5h3.5c1.4,0,2.6-0.2,3.5-0.6c0.9-0.4,1.7-0.9,2.2-1.6c0.6-0.7,0.9-1.6,1.2-2.6
			c0.2-1,0.3-2.2,0.3-3.5C192.4,205.9,192.3,204.7,192.1,203.7z M218.5,172.9c-1.4-3.6-2.9-7.5-4.3-11.7h-0.1
			c-1.5,4.3-3,8.2-4.4,11.7l-1.3,3.3h11.5L218.5,172.9z M228.3,199.7c-0.7-0.6-1.7-0.9-3.1-0.9h-6.1v7.4h5.7c0.8,0,1.5-0.1,2-0.2
			c0.6-0.1,1-0.3,1.4-0.6c0.4-0.3,0.6-0.7,0.8-1.2c0.2-0.5,0.3-1.1,0.3-1.8C229.4,201.2,229,200.3,228.3,199.7z M228.3,199.7
			c-0.7-0.6-1.7-0.9-3.1-0.9h-6.1v7.4h5.7c0.8,0,1.5-0.1,2-0.2c0.6-0.1,1-0.3,1.4-0.6c0.4-0.3,0.6-0.7,0.8-1.2
			c0.2-0.5,0.3-1.1,0.3-1.8C229.4,201.2,229,200.3,228.3,199.7z M218.5,172.9c-1.4-3.6-2.9-7.5-4.3-11.7h-0.1
			c-1.5,4.3-3,8.2-4.4,11.7l-1.3,3.3h11.5L218.5,172.9z M192.1,203.7c-0.2-1-0.6-1.9-1.2-2.6c-0.5-0.7-1.3-1.2-2.2-1.6
			c-0.9-0.4-2.1-0.6-3.5-0.6h-3.5v16.5h3.5c1.4,0,2.6-0.2,3.5-0.6c0.9-0.4,1.7-0.9,2.2-1.6c0.6-0.7,0.9-1.6,1.2-2.6
			c0.2-1,0.3-2.2,0.3-3.5C192.4,205.9,192.3,204.7,192.1,203.7z M148.2,199.2l-3.2,10.1h6.6L148.2,199.2z M107.7,199.2l-3.2,10.1
			h6.6L107.7,199.2z M74.7,199.2l-3.2,10.1h6.6L74.7,199.2z M40.3,149.4c-0.8,1.7-2.1,3.6-3.8,5.2c-0.2,0.2-0.5,0.4-0.7,0.7
			c-0.3,0.2-0.6,0.5-0.9,0.7c-0.6,0.5-1.3,0.9-2,1.3c-0.2,0.1-0.3,0.2-0.5,0.3c-0.1,0.1-0.2,0.1-0.3,0.2c-0.1,0-0.2,0.1-0.3,0.1
			c-0.2,0.1-0.3,0.1-0.5,0.2c-0.2,0.1-0.3,0.1-0.5,0.2c-0.2,0.1-0.4,0.1-0.7,0.2c-0.2,0-0.4,0.1-0.6,0.1c-0.2,0-0.4,0.1-0.6,0.1
			c-0.4,0-0.8,0.1-1.2,0.1h0c-0.3,2.8-1.7,5.2-3,7.2c-0.5,0.8-1,1.6-1.3,2.3c0,0,0,0,0,0c0.4-0.2,1.2-0.5,2.3-0.4
			c0.7-0.3,1.1-1.8,1.5-3.2c0.4-1.4,0.8-2.7,1.5-2.7c0.1,0,0.1,0,0.2,0c0.1,0,0.2,0.1,0.2,0.1c0.1,0,0.1,0.1,0.1,0.2
			c0,0.1,0.1,0.2,0.1,0.4c0,0.1,0,0.2,0,0.2c0,0.1,0,0.2,0,0.2c0,0.1-0.1,0.3-0.1,0.4c-0.1,0.4-0.3,0.9-0.5,1.3
			c-0.2,0.5-0.5,1.2-0.5,1.5c0,0,0,0,0,0v0c0,0,0,0,0,0c0,0,0,0,0,0c0,0,0,0,0,0c0,0,0,0,0,0c0.4,0,1.3-1.1,2-2c1-1.3,2-2.4,2.7-2.4
			c0.2,0,0.3,0.1,0.4,0.2c0.7,0.8-0.7,2-1.9,3.1c-0.8,0.8-1.9,1.7-1.6,2c0,0,0.1,0.1,0.2,0.1c0.3,0,0.9-0.2,1.5-0.4
			c0.8-0.2,1.5-0.5,2.1-0.5c0.6,0,0.8,0.3,0.8,0.6c0,0.9-1.4,1-2.8,1.2c-0.8,0.1-1.8,0.2-1.9,0.5c0,0.1,0,0.2,0,0.3
			c0.1,0.3,0.7,0.5,1.3,0.7c0.7,0.2,1.4,0.4,1.6,0.9c0.1,0.2,0.1,0.4,0,0.6c-0.1,0.3-0.3,0.4-0.6,0.4c-0.1,0-0.2,0-0.3,0
			c-0.1,0-0.1,0-0.2-0.1c-0.3-0.1-0.7-0.3-1.1-0.5l0,0c-0.1,0-0.2-0.1-0.3-0.2c-0.8-0.4-1.6-0.7-2.4-0.7h0c-0.4,0-0.7,0.1-1,0.3
			c-1.8,0.8-3.3,1.3-4.6,1.6c-0.2,0-0.4,0.1-0.5,0.1c-0.2,0-0.4,0.1-0.6,0.1c-0.3,0-0.7,0.1-0.9,0.1c-1,0-1.8-0.3-2.3-0.9
			c-1.2-1.7,0-3.5,0.7-4.6c0.1-0.2,0.3-0.4,0.4-0.6c-1.9,2.2-4.6,7.4-3.5,11.7c0.9,3.7,2.2,5.4,3.6,7.3c0.6,0.8,1.1,1.5,1.7,2.5
			c1.1-0.6,1.9-0.8,2.6-0.8c1.5,0,2.1,1.2,2.9,2.9c0.4,0.8,0.8,1.7,1.4,2.6c0,0,0.1-0.1,0.1-0.1c0.3-0.7-0.5-2.7-1.2-4.5
			c-1-2.5-1.5-4.1-0.9-4.4c0.1-0.1,0.2-0.1,0.4-0.1c1,0,1.6,2.3,2.1,4.4c0.2,0.8,0.5,1.9,0.6,2.1c0.2-0.3,0.1-2,0-3.5
			c-0.2-4.2-0.3-7.4,0.9-7.5h0c0.1,0,0.2,0,0.3,0.1c0.6,0.6,0.4,3.5,0.3,6.2c-0.1,1.8-0.2,4.3,0.1,4.5c0.2-0.1,0.6-1.6,0.9-2.7
			c0.7-2.7,1.2-4.5,1.9-4.5c0.1,0,0.1,0,0.2,0.1c1,0.6,0,3.4-0.8,5.8c-0.3,0.8-0.6,1.8-0.6,2c0.3,0,0.7-0.4,1.2-0.7
			c0.7-0.5,1.4-1,2-1c0.3,0,0.6,0.1,0.8,0.4c0.4,0.8-1.1,1.7-2.6,2.5c-0.7,0.4-1.3,0.7-1.7,1c-1.1,1.3-1.5,2.7-1.9,3.8
			c-0.4,1.2-0.7,2.1-1.7,2.1c-0.7,0-1.8-0.5-3.4-1.5c4.6,9.3,5.5,17.5,2.7,24.5h215.4v-71.9H40.3z M115.5,155.7h4.2v17.1h0.1
			l15.9-17.1h4.2L123.7,173l17.1,17.4h-4.2l-16.9-16.9h-0.1v16.9h-4.2V155.7z M91.9,155.7h4.2v34.6h-4.2V155.7z M49.9,155.7h8.5
			c0.8,0,1.5,0,2.1,0c0.6,0,1.2,0.1,1.8,0.1c0.5,0.1,1,0.1,1.5,0.2c0.5,0.1,0.9,0.2,1.3,0.3c1.1,0.3,2,0.7,2.9,1.2
			c0.9,0.5,1.6,1.1,2.2,1.8c0.6,0.7,1.1,1.5,1.4,2.4c0.3,0.9,0.5,1.9,0.5,2.9c0,0.8-0.1,1.7-0.3,2.4c-0.2,0.8-0.5,1.5-1,2.1
			c-0.4,0.7-1,1.2-1.7,1.8c-0.7,0.5-1.5,0.9-2.5,1.3v0.1c1.1,0.2,2,0.4,2.9,0.8c0.9,0.4,1.6,0.9,2.2,1.6c0.6,0.7,1.1,1.4,1.4,2.3
			c0.3,0.9,0.5,1.9,0.5,3c0,0.8-0.1,1.7-0.4,2.5c-0.2,0.9-0.6,1.7-1.2,2.6s-1.3,1.6-2.2,2.3c-0.9,0.7-2,1.3-3.3,1.7
			c-1,0.3-2.2,0.6-3.4,0.7c-1.2,0.1-2.7,0.2-4.5,0.2h-8.9V155.7z M64,214.6c-0.4,0.8-0.9,1.5-1.5,2.1c-0.6,0.6-1.4,1-2.3,1.4
			c-0.9,0.3-1.8,0.5-2.9,0.5c-1.4,0-2.5-0.2-3.6-0.5c-1-0.4-1.9-0.9-2.5-1.5c-0.7-0.7-1.2-1.4-1.5-2.3c-0.3-0.9-0.5-1.9-0.6-3h2.5
			c0.1,0.8,0.3,1.5,0.6,2.1c0.3,0.6,0.7,1.1,1.2,1.5c0.5,0.4,1.1,0.7,1.7,0.9s1.3,0.3,2.1,0.3c0.7,0,1.4-0.1,2-0.3
			c0.6-0.2,1.1-0.4,1.5-0.7c0.4-0.3,0.7-0.7,1-1.2c0.2-0.5,0.3-1,0.3-1.5c0-0.6-0.1-1.1-0.3-1.5c-0.2-0.4-0.5-0.8-1-1.1
			c-0.5-0.3-1.1-0.6-1.9-0.8c-0.8-0.2-1.7-0.5-2.8-0.8c-1.1-0.3-2-0.6-2.8-0.9c-0.8-0.3-1.4-0.8-1.9-1.2c-0.5-0.5-0.9-1-1.1-1.6
			c-0.2-0.6-0.4-1.3-0.4-2.1c0-0.9,0.2-1.7,0.5-2.4c0.3-0.7,0.8-1.4,1.4-1.9c0.6-0.5,1.3-1,2.2-1.3c0.8-0.3,1.8-0.4,2.8-0.4
			c1.1,0,2.1,0.2,3,0.4c0.9,0.3,1.7,0.7,2.3,1.3c0.6,0.6,1.2,1.2,1.5,2.1c0.4,0.8,0.6,1.7,0.6,2.7h-2.5c-0.3-2.6-1.9-3.9-4.8-3.9
			c-1.4,0-2.5,0.3-3.3,0.9c-0.8,0.6-1.2,1.4-1.2,2.4c0,0.5,0.1,0.9,0.2,1.2c0.1,0.3,0.4,0.6,0.7,0.9c0.3,0.2,0.8,0.5,1.4,0.7
			c0.6,0.2,1.3,0.4,2.1,0.6c0.6,0.1,1.2,0.3,1.8,0.4c0.6,0.2,1.2,0.3,1.8,0.6c0.6,0.2,1.1,0.5,1.6,0.8c0.5,0.3,1,0.7,1.3,1.1
			c0.4,0.5,0.7,1,0.9,1.6c0.2,0.6,0.3,1.3,0.3,2.2C64.6,212.9,64.4,213.8,64,214.6z M81.1,218.1l-2.2-6.6h-8.1l-2.1,6.6h-2.7
			l7.4-21.7h2.8l7.9,21.7H81.1z M98.1,218.1h-12v-21.7h2.6v19.1h9.4V218.1z M114.1,218.1l-2.2-6.6h-8.1l-2.1,6.6h-2.7l7.4-21.7h2.8
			l7.9,21.7H114.1z M137.3,218.1h-2.4v-18.5l-5.5,18.5H127l-5.5-18.5v18.5h-2.4v-21.7h3.9l5.2,18.1l5.3-18.1h3.8V218.1z
			 M154.6,218.1l-2.2-6.6h-8.1l-2.1,6.6h-2.7l7.4-21.7h2.8l7.9,21.7H154.6z M158.1,155.7h4.2v15h18.1v-15h4.2v34.6h-4.2v-15.8h-18.1
			v15.8h-4.2V155.7z M174.8,218.1h-2.6L162,201v17.1h-2.4v-21.7h2.6l10.1,17.2v-17.2h2.5V218.1z M185.2,218.1h-6.1v-21.7h6.1
			c6.6,0,9.8,3.6,9.8,10.7C195,214.5,191.8,218.1,185.2,218.1z M212.3,155.7h3.6l14.1,34.6h-4.6l-4.1-10.4h-14.5l-4.1,10.4h-4.5
			L212.3,155.7z M213,218.1h-14.4v-21.7h14v2.6h-11.4v6.6h10.7v2.6h-10.7v7.4H213V218.1z M229.9,218.1l-1.8-5.8
			c-0.2-0.5-0.4-1-0.7-1.4c-0.3-0.4-0.6-0.8-1-1.1c-0.4-0.3-0.8-0.5-1.2-0.7c-0.4-0.2-0.9-0.3-1.4-0.3h-4.7v9.3h-2.6v-21.7h8.5
			c0.5,0,1,0,1.5,0c0.5,0,0.9,0.1,1.3,0.2c0.4,0.1,0.8,0.2,1.2,0.4c0.4,0.2,0.7,0.4,1.1,0.8c0.6,0.6,1,1.3,1.3,2.1
			c0.3,0.8,0.5,1.7,0.5,2.5c0,0.8-0.1,1.5-0.3,2.1s-0.5,1.2-0.9,1.7c-0.4,0.5-0.8,0.9-1.4,1.2c-0.5,0.3-1.1,0.6-1.8,0.7v0
			c1.3,0.5,2.4,1.8,3.1,3.9l1.9,5.9H229.9z M229.1,204.2c0.2-0.5,0.3-1.1,0.3-1.8c0-1.3-0.3-2.2-1-2.8c-0.7-0.6-1.7-0.9-3.1-0.9
			h-6.1v7.4h5.7c0.8,0,1.5-0.1,2-0.2c0.6-0.1,1-0.3,1.4-0.6C228.7,205.1,228.9,204.7,229.1,204.2z M218.5,172.9
			c-1.4-3.6-2.9-7.5-4.3-11.7h-0.1c-1.5,4.3-3,8.2-4.4,11.7l-1.3,3.3h11.5L218.5,172.9z M190.9,201.2c-0.5-0.7-1.3-1.2-2.2-1.6
			c-0.9-0.4-2.1-0.6-3.5-0.6h-3.5v16.5h3.5c1.4,0,2.6-0.2,3.5-0.6c0.9-0.4,1.7-0.9,2.2-1.6c0.6-0.7,0.9-1.6,1.2-2.6
			c0.2-1,0.3-2.2,0.3-3.5c0-1.3-0.1-2.4-0.3-3.4C191.8,202.7,191.5,201.9,190.9,201.2z M145,209.2h6.6l-3.4-10.1L145,209.2z
			 M104.5,209.2h6.6l-3.4-10.1L104.5,209.2z M71.5,209.2h6.6l-3.4-10.1L71.5,209.2z M74.7,199.2l-3.2,10.1h6.6L74.7,199.2z
			 M107.7,199.2l-3.2,10.1h6.6L107.7,199.2z M148.2,199.2l-3.2,10.1h6.6L148.2,199.2z M192.1,203.7c-0.2-1-0.6-1.9-1.2-2.6
			c-0.5-0.7-1.3-1.2-2.2-1.6c-0.9-0.4-2.1-0.6-3.5-0.6h-3.5v16.5h3.5c1.4,0,2.6-0.2,3.5-0.6c0.9-0.4,1.7-0.9,2.2-1.6
			c0.6-0.7,0.9-1.6,1.2-2.6c0.2-1,0.3-2.2,0.3-3.5C192.4,205.9,192.3,204.7,192.1,203.7z M218.5,172.9c-1.4-3.6-2.9-7.5-4.3-11.7
			h-0.1c-1.5,4.3-3,8.2-4.4,11.7l-1.3,3.3h11.5L218.5,172.9z M228.3,199.7c-0.7-0.6-1.7-0.9-3.1-0.9h-6.1v7.4h5.7
			c0.8,0,1.5-0.1,2-0.2c0.6-0.1,1-0.3,1.4-0.6c0.4-0.3,0.6-0.7,0.8-1.2c0.2-0.5,0.3-1.1,0.3-1.8C229.4,201.2,229,200.3,228.3,199.7z
			 M228.3,199.7c-0.7-0.6-1.7-0.9-3.1-0.9h-6.1v7.4h5.7c0.8,0,1.5-0.1,2-0.2c0.6-0.1,1-0.3,1.4-0.6c0.4-0.3,0.6-0.7,0.8-1.2
			c0.2-0.5,0.3-1.1,0.3-1.8C229.4,201.2,229,200.3,228.3,199.7z M218.5,172.9c-1.4-3.6-2.9-7.5-4.3-11.7h-0.1
			c-1.5,4.3-3,8.2-4.4,11.7l-1.3,3.3h11.5L218.5,172.9z M192.1,203.7c-0.2-1-0.6-1.9-1.2-2.6c-0.5-0.7-1.3-1.2-2.2-1.6
			c-0.9-0.4-2.1-0.6-3.5-0.6h-3.5v16.5h3.5c1.4,0,2.6-0.2,3.5-0.6c0.9-0.4,1.7-0.9,2.2-1.6c0.6-0.7,0.9-1.6,1.2-2.6
			c0.2-1,0.3-2.2,0.3-3.5C192.4,205.9,192.3,204.7,192.1,203.7z M148.2,199.2l-3.2,10.1h6.6L148.2,199.2z M107.7,199.2l-3.2,10.1
			h6.6L107.7,199.2z M74.7,199.2l-3.2,10.1h6.6L74.7,199.2z M74.7,199.2l-3.2,10.1h6.6L74.7,199.2z M107.7,199.2l-3.2,10.1h6.6
			L107.7,199.2z M148.2,199.2l-3.2,10.1h6.6L148.2,199.2z M192.1,203.7c-0.2-1-0.6-1.9-1.2-2.6c-0.5-0.7-1.3-1.2-2.2-1.6
			c-0.9-0.4-2.1-0.6-3.5-0.6h-3.5v16.5h3.5c1.4,0,2.6-0.2,3.5-0.6c0.9-0.4,1.7-0.9,2.2-1.6c0.6-0.7,0.9-1.6,1.2-2.6
			c0.2-1,0.3-2.2,0.3-3.5C192.4,205.9,192.3,204.7,192.1,203.7z M218.5,172.9c-1.4-3.6-2.9-7.5-4.3-11.7h-0.1
			c-1.5,4.3-3,8.2-4.4,11.7l-1.3,3.3h11.5L218.5,172.9z M228.3,199.7c-0.7-0.6-1.7-0.9-3.1-0.9h-6.1v7.4h5.7c0.8,0,1.5-0.1,2-0.2
			c0.6-0.1,1-0.3,1.4-0.6c0.4-0.3,0.6-0.7,0.8-1.2c0.2-0.5,0.3-1.1,0.3-1.8C229.4,201.2,229,200.3,228.3,199.7z M228.3,199.7
			c-0.7-0.6-1.7-0.9-3.1-0.9h-6.1v7.4h5.7c0.8,0,1.5-0.1,2-0.2c0.6-0.1,1-0.3,1.4-0.6c0.4-0.3,0.6-0.7,0.8-1.2
			c0.2-0.5,0.3-1.1,0.3-1.8C229.4,201.2,229,200.3,228.3,199.7z M218.5,172.9c-1.4-3.6-2.9-7.5-4.3-11.7h-0.1
			c-1.5,4.3-3,8.2-4.4,11.7l-1.3,3.3h11.5L218.5,172.9z M192.1,203.7c-0.2-1-0.6-1.9-1.2-2.6c-0.5-0.7-1.3-1.2-2.2-1.6
			c-0.9-0.4-2.1-0.6-3.5-0.6h-3.5v16.5h3.5c1.4,0,2.6-0.2,3.5-0.6c0.9-0.4,1.7-0.9,2.2-1.6c0.6-0.7,0.9-1.6,1.2-2.6
			c0.2-1,0.3-2.2,0.3-3.5C192.4,205.9,192.3,204.7,192.1,203.7z M148.2,199.2l-3.2,10.1h6.6L148.2,199.2z M107.7,199.2l-3.2,10.1
			h6.6L107.7,199.2z M74.7,199.2l-3.2,10.1h6.6L74.7,199.2z M74.7,199.2l-3.2,10.1h6.6L74.7,199.2z M107.7,199.2l-3.2,10.1h6.6
			L107.7,199.2z M148.2,199.2l-3.2,10.1h6.6L148.2,199.2z M192.1,203.7c-0.2-1-0.6-1.9-1.2-2.6c-0.5-0.7-1.3-1.2-2.2-1.6
			c-0.9-0.4-2.1-0.6-3.5-0.6h-3.5v16.5h3.5c1.4,0,2.6-0.2,3.5-0.6c0.9-0.4,1.7-0.9,2.2-1.6c0.6-0.7,0.9-1.6,1.2-2.6
			c0.2-1,0.3-2.2,0.3-3.5C192.4,205.9,192.3,204.7,192.1,203.7z M218.5,172.9c-1.4-3.6-2.9-7.5-4.3-11.7h-0.1
			c-1.5,4.3-3,8.2-4.4,11.7l-1.3,3.3h11.5L218.5,172.9z M228.3,199.7c-0.7-0.6-1.7-0.9-3.1-0.9h-6.1v7.4h5.7c0.8,0,1.5-0.1,2-0.2
			c0.6-0.1,1-0.3,1.4-0.6c0.4-0.3,0.6-0.7,0.8-1.2c0.2-0.5,0.3-1.1,0.3-1.8C229.4,201.2,229,200.3,228.3,199.7z M228.3,199.7
			c-0.7-0.6-1.7-0.9-3.1-0.9h-6.1v7.4h5.7c0.8,0,1.5-0.1,2-0.2c0.6-0.1,1-0.3,1.4-0.6c0.4-0.3,0.6-0.7,0.8-1.2
			c0.2-0.5,0.3-1.1,0.3-1.8C229.4,201.2,229,200.3,228.3,199.7z M218.5,172.9c-1.4-3.6-2.9-7.5-4.3-11.7h-0.1
			c-1.5,4.3-3,8.2-4.4,11.7l-1.3,3.3h11.5L218.5,172.9z M192.1,203.7c-0.2-1-0.6-1.9-1.2-2.6c-0.5-0.7-1.3-1.2-2.2-1.6
			c-0.9-0.4-2.1-0.6-3.5-0.6h-3.5v16.5h3.5c1.4,0,2.6-0.2,3.5-0.6c0.9-0.4,1.7-0.9,2.2-1.6c0.6-0.7,0.9-1.6,1.2-2.6
			c0.2-1,0.3-2.2,0.3-3.5C192.4,205.9,192.3,204.7,192.1,203.7z M148.2,199.2l-3.2,10.1h6.6L148.2,199.2z M107.7,199.2l-3.2,10.1
			h6.6L107.7,199.2z M74.7,199.2l-3.2,10.1h6.6L74.7,199.2z M74.7,199.2l-3.2,10.1h6.6L74.7,199.2z M107.7,199.2l-3.2,10.1h6.6
			L107.7,199.2z M148.2,199.2l-3.2,10.1h6.6L148.2,199.2z M192.1,203.7c-0.2-1-0.6-1.9-1.2-2.6c-0.5-0.7-1.3-1.2-2.2-1.6
			c-0.9-0.4-2.1-0.6-3.5-0.6h-3.5v16.5h3.5c1.4,0,2.6-0.2,3.5-0.6c0.9-0.4,1.7-0.9,2.2-1.6c0.6-0.7,0.9-1.6,1.2-2.6
			c0.2-1,0.3-2.2,0.3-3.5C192.4,205.9,192.3,204.7,192.1,203.7z M218.5,172.9c-1.4-3.6-2.9-7.5-4.3-11.7h-0.1
			c-1.5,4.3-3,8.2-4.4,11.7l-1.3,3.3h11.5L218.5,172.9z M228.3,199.7c-0.7-0.6-1.7-0.9-3.1-0.9h-6.1v7.4h5.7c0.8,0,1.5-0.1,2-0.2
			c0.6-0.1,1-0.3,1.4-0.6c0.4-0.3,0.6-0.7,0.8-1.2c0.2-0.5,0.3-1.1,0.3-1.8C229.4,201.2,229,200.3,228.3,199.7z M228.3,199.7
			c-0.7-0.6-1.7-0.9-3.1-0.9h-6.1v7.4h5.7c0.8,0,1.5-0.1,2-0.2c0.6-0.1,1-0.3,1.4-0.6c0.4-0.3,0.6-0.7,0.8-1.2
			c0.2-0.5,0.3-1.1,0.3-1.8C229.4,201.2,229,200.3,228.3,199.7z M218.5,172.9c-1.4-3.6-2.9-7.5-4.3-11.7h-0.1
			c-1.5,4.3-3,8.2-4.4,11.7l-1.3,3.3h11.5L218.5,172.9z M192.1,203.7c-0.2-1-0.6-1.9-1.2-2.6c-0.5-0.7-1.3-1.2-2.2-1.6
			c-0.9-0.4-2.1-0.6-3.5-0.6h-3.5v16.5h3.5c1.4,0,2.6-0.2,3.5-0.6c0.9-0.4,1.7-0.9,2.2-1.6c0.6-0.7,0.9-1.6,1.2-2.6
			c0.2-1,0.3-2.2,0.3-3.5C192.4,205.9,192.3,204.7,192.1,203.7z M148.2,199.2l-3.2,10.1h6.6L148.2,199.2z M107.7,199.2l-3.2,10.1
			h6.6L107.7,199.2z M74.7,199.2l-3.2,10.1h6.6L74.7,199.2z M74.7,199.2l-3.2,10.1h6.6L74.7,199.2z M107.7,199.2l-3.2,10.1h6.6
			L107.7,199.2z M148.2,199.2l-3.2,10.1h6.6L148.2,199.2z M192.1,203.7c-0.2-1-0.6-1.9-1.2-2.6c-0.5-0.7-1.3-1.2-2.2-1.6
			c-0.9-0.4-2.1-0.6-3.5-0.6h-3.5v16.5h3.5c1.4,0,2.6-0.2,3.5-0.6c0.9-0.4,1.7-0.9,2.2-1.6c0.6-0.7,0.9-1.6,1.2-2.6
			c0.2-1,0.3-2.2,0.3-3.5C192.4,205.9,192.3,204.7,192.1,203.7z M218.5,172.9c-1.4-3.6-2.9-7.5-4.3-11.7h-0.1
			c-1.5,4.3-3,8.2-4.4,11.7l-1.3,3.3h11.5L218.5,172.9z M228.3,199.7c-0.7-0.6-1.7-0.9-3.1-0.9h-6.1v7.4h5.7c0.8,0,1.5-0.1,2-0.2
			c0.6-0.1,1-0.3,1.4-0.6c0.4-0.3,0.6-0.7,0.8-1.2c0.2-0.5,0.3-1.1,0.3-1.8C229.4,201.2,229,200.3,228.3,199.7z M228.3,199.7
			c-0.7-0.6-1.7-0.9-3.1-0.9h-6.1v7.4h5.7c0.8,0,1.5-0.1,2-0.2c0.6-0.1,1-0.3,1.4-0.6c0.4-0.3,0.6-0.7,0.8-1.2
			c0.2-0.5,0.3-1.1,0.3-1.8C229.4,201.2,229,200.3,228.3,199.7z M218.5,172.9c-1.4-3.6-2.9-7.5-4.3-11.7h-0.1
			c-1.5,4.3-3,8.2-4.4,11.7l-1.3,3.3h11.5L218.5,172.9z M192.1,203.7c-0.2-1-0.6-1.9-1.2-2.6c-0.5-0.7-1.3-1.2-2.2-1.6
			c-0.9-0.4-2.1-0.6-3.5-0.6h-3.5v16.5h3.5c1.4,0,2.6-0.2,3.5-0.6c0.9-0.4,1.7-0.9,2.2-1.6c0.6-0.7,0.9-1.6,1.2-2.6
			c0.2-1,0.3-2.2,0.3-3.5C192.4,205.9,192.3,204.7,192.1,203.7z M148.2,199.2l-3.2,10.1h6.6L148.2,199.2z M107.7,199.2l-3.2,10.1
			h6.6L107.7,199.2z M74.7,199.2l-3.2,10.1h6.6L74.7,199.2z M74.7,199.2l-3.2,10.1h6.6L74.7,199.2z M107.7,199.2l-3.2,10.1h6.6
			L107.7,199.2z M148.2,199.2l-3.2,10.1h6.6L148.2,199.2z M192.1,203.7c-0.2-1-0.6-1.9-1.2-2.6c-0.5-0.7-1.3-1.2-2.2-1.6
			c-0.9-0.4-2.1-0.6-3.5-0.6h-3.5v16.5h3.5c1.4,0,2.6-0.2,3.5-0.6c0.9-0.4,1.7-0.9,2.2-1.6c0.6-0.7,0.9-1.6,1.2-2.6
			c0.2-1,0.3-2.2,0.3-3.5C192.4,205.9,192.3,204.7,192.1,203.7z M218.5,172.9c-1.4-3.6-2.9-7.5-4.3-11.7h-0.1
			c-1.5,4.3-3,8.2-4.4,11.7l-1.3,3.3h11.5L218.5,172.9z M228.3,199.7c-0.7-0.6-1.7-0.9-3.1-0.9h-6.1v7.4h5.7c0.8,0,1.5-0.1,2-0.2
			c0.6-0.1,1-0.3,1.4-0.6c0.4-0.3,0.6-0.7,0.8-1.2c0.2-0.5,0.3-1.1,0.3-1.8C229.4,201.2,229,200.3,228.3,199.7z M228.3,199.7
			c-0.7-0.6-1.7-0.9-3.1-0.9h-6.1v7.4h5.7c0.8,0,1.5-0.1,2-0.2c0.6-0.1,1-0.3,1.4-0.6c0.4-0.3,0.6-0.7,0.8-1.2
			c0.2-0.5,0.3-1.1,0.3-1.8C229.4,201.2,229,200.3,228.3,199.7z M218.5,172.9c-1.4-3.6-2.9-7.5-4.3-11.7h-0.1
			c-1.5,4.3-3,8.2-4.4,11.7l-1.3,3.3h11.5L218.5,172.9z M192.1,203.7c-0.2-1-0.6-1.9-1.2-2.6c-0.5-0.7-1.3-1.2-2.2-1.6
			c-0.9-0.4-2.1-0.6-3.5-0.6h-3.5v16.5h3.5c1.4,0,2.6-0.2,3.5-0.6c0.9-0.4,1.7-0.9,2.2-1.6c0.6-0.7,0.9-1.6,1.2-2.6
			c0.2-1,0.3-2.2,0.3-3.5C192.4,205.9,192.3,204.7,192.1,203.7z M148.2,199.2l-3.2,10.1h6.6L148.2,199.2z M107.7,199.2l-3.2,10.1
			h6.6L107.7,199.2z M74.7,199.2l-3.2,10.1h6.6L74.7,199.2z M74.7,199.2l-3.2,10.1h6.6L74.7,199.2z M107.7,199.2l-3.2,10.1h6.6
			L107.7,199.2z M148.2,199.2l-3.2,10.1h6.6L148.2,199.2z M192.1,203.7c-0.2-1-0.6-1.9-1.2-2.6c-0.5-0.7-1.3-1.2-2.2-1.6
			c-0.9-0.4-2.1-0.6-3.5-0.6h-3.5v16.5h3.5c1.4,0,2.6-0.2,3.5-0.6c0.9-0.4,1.7-0.9,2.2-1.6c0.6-0.7,0.9-1.6,1.2-2.6
			c0.2-1,0.3-2.2,0.3-3.5C192.4,205.9,192.3,204.7,192.1,203.7z M218.5,172.9c-1.4-3.6-2.9-7.5-4.3-11.7h-0.1
			c-1.5,4.3-3,8.2-4.4,11.7l-1.3,3.3h11.5L218.5,172.9z M228.3,199.7c-0.7-0.6-1.7-0.9-3.1-0.9h-6.1v7.4h5.7c0.8,0,1.5-0.1,2-0.2
			c0.6-0.1,1-0.3,1.4-0.6c0.4-0.3,0.6-0.7,0.8-1.2c0.2-0.5,0.3-1.1,0.3-1.8C229.4,201.2,229,200.3,228.3,199.7z M228.3,199.7
			c-0.7-0.6-1.7-0.9-3.1-0.9h-6.1v7.4h5.7c0.8,0,1.5-0.1,2-0.2c0.6-0.1,1-0.3,1.4-0.6c0.4-0.3,0.6-0.7,0.8-1.2
			c0.2-0.5,0.3-1.1,0.3-1.8C229.4,201.2,229,200.3,228.3,199.7z M218.5,172.9c-1.4-3.6-2.9-7.5-4.3-11.7h-0.1
			c-1.5,4.3-3,8.2-4.4,11.7l-1.3,3.3h11.5L218.5,172.9z M192.1,203.7c-0.2-1-0.6-1.9-1.2-2.6c-0.5-0.7-1.3-1.2-2.2-1.6
			c-0.9-0.4-2.1-0.6-3.5-0.6h-3.5v16.5h3.5c1.4,0,2.6-0.2,3.5-0.6c0.9-0.4,1.7-0.9,2.2-1.6c0.6-0.7,0.9-1.6,1.2-2.6
			c0.2-1,0.3-2.2,0.3-3.5C192.4,205.9,192.3,204.7,192.1,203.7z M148.2,199.2l-3.2,10.1h6.6L148.2,199.2z M107.7,199.2l-3.2,10.1
			h6.6L107.7,199.2z M74.7,199.2l-3.2,10.1h6.6L74.7,199.2z M74.7,199.2l-3.2,10.1h6.6L74.7,199.2z M107.7,199.2l-3.2,10.1h6.6
			L107.7,199.2z M148.2,199.2l-3.2,10.1h6.6L148.2,199.2z M192.1,203.7c-0.2-1-0.6-1.9-1.2-2.6c-0.5-0.7-1.3-1.2-2.2-1.6
			c-0.9-0.4-2.1-0.6-3.5-0.6h-3.5v16.5h3.5c1.4,0,2.6-0.2,3.5-0.6c0.9-0.4,1.7-0.9,2.2-1.6c0.6-0.7,0.9-1.6,1.2-2.6
			c0.2-1,0.3-2.2,0.3-3.5C192.4,205.9,192.3,204.7,192.1,203.7z M218.5,172.9c-1.4-3.6-2.9-7.5-4.3-11.7h-0.1
			c-1.5,4.3-3,8.2-4.4,11.7l-1.3,3.3h11.5L218.5,172.9z M228.3,199.7c-0.7-0.6-1.7-0.9-3.1-0.9h-6.1v7.4h5.7c0.8,0,1.5-0.1,2-0.2
			c0.6-0.1,1-0.3,1.4-0.6c0.4-0.3,0.6-0.7,0.8-1.2c0.2-0.5,0.3-1.1,0.3-1.8C229.4,201.2,229,200.3,228.3,199.7z M228.3,199.7
			c-0.7-0.6-1.7-0.9-3.1-0.9h-6.1v7.4h5.7c0.8,0,1.5-0.1,2-0.2c0.6-0.1,1-0.3,1.4-0.6c0.4-0.3,0.6-0.7,0.8-1.2
			c0.2-0.5,0.3-1.1,0.3-1.8C229.4,201.2,229,200.3,228.3,199.7z M218.5,172.9c-1.4-3.6-2.9-7.5-4.3-11.7h-0.1
			c-1.5,4.3-3,8.2-4.4,11.7l-1.3,3.3h11.5L218.5,172.9z M192.1,203.7c-0.2-1-0.6-1.9-1.2-2.6c-0.5-0.7-1.3-1.2-2.2-1.6
			c-0.9-0.4-2.1-0.6-3.5-0.6h-3.5v16.5h3.5c1.4,0,2.6-0.2,3.5-0.6c0.9-0.4,1.7-0.9,2.2-1.6c0.6-0.7,0.9-1.6,1.2-2.6
			c0.2-1,0.3-2.2,0.3-3.5C192.4,205.9,192.3,204.7,192.1,203.7z M148.2,199.2l-3.2,10.1h6.6L148.2,199.2z M107.7,199.2l-3.2,10.1
			h6.6L107.7,199.2z M74.7,199.2l-3.2,10.1h6.6L74.7,199.2z M74.7,199.2l-3.2,10.1h6.6L74.7,199.2z M107.7,199.2l-3.2,10.1h6.6
			L107.7,199.2z M148.2,199.2l-3.2,10.1h6.6L148.2,199.2z M192.1,203.7c-0.2-1-0.6-1.9-1.2-2.6c-0.5-0.7-1.3-1.2-2.2-1.6
			c-0.9-0.4-2.1-0.6-3.5-0.6h-3.5v16.5h3.5c1.4,0,2.6-0.2,3.5-0.6c0.9-0.4,1.7-0.9,2.2-1.6c0.6-0.7,0.9-1.6,1.2-2.6
			c0.2-1,0.3-2.2,0.3-3.5C192.4,205.9,192.3,204.7,192.1,203.7z M218.5,172.9c-1.4-3.6-2.9-7.5-4.3-11.7h-0.1
			c-1.5,4.3-3,8.2-4.4,11.7l-1.3,3.3h11.5L218.5,172.9z M228.3,199.7c-0.7-0.6-1.7-0.9-3.1-0.9h-6.1v7.4h5.7c0.8,0,1.5-0.1,2-0.2
			c0.6-0.1,1-0.3,1.4-0.6c0.4-0.3,0.6-0.7,0.8-1.2c0.2-0.5,0.3-1.1,0.3-1.8C229.4,201.2,229,200.3,228.3,199.7z M228.3,199.7
			c-0.7-0.6-1.7-0.9-3.1-0.9h-6.1v7.4h5.7c0.8,0,1.5-0.1,2-0.2c0.6-0.1,1-0.3,1.4-0.6c0.4-0.3,0.6-0.7,0.8-1.2
			c0.2-0.5,0.3-1.1,0.3-1.8C229.4,201.2,229,200.3,228.3,199.7z M218.5,172.9c-1.4-3.6-2.9-7.5-4.3-11.7h-0.1
			c-1.5,4.3-3,8.2-4.4,11.7l-1.3,3.3h11.5L218.5,172.9z M192.1,203.7c-0.2-1-0.6-1.9-1.2-2.6c-0.5-0.7-1.3-1.2-2.2-1.6
			c-0.9-0.4-2.1-0.6-3.5-0.6h-3.5v16.5h3.5c1.4,0,2.6-0.2,3.5-0.6c0.9-0.4,1.7-0.9,2.2-1.6c0.6-0.7,0.9-1.6,1.2-2.6
			c0.2-1,0.3-2.2,0.3-3.5C192.4,205.9,192.3,204.7,192.1,203.7z M148.2,199.2l-3.2,10.1h6.6L148.2,199.2z M107.7,199.2l-3.2,10.1
			h6.6L107.7,199.2z M74.7,199.2l-3.2,10.1h6.6L74.7,199.2z M31.5,152.8c-0.8-0.9,3.3-2.6,3.4-3.4h-3.6c-1.3,1.3-2.2,4.5-1.3,5.1
			c1.6,0.9,6.1-0.8,5.8-3.6C35.7,150.1,32.4,154.2,31.5,152.8z M24.2,149.4c-0.8,0.6-1.5,1.2-2.2,1.8c0.7,1.4,2.2,2.9,3.2,2.9
			c0.1,0,0.2,0,0.3,0c0.7-0.2,1.7-2,2.4-3.9c0.1-0.3,0.2-0.5,0.2-0.8H24.2z M27.3,194.7c-0.7-0.4-2.5,0-2.2,0.9
			c0.1,0.5,2,1.3,2.8,1.2C28.6,196.8,27.9,195,27.3,194.7z M27,204.9c-0.1-0.8-2.2-2.4-2.9-1.6c-0.1,0.1-0.1,0.4,0,0.7c0,0,0,0,0,0
			c0.3,0.6,0.5,1.2,0.7,1.8l0,0c0.2,0.5,0.4,1,0.5,1.1C25.8,207.8,27.1,205.7,27,204.9z M26.5,208.4c0,0,0,0-0.2,0
			c-0.2,0-0.5,0-0.8,0.1c0.3,1.1,0.4,2.2,0.5,3.3c0.3-0.4,0.5-0.9,0.7-1.5C26.9,209.3,26.8,208.6,26.5,208.4z M26,199.9
			c0.6,1.5,1.1,2.9,1.6,4.3C27.1,202.8,26.6,201.4,26,199.9z M25.9,192.2c-0.1-0.9-1.7-3.4-2.4-3.6c-0.8,0-0.7,3.8-0.4,4.8
			C23.3,194.5,26.2,193.3,25.9,192.2z M24.9,199.4c-0.4-0.3-2.9-2.1-3.2-1.7c-0.3,0.3,1.3,4.2,2.1,4.2
			C24.5,201.9,25.5,199.6,24.9,199.4z M24.7,159.7c-0.5-0.1-4.4,3.3-4.1,4.8c0.3,0.5,1.2,1.5,1.9,1.1
			C24.6,164.4,25.5,160.1,24.7,159.7z M24.3,157c-0.9-0.8-2.8-3.4-3.6-3.4c-1.6-0.1-2.4,9.9,0.5,6.9C22.4,159.2,25,157.6,24.3,157z
			 M20.4,168.7c-1.1,0.3-2.1,1.9-1.3,2.4c0.9,0.7,4.5,0.1,4.4-0.5C23.4,169.8,21.4,168.5,20.4,168.7z M22.1,189.7
			c-0.3-1.2-4.2,1.7-4.1,2.9c0.3,1.2,2,3.5,3,3.3C22.1,195.7,22.2,190.9,22.1,189.7z M19.4,188.2c-0.1-1.3-5.2-3-5.6-2.3
			c-0.4,0.8,1.9,4.4,3,4C18.1,189.6,19.6,188.9,19.4,188.2z M16.9,155.5c-1.3,0.3-3.8,2.1-3.6,3.2c0.4,1.2,2.9,4.9,4.2,4.6
			C18.9,163.2,18.3,155.2,16.9,155.5z M10.3,181.1c-0.1,1.1,1.6,3.8,2.8,3.8c0.5-0.1,2.8-1.5,2.6-2.5
			C15.5,180.8,10.3,179.9,10.3,181.1z M12,159.5c-1.3,0.3-2.8,2.8-2.5,3.8c0.3,1.2,4.2,3.3,5.6,3C16.4,166.1,13.2,159.2,12,159.5z
			 M8.6,164.5c-0.2,0-0.3,0.1-0.5,0.2c0,2.1,0,4.4,0,6.8c1.9,0.4,5.2-0.4,5.3-1.4C13.8,168.6,10.1,164.2,8.6,164.5z M13.4,175.8
			c-0.4-1.2-3.6-2.9-5.2-3c0,1.7,0,3.5,0,5.2v0c0.4,0.7,0.9,1.2,1.5,1.2C11.4,179.1,13.9,177.2,13.4,175.8z M16.1,200.9
			c0,0.2,0.1,0.4,0.2,0.6c0.4,1.2,0.9,3.1,0.4,4c-0.2,0.3-0.4,0.5-0.8,0.6c-3.9,0.9-5,2.6-5.6,3.5c-0.3,0.5-0.5,0.8-0.9,0.8
			c-0.1,0-0.2,0-0.3-0.1c-0.2-0.1-0.3-0.2-0.3-0.4c-0.1-0.5,0.5-1.3,1.1-2c0.3-0.3,0.6-0.7,0.6-0.9c-0.1,0-0.1-0.1-0.3-0.1
			c-0.4,0-1.2,0.3-2.1,0.7c0,4.7,0,8.1-0.1,9.2c-0.3,3.9,4,4.5,4,4.5H22C23,215.8,21,208.9,16.1,200.9z M8.2,205.5v0.8
			c0.6-0.2,1.3-0.3,1.3-0.5C9.4,205.8,8.9,205.7,8.2,205.5z M74.7,199.2l-3.2,10.1h6.6L74.7,199.2z M74.7,199.2l-3.2,10.1h6.6
			L74.7,199.2z M74.7,199.2l-3.2,10.1h6.6L74.7,199.2z M74.7,199.2l-3.2,10.1h6.6L74.7,199.2z M74.7,199.2l-3.2,10.1h6.6L74.7,199.2
			z M74.7,199.2l-3.2,10.1h6.6L74.7,199.2z M74.7,199.2l-3.2,10.1h6.6L74.7,199.2z M74.7,199.2l-3.2,10.1h6.6L74.7,199.2z
			 M74.7,199.2l-3.2,10.1h6.6L74.7,199.2z M74.7,199.2l-3.2,10.1h6.6L74.7,199.2z M74.7,199.2l-3.2,10.1h6.6L74.7,199.2z
			 M74.7,199.2l-3.2,10.1h6.6L74.7,199.2z M74.7,199.2l-3.2,10.1h6.6L74.7,199.2z M74.7,199.2l-3.2,10.1h6.6L74.7,199.2z
			 M74.7,199.2l-3.2,10.1h6.6L74.7,199.2z M74.7,199.2l-3.2,10.1h6.6L74.7,199.2z M74.7,199.2l-3.2,10.1h6.6L74.7,199.2z
			 M74.7,199.2l-3.2,10.1h6.6L74.7,199.2z M74.7,199.2l-3.2,10.1h6.6L74.7,199.2z M74.7,199.2l-3.2,10.1h6.6L74.7,199.2z
			 M74.7,199.2l-3.2,10.1h6.6L74.7,199.2z M74.7,199.2l-3.2,10.1h6.6L74.7,199.2z M74.7,199.2l-3.2,10.1h6.6L74.7,199.2z
			 M74.7,199.2l-3.2,10.1h6.6L74.7,199.2z M74.7,199.2l-3.2,10.1h6.6L74.7,199.2z M74.7,199.2l-3.2,10.1h6.6L74.7,199.2z
			 M74.7,199.2l-3.2,10.1h6.6L74.7,199.2z M74.7,199.2l-3.2,10.1h6.6L74.7,199.2z M74.7,199.2l-3.2,10.1h6.6L74.7,199.2z
			 M74.7,199.2l-3.2,10.1h6.6L74.7,199.2z M74.7,199.2l-3.2,10.1h6.6L74.7,199.2z M74.7,199.2l-3.2,10.1h6.6L74.7,199.2z
			 M74.7,199.2l-3.2,10.1h6.6L74.7,199.2z M74.7,199.2l-3.2,10.1h6.6L74.7,199.2z M74.7,199.2l-3.2,10.1h6.6L74.7,199.2z
			 M74.7,199.2l-3.2,10.1h6.6L74.7,199.2z M74.7,199.2l-3.2,10.1h6.6L74.7,199.2z M74.7,199.2l-3.2,10.1h6.6L74.7,199.2z
			 M74.7,199.2l-3.2,10.1h6.6L74.7,199.2z M74.7,199.2l-3.2,10.1h6.6L74.7,199.2z M74.7,199.2l-3.2,10.1h6.6L74.7,199.2z
			 M74.7,199.2l-3.2,10.1h6.6L74.7,199.2z M74.7,199.2l-3.2,10.1h6.6L74.7,199.2z M74.7,199.2l-3.2,10.1h6.6L74.7,199.2z
			 M74.7,199.2l-3.2,10.1h6.6L74.7,199.2z M74.7,199.2l-3.2,10.1h6.6L74.7,199.2z M74.7,199.2l-3.2,10.1h6.6L74.7,199.2z
			 M26.5,214.5c-0.1-0.1-0.3-0.1-0.5-0.2c0,0.5,0,0.9-0.1,1.4c0.2-0.3,0.4-0.6,0.5-0.9C26.6,214.6,26.5,214.5,26.5,214.5z
			 M25.6,219.2C25.6,219.2,25.5,219.2,25.6,219.2c-0.1,0.2-0.2,0.5-0.3,0.8c0.1-0.2,0.2-0.4,0.3-0.6
			C25.6,219.3,25.6,219.2,25.6,219.2z M74.7,199.2l-3.2,10.1h6.6L74.7,199.2z M74.7,199.2l-3.2,10.1h6.6L74.7,199.2z M74.7,199.2
			l-3.2,10.1h6.6L74.7,199.2z M74.7,199.2l-3.2,10.1h6.6L74.7,199.2z M74.7,199.2l-3.2,10.1h6.6L74.7,199.2z M74.7,199.2l-3.2,10.1
			h6.6L74.7,199.2z M74.7,199.2l-3.2,10.1h6.6L74.7,199.2z M74.7,199.2l-3.2,10.1h6.6L74.7,199.2z M74.7,199.2l-3.2,10.1h6.6
			L74.7,199.2z M74.7,199.2l-3.2,10.1h6.6L74.7,199.2z M74.7,199.2l-3.2,10.1h6.6L74.7,199.2z M74.7,199.2l-3.2,10.1h6.6L74.7,199.2
			z M74.7,199.2l-3.2,10.1h6.6L74.7,199.2z M74.7,199.2l-3.2,10.1h6.6L74.7,199.2z M74.7,199.2l-3.2,10.1h6.6L74.7,199.2z
			 M74.7,199.2l-3.2,10.1h6.6L74.7,199.2z M74.7,199.2l-3.2,10.1h6.6L74.7,199.2z M74.7,199.2l-3.2,10.1h6.6L74.7,199.2z
			 M74.7,199.2l-3.2,10.1h6.6L74.7,199.2z M74.7,199.2l-3.2,10.1h6.6L74.7,199.2z M74.7,199.2l-3.2,10.1h6.6L74.7,199.2z
			 M74.7,199.2l-3.2,10.1h6.6L74.7,199.2z M74.7,199.2l-3.2,10.1h6.6L74.7,199.2z M74.7,199.2l-3.2,10.1h6.6L74.7,199.2z
			 M74.7,199.2l-3.2,10.1h6.6L74.7,199.2z M74.7,199.2l-3.2,10.1h6.6L74.7,199.2z M74.7,199.2l-3.2,10.1h6.6L74.7,199.2z
			 M218.5,172.9c-1.4-3.6-2.9-7.5-4.3-11.7h-0.1c-1.5,4.3-3,8.2-4.4,11.7l-1.3,3.3h11.5L218.5,172.9z M218.5,172.9
			c-1.4-3.6-2.9-7.5-4.3-11.7h-0.1c-1.5,4.3-3,8.2-4.4,11.7l-1.3,3.3h11.5L218.5,172.9z M218.5,172.9c-1.4-3.6-2.9-7.5-4.3-11.7
			h-0.1c-1.5,4.3-3,8.2-4.4,11.7l-1.3,3.3h11.5L218.5,172.9z M218.5,172.9c-1.4-3.6-2.9-7.5-4.3-11.7h-0.1c-1.5,4.3-3,8.2-4.4,11.7
			l-1.3,3.3h11.5L218.5,172.9z M107.7,199.2l-3.2,10.1h6.6L107.7,199.2z M218.5,172.9c-1.4-3.6-2.9-7.5-4.3-11.7h-0.1
			c-1.5,4.3-3,8.2-4.4,11.7l-1.3,3.3h11.5L218.5,172.9z M218.5,172.9c-1.4-3.6-2.9-7.5-4.3-11.7h-0.1c-1.5,4.3-3,8.2-4.4,11.7
			l-1.3,3.3h11.5L218.5,172.9z M107.7,199.2l-3.2,10.1h6.6L107.7,199.2z M107.7,199.2l-3.2,10.1h6.6L107.7,199.2z M148.2,199.2
			l-3.2,10.1h6.6L148.2,199.2z M218.5,172.9c-1.4-3.6-2.9-7.5-4.3-11.7h-0.1c-1.5,4.3-3,8.2-4.4,11.7l-1.3,3.3h11.5L218.5,172.9z
			 M218.5,172.9c-1.4-3.6-2.9-7.5-4.3-11.7h-0.1c-1.5,4.3-3,8.2-4.4,11.7l-1.3,3.3h11.5L218.5,172.9z M148.2,199.2l-3.2,10.1h6.6
			L148.2,199.2z M107.7,199.2l-3.2,10.1h6.6L107.7,199.2z M107.7,199.2l-3.2,10.1h6.6L107.7,199.2z M148.2,199.2l-3.2,10.1h6.6
			L148.2,199.2z M192.1,203.7c-0.2-1-0.6-1.9-1.2-2.6c-0.5-0.7-1.3-1.2-2.2-1.6c-0.9-0.4-2.1-0.6-3.5-0.6h-3.5v16.5h3.5
			c1.4,0,2.6-0.2,3.5-0.6c0.9-0.4,1.7-0.9,2.2-1.6c0.6-0.7,0.9-1.6,1.2-2.6c0.2-1,0.3-2.2,0.3-3.5
			C192.4,205.9,192.3,204.7,192.1,203.7z M218.5,172.9c-1.4-3.6-2.9-7.5-4.3-11.7h-0.1c-1.5,4.3-3,8.2-4.4,11.7l-1.3,3.3h11.5
			L218.5,172.9z M218.5,172.9c-1.4-3.6-2.9-7.5-4.3-11.7h-0.1c-1.5,4.3-3,8.2-4.4,11.7l-1.3,3.3h11.5L218.5,172.9z M192.1,203.7
			c-0.2-1-0.6-1.9-1.2-2.6c-0.5-0.7-1.3-1.2-2.2-1.6c-0.9-0.4-2.1-0.6-3.5-0.6h-3.5v16.5h3.5c1.4,0,2.6-0.2,3.5-0.6
			c0.9-0.4,1.7-0.9,2.2-1.6c0.6-0.7,0.9-1.6,1.2-2.6c0.2-1,0.3-2.2,0.3-3.5C192.4,205.9,192.3,204.7,192.1,203.7z M148.2,199.2
			l-3.2,10.1h6.6L148.2,199.2z M107.7,199.2l-3.2,10.1h6.6L107.7,199.2z M107.7,199.2l-3.2,10.1h6.6L107.7,199.2z M148.2,199.2
			l-3.2,10.1h6.6L148.2,199.2z M192.1,203.7c-0.2-1-0.6-1.9-1.2-2.6c-0.5-0.7-1.3-1.2-2.2-1.6c-0.9-0.4-2.1-0.6-3.5-0.6h-3.5v16.5
			h3.5c1.4,0,2.6-0.2,3.5-0.6c0.9-0.4,1.7-0.9,2.2-1.6c0.6-0.7,0.9-1.6,1.2-2.6c0.2-1,0.3-2.2,0.3-3.5
			C192.4,205.9,192.3,204.7,192.1,203.7z M218.5,172.9c-1.4-3.6-2.9-7.5-4.3-11.7h-0.1c-1.5,4.3-3,8.2-4.4,11.7l-1.3,3.3h11.5
			L218.5,172.9z M228.3,199.7c-0.7-0.6-1.7-0.9-3.1-0.9h-6.1v7.4h5.7c0.8,0,1.5-0.1,2-0.2c0.6-0.1,1-0.3,1.4-0.6
			c0.4-0.3,0.6-0.7,0.8-1.2c0.2-0.5,0.3-1.1,0.3-1.8C229.4,201.2,229,200.3,228.3,199.7z M228.3,199.7c-0.7-0.6-1.7-0.9-3.1-0.9
			h-6.1v7.4h5.7c0.8,0,1.5-0.1,2-0.2c0.6-0.1,1-0.3,1.4-0.6c0.4-0.3,0.6-0.7,0.8-1.2c0.2-0.5,0.3-1.1,0.3-1.8
			C229.4,201.2,229,200.3,228.3,199.7z M218.5,172.9c-1.4-3.6-2.9-7.5-4.3-11.7h-0.1c-1.5,4.3-3,8.2-4.4,11.7l-1.3,3.3h11.5
			L218.5,172.9z M192.1,203.7c-0.2-1-0.6-1.9-1.2-2.6c-0.5-0.7-1.3-1.2-2.2-1.6c-0.9-0.4-2.1-0.6-3.5-0.6h-3.5v16.5h3.5
			c1.4,0,2.6-0.2,3.5-0.6c0.9-0.4,1.7-0.9,2.2-1.6c0.6-0.7,0.9-1.6,1.2-2.6c0.2-1,0.3-2.2,0.3-3.5
			C192.4,205.9,192.3,204.7,192.1,203.7z M148.2,199.2l-3.2,10.1h6.6L148.2,199.2z M107.7,199.2l-3.2,10.1h6.6L107.7,199.2z
			 M107.7,199.2l-3.2,10.1h6.6L107.7,199.2z M148.2,199.2l-3.2,10.1h6.6L148.2,199.2z M192.1,203.7c-0.2-1-0.6-1.9-1.2-2.6
			c-0.5-0.7-1.3-1.2-2.2-1.6c-0.9-0.4-2.1-0.6-3.5-0.6h-3.5v16.5h3.5c1.4,0,2.6-0.2,3.5-0.6c0.9-0.4,1.7-0.9,2.2-1.6
			c0.6-0.7,0.9-1.6,1.2-2.6c0.2-1,0.3-2.2,0.3-3.5C192.4,205.9,192.3,204.7,192.1,203.7z M218.5,172.9c-1.4-3.6-2.9-7.5-4.3-11.7
			h-0.1c-1.5,4.3-3,8.2-4.4,11.7l-1.3,3.3h11.5L218.5,172.9z M228.3,199.7c-0.7-0.6-1.7-0.9-3.1-0.9h-6.1v7.4h5.7
			c0.8,0,1.5-0.1,2-0.2c0.6-0.1,1-0.3,1.4-0.6c0.4-0.3,0.6-0.7,0.8-1.2c0.2-0.5,0.3-1.1,0.3-1.8C229.4,201.2,229,200.3,228.3,199.7z
			 M228.3,199.7c-0.7-0.6-1.7-0.9-3.1-0.9h-6.1v7.4h5.7c0.8,0,1.5-0.1,2-0.2c0.6-0.1,1-0.3,1.4-0.6c0.4-0.3,0.6-0.7,0.8-1.2
			c0.2-0.5,0.3-1.1,0.3-1.8C229.4,201.2,229,200.3,228.3,199.7z M218.5,172.9c-1.4-3.6-2.9-7.5-4.3-11.7h-0.1
			c-1.5,4.3-3,8.2-4.4,11.7l-1.3,3.3h11.5L218.5,172.9z M192.1,203.7c-0.2-1-0.6-1.9-1.2-2.6c-0.5-0.7-1.3-1.2-2.2-1.6
			c-0.9-0.4-2.1-0.6-3.5-0.6h-3.5v16.5h3.5c1.4,0,2.6-0.2,3.5-0.6c0.9-0.4,1.7-0.9,2.2-1.6c0.6-0.7,0.9-1.6,1.2-2.6
			c0.2-1,0.3-2.2,0.3-3.5C192.4,205.9,192.3,204.7,192.1,203.7z M148.2,199.2l-3.2,10.1h6.6L148.2,199.2z M107.7,199.2l-3.2,10.1
			h6.6L107.7,199.2z M107.7,199.2l-3.2,10.1h6.6L107.7,199.2z M148.2,199.2l-3.2,10.1h6.6L148.2,199.2z M192.1,203.7
			c-0.2-1-0.6-1.9-1.2-2.6c-0.5-0.7-1.3-1.2-2.2-1.6c-0.9-0.4-2.1-0.6-3.5-0.6h-3.5v16.5h3.5c1.4,0,2.6-0.2,3.5-0.6
			c0.9-0.4,1.7-0.9,2.2-1.6c0.6-0.7,0.9-1.6,1.2-2.6c0.2-1,0.3-2.2,0.3-3.5C192.4,205.9,192.3,204.7,192.1,203.7z M218.5,172.9
			c-1.4-3.6-2.9-7.5-4.3-11.7h-0.1c-1.5,4.3-3,8.2-4.4,11.7l-1.3,3.3h11.5L218.5,172.9z M228.3,199.7c-0.7-0.6-1.7-0.9-3.1-0.9h-6.1
			v7.4h5.7c0.8,0,1.5-0.1,2-0.2c0.6-0.1,1-0.3,1.4-0.6c0.4-0.3,0.6-0.7,0.8-1.2c0.2-0.5,0.3-1.1,0.3-1.8
			C229.4,201.2,229,200.3,228.3,199.7z M228.3,199.7c-0.7-0.6-1.7-0.9-3.1-0.9h-6.1v7.4h5.7c0.8,0,1.5-0.1,2-0.2
			c0.6-0.1,1-0.3,1.4-0.6c0.4-0.3,0.6-0.7,0.8-1.2c0.2-0.5,0.3-1.1,0.3-1.8C229.4,201.2,229,200.3,228.3,199.7z M218.5,172.9
			c-1.4-3.6-2.9-7.5-4.3-11.7h-0.1c-1.5,4.3-3,8.2-4.4,11.7l-1.3,3.3h11.5L218.5,172.9z M192.1,203.7c-0.2-1-0.6-1.9-1.2-2.6
			c-0.5-0.7-1.3-1.2-2.2-1.6c-0.9-0.4-2.1-0.6-3.5-0.6h-3.5v16.5h3.5c1.4,0,2.6-0.2,3.5-0.6c0.9-0.4,1.7-0.9,2.2-1.6
			c0.6-0.7,0.9-1.6,1.2-2.6c0.2-1,0.3-2.2,0.3-3.5C192.4,205.9,192.3,204.7,192.1,203.7z M148.2,199.2l-3.2,10.1h6.6L148.2,199.2z
			 M107.7,199.2l-3.2,10.1h6.6L107.7,199.2z M107.7,199.2l-3.2,10.1h6.6L107.7,199.2z M148.2,199.2l-3.2,10.1h6.6L148.2,199.2z
			 M192.1,203.7c-0.2-1-0.6-1.9-1.2-2.6c-0.5-0.7-1.3-1.2-2.2-1.6c-0.9-0.4-2.1-0.6-3.5-0.6h-3.5v16.5h3.5c1.4,0,2.6-0.2,3.5-0.6
			c0.9-0.4,1.7-0.9,2.2-1.6c0.6-0.7,0.9-1.6,1.2-2.6c0.2-1,0.3-2.2,0.3-3.5C192.4,205.9,192.3,204.7,192.1,203.7z M218.5,172.9
			c-1.4-3.6-2.9-7.5-4.3-11.7h-0.1c-1.5,4.3-3,8.2-4.4,11.7l-1.3,3.3h11.5L218.5,172.9z M228.3,199.7c-0.7-0.6-1.7-0.9-3.1-0.9h-6.1
			v7.4h5.7c0.8,0,1.5-0.1,2-0.2c0.6-0.1,1-0.3,1.4-0.6c0.4-0.3,0.6-0.7,0.8-1.2c0.2-0.5,0.3-1.1,0.3-1.8
			C229.4,201.2,229,200.3,228.3,199.7z M228.3,199.7c-0.7-0.6-1.7-0.9-3.1-0.9h-6.1v7.4h5.7c0.8,0,1.5-0.1,2-0.2
			c0.6-0.1,1-0.3,1.4-0.6c0.4-0.3,0.6-0.7,0.8-1.2c0.2-0.5,0.3-1.1,0.3-1.8C229.4,201.2,229,200.3,228.3,199.7z M218.5,172.9
			c-1.4-3.6-2.9-7.5-4.3-11.7h-0.1c-1.5,4.3-3,8.2-4.4,11.7l-1.3,3.3h11.5L218.5,172.9z M192.1,203.7c-0.2-1-0.6-1.9-1.2-2.6
			c-0.5-0.7-1.3-1.2-2.2-1.6c-0.9-0.4-2.1-0.6-3.5-0.6h-3.5v16.5h3.5c1.4,0,2.6-0.2,3.5-0.6c0.9-0.4,1.7-0.9,2.2-1.6
			c0.6-0.7,0.9-1.6,1.2-2.6c0.2-1,0.3-2.2,0.3-3.5C192.4,205.9,192.3,204.7,192.1,203.7z M148.2,199.2l-3.2,10.1h6.6L148.2,199.2z
			 M107.7,199.2l-3.2,10.1h6.6L107.7,199.2z M107.7,199.2l-3.2,10.1h6.6L107.7,199.2z M148.2,199.2l-3.2,10.1h6.6L148.2,199.2z
			 M192.1,203.7c-0.2-1-0.6-1.9-1.2-2.6c-0.5-0.7-1.3-1.2-2.2-1.6c-0.9-0.4-2.1-0.6-3.5-0.6h-3.5v16.5h3.5c1.4,0,2.6-0.2,3.5-0.6
			c0.9-0.4,1.7-0.9,2.2-1.6c0.6-0.7,0.9-1.6,1.2-2.6c0.2-1,0.3-2.2,0.3-3.5C192.4,205.9,192.3,204.7,192.1,203.7z M218.5,172.9
			c-1.4-3.6-2.9-7.5-4.3-11.7h-0.1c-1.5,4.3-3,8.2-4.4,11.7l-1.3,3.3h11.5L218.5,172.9z M228.3,199.7c-0.7-0.6-1.7-0.9-3.1-0.9h-6.1
			v7.4h5.7c0.8,0,1.5-0.1,2-0.2c0.6-0.1,1-0.3,1.4-0.6c0.4-0.3,0.6-0.7,0.8-1.2c0.2-0.5,0.3-1.1,0.3-1.8
			C229.4,201.2,229,200.3,228.3,199.7z M228.3,199.7c-0.7-0.6-1.7-0.9-3.1-0.9h-6.1v7.4h5.7c0.8,0,1.5-0.1,2-0.2
			c0.6-0.1,1-0.3,1.4-0.6c0.4-0.3,0.6-0.7,0.8-1.2c0.2-0.5,0.3-1.1,0.3-1.8C229.4,201.2,229,200.3,228.3,199.7z M218.5,172.9
			c-1.4-3.6-2.9-7.5-4.3-11.7h-0.1c-1.5,4.3-3,8.2-4.4,11.7l-1.3,3.3h11.5L218.5,172.9z M192.1,203.7c-0.2-1-0.6-1.9-1.2-2.6
			c-0.5-0.7-1.3-1.2-2.2-1.6c-0.9-0.4-2.1-0.6-3.5-0.6h-3.5v16.5h3.5c1.4,0,2.6-0.2,3.5-0.6c0.9-0.4,1.7-0.9,2.2-1.6
			c0.6-0.7,0.9-1.6,1.2-2.6c0.2-1,0.3-2.2,0.3-3.5C192.4,205.9,192.3,204.7,192.1,203.7z M148.2,199.2l-3.2,10.1h6.6L148.2,199.2z
			 M107.7,199.2l-3.2,10.1h6.6L107.7,199.2z M107.7,199.2l-3.2,10.1h6.6L107.7,199.2z M148.2,199.2l-3.2,10.1h6.6L148.2,199.2z
			 M192.1,203.7c-0.2-1-0.6-1.9-1.2-2.6c-0.5-0.7-1.3-1.2-2.2-1.6c-0.9-0.4-2.1-0.6-3.5-0.6h-3.5v16.5h3.5c1.4,0,2.6-0.2,3.5-0.6
			c0.9-0.4,1.7-0.9,2.2-1.6c0.6-0.7,0.9-1.6,1.2-2.6c0.2-1,0.3-2.2,0.3-3.5C192.4,205.9,192.3,204.7,192.1,203.7z M218.5,172.9
			c-1.4-3.6-2.9-7.5-4.3-11.7h-0.1c-1.5,4.3-3,8.2-4.4,11.7l-1.3,3.3h11.5L218.5,172.9z M218.5,172.9c-1.4-3.6-2.9-7.5-4.3-11.7
			h-0.1c-1.5,4.3-3,8.2-4.4,11.7l-1.3,3.3h11.5L218.5,172.9z M192.1,203.7c-0.2-1-0.6-1.9-1.2-2.6c-0.5-0.7-1.3-1.2-2.2-1.6
			c-0.9-0.4-2.1-0.6-3.5-0.6h-3.5v16.5h3.5c1.4,0,2.6-0.2,3.5-0.6c0.9-0.4,1.7-0.9,2.2-1.6c0.6-0.7,0.9-1.6,1.2-2.6
			c0.2-1,0.3-2.2,0.3-3.5C192.4,205.9,192.3,204.7,192.1,203.7z M148.2,199.2l-3.2,10.1h6.6L148.2,199.2z M107.7,199.2l-3.2,10.1
			h6.6L107.7,199.2z M107.7,199.2l-3.2,10.1h6.6L107.7,199.2z M148.2,199.2l-3.2,10.1h6.6L148.2,199.2z M218.5,172.9
			c-1.4-3.6-2.9-7.5-4.3-11.7h-0.1c-1.5,4.3-3,8.2-4.4,11.7l-1.3,3.3h11.5L218.5,172.9z M218.5,172.9c-1.4-3.6-2.9-7.5-4.3-11.7
			h-0.1c-1.5,4.3-3,8.2-4.4,11.7l-1.3,3.3h11.5L218.5,172.9z M148.2,199.2l-3.2,10.1h6.6L148.2,199.2z M107.7,199.2l-3.2,10.1h6.6
			L107.7,199.2z M107.7,199.2l-3.2,10.1h6.6L107.7,199.2z M218.5,172.9c-1.4-3.6-2.9-7.5-4.3-11.7h-0.1c-1.5,4.3-3,8.2-4.4,11.7
			l-1.3,3.3h11.5L218.5,172.9z M218.5,172.9c-1.4-3.6-2.9-7.5-4.3-11.7h-0.1c-1.5,4.3-3,8.2-4.4,11.7l-1.3,3.3h11.5L218.5,172.9z
			 M107.7,199.2l-3.2,10.1h6.6L107.7,199.2z M218.5,172.9c-1.4-3.6-2.9-7.5-4.3-11.7h-0.1c-1.5,4.3-3,8.2-4.4,11.7l-1.3,3.3h11.5
			L218.5,172.9z M218.5,172.9c-1.4-3.6-2.9-7.5-4.3-11.7h-0.1c-1.5,4.3-3,8.2-4.4,11.7l-1.3,3.3h11.5L218.5,172.9z M218.5,172.9
			c-1.4-3.6-2.9-7.5-4.3-11.7h-0.1c-1.5,4.3-3,8.2-4.4,11.7l-1.3,3.3h11.5L218.5,172.9z M218.5,172.9c-1.4-3.6-2.9-7.5-4.3-11.7
			h-0.1c-1.5,4.3-3,8.2-4.4,11.7l-1.3,3.3h11.5L218.5,172.9z M107.7,199.2l-3.2,10.1h6.6L107.7,199.2z M148.2,199.2l-3.2,10.1h6.6
			L148.2,199.2z M192.1,203.7c-0.2-1-0.6-1.9-1.2-2.6c-0.5-0.7-1.3-1.2-2.2-1.6c-0.9-0.4-2.1-0.6-3.5-0.6h-3.5v16.5h3.5
			c1.4,0,2.6-0.2,3.5-0.6c0.9-0.4,1.7-0.9,2.2-1.6c0.6-0.7,0.9-1.6,1.2-2.6c0.2-1,0.3-2.2,0.3-3.5
			C192.4,205.9,192.3,204.7,192.1,203.7z M218.5,172.9c-1.4-3.6-2.9-7.5-4.3-11.7h-0.1c-1.5,4.3-3,8.2-4.4,11.7l-1.3,3.3h11.5
			L218.5,172.9z M228.3,199.7c-0.7-0.6-1.7-0.9-3.1-0.9h-6.1v7.4h5.7c0.8,0,1.5-0.1,2-0.2c0.6-0.1,1-0.3,1.4-0.6
			c0.4-0.3,0.6-0.7,0.8-1.2c0.2-0.5,0.3-1.1,0.3-1.8C229.4,201.2,229,200.3,228.3,199.7z M228.3,199.7c-0.7-0.6-1.7-0.9-3.1-0.9
			h-6.1v7.4h5.7c0.8,0,1.5-0.1,2-0.2c0.6-0.1,1-0.3,1.4-0.6c0.4-0.3,0.6-0.7,0.8-1.2c0.2-0.5,0.3-1.1,0.3-1.8
			C229.4,201.2,229,200.3,228.3,199.7z M218.5,172.9c-1.4-3.6-2.9-7.5-4.3-11.7h-0.1c-1.5,4.3-3,8.2-4.4,11.7l-1.3,3.3h11.5
			L218.5,172.9z M192.1,203.7c-0.2-1-0.6-1.9-1.2-2.6c-0.5-0.7-1.3-1.2-2.2-1.6c-0.9-0.4-2.1-0.6-3.5-0.6h-3.5v16.5h3.5
			c1.4,0,2.6-0.2,3.5-0.6c0.9-0.4,1.7-0.9,2.2-1.6c0.6-0.7,0.9-1.6,1.2-2.6c0.2-1,0.3-2.2,0.3-3.5
			C192.4,205.9,192.3,204.7,192.1,203.7z M148.2,199.2l-3.2,10.1h6.6L148.2,199.2z M107.7,199.2l-3.2,10.1h6.6L107.7,199.2z
			 M107.7,199.2l-3.2,10.1h6.6L107.7,199.2z M148.2,199.2l-3.2,10.1h6.6L148.2,199.2z M192.1,203.7c-0.2-1-0.6-1.9-1.2-2.6
			c-0.5-0.7-1.3-1.2-2.2-1.6c-0.9-0.4-2.1-0.6-3.5-0.6h-3.5v16.5h3.5c1.4,0,2.6-0.2,3.5-0.6c0.9-0.4,1.7-0.9,2.2-1.6
			c0.6-0.7,0.9-1.6,1.2-2.6c0.2-1,0.3-2.2,0.3-3.5C192.4,205.9,192.3,204.7,192.1,203.7z M218.5,172.9c-1.4-3.6-2.9-7.5-4.3-11.7
			h-0.1c-1.5,4.3-3,8.2-4.4,11.7l-1.3,3.3h11.5L218.5,172.9z M228.3,199.7c-0.7-0.6-1.7-0.9-3.1-0.9h-6.1v7.4h5.7
			c0.8,0,1.5-0.1,2-0.2c0.6-0.1,1-0.3,1.4-0.6c0.4-0.3,0.6-0.7,0.8-1.2c0.2-0.5,0.3-1.1,0.3-1.8C229.4,201.2,229,200.3,228.3,199.7z
			 M228.3,199.7c-0.7-0.6-1.7-0.9-3.1-0.9h-6.1v7.4h5.7c0.8,0,1.5-0.1,2-0.2c0.6-0.1,1-0.3,1.4-0.6c0.4-0.3,0.6-0.7,0.8-1.2
			c0.2-0.5,0.3-1.1,0.3-1.8C229.4,201.2,229,200.3,228.3,199.7z M218.5,172.9c-1.4-3.6-2.9-7.5-4.3-11.7h-0.1
			c-1.5,4.3-3,8.2-4.4,11.7l-1.3,3.3h11.5L218.5,172.9z M192.1,203.7c-0.2-1-0.6-1.9-1.2-2.6c-0.5-0.7-1.3-1.2-2.2-1.6
			c-0.9-0.4-2.1-0.6-3.5-0.6h-3.5v16.5h3.5c1.4,0,2.6-0.2,3.5-0.6c0.9-0.4,1.7-0.9,2.2-1.6c0.6-0.7,0.9-1.6,1.2-2.6
			c0.2-1,0.3-2.2,0.3-3.5C192.4,205.9,192.3,204.7,192.1,203.7z M148.2,199.2l-3.2,10.1h6.6L148.2,199.2z M107.7,199.2l-3.2,10.1
			h6.6L107.7,199.2z M107.7,199.2l-3.2,10.1h6.6L107.7,199.2z M148.2,199.2l-3.2,10.1h6.6L148.2,199.2z M192.1,203.7
			c-0.2-1-0.6-1.9-1.2-2.6c-0.5-0.7-1.3-1.2-2.2-1.6c-0.9-0.4-2.1-0.6-3.5-0.6h-3.5v16.5h3.5c1.4,0,2.6-0.2,3.5-0.6
			c0.9-0.4,1.7-0.9,2.2-1.6c0.6-0.7,0.9-1.6,1.2-2.6c0.2-1,0.3-2.2,0.3-3.5C192.4,205.9,192.3,204.7,192.1,203.7z M218.5,172.9
			c-1.4-3.6-2.9-7.5-4.3-11.7h-0.1c-1.5,4.3-3,8.2-4.4,11.7l-1.3,3.3h11.5L218.5,172.9z M228.3,199.7c-0.7-0.6-1.7-0.9-3.1-0.9h-6.1
			v7.4h5.7c0.8,0,1.5-0.1,2-0.2c0.6-0.1,1-0.3,1.4-0.6c0.4-0.3,0.6-0.7,0.8-1.2c0.2-0.5,0.3-1.1,0.3-1.8
			C229.4,201.2,229,200.3,228.3,199.7z M228.3,199.7c-0.7-0.6-1.7-0.9-3.1-0.9h-6.1v7.4h5.7c0.8,0,1.5-0.1,2-0.2
			c0.6-0.1,1-0.3,1.4-0.6c0.4-0.3,0.6-0.7,0.8-1.2c0.2-0.5,0.3-1.1,0.3-1.8C229.4,201.2,229,200.3,228.3,199.7z M218.5,172.9
			c-1.4-3.6-2.9-7.5-4.3-11.7h-0.1c-1.5,4.3-3,8.2-4.4,11.7l-1.3,3.3h11.5L218.5,172.9z M192.1,203.7c-0.2-1-0.6-1.9-1.2-2.6
			c-0.5-0.7-1.3-1.2-2.2-1.6c-0.9-0.4-2.1-0.6-3.5-0.6h-3.5v16.5h3.5c1.4,0,2.6-0.2,3.5-0.6c0.9-0.4,1.7-0.9,2.2-1.6
			c0.6-0.7,0.9-1.6,1.2-2.6c0.2-1,0.3-2.2,0.3-3.5C192.4,205.9,192.3,204.7,192.1,203.7z M148.2,199.2l-3.2,10.1h6.6L148.2,199.2z
			 M107.7,199.2l-3.2,10.1h6.6L107.7,199.2z"/>
	</g>
	<g>
		<g>
			<path fill="#546E7A" d="M8.2,172.8c-0.6,0-1,0.2-1,0.7c-0.1,1.2,0.3,3.2,1,4.5C8.2,176.3,8.2,174.5,8.2,172.8z M8.1,164.7
				c-1.1,0.8-1.6,4.1-1.4,5.8c0.1,0.6,0.7,0.9,1.4,1C8.1,169.1,8.1,166.8,8.1,164.7z M26.8,147c-1.4,0-3.8,0.8-5,1.7
				c-0.2,0.2-0.3,0.4-0.3,0.7c0,0.4,0.1,0.8,0.2,1.1c0.1,0.2,0.1,0.4,0.2,0.5c0.6-0.6,1.2-1.1,1.9-1.6c1.2-0.9,2.5-1.7,3.8-2.3
				C27.3,147,27.1,147,26.8,147z M27.7,147.2c0,0-0.1,0-0.2-0.1c-0.2-0.1-0.4-0.1-0.7-0.1c-1.4,0-3.8,0.8-5,1.7
				c-0.2,0.2-0.3,0.4-0.3,0.7c0,0.4,0.1,0.8,0.2,1.1c0.1,0.2,0.1,0.4,0.2,0.5c0,0,0,0.1,0.1,0.1c0,0,0,0.1,0.1,0.1
				c0.7-0.7,1.5-1.3,2.2-1.8c1.2-0.8,2.4-1.6,3.7-2.2C27.8,147.2,27.7,147.2,27.7,147.2z M32.3,145.2c0-0.1-0.3-0.1-0.7-0.1
				c-0.8,0-1.9,0.2-2.6,0.5c-0.3,0.2-0.2,0.7-0.2,0.8c0,0,0,0.1,0,0.1c0,0,0,0.1,0,0.1c0,0,0,0.1,0.1,0.1c0.2,0.5,0.6,0.9,0.9,0.8
				c0.9-0.3,1.9-1.2,2.3-1.9c0-0.1,0.1-0.1,0.1-0.2c0-0.1,0-0.1,0.1-0.2C32.3,145.3,32.3,145.3,32.3,145.2
				C32.3,145.2,32.3,145.2,32.3,145.2z M27.9,147.4c0,0-0.1-0.1-0.1-0.1c0,0-0.1-0.1-0.1-0.1c0,0-0.1,0-0.2-0.1
				c-0.2-0.1-0.4-0.1-0.7-0.1c-1.4,0-3.8,0.8-5,1.7c-0.2,0.2-0.3,0.4-0.3,0.7c0,0.4,0.1,0.8,0.2,1.1c0.1,0.2,0.1,0.4,0.2,0.5
				c0,0,0,0.1,0.1,0.1c0,0,0,0.1,0.1,0.1c0.7,1.4,2.2,2.9,3.2,2.9c0.1,0,0.2,0,0.3,0c0.7-0.2,1.7-2,2.4-3.9c0.1-0.3,0.2-0.5,0.2-0.8
				C28.2,148.4,28.2,147.7,27.9,147.4z M27,204.9c-0.1-0.8-2.2-2.4-2.9-1.6c-0.1,0.1-0.1,0.4,0,0.7c0,0,0,0,0,0
				c0.1,0.5,0.4,1.2,0.7,1.8l0,0c0.2,0.5,0.4,1,0.5,1.1C25.8,207.8,27.1,205.7,27,204.9z M25.6,219.2
				C25.6,219.2,25.5,219.2,25.6,219.2c-0.1-0.1-0.2-0.1-0.2-0.1c0,0-0.1,0-0.1-0.1c-0.2-0.1-0.4-0.1-0.7-0.1c-0.2,0-0.5,0-0.5,0.2
				c0,0.1,0,0.5,0.2,0.9c0.2,0.4,0.4,0.5,0.4,0.5l0,0c0,0,0.1,0,0.1-0.1c0.1,0,0.1-0.1,0.2-0.2l0,0v0c0.1-0.1,0.1-0.2,0.2-0.3
				c0.1-0.2,0.2-0.4,0.3-0.6C25.6,219.3,25.6,219.2,25.6,219.2z M25.6,214.2c-0.6,0-1.2,0.2-1.2,0.4c-0.1,0.2,0.1,0.7,0.4,1.1
				c0.2,0.3,0.5,0.5,0.6,0.4c0.1,0,0.2-0.1,0.3-0.2c0.1-0.6,0.1-1.2,0.1-1.8C25.7,214.2,25.7,214.2,25.6,214.2z M31.9,142.8l-0.1,0
				l0-0.1c-0.4-0.5-1-0.8-2-0.8c-1.1,0-2.3,0.4-3,0.7c-1.5,0.6-2.5,1.8-3.6,3.1c-0.9,1-1.8,2.2-3.2,3.3c-0.1,0.1-0.3,0.1-1,0.2
				c-0.5,0-1.1,0.1-1.8,0.2c-1.6,0.2-4,0.6-6.9,1.7l-0.3,0.1l0.1-0.3c0.2-0.8,1.2-1.2,2-1.5c0,0,0.1,0,0.1,0
				c0.6-0.2,1.1-0.4,1.3-0.8c0.8-0.8,2.4-1.4,3.8-1.9c1.1-0.4,2.3-0.8,2.5-1.2c0-0.1,0-0.1,0-0.2c-0.1-0.2-0.2-0.3-0.5-0.3
				c-0.5,0-1.4,0.4-2.2,0.7c-0.7,0.3-1.4,0.6-1.9,0.6c-0.2,0-0.3,0-0.4-0.1c-0.1-0.1-0.1-0.3-0.1-0.5c0-0.6,0.8-1.4,1.7-2.3
				c1-1,2.2-2.2,1.8-2.8c-0.1-0.2-0.3-0.3-0.4-0.3c-0.8,0-1.9,1.7-2.8,3.1c-0.9,1.3-1.4,2.1-1.8,2.1c-0.1,0-0.3-0.1-0.3-0.2
				c-0.3-0.4,0.1-1.5,0.5-2.8c0.4-1.2,0.8-2.5,0.5-2.9c0-0.1-0.1-0.1-0.2-0.1c0,0-0.1,0-0.1,0c-0.8,0-1.2,2.3-1.4,4
				c-0.2,1.5-0.3,2.2-0.7,2.2c0,0-0.1,0-0.1,0c-0.6,0-1.1-0.9-1.5-1.9c-0.4-0.8-0.8-1.7-1.2-1.7c0,0-0.1,0-0.1,0
				c-0.2,0.1-0.3,0.2-0.3,0.3c-0.1,0.3,0.3,0.8,0.7,1.4c0.6,0.9,1.4,1.9,1.5,3.2l0,0.1l-0.8,0.5c-4.2,2.5-6.1,3.7-6,6.2
				c0.3,0.9,2.5,1.3,4.3,1.4c0.5,0,1,0.1,1.4,0.1c0.2,0,0.4,0,0.6,0l0.5,0l-0.5,0.2c-0.7,0.3-1.4,0.7-2,1.1
				c-3.9,2.6-6.4,6.5-7.2,11.4c-1.1,7.1,1.6,15,7.3,21.8c0.9,1.1,1.9,2.2,3,3.2l0.2,0.1l-0.2,0.1c-1.6,0.6-2.5,1.5-2.8,2.5
				c-0.5,2.1,1.9,4.6,3.2,5.9c0.7,0.7,0.8,0.9,0.7,1.1c-0.2,0.2-0.5,0.3-0.7,0.3c-0.5,0-1.1-0.3-1.7-0.7c-0.5-0.4-1.1-0.8-1.7-1.3
				c-0.1-0.1-0.2-0.1-0.2-0.2c-1.1-1-2.3-1.9-3-1.9c-0.2,0-0.4,0.1-0.5,0.3c-0.1,0.1-0.1,0.2,0,0.3c0.2,0.6,1.5,1.3,2.7,2
				c0.4,0.2,0.7,0.4,1,0.6c1,0.6,1.8,1.2,1.7,1.7c0,0.1-0.1,0.3-0.5,0.3c-0.3,0-0.7-0.1-1.2-0.2c-0.6-0.2-1.3-0.4-2.1-0.7
				c-1.8-0.6-3.9-1.3-5.1-1.3c-0.9,0-1,0.4-1,0.5c-0.1,0.9,3.8,1.6,6.4,2c0.7,0.1,1.3,0.2,1.8,0.3c1.1,0.2,1.6,0.3,1.6,0.6
				c0.1,0.3-0.4,0.5-1.6,0.8c-0.1,0-0.2,0.1-0.4,0.1c-1.3,0.3-3.1,0.7-3.5,1.4c-0.1,0.1-0.1,0.3-0.1,0.4c0,0.1,0.1,0.2,0.4,0.2
				c0.6,0,1.7-0.5,2.8-1c0.3-0.1,0.5-0.2,0.7-0.3c0.8-0.4,1.6-0.7,2.1-0.7c0.2,0,0.3,0,0.4,0.2c0,0,0.1,0.1,0.1,0.1
				c0,0.2-0.2,0.5-0.7,1.1c-0.5,0.6-1.1,1.4-1,1.8c0,0.1,0.1,0.1,0.2,0.2c0.1,0,0.1,0,0.2,0c0.2,0,0.4-0.2,0.7-0.7
				c0.6-0.9,1.8-2.7,5.8-3.6c0.3-0.1,0.5-0.2,0.6-0.4c0.5-0.9-0.1-2.7-0.4-3.8c-0.2-0.8-0.3-1-0.2-1.2c0.1-0.1,0.2-0.1,0.3,0l0,0
				c5.1,8.3,7.1,15.3,6.1,20.9c-0.1,0.5-0.2,0.9-0.3,1.4c-1.9,6.7-8,9.8-11.7,11.6c-1.5,0.8-2.8,1.4-2.8,1.9
				c5.1-1.8,14-6.1,17.2-14.4c0-0.1,0.1-0.3,0.1-0.4c0-0.2,0.1-0.3,0.1-0.5c0,0,0,0-0.1,0c0,0,0,0-0.1,0c-0.1,0-0.2-0.1-0.4-0.3
				c-0.3-0.4-0.6-1.1-0.5-1.4c0.1-0.3,0.3-0.4,0.8-0.4c0.2,0,0.5,0.1,0.7,0.1c0.2-0.8,0.3-1.6,0.3-2.4c-0.1,0-0.2,0.1-0.2,0.1
				c0,0,0,0-0.1,0c-0.3,0-0.6-0.3-0.8-0.6c-0.3-0.4-0.6-1.1-0.5-1.3c0.1-0.4,0.8-0.6,1.5-0.6c0.1,0,0.1,0,0.2,0c0-0.5,0-1.1,0-1.6
				c-0.1,0.1-0.2,0.1-0.3,0.1h0c-0.5,0-1.3-0.7-1.9-1.3c-0.3-0.4-0.8-1.1-0.8-1.6c0.1-0.6,1.3-1.1,2.4-1.3
				c-1.4-5.9-5.1-12-11.6-19.9c-2.3-2.8-4.1-5.4-5.3-8c-2.2-4.5-3-8.6-2.2-12.4c0.4-1.8,1.1-3.6,2.1-5.2c2.4-3.8,6.5-7.2,12.3-10.2
				c0.4-0.4,0.8-0.9,1.2-1.2c-0.1-0.2-0.2-0.4-0.3-0.6c-0.1-0.4-0.2-0.8-0.2-1.1c0-0.4,0.2-0.7,0.5-0.9c1.2-0.9,3.7-1.8,5.2-1.8
				c0.4,0,0.8,0.1,1.1,0.2c0.3-0.1,0.5-0.2,0.8-0.3c0,0,0-0.1,0-0.1c-0.1-0.6,0-1,0.3-1.2c0.7-0.3,1.8-0.5,2.7-0.5
				c0.5,0,0.8,0.1,0.9,0.3c0,0,0.1,0.1,0.1,0.2c0.5-0.1,1-0.3,1.5-0.4c0-0.3-0.1-0.5-0.1-0.7c0.1-0.5,0.7-0.8,1.8-0.8
				c1.2,0,2.8,0.3,3.4,0.9c0.2,0,0.3,0,0.4,0c0.2,0,0.4,0,0.6,0C38.7,143,35.2,142.9,31.9,142.8z M8.6,154.3
				c-0.1,0.2-0.3,0.3-0.5,0.3c-1.1,0.4-2.9-0.1-3.3-0.9c-0.5-0.8,1.1-1.9,2-2c0.5-0.1,1,0.3,1.3,0.8C8.6,153.2,8.9,154,8.6,154.3z
				 M11.4,151.7c0.8-0.5,2.6-0.8,2.8-0.3c0,0.5-2,2.6-2.5,2.6C10.7,153.9,10.6,152.2,11.4,151.7z M9,196.6c-0.1-0.5,2.9-2.3,3.3-2.1
				c1.2,0.4,0.5,3.8,0,4C11.1,198.8,9.1,197.2,9,196.6z M13.6,202c-1.1,0-2.6-1.5-2.3-2c0.3-0.5,2-1.3,2.8-0.7
				C14.7,199.9,14.3,202,13.6,202z M23,203.9c0.7,0.7,1.3,3.3,0.8,3.8c-0.4,0.5-2.6-0.4-2.5-1.6C21.4,205.3,22.5,203.5,23,203.9z
				 M19.9,199c0.9-0.1,2.4,2.8,2.5,3.3c0,0.9-2.8,1.6-3.3,0.9C18.1,201.6,19.1,199.1,19.9,199z M15.5,193.7c1.1-0.3,3.3,2.4,3.6,3.6
				c0.1,1.1-5,1.9-5.2,0.8C13.8,197,14.4,193.8,15.5,193.7z M11.6,187.7c0.8-0.3,2.8,2.8,2.9,3.4c0.1,0.7-2.8,2-3,1.5
				C10.8,191.3,10.7,187.8,11.6,187.7z M7,182.1c0.2-0.1,0.7,0.2,1.2,0.7c1,1,2.3,2.7,2.4,3.4c0.2,0.7-1.2,1.1-2.4,1.1
				c-0.7,0-1.4-0.1-1.6-0.3C6.1,186.1,6,182.7,7,182.1z M6.6,179.9c-0.4,1.7-4.4-1.5-4.6-2.6c-0.1-1.2,1.7-4.6,2.5-3.7
				C5.2,174.3,6.7,178.8,6.6,179.9z M4.2,171.3c-0.8,1.1-3.3-2-2.5-3.7c0.9-2.1,4-4,4.2-3.3C6.2,164.8,4.9,170.2,4.2,171.3z
				 M8.1,161.8c-0.5,0.6-0.9,1-1.1,1c-0.7,0.1-2.9,0-2.8-0.8c0.1-1.2,2.3-2.4,3.9-3c0.9-0.3,1.6-0.4,1.7-0.2
				C9.9,159.2,9,160.7,8.1,161.8z M11.4,157.9c-0.4,0.1-2.5,0-2-0.7c0.1-0.3,5.7-3.3,6.2-2.5C15.9,155.1,11.6,157.9,11.4,157.9z
				 M19.6,151.8c-0.3,0.8-4.6,1.7-5.3,1.6c-0.7,0,2.6-2.9,3.7-3.2C19.2,149.9,19.7,151.3,19.6,151.8z M26.5,214.5
				c-0.1-0.1-0.3-0.1-0.5-0.2c0,0-0.1,0-0.1,0c0,0-0.1,0-0.1,0c-0.1,0-0.1,0-0.2,0c-0.6,0-1.2,0.2-1.2,0.4c-0.1,0.2,0.1,0.7,0.4,1.1
				c0.2,0.3,0.5,0.5,0.6,0.4c0.1,0,0.2-0.1,0.3-0.2c0,0,0.1-0.1,0.2-0.1c0.1-0.1,0.1-0.1,0.2-0.2c0.2-0.3,0.4-0.6,0.5-0.9
				C26.6,214.6,26.5,214.5,26.5,214.5z M26.5,208.4c0,0,0,0-0.2,0c-0.2,0-0.5,0-0.8,0.1c0,0-0.1,0-0.1,0c0,0-0.1,0-0.1,0
				c-1,0.2-2.1,0.7-2.2,1.1c0,0.3,0.2,0.8,0.7,1.4c0.6,0.7,1.4,1.2,1.7,1.3c0.1,0,0.2-0.1,0.3-0.2c0,0,0.1-0.1,0.1-0.1
				c0,0,0.1-0.1,0.1-0.2c0.3-0.4,0.5-0.9,0.7-1.5C26.9,209.3,26.8,208.6,26.5,208.4z M39.2,144.5c0,0-0.1-0.1-0.1-0.1
				c-0.1,0-0.1-0.1-0.2-0.1c-0.7-0.4-1.9-0.7-3-0.7c-0.9,0-1.5,0.2-1.5,0.6c0,0.2,0,0.4,0.1,0.7c0,0,0,0.1,0,0.1c0,0,0,0.1,0,0.1
				c0.2,1.2,0.9,2.5,1.8,2.5c0,0,0.1,0,0.1,0c1.2,0,2.9-1.6,3-2.8C39.3,144.7,39.2,144.6,39.2,144.5z M31.5,152.8
				c-0.8-0.9,3.3-2.6,3.4-3.4c0,0,0,0,0,0c0.1-0.4-2-0.8-2.8-0.5c-0.3,0.1-0.6,0.3-0.9,0.6c-1.3,1.3-2.2,4.5-1.3,5.1
				c1.6,0.9,6.1-0.8,5.8-3.6C35.7,150.1,32.4,154.2,31.5,152.8z M26.8,147c-1.4,0-3.8,0.8-5,1.7c-0.2,0.2-0.3,0.4-0.3,0.7
				c0,0.4,0.1,0.8,0.2,1.1c0.1,0.2,0.1,0.4,0.2,0.5c0.6-0.6,1.2-1.1,1.9-1.6c1.2-0.9,2.5-1.7,3.8-2.3C27.3,147,27.1,147,26.8,147z
				 M27.3,194.7c-0.7-0.4-2.5,0-2.2,0.9c0.1,0.5,2,1.3,2.8,1.2C28.6,196.8,27.9,195,27.3,194.7z M26,199.9c0.6,1.5,1.1,2.9,1.6,4.3
				C27.1,202.8,26.6,201.4,26,199.9z M25.9,192.2c-0.1-0.9-1.7-3.4-2.4-3.6c-0.8,0-0.7,3.8-0.4,4.8
				C23.3,194.5,26.2,193.3,25.9,192.2z M24.9,199.4c-0.4-0.3-2.9-2.1-3.2-1.7c-0.3,0.3,1.3,4.2,2.1,4.2
				C24.5,201.9,25.5,199.6,24.9,199.4z M24.7,159.7c-0.5-0.1-4.4,3.3-4.1,4.8c0.3,0.5,1.2,1.5,1.9,1.1
				C24.6,164.4,25.5,160.1,24.7,159.7z M24.3,157c-0.9-0.8-2.8-3.4-3.6-3.4c-1.6-0.1-2.4,9.9,0.5,6.9C22.4,159.2,25,157.6,24.3,157z
				 M20.4,168.7c-1.1,0.3-2.1,1.9-1.3,2.4c0.9,0.7,4.5,0.1,4.4-0.5C23.4,169.8,21.4,168.5,20.4,168.7z M22.1,189.7
				c-0.3-1.2-4.2,1.7-4.1,2.9c0.3,1.2,2,3.5,3,3.3C22.1,195.7,22.2,190.9,22.1,189.7z M19.4,188.2c-0.1-1.3-5.2-3-5.6-2.3
				c-0.4,0.8,1.9,4.4,3,4C18.1,189.6,19.6,188.9,19.4,188.2z M16.9,155.5c-1.3,0.3-3.8,2.1-3.6,3.2c0.4,1.2,2.9,4.9,4.2,4.6
				C18.9,163.2,18.3,155.2,16.9,155.5z M10.3,181.1c-0.1,1.1,1.6,3.8,2.8,3.8c0.5-0.1,2.8-1.5,2.6-2.5
				C15.5,180.8,10.3,179.9,10.3,181.1z M12,159.5c-1.3,0.3-2.8,2.8-2.5,3.8c0.3,1.2,4.2,3.3,5.6,3C16.4,166.1,13.2,159.2,12,159.5z
				 M8.6,164.5c-0.2,0-0.3,0.1-0.5,0.2c-1.1,0.8-1.6,4.1-1.4,5.8c0.1,0.6,0.7,0.9,1.4,1c1.9,0.4,5.2-0.4,5.3-1.4
				C13.8,168.6,10.1,164.2,8.6,164.5z M13.4,175.8c-0.4-1.2-3.6-2.9-5.2-3c-0.6,0-1,0.2-1,0.7c-0.1,1.2,0.3,3.2,1,4.5v0
				c0.4,0.7,0.9,1.2,1.5,1.2C11.4,179.1,13.9,177.2,13.4,175.8z M8.2,172.8c-0.6,0-1,0.2-1,0.7c-0.1,1.2,0.3,3.2,1,4.5
				C8.2,176.3,8.2,174.5,8.2,172.8z M8.1,164.7c-1.1,0.8-1.6,4.1-1.4,5.8c0.1,0.6,0.7,0.9,1.4,1C8.1,169.1,8.1,166.8,8.1,164.7z"/>
			<path fill="#546E7A" d="M26,199.9c0.6,1.5,1.1,2.9,1.6,4.3C27.1,202.8,26.6,201.4,26,199.9z"/>
		</g>
		<g>
			<path fill="#546E7A" d="M26,199.9c0.6,1.5,1.1,2.9,1.6,4.3C27.1,202.8,26.6,201.4,26,199.9z"/>
		</g>
		<g>
			<path fill="#546E7A" d="M13.4,175.8c0.5,1.5-2,3.3-3.7,3.5c-0.6,0-1.1-0.4-1.5-1.2v0c-0.7-1.3-1.1-3.3-1-4.5c0-0.5,0.4-0.7,1-0.7
				C9.8,172.8,13,174.6,13.4,175.8z"/>
			<path fill="#546E7A" d="M13.5,170.1c-0.2,1.1-3.4,1.8-5.3,1.4c-0.7-0.2-1.3-0.5-1.4-1c-0.2-1.6,0.3-4.9,1.4-5.8
				c0.1-0.1,0.3-0.2,0.5-0.2C10.1,164.2,13.8,168.6,13.5,170.1z"/>
			<path fill="#546E7A" d="M15.1,166.4c-1.3,0.3-5.3-1.9-5.6-3c-0.3-1.1,1.2-3.6,2.5-3.8C13.2,159.2,16.4,166.1,15.1,166.4z"/>
			<path fill="#546E7A" d="M15.7,182.4c0.1,1.1-2.1,2.4-2.6,2.5c-1.2,0-2.9-2.8-2.8-3.8C10.3,179.9,15.5,180.8,15.7,182.4z"/>
			<path fill="#546E7A" d="M13.4,158.7c-0.3-1.1,2.2-2.9,3.6-3.2c1.3-0.3,2,7.7,0.7,7.8C16.3,163.6,13.8,159.9,13.4,158.7z"/>
			<path fill="#546E7A" d="M13.9,186c0.4-0.8,5.4,0.9,5.6,2.3c0.1,0.7-1.3,1.3-2.5,1.7C15.7,190.3,13.5,186.8,13.9,186z"/>
			<path fill="#546E7A" d="M18,192.6c-0.1-1.2,3.8-4.1,4.1-2.9c0.1,1.2,0,6-1.1,6.2C20,196.1,18.3,193.8,18,192.6z"/>
			<path fill="#546E7A" d="M20.4,168.7c1.1-0.3,3,1.1,3,1.9c0.1,0.7-3.4,1.2-4.4,0.5C18.3,170.6,19.3,169,20.4,168.7z"/>
			<path fill="#546E7A" d="M24.3,157c0.7,0.7-2,2.3-3,3.4c-2.9,3.1-2.1-7-0.5-6.9C21.6,153.5,23.4,156.2,24.3,157z"/>
			<path fill="#546E7A" d="M24.7,159.7c0.8,0.4-0.1,4.6-2.3,5.8c-0.7,0.4-1.6-0.5-1.9-1.1C20.4,163,24.2,159.6,24.7,159.7z"/>
			<path fill="#546E7A" d="M21.7,197.6c0.3-0.4,2.8,1.5,3.2,1.7c0.7,0.3-0.4,2.5-1.1,2.5C23,201.9,21.4,197.9,21.7,197.6z"/>
			<path fill="#546E7A" d="M25.9,211.9c-0.1-1.1-0.3-2.3-0.5-3.5c0,0,0.1,0,0.1,0c0.3-0.1,0.6-0.1,0.8-0.1c0.2,0,0.2,0,0.2,0
				c0.3,0.2,0.4,1,0.2,1.9c-0.2,0.6-0.4,1.2-0.7,1.5C25.9,211.8,25.9,211.9,25.9,211.9z"/>
			<path fill="#546E7A" d="M25.6,219.4c0,0.2-0.2,0.4-0.3,0.6c-0.1,0.1-0.1,0.2-0.2,0.3c0.1-0.4,0.2-0.8,0.3-1.2c0,0,0.1,0,0.1,0.1
				c0,0,0.1,0,0.1,0.1C25.6,219.2,25.6,219.3,25.6,219.4z"/>
			<path fill="#546E7A" d="M26.5,214.8c-0.1,0.3-0.3,0.6-0.5,0.9c0,0.1-0.1,0.1-0.2,0.2c0.1-0.5,0.1-1.1,0.1-1.6c0,0,0.1,0,0.1,0
				c0.2,0,0.4,0.1,0.5,0.2C26.5,214.5,26.6,214.6,26.5,214.8z"/>
			<path fill="#546E7A" d="M25.3,207c0-0.1-0.3-0.6-0.5-1.1l0,0c-0.3-0.6-0.5-1.3-0.7-1.8c0,0,0,0,0,0c-0.1-0.4-0.1-0.6,0-0.7
				c0.7-0.8,2.8,0.8,2.9,1.6C27.1,205.7,25.8,207.8,25.3,207z"/>
			<path fill="#546E7A" d="M25.9,192.2c0.3,1.1-2.6,2.3-2.8,1.2c-0.3-0.9-0.4-4.8,0.4-4.8C24.2,188.8,25.8,191.3,25.9,192.2z"/>
			<path fill="#546E7A" d="M27.8,196.8c-0.8,0.1-2.6-0.7-2.8-1.2c-0.3-0.9,1.6-1.3,2.2-0.9C27.9,195,28.6,196.8,27.8,196.8z"/>
			<path fill="#546E7A" d="M28.2,166.5"/>
			<path fill="#546E7A" d="M28,149.4c-0.1,0.3-0.1,0.5-0.2,0.8c-0.6,1.9-1.7,3.7-2.4,3.9c-0.1,0-0.2,0-0.3,0c-1,0-2.4-1.5-3.2-2.9
				c0,0,0-0.1-0.1-0.1c0.2-0.2,0.3-0.3,0.5-0.5c0.3-0.2,0.5-0.5,0.8-0.7c0.2-0.2,0.5-0.4,0.7-0.6c1.2-0.9,2.5-1.7,3.8-2.3
				c0.1,0,0.1,0.1,0.1,0.1c0,0,0.1,0.1,0.1,0.1C28.2,147.7,28.2,148.4,28,149.4z"/>
			<path fill="#546E7A" d="M35.9,151c0.3,2.8-4.2,4.5-5.8,3.6c-1-0.7-0.1-3.8,1.3-5.1c0.3-0.3,0.6-0.5,0.9-0.6
				c0.8-0.3,2.9,0.1,2.8,0.5c0,0,0,0,0,0c-0.1,0.8-4.2,2.5-3.4,3.4C32.4,154.2,35.7,150.1,35.9,151z"/>
			<path fill="#546E7A" d="M28.9,146.6c1.1-0.5,2.2-0.9,3.3-1.2c0,0.1-0.1,0.1-0.1,0.2c-0.4,0.7-1.3,1.6-2.3,1.9
				c-0.3,0.1-0.7-0.3-0.9-0.8C29,146.7,28.9,146.6,28.9,146.6z"/>
			<path fill="#546E7A" d="M39.3,144.7c-0.1,1.2-1.9,2.8-3,2.8c0,0-0.1,0-0.1,0c-0.8,0-1.5-1.3-1.8-2.5c0,0,0-0.1,0-0.1
				c1.7-0.4,3.3-0.5,4.7-0.6c0.1,0,0.1,0.1,0.1,0.1C39.2,144.6,39.3,144.7,39.3,144.7z"/>
		</g>
		<g>
			<path fill="#546E7A" d="M23.9,149.4c-0.2,0.2-0.5,0.4-0.7,0.6c-0.3,0.2-0.6,0.5-0.8,0.7c-0.2,0.2-0.3,0.3-0.5,0.5
				c0,0,0,0.1,0.1,0.1c0.7-0.7,1.5-1.3,2.2-1.8H23.9z M23.9,149.4c-0.2,0.2-0.5,0.4-0.7,0.6c-0.3,0.2-0.6,0.5-0.8,0.7
				c-0.2,0.2-0.3,0.3-0.5,0.5c0,0,0,0.1,0.1,0.1c0.7-0.7,1.5-1.3,2.2-1.8H23.9z M23.9,149.4c-0.2,0.2-0.5,0.4-0.7,0.6
				c-0.3,0.2-0.6,0.5-0.8,0.7c-0.2,0.2-0.3,0.3-0.5,0.5c0,0,0,0.1,0.1,0.1c0.7-0.7,1.5-1.3,2.2-1.8H23.9z M23.9,149.4
				c-0.2,0.2-0.5,0.4-0.7,0.6c-0.3,0.2-0.6,0.5-0.8,0.7c-0.2,0.2-0.3,0.3-0.5,0.5c0,0,0,0.1,0.1,0.1c0.7-0.7,1.5-1.3,2.2-1.8H23.9z
				 M27.7,147.2c0,0-0.1,0-0.2-0.1c-1.3,0.7-2.6,1.4-3.8,2.3c-0.7,0.5-1.3,1-1.9,1.6c0,0,0,0.1,0.1,0.1c0,0,0,0.1,0.1,0.1
				c0.7-0.7,1.5-1.3,2.2-1.8c1.2-0.8,2.4-1.6,3.7-2.2C27.8,147.2,27.7,147.2,27.7,147.2z M28.9,146.5c0,0,0,0.1,0,0.1
				c0,0,0,0.1,0.1,0.1c1-0.5,2.1-0.8,3.1-1.1c0-0.1,0.1-0.1,0.1-0.2c0-0.1,0-0.1,0.1-0.2C31.1,145.6,30,146,28.9,146.5z M40.3,149.4
				c-0.8,1.7-2.1,3.6-3.8,5.2C38.2,153,39.5,151.1,40.3,149.4L40.3,149.4z M39,144.3c-0.1,0-0.1-0.1-0.2-0.1
				c-1.4,0.1-2.9,0.2-4.5,0.6c0,0,0,0.1,0,0.1c0,0,0,0.1,0,0.1c1.7-0.4,3.3-0.5,4.8-0.6C39.1,144.4,39.1,144.4,39,144.3z M33,157.2
				c0.7-0.4,1.3-0.8,2-1.3C34.3,156.4,33.7,156.9,33,157.2z M29.5,162.2c0-0.1-0.1-0.1-0.1-0.2C29.4,162,29.5,162.1,29.5,162.2
				c0,0.1,0.1,0.2,0.1,0.4C29.6,162.4,29.6,162.3,29.5,162.2z M28.4,166.2C28.4,166.2,28.4,166.2,28.4,166.2
				C28.4,166.2,28.4,166.2,28.4,166.2C28.4,166.3,28.4,166.3,28.4,166.2C28.4,166.3,28.4,166.3,28.4,166.2z M26,199.9
				c0.6,1.5,1.1,2.9,1.6,4.3C27.1,202.8,26.6,201.4,26,199.9z M24.1,204.1c0.1,0.5,0.4,1.2,0.7,1.8
				C24.6,205.3,24.4,204.7,24.1,204.1z M25.4,219.1c0,0-0.1,0-0.1-0.1c-0.1,0.5-0.2,1-0.3,1.4c0.1,0,0.1-0.1,0.2-0.2l0,0v0
				c0.1-0.1,0.1-0.2,0.2-0.3c0.1-0.3,0.1-0.6,0.2-0.8C25.5,219.1,25.4,219.1,25.4,219.1z M25.9,214.3c0,0-0.1,0-0.1,0
				c0,0.6,0,1.2-0.1,1.8c0,0,0.1-0.1,0.2-0.1c0.1-0.1,0.1-0.1,0.2-0.2c0-0.5,0.1-1,0.1-1.4C26,214.3,26,214.3,25.9,214.3z
				 M25.5,208.4c0,0-0.1,0-0.1,0c0,0-0.1,0-0.1,0c0.3,1.2,0.4,2.4,0.5,3.5c0,0,0.1-0.1,0.1-0.1c0,0,0.1-0.1,0.1-0.2
				C25.9,210.7,25.7,209.5,25.5,208.4z M23.9,149.4c-0.2,0.2-0.5,0.4-0.7,0.6c-0.3,0.2-0.6,0.5-0.8,0.7c-0.2,0.2-0.3,0.3-0.5,0.5
				c0,0,0,0.1,0.1,0.1c0.7-0.7,1.5-1.3,2.2-1.8H23.9z M23.9,149.4c-0.2,0.2-0.5,0.4-0.7,0.6c-0.3,0.2-0.6,0.5-0.8,0.7
				c-0.2,0.2-0.3,0.3-0.5,0.5c0,0,0,0.1,0.1,0.1c0.7-0.7,1.5-1.3,2.2-1.8H23.9z M23.9,149.4c-0.2,0.2-0.5,0.4-0.7,0.6
				c-0.3,0.2-0.6,0.5-0.8,0.7c-0.2,0.2-0.3,0.3-0.5,0.5c0,0,0,0.1,0.1,0.1c0.7-0.7,1.5-1.3,2.2-1.8H23.9z M23.9,149.4
				c-0.2,0.2-0.5,0.4-0.7,0.6c-0.3,0.2-0.6,0.5-0.8,0.7c-0.2,0.2-0.3,0.3-0.5,0.5c0,0,0,0.1,0.1,0.1c0.7-0.7,1.5-1.3,2.2-1.8H23.9z
				 M23.9,149.4c-0.2,0.2-0.5,0.4-0.7,0.6c-0.3,0.2-0.6,0.5-0.8,0.7c-0.2,0.2-0.3,0.3-0.5,0.5c0,0,0,0.1,0.1,0.1
				c0.7-0.7,1.5-1.3,2.2-1.8H23.9z"/>
		</g>
		<g>
			<path fill="#546E7A" d="M35.9,151c0.3,2.8-4.2,4.5-5.8,3.6c-1-0.7-0.1-3.8,1.3-5.1c0.3-0.3,0.6-0.5,0.9-0.6
				c0.8-0.3,2.9,0.1,2.8,0.5c0,0,0,0,0,0c-0.1,0.8-4.2,2.5-3.4,3.4C32.4,154.2,35.7,150.1,35.9,151z"/>
		</g>
		<g>
			<path fill="#546E7A" d="M21.3,160.4c-2.9,3.1-2.1-7-0.5-6.9c0.8,0,2.6,2.6,3.6,3.4C25,157.6,22.4,159.2,21.3,160.4z"/>
		</g>
		<g>
			<path fill="#546E7A" d="M15.1,166.4c-1.3,0.3-5.3-1.9-5.6-3c-0.3-1.1,1.2-3.6,2.5-3.8C13.2,159.2,16.4,166.1,15.1,166.4z"/>
		</g>
		<g>
			<path fill="#546E7A" d="M13.5,170.1c-0.2,1.1-3.4,1.8-5.3,1.4c-0.7-0.2-1.3-0.5-1.4-1c-0.2-1.6,0.3-4.9,1.4-5.8
				c0.1-0.1,0.3-0.2,0.5-0.2C10.1,164.2,13.8,168.6,13.5,170.1z"/>
		</g>
		<g>
			<path fill="#546E7A" d="M9.7,179.2c-0.6,0-1.1-0.4-1.5-1.2v0c-0.7-1.3-1.1-3.3-1-4.5c0-0.5,0.4-0.7,1-0.7c1.7,0,4.8,1.8,5.2,3
				C13.9,177.2,11.4,179.1,9.7,179.2z"/>
		</g>
		<g>
			<path fill="#546E7A" d="M15.7,182.4c0.1,1.1-2.1,2.4-2.6,2.5c-1.2,0-2.9-2.8-2.8-3.8C10.3,179.9,15.5,180.8,15.7,182.4z"/>
		</g>
		<g>
			<path fill="#546E7A" d="M16.9,190c-1.2,0.4-3.4-3.2-3-4c0.4-0.8,5.4,0.9,5.6,2.3C19.6,188.9,18.1,189.6,16.9,190z"/>
		</g>
		<g>
			<path fill="#546E7A" d="M21,195.9c-1.1,0.1-2.8-2.1-3-3.3c-0.1-1.2,3.8-4.1,4.1-2.9C22.2,190.9,22.1,195.7,21,195.9z"/>
		</g>
		<g>
			<path fill="#546E7A" d="M23.2,193.4c-0.3-0.9-0.4-4.8,0.4-4.8c0.7,0.1,2.2,2.6,2.4,3.6C26.2,193.3,23.3,194.5,23.2,193.4z"/>
		</g>
		<g>
			<path fill="#546E7A" d="M23.8,201.9c-0.8,0-2.4-4-2.1-4.2c0.3-0.4,2.8,1.5,3.2,1.7C25.5,199.6,24.5,201.9,23.8,201.9z"/>
		</g>
		<g>
			<path fill="#546E7A" d="M25.3,207c0-0.1-0.3-0.6-0.5-1.1l0,0c-0.3-0.6-0.5-1.3-0.7-1.8c0,0,0,0,0,0c-0.1-0.4-0.1-0.6,0-0.7
				c0.7-0.8,2.8,0.8,2.9,1.6C27.1,205.7,25.8,207.8,25.3,207z"/>
		</g>
		<g>
			<path fill="#546E7A" d="M22.5,165.6c-0.7,0.4-1.6-0.5-1.9-1.1c-0.3-1.5,3.6-4.9,4.1-4.8C25.5,160.1,24.6,164.4,22.5,165.6z"/>
		</g>
		<g>
			<path fill="#546E7A" d="M17.6,163.3c-1.3,0.3-3.8-3.5-4.2-4.6c-0.3-1.1,2.2-2.9,3.6-3.2C18.3,155.2,18.9,163.2,17.6,163.3z"/>
		</g>
		<g>
			<path fill="#546E7A" d="M23.4,170.6c0.1,0.7-3.4,1.2-4.4,0.5c-0.8-0.5,0.3-2.1,1.3-2.4C21.4,168.5,23.4,169.8,23.4,170.6z"/>
		</g>
		<g>
			<path fill="#546E7A" d="M28,149.4c-0.1,0.3-0.1,0.5-0.2,0.8c-0.6,1.9-1.7,3.7-2.4,3.9c-0.1,0-0.2,0-0.3,0c-1,0-2.4-1.5-3.2-2.9
				c0,0,0-0.1-0.1-0.1c0,0,0-0.1-0.1-0.1c-0.1-0.2-0.2-0.4-0.2-0.5c-0.1-0.3-0.2-0.7-0.2-1.1c0-0.3,0.1-0.5,0.3-0.7
				c1.2-0.9,3.6-1.7,5-1.7c0.3,0,0.5,0,0.7,0.1c0.1,0,0.1,0,0.2,0.1c0.1,0,0.1,0.1,0.1,0.1c0,0,0.1,0.1,0.1,0.1
				C28.2,147.7,28.2,148.4,28,149.4z"/>
		</g>
		<g>
			<path fill="#546E7A" d="M39.3,144.7c-0.1,1.2-1.9,2.8-3,2.8c0,0-0.1,0-0.1,0c-0.8,0-1.5-1.3-1.8-2.5c0,0,0-0.1,0-0.1
				c0,0,0-0.1,0-0.1c0-0.2-0.1-0.5-0.1-0.7c0-0.4,0.6-0.6,1.5-0.6c1.1,0,2.4,0.3,3,0.7c0.1,0,0.1,0.1,0.2,0.1c0.1,0,0.1,0.1,0.1,0.1
				C39.2,144.6,39.3,144.7,39.3,144.7z"/>
		</g>
		<g>
			<path fill="#546E7A" d="M26.7,210.2c-0.2,0.6-0.4,1.2-0.7,1.5c0,0.1-0.1,0.1-0.1,0.2c0,0-0.1,0.1-0.1,0.1
				c-0.1,0.1-0.2,0.2-0.3,0.2c-0.3,0-1-0.5-1.7-1.3c-0.5-0.5-0.7-1.1-0.7-1.4c0.1-0.4,1.2-0.9,2.2-1.1c0,0,0.1,0,0.1,0
				c0,0,0.1,0,0.1,0c0.3-0.1,0.6-0.1,0.8-0.1c0.2,0,0.2,0,0.2,0C26.8,208.6,26.9,209.3,26.7,210.2z"/>
		</g>
		<g>
			<path fill="#546E7A" d="M26.5,214.8c-0.1,0.3-0.3,0.6-0.5,0.9c0,0.1-0.1,0.1-0.2,0.2c0,0.1-0.1,0.1-0.2,0.1
				c-0.1,0.1-0.2,0.2-0.3,0.2c-0.1,0-0.4-0.1-0.6-0.4c-0.3-0.4-0.5-0.9-0.4-1.1c0-0.2,0.6-0.4,1.2-0.4c0.1,0,0.1,0,0.2,0
				c0,0,0.1,0,0.1,0c0,0,0.1,0,0.1,0c0.2,0,0.4,0.1,0.5,0.2C26.5,214.5,26.6,214.6,26.5,214.8z"/>
		</g>
		<g>
			<path fill="#546E7A" d="M27.8,196.8c-0.8,0.1-2.6-0.7-2.8-1.2c-0.3-0.9,1.6-1.3,2.2-0.9C27.9,195,28.6,196.8,27.8,196.8z"/>
		</g>
		<g>
			<path fill="#546E7A" d="M32.3,145.2C32.3,145.3,32.3,145.3,32.3,145.2c0,0.1-0.1,0.1-0.1,0.2c0,0.1-0.1,0.1-0.1,0.2
				c-0.4,0.7-1.3,1.6-2.3,1.9c-0.3,0.1-0.7-0.3-0.9-0.8c0,0,0-0.1-0.1-0.1c0,0,0-0.1,0-0.1c0,0,0-0.1,0-0.1c0-0.2-0.1-0.7,0.2-0.8
				c0.6-0.3,1.8-0.5,2.6-0.5C32,145,32.3,145.1,32.3,145.2C32.3,145.2,32.3,145.2,32.3,145.2z"/>
		</g>
		<g>
			<path fill="#546E7A" d="M25.6,219.4c0,0.2-0.2,0.4-0.3,0.6c-0.1,0.1-0.1,0.2-0.2,0.3v0l0,0c-0.1,0.1-0.1,0.1-0.2,0.2
				c-0.1,0.1-0.1,0.1-0.1,0.1l0,0c-0.1,0-0.2-0.2-0.4-0.5c-0.2-0.4-0.3-0.7-0.2-0.9c0.1-0.2,0.3-0.2,0.5-0.2c0.2,0,0.5,0,0.7,0.1
				c0,0,0.1,0,0.1,0.1c0,0,0.1,0,0.1,0.1c0,0,0.1,0,0.1,0.1C25.6,219.2,25.6,219.3,25.6,219.4z"/>
		</g>
	</g>
	<g>
		<path fill="#546E7A" d="M31.9,230.1l3.4-3.1h-2.2l-3.4,3.2V227h-1.7v7.5h1.7V232l0.8-0.8l2.7,3.3h2.2L31.9,230.1z"/>
		<path fill="#546E7A" d="M44.1,229.1c-0.2-0.5-0.5-0.9-0.8-1.2c-0.3-0.3-0.8-0.6-1.2-0.8c-0.5-0.2-1-0.3-1.6-0.3
			c-0.8,0-1.5,0.2-2.1,0.5c-0.6,0.3-1.1,0.8-1.4,1.4c-0.3,0.6-0.5,1.3-0.5,2.1c0,0.6,0.1,1.1,0.3,1.6c0.2,0.5,0.5,0.9,0.8,1.2
			c0.4,0.3,0.8,0.6,1.3,0.8c0.5,0.2,1,0.3,1.6,0.3c0.6,0,1.1-0.1,1.6-0.3c0.5-0.2,0.9-0.5,1.2-0.8c0.3-0.4,0.6-0.8,0.8-1.3
			c0.2-0.5,0.3-1,0.3-1.6C44.4,230.1,44.3,229.5,44.1,229.1z M42.4,232c-0.2,0.4-0.4,0.7-0.8,0.9c-0.3,0.2-0.7,0.3-1.2,0.3
			c-0.8,0-1.3-0.3-1.7-0.8c-0.3-0.5-0.5-1.1-0.5-1.9c0-0.4,0.1-0.7,0.2-1c0.1-0.3,0.3-0.6,0.5-0.8c0.2-0.2,0.4-0.4,0.7-0.5
			c0.3-0.1,0.6-0.2,0.9-0.2c0.4,0,0.8,0.1,1.2,0.3c0.3,0.2,0.6,0.5,0.8,0.9c0.2,0.4,0.3,0.8,0.3,1.3C42.7,231.2,42.6,231.6,42.4,232
			z"/>
		<path fill="#546E7A" d="M50.9,227v2.9h-3.3V227h-1.7v7.5h1.7v-3.3h3.3v3.3h1.7V227H50.9z"/>
		<path fill="#546E7A" d="M59,232.9c-0.3,0.2-0.7,0.3-1.1,0.3c-0.4,0-0.8-0.1-1.1-0.3c-0.3-0.2-0.5-0.5-0.7-0.9
			c-0.2-0.4-0.2-0.8-0.2-1.3c0-0.6,0.1-1,0.3-1.4c0.2-0.4,0.4-0.7,0.7-0.9c0.3-0.2,0.7-0.3,1.2-0.3c0.5,0,0.8,0.1,1.1,0.3
			c0.3,0.2,0.5,0.5,0.6,1h1.7c0-0.4-0.2-0.8-0.3-1.1c-0.2-0.3-0.4-0.6-0.7-0.8c-0.3-0.2-0.7-0.4-1.1-0.5c-0.4-0.1-0.9-0.2-1.3-0.2
			c-0.6,0-1.1,0.1-1.6,0.3c-0.5,0.2-0.9,0.5-1.2,0.8c-0.3,0.3-0.6,0.8-0.8,1.3c-0.2,0.5-0.3,1-0.3,1.6c0,0.6,0.1,1.1,0.3,1.6
			c0.2,0.5,0.4,0.9,0.8,1.2c0.3,0.3,0.7,0.6,1.2,0.8c0.5,0.2,1,0.3,1.6,0.3c0.4,0,0.8,0,1.2-0.1c0.3-0.1,0.7-0.2,1-0.4
			c0.3-0.2,0.5-0.4,0.8-0.7c0.2-0.2,0.3-0.4,0.4-0.7c0.1-0.2,0.2-0.5,0.2-0.8h-1.7C59.5,232.3,59.3,232.7,59,232.9z"/>
		<path fill="#546E7A" d="M62.4,227v1.4h2.5v6.2h1.7v-6.2H69V227H62.4z"/>
		<path fill="#546E7A" d="M76.8,228.5c-0.1-0.3-0.2-0.5-0.3-0.7c-0.1-0.2-0.3-0.4-0.6-0.5c-0.2-0.1-0.4-0.2-0.7-0.3
			c-0.3-0.1-0.6-0.1-1.1-0.1h-3.4v7.5h1.7v-2.7H74c0.5,0,0.8,0,1.1-0.1c0.3-0.1,0.5-0.2,0.8-0.3c0.3-0.2,0.6-0.5,0.7-0.9
			c0.2-0.3,0.2-0.7,0.2-1.2C76.9,229.1,76.9,228.8,76.8,228.5z M74.8,230.2c-0.2,0.2-0.6,0.2-1.1,0.2h-1.3v-2.1h1.3
			c0.5,0,0.9,0.1,1.1,0.3c0.2,0.2,0.3,0.5,0.3,0.8C75.2,229.8,75,230.1,74.8,230.2z"/>
		<path fill="#546E7A" d="M82.9,227l-1.5,3.4l-1.5-3.4H78l2.5,5.1l-1.3,2.5H81l3.9-7.5H82.9z"/>
		<path fill="#546E7A" d="M90.1,230.1l3.4-3.1h-2.2l-3.4,3.2V227h-1.7v7.5H88V232l0.8-0.8l2.7,3.3h2.2L90.1,230.1z"/>
		<path fill="#546E7A" d="M101.7,233.1V227H100v6.2h-3.3V227H95v7.5h7.7v-1.4H101.7z"/>
		<path fill="#546E7A" d="M104.3,224.8v1.5h1.7v-1.5H104.3z M104.3,227v7.5h1.7V227H104.3z"/>
		<path fill="#546E7A" d="M107.4,224.8v1.5h1.7v-1.5H107.4z M108.7,227v7.5h1.7V227H108.7z M110,224.8v1.5h1.7v-1.5H110z"/>
		<path fill="#546E7A" d="M122.5,231.1c-0.2-0.3-0.5-0.5-0.9-0.6c0.3-0.2,0.6-0.4,0.7-0.7c0.1-0.2,0.2-0.5,0.2-0.9
			c0-0.3-0.1-0.5-0.2-0.8c-0.1-0.2-0.3-0.4-0.6-0.6c-0.2-0.2-0.5-0.3-0.9-0.4c-0.3-0.1-0.7-0.2-1.1-0.2c-0.6,0-1.1,0.1-1.5,0.2
			c-0.4,0.2-0.7,0.3-1,0.6c-0.2,0.2-0.4,0.5-0.5,0.7c-0.1,0.2-0.2,0.5-0.2,0.7h1.8c0-0.3,0.1-0.5,0.4-0.7c0.2-0.1,0.5-0.2,0.9-0.2
			c0.5,0,0.8,0.1,0.9,0.2c0.2,0.2,0.2,0.4,0.2,0.6c0,0.2,0,0.3-0.1,0.4c-0.1,0.1-0.2,0.2-0.3,0.3c-0.1,0.1-0.3,0.1-0.4,0.1H119v1.3
			h0.7c0.4,0,0.8,0.1,1,0.2c0.2,0.1,0.3,0.4,0.3,0.8c0,0.3-0.1,0.6-0.4,0.8c-0.3,0.2-0.6,0.2-1.1,0.2c-0.5,0-0.8-0.1-1.1-0.2
			c-0.3-0.2-0.4-0.4-0.4-0.8h-1.8c0,0.3,0.1,0.6,0.3,1c0.2,0.4,0.6,0.7,1.1,0.9c0.5,0.3,1.2,0.4,2,0.4c0.3,0,0.7,0,1-0.1
			c0.4-0.1,0.7-0.2,1.1-0.4c0.3-0.2,0.6-0.4,0.8-0.7c0.2-0.3,0.3-0.6,0.3-1C122.8,231.8,122.7,231.4,122.5,231.1z"/>
		<path fill="#546E7A" d="M133,227l-1.1,4.3c-0.1,0.3-0.1,0.5-0.2,0.8c0,0.3-0.1,0.5-0.1,0.7c-0.1-0.2-0.1-0.5-0.2-0.8
			c-0.1-0.3-0.1-0.5-0.1-0.7l-1-4.3h-2.6v7.5h1.6v-6.2l1.5,6.2h1.7l1.5-6.2v6.2h1.6V227H133z"/>
		<path fill="#546E7A" d="M139.2,233.1v-1.9h3.9v-1.3h-3.9v-1.6h4.3V227h-6v7.5h6.1v-1.4H139.2z"/>
		<path fill="#546E7A" d="M145,227v1.4h2.5v6.2h1.7v-6.2h2.5V227H145z"/>
		<path fill="#546E7A" d="M157.6,227h-1.9l-2.9,7.5h1.8l0.6-1.6h3l0.6,1.6h1.8L157.6,227z M155.5,231.7l1-3l1,3H155.5z"/>
		<path fill="#546E7A" d="M164.7,227c-0.5,0-1,0.1-1.5,0.3c-0.4,0.2-0.8,0.4-1,0.7c-0.2,0.3-0.4,0.6-0.4,1v5.6h1.7v-5.3
			c0-0.6,0.4-0.9,1.2-0.9h2.1v6.2h1.7V227H164.7z"/>
		<path fill="#546E7A" d="M177.9,229.1c-0.2-0.5-0.5-0.9-0.8-1.2c-0.3-0.3-0.8-0.6-1.2-0.8c-0.5-0.2-1-0.3-1.6-0.3
			c-0.8,0-1.5,0.2-2.1,0.5c-0.6,0.3-1.1,0.8-1.4,1.4c-0.3,0.6-0.5,1.3-0.5,2.1c0,0.6,0.1,1.1,0.3,1.6c0.2,0.5,0.5,0.9,0.8,1.2
			c0.4,0.3,0.8,0.6,1.3,0.8c0.5,0.2,1,0.3,1.6,0.3c0.6,0,1.1-0.1,1.6-0.3c0.5-0.2,0.9-0.5,1.2-0.8c0.3-0.4,0.6-0.8,0.8-1.3
			c0.2-0.5,0.3-1,0.3-1.6C178.2,230.1,178.1,229.5,177.9,229.1z M176.2,232c-0.2,0.4-0.4,0.7-0.8,0.9c-0.3,0.2-0.7,0.3-1.2,0.3
			c-0.8,0-1.3-0.3-1.7-0.8c-0.3-0.5-0.5-1.1-0.5-1.9c0-0.4,0.1-0.7,0.2-1c0.1-0.3,0.3-0.6,0.5-0.8c0.2-0.2,0.4-0.4,0.7-0.5
			c0.3-0.1,0.6-0.2,0.9-0.2c0.4,0,0.8,0.1,1.2,0.3c0.3,0.2,0.6,0.5,0.8,0.9c0.2,0.4,0.3,0.8,0.3,1.3
			C176.4,231.2,176.4,231.6,176.2,232z"/>
		<path fill="#546E7A" d="M179.7,227v7.5h1.7v-6.2h3.3v6.2h1.7V227H179.7z"/>
		<path fill="#546E7A" d="M191.1,227c-0.5,0-1,0.1-1.5,0.3c-0.4,0.2-0.8,0.4-1,0.7s-0.4,0.6-0.4,1v5.6h1.7v-5.3
			c0-0.6,0.4-0.9,1.2-0.9h2.1v6.2h1.7V227H191.1z"/>
		<path fill="#546E7A" d="M201.4,227h-1.9l-2.9,7.5h1.8l0.6-1.6h3l0.6,1.6h1.8L201.4,227z M199.3,231.7l1-3l1,3H199.3z"/>
		<path fill="#546E7A" d="M210.3,232.9c-0.3,0.2-0.7,0.3-1.1,0.3c-0.4,0-0.8-0.1-1.1-0.3c-0.3-0.2-0.5-0.5-0.7-0.9
			c-0.2-0.4-0.3-0.8-0.3-1.3c0-0.6,0.1-1,0.3-1.4c0.2-0.4,0.4-0.7,0.7-0.9c0.3-0.2,0.7-0.3,1.2-0.3c0.5,0,0.8,0.1,1.1,0.3
			c0.3,0.2,0.5,0.5,0.6,1h1.7c0-0.4-0.2-0.8-0.3-1.1c-0.2-0.3-0.4-0.6-0.7-0.8c-0.3-0.2-0.7-0.4-1.1-0.5c-0.4-0.1-0.9-0.2-1.3-0.2
			c-0.6,0-1.1,0.1-1.6,0.3c-0.5,0.2-0.9,0.5-1.2,0.8c-0.3,0.3-0.6,0.8-0.8,1.3c-0.2,0.5-0.3,1-0.3,1.6c0,0.6,0.1,1.1,0.3,1.6
			c0.2,0.5,0.4,0.9,0.8,1.2c0.3,0.3,0.7,0.6,1.2,0.8c0.5,0.2,1,0.3,1.6,0.3c0.4,0,0.8,0,1.1-0.1c0.4-0.1,0.7-0.2,1-0.4
			c0.3-0.2,0.5-0.4,0.8-0.7c0.2-0.2,0.3-0.4,0.4-0.7c0.1-0.2,0.2-0.5,0.2-0.8h-1.7C210.8,232.3,210.6,232.7,210.3,232.9z"/>
		<path fill="#546E7A" d="M213.6,227v1.4h2.5v6.2h1.7v-6.2h2.5V227H213.6z"/>
		<path fill="#546E7A" d="M227,227l-3.4,5.3V227H222v7.5h1.6l3.5-5.3v5.3h1.6V227H227z"/>
		<path fill="#546E7A" d="M234.3,230.1l3.4-3.1h-2.2l-3.4,3.2V227h-1.7v7.5h1.7V232l0.8-0.8l2.7,3.3h2.2L234.3,230.1z"/>
		<path fill="#546E7A" d="M243.6,227l-1.5,3.4l-1.5-3.4h-1.9l2.5,5.1l-1.3,2.5h1.9l3.9-7.5H243.6z"/>
	</g>
</g>
</svg>
