<!-- Generator: Adobe Illustrator 18.1.1, SVG Export Plug-In  -->
<svg version="1.1"
   xmlns="http://www.w3.org/2000/svg" xmlns:xlink="http://www.w3.org/1999/xlink" xmlns:a="http://ns.adobe.com/AdobeSVGViewerExtensions/3.0/"
   x="0px" y="0px" width="38.7px" height="55.4px" viewBox="0 0 38.7 55.4" enable-background="new 0 0 38.7 55.4"
   xml:space="preserve">
<defs>
</defs>
<g>
  <g>
    <path fill="#ECEFF1" d="M6.3,25.3c1.1,0,2,0.4,2.8,1.1l-0.6-1.8l9.6-3l3,9.6l-9.6,3l-0.9-2.8c-0.3,1.2-1,2.2-1.9,2.9
      c1.8,1.9,4.2,2.9,11.9,0.8l0,0l5.1-1.5l12.9-4L29.6,0L0,9.2l5,16.3C5.4,25.3,5.9,25.3,6.3,25.3L6.3,25.3z M34.1,27.2L34.1,27.2
      l-9.6,2.9l-3-9.6l9.6-3L34.1,27.2z M27.2,4.6L27.2,4.6l3,9.6l-9.6,3l-3-9.6L27.2,4.6z M14.1,8.6L14.1,8.6l3,9.6l-9.6,3l-3-9.6
      L14.1,8.6z"/>
  </g>
  <g>
    <path fill="#ECEFF1" d="M26.3,36.8l-0.6-2l-5.1,1.6l0,0c-10,2.8-11.1,0.3-13.5-2.7c-0.3,0.1-0.6,0.1-0.9,0.1
      c-0.6,0-1.1-0.2-1.5-0.4c0.4,0.2,0.8,0.3,1.2,0.3c1.8,0,3.3-1.4,3.4-3.2c0-1.8-1.4-3.4-3.2-3.4c-1.8-0.1-3.3,1.4-3.4,3.2
      c-0.1,0.7-0.2,1.4-0.2,2.1c-0.1,4.3,1.4,8.1,4,10.5l16.7-5.2l0,0L26.3,36.8z M4.2,33.1L4.2,33.1C4.2,33.1,4.2,33.1,4.2,33.1
      C4.2,33.1,4.2,33.1,4.2,33.1L4.2,33.1z"/>
  </g>
  <g>
    <path fill="#ECEFF1" d="M24.1,49.1c-3.6-5.8-7.8-7.6-7.8-7.6L6.2,44.7C4.4,49.5,4,55.4,4,55.4h5.3c0.6-3.9,1.6-6,4.8-6
      c3.2,0,6.3,2.1,7.8,6l5.1,0C26.9,55.4,27.1,53.9,24.1,49.1L24.1,49.1z"/>
  </g>
</g>
</svg>
