<!-- Generator: Adobe Illustrator 18.1.1, SVG Export Plug-In  -->
<svg version="1.1"
   xmlns="http://www.w3.org/2000/svg" xmlns:xlink="http://www.w3.org/1999/xlink" xmlns:a="http://ns.adobe.com/AdobeSVGViewerExtensions/3.0/"
   x="0px" y="0px" width="41.6px" height="59.6px" viewBox="0 0 41.6 59.6" enable-background="new 0 0 41.6 59.6"
   xml:space="preserve">
<defs>
</defs>
<g>
  <g>
    <path fill="#00A656" d="M6.8,27.2c1.1,0,2.2,0.5,3,1.2l-0.6-1.9l10.3-3.2l3.2,10.3l-10.3,3.2l-0.9-3c-0.3,1.3-1.1,2.4-2.1,3.1
      c1.9,2,4.5,3.1,12.8,0.9l0,0l5.5-1.6l13.9-4.3L31.8,0L0,9.8l5.4,17.5C5.9,27.2,6.3,27.2,6.8,27.2L6.8,27.2z M36.7,29.3L36.7,29.3
      l-10.3,3.2l-3.2-10.3L33.5,19L36.7,29.3z M29.2,4.9L29.2,4.9l3.2,10.3l-10.3,3.2L18.9,8.1L29.2,4.9z M15.2,9.2L15.2,9.2l3.2,10.3
      L8.1,22.7L4.9,12.4L15.2,9.2z"/>
  </g>
  <g>
    <path fill="#78909C" d="M28.3,39.5l-0.6-2.1l-5.5,1.7l0,0c-10.7,3-11.9,0.3-14.5-2.9c-0.3,0.1-0.6,0.1-1,0.1
      c-0.6,0-1.2-0.2-1.7-0.4c0.4,0.2,0.9,0.3,1.3,0.3c2,0,3.6-1.5,3.7-3.4c0-2-1.5-3.6-3.4-3.7C4.6,29,3,30.6,2.9,32.5
      c-0.1,0.7-0.2,1.5-0.2,2.3c-0.1,4.6,1.5,8.7,4.3,11.3l18-5.5l0,0L28.3,39.5z M4.6,35.6L4.6,35.6C4.6,35.6,4.5,35.6,4.6,35.6
      C4.5,35.6,4.6,35.6,4.6,35.6L4.6,35.6z"/>
  </g>
  <g>
    <path fill="#78909C" d="M25.9,52.8c-3.8-6.3-8.4-8.2-8.4-8.2L6.6,48.1c-2,5.1-2.3,11.5-2.3,11.5H10c0.6-4.2,1.8-6.4,5.2-6.4
      c3.4,0,6.8,2.2,8.3,6.4l5.4,0C28.9,59.6,29.2,58,25.9,52.8L25.9,52.8z"/>
  </g>
</g>
</svg>
