<?xml version="1.0" encoding="utf-8"?>
<!-- Generator: Adobe Illustrator 18.0.0, SVG Export Plug-In . SVG Version: 6.00 Build 0)  -->
<!DOCTYPE svg PUBLIC "-//W3C//DTD SVG 1.1//EN" "http://www.w3.org/Graphics/SVG/1.1/DTD/svg11.dtd">
<svg version="1.1" id="Layer_1" xmlns="http://www.w3.org/2000/svg" xmlns:xlink="http://www.w3.org/1999/xlink" x="0px" y="0px"
	 viewBox="0 0 40 40" enable-background="new 0 0 40 40" xml:space="preserve">
<path d="M9.8,26.8l1.8-1.8l1.4,1.4l1.1-1l-1.4-1.4l1.4-1.4l2.5,2.5l1.1-1.1l-2.5-2.5l1.4-1.4l1.4,1.4l1.1-1.1
	L17.6,19l1.4-1.4l2.5,2.5l1.1-1.1L20,16.5l1.4-1.4l1.4,1.4l1.1-1.1L22.5,14l1.4-1.4l2.5,2.5l1.1-1.1L25,11.5l1.8-1.8L31,14L14,31
	L9.8,26.8z"/>
</svg>
