<?xml version="1.0" encoding="utf-8"?>
<!-- Generator: Adobe Illustrator 18.0.0, SVG Export Plug-In . SVG Version: 6.00 Build 0)  -->
<!DOCTYPE svg PUBLIC "-//W3C//DTD SVG 1.1//EN" "http://www.w3.org/Graphics/SVG/1.1/DTD/svg11.dtd">
<svg version="1.1" id="Layer_1" xmlns="http://www.w3.org/2000/svg" xmlns:xlink="http://www.w3.org/1999/xlink" x="0px" y="0px"
	 viewBox="0 0 40 40" enable-background="new 0 0 40 40" xml:space="preserve">
<path d="M23.3,10.8c-2.1,0.7-3.4,2.7-3.2,4.8l0,0.8l-0.8-0.1c-3-0.4-5.6-1.7-7.8-3.9l-1.1-1.1l-0.3,0.8
	c-0.6,1.8-0.2,3.7,1,4.9c0.7,0.7,0.5,0.8-0.6,0.4c-0.4-0.1-0.7-0.2-0.8-0.2c-0.1,0.1,0.3,1.6,0.6,2.2c0.4,0.8,1.3,1.6,2.3,2.1
	l0.8,0.4l-1,0c-0.9,0-1,0-0.9,0.4c0.3,1.1,1.6,2.2,3.1,2.7l1,0.3L14.8,26c-1.3,0.8-2.9,1.2-4.4,1.2c-0.7,0-1.3,0.1-1.3,0.1
	c0,0.2,2,1.1,3.2,1.5c3.5,1.1,7.7,0.6,10.8-1.2c2.2-1.3,4.4-3.9,5.5-6.4c0.6-1.3,1.1-3.8,1.1-5c0-0.8,0-0.9,1-1.8
	c0.5-0.5,1.1-1.1,1.2-1.3c0.2-0.3,0.1-0.3-0.7,0c-1.4,0.5-1.6,0.4-0.9-0.3c0.5-0.5,1.1-1.5,1.1-1.8c0,0-0.2,0-0.5,0.2
	c-0.3,0.2-1,0.4-1.4,0.6L28.3,12l-0.8-0.6c-0.4-0.3-1.1-0.6-1.4-0.7C25.3,10.5,24,10.5,23.3,10.8z"/>
<g>
	<path d="M38,2v36H2V2H38 M40,0H0v40h40V0L40,0z"/>
</g>
</svg>
